<svg id="svg" version="1.1" xmlns="http://www.w3.org/2000/svg" xmlns:xlink="http://www.w3.org/1999/xlink" width="400" height="400" viewBox="0, 0, 400,400"><g id="svgg"><path id="path0" d="M219.415 99.224 C 219.521 99.396,218.301 99.629,216.704 99.743 C 212.706 100.027,210.271 100.415,209.820 100.841 C 209.611 101.038,208.658 101.200,207.702 101.200 C 206.428 101.200,205.721 101.443,205.056 102.108 C 204.557 102.607,202.810 103.450,201.174 103.982 C 199.538 104.514,197.390 105.293,196.400 105.714 C 195.410 106.135,194.240 106.620,193.800 106.792 C 182.754 111.103,170.048 120.419,161.600 130.401 C 160.390 131.830,159.301 133.090,159.179 133.200 C 159.058 133.310,158.338 134.296,157.579 135.391 C 156.821 136.485,155.926 137.690,155.591 138.068 C 155.256 138.446,154.006 140.476,152.813 142.578 C 151.619 144.680,150.486 146.400,150.293 146.400 C 149.540 146.400,148.329 148.409,146.737 152.300 C 146.444 153.015,146.048 153.600,145.856 153.600 C 145.664 153.600,145.598 153.948,145.709 154.374 C 145.820 154.800,145.620 155.565,145.263 156.074 C 144.906 156.583,144.651 157.043,144.696 157.096 C 144.805 157.223,144.439 158.365,143.893 159.600 C 143.650 160.150,143.430 160.960,143.404 161.400 C 143.378 161.840,143.148 162.581,142.893 163.047 C 142.637 163.513,142.531 163.998,142.658 164.124 C 143.193 164.659,141.788 166.800,140.902 166.800 C 140.406 166.800,140.000 166.620,140.000 166.400 C 140.000 166.180,139.291 166.000,138.424 166.000 C 137.557 166.000,136.736 165.820,136.600 165.600 C 136.464 165.380,135.363 165.200,134.153 165.200 C 132.865 165.200,132.050 165.042,132.188 164.820 C 132.496 164.320,119.700 164.319,118.766 164.818 C 118.384 165.023,117.246 165.237,116.236 165.295 C 115.226 165.353,114.400 165.535,114.400 165.700 C 114.400 165.865,113.781 166.000,113.024 166.000 C 112.267 166.000,111.536 166.180,111.400 166.400 C 111.264 166.620,110.533 166.800,109.776 166.800 C 109.019 166.800,108.400 166.980,108.400 167.200 C 108.400 167.420,107.860 167.600,107.200 167.600 C 106.540 167.600,105.999 167.735,105.997 167.900 C 105.993 168.259,104.056 169.200,103.320 169.200 C 103.034 169.200,102.800 169.380,102.800 169.600 C 102.800 169.820,102.440 170.000,102.000 170.000 C 101.560 170.000,101.200 170.180,101.200 170.400 C 101.200 170.620,100.840 170.800,100.400 170.800 C 99.960 170.800,99.600 170.980,99.600 171.200 C 99.600 171.420,99.330 171.600,99.000 171.600 C 98.670 171.600,98.400 171.780,98.400 172.000 C 98.400 172.220,98.130 172.400,97.800 172.400 C 97.470 172.400,97.200 172.580,97.200 172.800 C 97.200 173.020,96.930 173.200,96.600 173.200 C 96.270 173.200,96.000 173.380,96.000 173.600 C 96.000 173.820,95.752 174.000,95.449 174.000 C 95.147 174.000,94.122 174.731,93.173 175.626 C 92.224 176.520,91.265 177.285,91.043 177.326 C 90.309 177.461,84.002 184.093,82.691 186.110 C 82.052 187.092,80.809 187.757,81.400 186.800 C 81.554 186.550,80.737 186.400,79.224 186.400 C 77.875 186.400,76.800 186.223,76.800 186.000 C 76.800 185.765,75.397 185.600,73.392 185.600 L 69.985 185.600 70.225 186.700 C 70.357 187.305,70.984 189.510,71.617 191.600 C 72.250 193.690,73.246 197.020,73.830 199.000 C 78.525 214.923,91.252 240.257,101.379 253.837 C 102.051 254.737,103.590 256.875,104.800 258.589 C 106.010 260.302,107.183 261.905,107.407 262.152 C 107.630 262.398,109.249 264.310,111.004 266.400 C 112.759 268.490,114.733 270.830,115.391 271.600 C 119.221 276.083,130.710 287.230,136.268 291.857 L 142.737 297.243 141.912 298.921 C 141.458 299.845,140.954 300.960,140.793 301.400 C 140.632 301.840,140.297 302.703,140.050 303.319 C 139.802 303.934,139.600 304.843,139.600 305.339 C 139.600 305.834,139.437 306.411,139.239 306.620 C 138.776 307.107,138.387 310.090,138.225 314.400 L 138.097 317.800 138.424 315.000 C 138.604 313.460,138.874 311.072,139.024 309.694 C 139.174 308.315,139.455 307.089,139.649 306.970 C 139.842 306.851,140.000 306.322,140.000 305.795 C 140.000 305.269,140.202 304.334,140.450 303.719 C 140.697 303.103,141.038 302.240,141.208 301.800 C 141.480 301.094,142.781 298.146,144.121 295.200 C 146.146 290.747,153.803 283.331,159.437 280.367 C 161.176 279.451,162.780 278.567,163.000 278.401 C 163.458 278.058,167.429 276.708,169.800 276.090 C 173.010 275.254,176.310 274.800,179.024 274.822 C 181.432 274.841,183.369 275.096,189.900 276.257 L 191.200 276.488 191.261 273.744 C 191.294 272.235,191.354 270.820,191.394 270.600 C 191.434 270.380,191.593 269.120,191.749 267.800 C 192.024 265.464,192.219 264.532,193.214 260.800 C 194.272 256.832,198.081 247.973,198.860 247.667 C 199.047 247.593,199.200 247.360,199.200 247.149 C 199.200 245.492,211.337 231.600,212.784 231.600 C 212.982 231.600,213.381 231.365,213.671 231.078 C 220.680 224.157,237.990 219.258,251.308 220.427 C 258.945 221.097,263.086 222.310,271.884 226.455 C 273.251 227.099,274.601 227.848,274.884 228.119 C 275.168 228.390,276.726 229.509,278.347 230.606 C 287.366 236.710,295.634 248.041,299.018 258.936 L 300.117 262.473 301.559 262.250 C 317.445 259.796,327.415 263.114,336.489 273.878 C 337.654 275.259,337.846 275.275,342.520 274.371 C 348.670 273.182,358.758 274.737,364.800 277.805 C 373.077 282.009,377.796 286.124,383.119 293.781 L 384.439 295.678 385.214 294.739 C 385.640 294.223,386.396 293.296,386.894 292.680 C 387.393 292.065,388.025 291.313,388.300 291.009 C 388.575 290.705,388.800 290.292,388.800 290.091 C 388.800 289.889,389.160 289.398,389.600 289.000 C 390.040 288.602,390.400 288.034,390.400 287.738 C 390.400 287.442,390.566 287.200,390.768 287.200 C 390.971 287.200,391.255 286.660,391.400 286.000 C 391.545 285.340,391.784 284.799,391.932 284.797 C 392.266 284.793,393.200 282.823,393.200 282.120 C 393.200 281.834,393.380 281.600,393.600 281.600 C 393.820 281.600,394.000 281.240,394.000 280.800 C 394.000 280.360,394.180 280.000,394.400 280.000 C 394.620 280.000,394.800 279.640,394.800 279.200 C 394.800 278.760,394.980 278.400,395.200 278.400 C 395.420 278.400,395.600 278.040,395.600 277.600 C 395.600 277.160,395.780 276.800,396.000 276.800 C 396.220 276.800,396.400 276.348,396.400 275.795 C 396.400 275.242,396.559 274.477,396.753 274.095 C 397.777 272.082,398.800 268.812,398.800 267.552 C 398.800 267.006,399.025 266.335,399.300 266.060 C 399.680 265.679,399.800 262.297,399.800 251.913 C 399.800 241.351,399.687 238.229,399.300 238.100 C 399.025 238.008,398.800 237.419,398.800 236.790 C 398.800 236.162,398.644 235.551,398.454 235.433 C 398.264 235.316,398.012 234.506,397.895 233.634 C 397.778 232.762,397.394 231.470,397.041 230.763 C 396.689 230.056,396.400 229.160,396.400 228.772 C 396.400 228.384,396.222 228.007,396.003 227.933 C 395.785 227.860,395.567 227.318,395.519 226.729 C 395.470 226.140,395.288 225.745,395.115 225.852 C 394.942 225.960,394.800 225.711,394.800 225.299 C 394.800 224.888,394.445 224.170,394.012 223.705 C 393.457 223.110,393.368 222.800,393.712 222.661 C 394.088 222.509,394.085 222.456,393.700 222.432 C 393.425 222.414,393.200 222.164,393.200 221.875 C 393.200 221.587,392.885 220.995,392.500 220.560 C 392.115 220.125,391.760 219.567,391.712 219.319 C 391.663 219.072,391.168 218.199,390.612 217.379 C 390.055 216.559,389.600 215.745,389.600 215.569 C 389.600 215.393,389.060 214.658,388.400 213.936 C 387.740 213.213,387.200 212.455,387.200 212.251 C 387.200 212.047,386.289 211.007,385.176 209.940 C 384.064 208.873,383.287 208.000,383.452 208.000 C 383.616 208.000,383.367 207.643,382.899 207.206 C 382.430 206.770,381.901 206.183,381.723 205.904 C 381.545 205.624,380.750 204.911,379.956 204.320 C 379.161 203.728,377.755 202.518,376.832 201.631 C 375.908 200.743,374.623 199.705,373.976 199.322 C 373.329 198.940,372.800 198.508,372.800 198.362 C 372.800 198.216,372.260 197.873,371.600 197.600 C 370.940 197.327,370.400 196.945,370.400 196.751 C 370.400 196.558,370.130 196.400,369.800 196.400 C 369.470 196.400,369.200 196.223,369.200 196.008 C 369.200 195.792,368.757 195.504,368.216 195.368 C 367.675 195.233,367.023 194.869,366.767 194.561 C 366.511 194.252,365.964 194.000,365.551 194.000 C 365.138 194.000,364.800 193.820,364.800 193.600 C 364.800 193.380,364.665 193.238,364.500 193.285 C 364.335 193.332,363.750 193.121,363.200 192.817 C 362.650 192.513,362.154 192.297,362.098 192.337 C 362.042 192.377,361.345 192.137,360.549 191.805 C 359.753 191.472,358.854 191.200,358.551 191.200 C 358.248 191.200,358.000 191.020,358.000 190.800 C 358.000 190.580,357.550 190.400,357.000 190.400 C 356.450 190.400,356.000 190.220,356.000 190.000 C 356.000 189.780,355.359 189.600,354.576 189.600 C 353.793 189.600,353.245 189.450,353.359 189.267 C 353.472 189.083,353.308 188.933,352.994 188.933 C 352.054 188.933,347.852 187.957,347.105 187.565 C 346.723 187.364,345.328 187.200,344.005 187.200 C 342.682 187.200,341.600 187.049,341.600 186.865 C 341.600 186.408,330.686 186.338,330.405 186.793 C 330.281 186.992,328.605 187.190,326.680 187.232 C 324.755 187.274,323.084 187.465,322.966 187.655 C 322.849 187.845,322.148 188.000,321.410 188.000 C 320.671 188.000,320.007 188.172,319.933 188.382 C 319.860 188.593,319.080 188.808,318.200 188.860 C 317.320 188.912,316.468 189.145,316.306 189.378 C 316.144 189.610,315.999 188.180,315.982 186.200 C 315.934 180.562,315.352 173.901,314.793 172.600 C 314.436 171.769,314.112 169.952,313.740 166.700 C 313.621 165.655,313.360 164.800,313.161 164.800 C 312.963 164.800,312.800 164.159,312.800 163.376 C 312.800 162.529,312.638 162.053,312.400 162.200 C 312.167 162.344,312.000 161.945,312.000 161.247 C 312.000 160.587,311.820 159.936,311.600 159.800 C 311.380 159.664,311.200 159.023,311.200 158.376 C 311.200 157.729,311.020 157.200,310.800 157.200 C 310.580 157.200,310.400 156.750,310.400 156.200 C 310.400 155.650,310.220 155.200,310.000 155.200 C 309.780 155.200,309.600 154.750,309.600 154.200 C 309.600 153.650,309.420 153.200,309.200 153.200 C 308.980 153.200,308.800 152.765,308.800 152.233 C 308.800 151.702,308.665 151.207,308.500 151.133 C 308.335 151.060,307.777 150.100,307.261 149.000 C 305.307 144.841,305.065 144.400,304.737 144.400 C 304.552 144.400,304.400 144.083,304.400 143.696 C 304.400 143.309,304.056 142.778,303.637 142.516 C 303.217 142.253,302.463 141.310,301.963 140.419 C 301.462 139.529,300.906 138.800,300.726 138.800 C 300.547 138.800,300.400 138.480,300.400 138.088 C 300.400 137.697,300.040 137.117,299.600 136.800 C 299.160 136.483,298.800 136.076,298.800 135.895 C 298.800 135.714,298.440 135.180,298.000 134.708 C 297.560 134.236,297.200 133.602,297.200 133.301 C 297.200 132.999,297.020 132.864,296.800 133.000 C 296.580 133.136,296.400 132.991,296.400 132.678 C 296.400 132.365,295.925 131.635,295.345 131.055 C 294.765 130.475,294.414 130.000,294.564 130.000 C 294.714 130.000,294.378 129.542,293.818 128.982 C 293.258 128.422,292.800 127.807,292.800 127.614 C 292.800 127.118,289.745 124.000,289.258 124.000 C 289.036 124.000,288.740 123.640,288.600 123.200 C 288.460 122.760,288.058 122.400,287.706 122.400 C 287.355 122.400,287.181 122.286,287.320 122.147 C 287.580 121.887,285.665 120.200,285.110 120.200 C 284.939 120.200,284.776 120.020,284.746 119.800 C 284.681 119.319,282.740 117.601,282.260 117.600 C 282.074 117.600,281.422 117.066,280.813 116.414 C 280.204 115.762,279.596 115.338,279.462 115.471 C 279.328 115.605,279.105 115.419,278.967 115.057 C 278.828 114.696,278.448 114.400,278.123 114.400 C 277.575 114.400,274.480 112.425,273.298 111.322 C 273.017 111.059,271.574 110.276,270.093 109.583 C 268.612 108.889,267.087 108.159,266.705 107.961 C 266.323 107.762,265.738 107.600,265.405 107.600 C 265.072 107.600,264.800 107.420,264.800 107.200 C 264.800 106.980,264.440 106.800,264.000 106.800 C 263.560 106.800,263.200 106.620,263.200 106.400 C 263.200 106.180,262.739 106.000,262.176 106.000 C 261.596 106.000,261.260 105.827,261.400 105.600 C 261.540 105.373,261.204 105.200,260.624 105.200 C 260.061 105.200,259.600 105.020,259.600 104.800 C 259.600 104.580,259.161 104.400,258.624 104.400 C 258.087 104.400,257.536 104.220,257.400 104.000 C 257.264 103.780,256.803 103.600,256.376 103.600 C 255.949 103.600,255.600 103.420,255.600 103.200 C 255.600 102.980,254.869 102.800,253.976 102.800 C 252.996 102.800,252.451 102.642,252.600 102.400 C 252.740 102.174,252.411 102.000,251.843 102.000 C 251.291 102.000,249.795 101.707,248.520 101.349 C 246.107 100.672,243.095 100.166,239.000 99.749 C 237.680 99.615,236.340 99.302,236.023 99.053 C 235.561 98.690,235.516 98.719,235.800 99.200 C 236.097 99.705,236.053 99.718,235.519 99.286 C 234.809 98.711,219.060 98.650,219.415 99.224 M62.800 317.958 C 62.800 318.154,63.250 318.289,63.800 318.258 C 65.103 318.182,65.103 317.600,63.800 317.600 C 63.250 317.600,62.800 317.761,62.800 317.958 M84.500 318.300 C 94.345 318.359,110.455 318.359,120.300 318.300 C 130.145 318.240,122.090 318.192,102.400 318.192 C 82.710 318.192,74.655 318.240,84.500 318.300 " stroke="none" fill="#bcecfc" fill-rule="evenodd"></path><path id="path1" d="M204.189 102.122 C 203.755 102.409,202.050 103.072,200.400 103.596 C 198.750 104.120,196.590 104.893,195.600 105.314 C 194.610 105.735,193.440 106.227,193.000 106.406 C 192.560 106.586,191.615 106.972,190.900 107.264 C 190.185 107.556,189.600 107.931,189.600 108.098 C 189.600 108.264,189.255 108.400,188.833 108.400 C 188.412 108.400,188.007 108.535,187.933 108.700 C 187.860 108.865,186.900 109.446,185.800 109.991 C 178.163 113.773,166.278 123.489,160.596 130.596 C 159.718 131.694,158.666 132.954,158.258 133.396 C 157.131 134.618,152.903 140.961,151.506 143.526 C 150.825 144.777,150.073 145.932,149.834 146.094 C 149.560 146.280,149.629 146.390,150.022 146.394 C 150.392 146.398,151.520 144.856,152.813 142.578 C 154.006 140.476,155.256 138.446,155.591 138.068 C 155.926 137.690,156.821 136.485,157.579 135.391 C 158.338 134.296,159.058 133.310,159.179 133.200 C 159.301 133.090,160.390 131.830,161.600 130.401 C 170.048 120.419,182.754 111.103,193.800 106.792 C 194.240 106.620,195.410 106.132,196.400 105.707 C 197.390 105.282,199.579 104.501,201.264 103.971 C 202.949 103.442,204.525 102.691,204.767 102.304 C 205.293 101.462,205.221 101.439,204.189 102.122 M60.800 185.209 C 60.800 185.424,59.735 185.600,58.433 185.600 C 56.896 185.600,56.008 185.775,55.898 186.100 C 55.765 186.496,55.600 186.493,55.104 186.083 C 54.697 185.748,54.429 185.714,54.337 185.988 C 54.260 186.219,53.343 186.446,52.299 186.491 C 51.254 186.537,50.400 186.715,50.400 186.887 C 50.400 187.059,49.635 187.203,48.700 187.206 C 47.455 187.211,47.161 187.316,47.600 187.600 C 48.070 187.904,47.969 187.989,47.133 187.994 C 46.547 187.997,45.976 188.225,45.865 188.500 C 45.730 188.835,45.653 188.848,45.632 188.538 C 45.592 187.952,43.611 188.791,43.597 189.400 C 43.592 189.620,43.413 189.530,43.200 189.200 C 42.942 188.800,42.810 188.767,42.806 189.100 C 42.803 189.375,42.326 189.600,41.747 189.600 C 41.168 189.600,40.403 189.923,40.047 190.317 C 39.691 190.711,38.590 191.283,37.600 191.588 C 36.610 191.893,35.454 192.425,35.031 192.771 C 34.432 193.262,34.337 193.273,34.603 192.821 C 34.796 192.494,34.409 192.624,33.710 193.121 C 33.032 193.605,32.313 194.000,32.114 194.000 C 31.914 194.000,31.393 194.315,30.955 194.700 C 30.162 195.398,29.096 196.070,27.200 197.068 C 26.650 197.358,26.438 197.596,26.729 197.598 C 27.135 197.599,27.119 197.738,26.657 198.200 C 26.327 198.530,25.774 198.800,25.429 198.800 C 25.083 198.800,24.800 198.980,24.800 199.200 C 24.800 199.420,24.614 199.600,24.387 199.600 C 24.159 199.600,23.445 200.140,22.800 200.800 C 22.155 201.460,21.441 202.000,21.213 202.000 C 20.986 202.000,20.845 202.135,20.900 202.300 C 20.955 202.465,20.834 202.690,20.631 202.800 C 19.855 203.221,17.600 205.606,17.600 206.005 C 17.600 206.236,17.285 206.543,16.900 206.688 C 15.969 207.037,14.000 209.151,14.000 209.800 C 14.000 210.083,13.728 210.419,13.396 210.546 C 13.064 210.673,12.816 210.918,12.844 211.089 C 13.014 212.125,12.785 212.596,12.400 212.000 C 12.088 211.517,12.011 211.581,12.006 212.324 C 12.003 212.832,11.839 213.148,11.642 213.026 C 11.290 212.808,10.612 213.912,10.736 214.500 C 10.771 214.665,10.609 214.800,10.376 214.800 C 10.143 214.800,10.057 214.969,10.185 215.175 C 10.312 215.382,10.098 215.736,9.708 215.963 C 9.153 216.287,9.130 216.381,9.600 216.400 C 10.070 216.419,10.047 216.513,9.492 216.837 C 9.102 217.064,8.906 217.463,9.056 217.725 C 9.206 217.986,9.188 218.074,9.017 217.919 C 8.603 217.547,7.600 218.575,7.600 219.371 C 7.600 219.717,7.420 220.000,7.200 220.000 C 6.980 220.000,6.800 220.360,6.800 220.800 C 6.800 221.240,6.643 221.600,6.450 221.600 C 6.258 221.600,6.100 222.088,6.100 222.683 C 6.100 223.279,5.898 223.834,5.650 223.917 C 5.403 223.999,5.200 224.512,5.200 225.057 C 5.200 225.615,5.026 225.939,4.800 225.800 C 4.580 225.664,4.400 225.908,4.400 226.343 C 4.400 226.778,4.175 227.224,3.900 227.335 C 3.510 227.492,3.514 227.544,3.916 227.568 C 4.255 227.589,4.152 227.899,3.615 228.476 C 2.998 229.139,2.921 229.429,3.299 229.670 C 3.699 229.924,3.700 229.989,3.300 229.994 C 3.025 229.997,2.800 230.270,2.800 230.600 C 2.800 230.930,2.620 231.200,2.400 231.200 C 2.180 231.200,2.000 231.819,2.000 232.576 C 2.000 233.333,1.832 234.057,1.627 234.183 C 1.422 234.310,1.270 234.968,1.289 235.645 C 1.308 236.322,1.135 236.994,0.904 237.138 C 0.672 237.282,0.464 237.940,0.441 238.600 C -0.132 254.817,0.022 264.681,0.840 264.175 C 1.038 264.053,1.200 264.233,1.200 264.576 C 1.200 264.919,0.984 265.200,0.720 265.200 C 0.347 265.200,0.347 265.307,0.720 265.680 C 0.984 265.944,1.200 266.754,1.200 267.480 C 1.200 268.206,1.380 268.800,1.600 268.800 C 1.820 268.800,2.003 269.565,2.006 270.500 C 2.011 271.745,2.116 272.039,2.400 271.600 C 2.694 271.145,2.789 271.314,2.794 272.300 C 2.797 273.015,2.980 273.600,3.200 273.600 C 3.420 273.600,3.600 273.960,3.600 274.400 C 3.600 274.840,3.780 275.200,4.000 275.200 C 4.220 275.200,4.400 275.560,4.400 276.000 C 4.400 276.440,4.625 276.803,4.900 276.806 C 5.236 276.810,5.203 276.944,4.800 277.214 C 4.286 277.559,4.329 277.725,5.100 278.372 C 5.998 279.126,6.359 279.869,5.600 279.400 C 5.380 279.264,5.200 279.343,5.200 279.576 C 5.200 279.809,5.335 280.001,5.500 280.003 C 6.007 280.007,7.220 282.444,6.940 282.897 C 6.784 283.149,6.866 283.207,7.138 283.038 C 7.408 282.872,7.600 282.999,7.600 283.343 C 7.600 283.668,7.825 284.024,8.100 284.135 C 8.447 284.275,8.420 284.346,8.011 284.368 C 7.605 284.390,7.699 284.594,8.311 285.023 C 8.800 285.365,9.200 285.905,9.200 286.223 C 9.200 286.540,9.410 286.800,9.667 286.800 C 9.923 286.800,10.025 286.908,9.892 287.041 C 9.619 287.314,12.221 291.165,13.137 291.845 C 13.467 292.089,13.786 292.629,13.845 293.045 C 13.905 293.460,14.256 293.980,14.624 294.200 C 14.993 294.420,15.597 294.870,15.966 295.200 C 16.336 295.530,16.404 295.643,16.119 295.451 C 15.053 294.734,15.659 295.621,17.426 297.363 C 18.430 298.352,19.602 299.274,20.031 299.410 C 20.461 299.546,20.708 299.825,20.582 300.029 C 20.456 300.233,20.588 300.401,20.876 300.403 C 21.164 300.404,21.708 300.946,22.083 301.606 C 22.459 302.267,23.224 302.981,23.783 303.194 C 24.343 303.406,24.800 303.765,24.800 303.990 C 24.800 304.216,25.027 304.400,25.304 304.400 C 25.581 304.400,26.040 304.772,26.324 305.227 C 26.608 305.681,27.034 305.989,27.272 305.909 C 27.509 305.830,28.206 306.268,28.821 306.882 C 29.453 307.514,30.190 307.902,30.521 307.775 C 30.860 307.645,31.440 307.979,31.909 308.576 C 32.353 309.139,33.105 309.600,33.581 309.600 C 34.057 309.600,34.336 309.780,34.200 310.000 C 34.064 310.220,34.323 310.400,34.776 310.400 C 35.229 310.400,35.600 310.580,35.600 310.800 C 35.600 311.020,36.130 311.200,36.777 311.200 C 37.509 311.200,38.171 311.509,38.527 312.017 C 38.841 312.466,39.257 312.805,39.449 312.769 C 40.348 312.605,40.826 312.836,40.547 313.300 C 40.372 313.591,40.561 313.550,41.000 313.200 C 41.439 312.850,41.628 312.809,41.453 313.100 C 41.264 313.415,41.385 313.600,41.782 313.600 C 42.128 313.600,42.723 313.762,43.105 313.961 C 43.487 314.160,44.610 314.557,45.600 314.844 C 46.590 315.131,47.532 315.554,47.694 315.783 C 47.879 316.046,47.990 315.997,47.994 315.651 C 47.999 315.235,48.131 315.211,48.540 315.551 C 48.838 315.797,49.558 316.039,50.140 316.087 C 50.723 316.135,51.200 316.270,51.201 316.387 C 51.201 316.504,51.876 316.648,52.701 316.707 C 53.525 316.766,54.263 316.998,54.339 317.224 C 54.426 317.480,54.716 317.440,55.116 317.117 C 55.467 316.833,55.632 316.802,55.484 317.050 C 55.297 317.362,56.035 317.518,57.908 317.562 C 61.043 317.636,61.622 317.711,62.300 318.135 C 62.582 318.311,62.800 318.262,62.800 318.024 C 62.800 317.425,64.698 317.494,64.902 318.100 C 65.030 318.481,65.246 318.458,65.812 318.000 C 66.406 317.520,66.485 317.513,66.211 317.968 C 65.951 318.399,66.037 318.472,66.567 318.268 C 66.951 318.121,83.168 318.000,102.604 318.000 L 137.943 318.000 138.147 314.500 C 138.418 309.832,138.799 307.082,139.239 306.620 C 139.437 306.411,139.600 305.834,139.600 305.339 C 139.600 304.843,139.802 303.934,140.050 303.319 C 140.297 302.703,140.632 301.840,140.793 301.400 C 140.954 300.960,141.458 299.845,141.912 298.921 L 142.737 297.243 136.268 291.857 C 130.710 287.230,119.221 276.083,115.391 271.600 C 114.733 270.830,112.759 268.490,111.004 266.400 C 109.249 264.310,107.630 262.398,107.407 262.152 C 107.183 261.905,106.010 260.302,104.800 258.589 C 103.590 256.875,102.051 254.737,101.379 253.837 C 91.252 240.257,78.525 214.923,73.830 199.000 C 73.246 197.020,72.250 193.690,71.617 191.600 C 70.081 186.532,69.895 185.600,70.416 185.600 C 70.653 185.600,70.748 185.440,70.628 185.245 C 70.322 184.750,60.800 184.715,60.800 185.209 " stroke="none" fill="#ace4fc" fill-rule="evenodd"></path><path id="path2" d="M241.600 220.408 C 231.800 221.159,218.614 226.197,213.671 231.078 C 213.381 231.365,212.982 231.600,212.784 231.600 C 211.337 231.600,199.200 245.492,199.200 247.149 C 199.200 247.360,199.047 247.593,198.860 247.667 C 198.095 247.967,194.231 256.922,193.280 260.600 C 193.052 261.480,192.678 262.920,192.449 263.800 C 192.219 264.680,191.904 266.480,191.749 267.800 C 191.593 269.120,191.434 270.380,191.394 270.600 C 191.354 270.820,191.294 272.235,191.261 273.744 L 191.200 276.488 189.900 276.257 C 183.369 275.096,181.432 274.841,179.024 274.822 C 176.310 274.800,173.010 275.254,169.800 276.090 C 167.429 276.708,163.458 278.058,163.000 278.401 C 162.780 278.567,161.176 279.451,159.437 280.367 C 153.803 283.331,146.146 290.747,144.121 295.200 C 142.781 298.146,141.480 301.094,141.208 301.800 C 141.038 302.240,140.697 303.103,140.450 303.719 C 140.202 304.334,140.000 305.269,140.000 305.795 C 140.000 306.322,139.820 306.864,139.600 307.000 C 139.380 307.136,139.200 308.020,139.200 308.964 C 139.200 309.908,139.033 311.202,138.829 311.840 C 138.273 313.579,137.915 320.900,138.400 320.600 C 138.620 320.464,138.800 320.644,138.800 321.000 C 138.800 321.402,138.610 321.540,138.300 321.365 C 137.900 321.139,137.900 321.190,138.300 321.621 C 138.575 321.918,138.800 322.765,138.800 323.504 C 138.800 324.243,138.950 324.755,139.133 324.641 C 139.317 324.528,139.467 324.689,139.467 325.000 C 139.467 325.311,139.317 325.472,139.133 325.359 C 138.950 325.245,138.800 325.343,138.800 325.576 C 138.800 325.809,138.980 326.000,139.200 326.000 C 139.420 326.000,139.600 326.360,139.600 326.800 C 139.600 327.240,139.741 327.600,139.913 327.600 C 140.085 327.600,140.266 328.085,140.315 328.678 C 140.364 329.270,140.544 329.855,140.715 329.978 C 140.887 330.100,141.011 330.470,140.992 330.800 C 140.973 331.130,141.192 331.755,141.479 332.189 C 141.765 332.623,142.000 333.270,142.000 333.627 C 142.000 333.984,142.348 334.591,142.773 334.976 C 143.198 335.360,143.450 335.927,143.332 336.234 C 143.214 336.542,143.416 336.908,143.781 337.048 C 144.164 337.195,144.349 337.555,144.218 337.896 C 144.058 338.315,144.178 338.417,144.629 338.244 C 145.031 338.090,145.206 338.181,145.103 338.492 C 145.012 338.763,145.312 339.316,145.769 339.722 C 146.226 340.129,146.362 340.338,146.070 340.189 C 145.632 339.963,145.631 340.061,146.067 340.758 C 146.356 341.221,146.740 341.600,146.920 341.600 C 147.100 341.600,147.119 341.392,146.962 341.138 C 146.779 340.843,146.853 340.785,147.165 340.979 C 147.434 341.145,147.558 341.533,147.440 341.840 C 147.247 342.342,147.662 342.580,148.500 342.447 C 148.665 342.421,148.779 342.535,148.753 342.700 C 148.610 343.604,148.852 344.415,149.200 344.200 C 149.420 344.064,149.600 344.246,149.600 344.605 C 149.600 345.368,150.592 346.475,150.952 346.114 C 151.089 345.978,151.200 346.086,151.200 346.354 C 151.200 346.622,151.740 347.030,152.400 347.260 C 153.075 347.495,153.603 347.967,153.606 348.339 C 153.610 348.810,153.702 348.859,153.925 348.508 C 154.142 348.166,154.451 348.378,154.941 349.208 C 155.443 350.057,155.955 350.402,156.723 350.406 C 157.565 350.411,157.669 350.497,157.200 350.800 C 156.600 351.188,157.126 351.366,158.700 351.307 C 158.975 351.297,159.200 351.449,159.200 351.644 C 159.200 351.840,159.539 352.000,159.953 352.000 C 160.382 352.000,160.801 352.362,160.926 352.840 C 161.048 353.307,161.337 353.562,161.576 353.415 C 161.812 353.269,162.119 353.444,162.257 353.804 C 162.435 354.267,162.792 354.388,163.473 354.218 C 164.684 353.913,165.505 354.345,164.743 354.885 C 164.349 355.164,164.447 355.215,165.100 355.072 C 165.595 354.964,166.000 355.028,166.000 355.214 C 166.000 355.401,166.360 355.485,166.800 355.400 C 167.240 355.315,167.600 355.416,167.600 355.623 C 167.600 355.830,167.924 356.000,168.320 356.000 C 168.716 356.000,169.279 356.225,169.570 356.500 C 169.994 356.900,170.137 356.900,170.283 356.500 C 170.384 356.225,170.642 356.000,170.857 356.000 C 171.072 356.000,171.119 356.207,170.962 356.461 C 170.757 356.792,171.138 356.860,172.319 356.702 C 173.369 356.561,174.028 356.647,174.149 356.941 C 174.268 357.233,174.348 357.201,174.368 356.854 C 174.393 356.423,174.615 356.449,175.427 356.981 C 176.158 357.460,176.598 357.534,176.956 357.236 C 177.285 356.964,177.595 356.955,177.851 357.211 C 178.104 357.464,196.719 357.567,230.355 357.501 L 282.467 357.400 281.734 356.591 C 281.330 356.146,279.740 355.164,278.200 354.408 C 276.660 353.653,274.648 352.532,273.728 351.917 C 272.808 351.303,271.946 350.800,271.813 350.800 C 271.163 350.800,263.705 345.447,259.767 342.154 C 249.934 333.934,240.015 321.853,235.007 312.000 C 230.761 303.644,228.379 297.626,226.379 290.200 C 223.118 278.095,222.019 262.546,223.650 251.600 C 225.261 240.789,226.525 235.556,229.225 228.510 C 230.133 226.139,230.966 223.902,231.075 223.537 C 231.397 222.465,234.262 221.765,241.279 221.044 C 250.185 220.128,260.317 221.664,267.507 225.018 C 272.738 227.458,274.800 228.537,274.800 228.833 C 274.800 229.005,275.159 229.260,275.598 229.399 C 276.036 229.538,276.621 229.866,276.898 230.126 C 277.174 230.387,278.120 231.093,279.000 231.696 C 280.671 232.841,287.252 239.069,288.621 240.800 C 289.056 241.350,289.850 242.430,290.386 243.200 C 290.923 243.970,291.490 244.691,291.647 244.803 C 291.804 244.914,292.602 246.264,293.420 247.803 C 296.609 253.796,297.228 255.183,298.418 259.000 C 299.687 263.068,299.647 263.020,301.649 262.862 C 302.609 262.786,303.699 262.561,304.071 262.362 C 305.137 261.791,315.108 261.955,317.600 262.584 C 325.357 264.542,330.902 268.119,336.501 274.776 C 337.302 275.728,337.793 276.005,338.301 275.791 C 341.659 274.377,353.317 274.278,356.719 275.634 C 357.224 275.835,358.069 276.000,358.595 276.000 C 359.122 276.000,359.664 276.180,359.800 276.400 C 359.936 276.620,360.399 276.800,360.829 276.800 C 361.628 276.800,362.093 276.984,364.200 278.134 C 364.860 278.494,366.520 279.359,367.889 280.057 C 369.258 280.755,371.778 282.486,373.489 283.904 C 376.922 286.750,377.025 286.853,379.600 290.000 C 380.590 291.210,381.535 292.260,381.700 292.333 C 381.865 292.407,382.000 292.649,382.000 292.872 C 382.000 293.460,383.589 295.600,384.027 295.600 C 384.490 295.600,382.132 292.241,379.252 288.800 C 375.330 284.113,371.537 281.227,364.800 277.805 C 358.758 274.737,348.670 273.182,342.520 274.371 C 337.846 275.275,337.654 275.259,336.489 273.878 C 327.415 263.114,317.445 259.796,301.559 262.250 L 300.117 262.473 299.018 258.936 C 295.634 248.041,287.366 236.710,278.347 230.606 C 276.726 229.509,275.168 228.390,274.884 228.119 C 274.391 227.647,271.988 226.451,267.172 224.281 C 264.997 223.301,261.276 222.129,257.546 221.249 C 255.757 220.827,247.226 219.950,246.000 220.062 C 245.670 220.092,243.690 220.248,241.600 220.408 M287.100 357.499 C 289.575 357.569,293.625 357.569,296.100 357.499 C 298.575 357.428,296.550 357.371,291.600 357.371 C 286.650 357.371,284.625 357.428,287.100 357.499 M307.324 357.499 C 310.362 357.567,315.222 357.567,318.124 357.499 C 321.026 357.431,318.540 357.375,312.600 357.375 C 306.660 357.375,304.286 357.431,307.324 357.499 M330.300 357.499 C 333.435 357.567,338.565 357.567,341.700 357.499 C 344.835 357.432,342.270 357.376,336.000 357.376 C 329.730 357.376,327.165 357.432,330.300 357.499 " stroke="none" fill="#d4ecfc" fill-rule="evenodd"></path><path id="path3" d="M120.806 42.633 C 120.800 43.094,120.443 43.170,117.600 43.311 C 116.610 43.360,115.832 43.587,115.872 43.816 C 115.914 44.061,115.396 44.169,114.619 44.078 C 113.891 43.993,113.173 44.121,113.024 44.362 C 112.875 44.603,112.335 44.800,111.825 44.800 C 111.315 44.800,110.670 45.074,110.392 45.410 C 110.114 45.745,109.793 45.927,109.680 45.813 C 109.566 45.700,109.214 45.822,108.896 46.086 C 108.579 46.349,108.090 46.599,107.810 46.640 C 106.873 46.777,104.400 48.087,104.400 48.446 C 104.400 48.641,104.080 48.800,103.688 48.800 C 103.297 48.800,102.717 49.160,102.400 49.600 C 102.083 50.040,101.579 50.400,101.280 50.400 C 100.982 50.400,100.046 51.120,99.200 52.000 C 98.354 52.880,97.554 53.600,97.421 53.600 C 96.893 53.600,94.435 56.132,94.640 56.465 C 94.761 56.660,94.632 56.770,94.353 56.710 C 94.075 56.649,93.776 56.929,93.689 57.330 C 93.601 57.732,93.006 58.561,92.365 59.173 C 91.724 59.786,91.200 60.410,91.200 60.560 C 91.200 60.710,90.840 61.220,90.400 61.692 C 89.960 62.164,89.600 62.787,89.600 63.075 C 89.600 63.364,89.420 63.600,89.200 63.600 C 88.980 63.600,88.800 63.949,88.800 64.376 C 88.800 64.803,88.620 65.264,88.400 65.400 C 88.180 65.536,88.000 66.007,88.000 66.447 C 88.000 66.887,87.820 67.136,87.600 67.000 C 87.373 66.860,87.200 67.196,87.200 67.776 C 87.200 68.339,87.047 68.800,86.861 68.800 C 86.674 68.800,86.505 69.381,86.485 70.092 C 86.465 70.803,86.257 71.448,86.024 71.525 C 85.791 71.603,85.600 72.115,85.600 72.662 C 85.600 73.804,84.369 75.308,84.099 74.496 C 83.989 74.166,83.021 74.000,81.200 74.000 C 79.378 74.000,78.406 73.833,78.283 73.500 C 78.137 73.100,77.994 73.100,77.570 73.500 C 77.239 73.812,75.867 74.000,73.920 74.000 C 72.107 74.000,70.800 74.168,70.800 74.400 C 70.800 74.620,70.271 74.800,69.624 74.800 C 68.977 74.800,68.334 74.983,68.196 75.207 C 68.058 75.430,67.790 75.517,67.600 75.400 C 67.410 75.283,67.142 75.370,67.004 75.593 C 66.866 75.817,66.403 76.000,65.976 76.000 C 65.549 76.000,65.200 76.180,65.200 76.400 C 65.200 76.620,64.975 76.800,64.700 76.800 C 64.425 76.801,63.683 77.246,63.051 77.789 C 62.419 78.333,61.604 78.872,61.240 78.987 C 60.876 79.103,60.313 79.580,59.989 80.047 C 58.086 82.792,55.200 84.933,55.200 83.600 C 55.200 83.353,53.133 83.200,49.800 83.200 C 46.467 83.200,44.400 83.353,44.400 83.600 C 44.400 83.820,43.500 84.000,42.400 84.000 C 41.300 84.000,40.400 84.180,40.400 84.400 C 40.400 84.620,39.860 84.800,39.200 84.800 C 38.540 84.800,38.000 84.980,38.000 85.200 C 38.000 85.420,37.640 85.600,37.200 85.600 C 36.760 85.600,36.400 85.780,36.400 86.000 C 36.400 86.220,36.040 86.400,35.600 86.400 C 35.160 86.400,34.800 86.580,34.800 86.800 C 34.800 87.020,34.440 87.200,34.000 87.200 C 33.560 87.200,33.200 87.380,33.200 87.600 C 33.200 87.820,32.880 88.000,32.488 88.000 C 32.097 88.000,31.517 88.360,31.200 88.800 C 30.883 89.240,30.393 89.600,30.112 89.600 C 29.830 89.600,29.600 89.780,29.600 90.000 C 29.600 90.220,29.426 90.400,29.214 90.400 C 28.670 90.400,25.600 93.278,25.600 93.787 C 25.600 94.018,25.240 94.432,24.800 94.707 C 24.360 94.982,24.000 95.436,24.000 95.715 C 24.000 95.995,23.640 96.483,23.200 96.800 C 22.760 97.117,22.400 97.697,22.400 98.088 C 22.400 98.480,22.220 98.800,22.000 98.800 C 21.780 98.800,21.600 99.160,21.600 99.600 C 21.600 100.040,21.420 100.400,21.200 100.400 C 20.980 100.400,20.800 100.760,20.800 101.200 C 20.800 101.640,20.620 102.000,20.400 102.000 C 20.180 102.000,20.000 102.360,20.000 102.800 C 20.000 103.240,19.820 103.600,19.600 103.600 C 19.380 103.600,19.200 104.129,19.200 104.776 C 19.200 105.423,19.020 106.064,18.800 106.200 C 18.580 106.336,18.400 107.236,18.400 108.200 C 18.400 109.164,18.220 110.064,18.000 110.200 C 17.769 110.342,17.600 112.471,17.600 115.224 C 17.600 118.141,17.756 120.000,18.000 120.000 C 18.220 120.000,18.400 120.810,18.400 121.800 C 18.400 122.790,18.580 123.600,18.800 123.600 C 19.020 123.600,19.200 124.140,19.200 124.800 C 19.200 125.460,19.380 126.000,19.600 126.000 C 19.820 126.000,20.000 126.540,20.000 127.200 C 20.000 127.860,20.180 128.400,20.400 128.400 C 20.620 128.400,20.800 128.760,20.800 129.200 C 20.800 129.640,20.980 130.000,21.200 130.000 C 21.420 130.000,21.600 130.236,21.600 130.525 C 21.600 130.813,21.960 131.436,22.400 131.908 C 22.840 132.380,23.200 132.968,23.200 133.215 C 23.200 133.461,23.875 134.328,24.700 135.141 C 25.525 135.953,26.260 136.884,26.332 137.209 C 26.405 137.534,26.687 137.925,26.958 138.078 C 27.229 138.231,28.250 139.086,29.226 139.978 C 30.201 140.870,31.315 141.600,31.700 141.600 C 32.085 141.600,32.400 141.780,32.400 142.000 C 32.400 142.220,32.760 142.400,33.200 142.400 C 33.640 142.400,34.000 142.580,34.000 142.800 C 34.000 143.020,34.360 143.200,34.800 143.200 C 35.240 143.200,35.600 143.380,35.600 143.600 C 35.600 143.820,35.960 144.000,36.400 144.000 C 36.840 144.000,37.200 144.180,37.200 144.400 C 37.200 144.620,37.740 144.800,38.400 144.800 C 39.060 144.800,39.600 144.980,39.600 145.200 C 39.600 145.420,40.140 145.600,40.800 145.600 C 41.460 145.600,42.000 145.780,42.000 146.000 C 42.000 146.233,43.325 146.400,45.176 146.400 C 46.923 146.400,48.464 146.580,48.600 146.800 C 49.105 147.617,148.540 147.321,149.471 146.500 C 149.907 146.115,150.822 144.777,151.504 143.526 C 152.906 140.955,157.134 134.614,158.258 133.396 C 158.666 132.954,159.718 131.694,160.596 130.596 C 166.278 123.489,178.163 113.773,185.800 109.991 C 186.900 109.446,187.860 108.865,187.933 108.700 C 188.007 108.535,188.412 108.400,188.833 108.400 C 189.255 108.400,189.600 108.264,189.600 108.098 C 189.600 107.931,190.185 107.556,190.900 107.264 C 191.615 106.972,192.560 106.586,193.000 106.407 C 193.440 106.228,194.430 105.807,195.200 105.471 C 195.970 105.134,198.040 104.384,199.800 103.803 C 203.741 102.502,206.527 101.204,205.400 101.193 C 204.836 101.188,204.322 100.597,203.658 99.193 C 203.139 98.097,202.479 97.200,202.189 97.200 C 201.900 97.200,201.542 96.647,201.394 95.972 C 201.206 95.118,200.946 94.812,200.541 94.967 C 200.218 95.091,200.066 95.016,200.201 94.799 C 200.334 94.583,199.983 93.947,199.422 93.385 C 198.860 92.823,198.400 92.481,198.400 92.624 C 198.400 92.767,197.878 92.326,197.240 91.642 C 196.601 90.959,195.791 90.400,195.440 90.400 C 195.088 90.400,194.800 90.250,194.800 90.068 C 194.800 89.885,194.305 89.481,193.700 89.170 C 193.095 88.860,192.309 88.289,191.953 87.903 C 191.597 87.516,191.012 87.200,190.653 87.200 C 190.294 87.200,190.000 87.020,190.000 86.800 C 190.000 86.580,189.550 86.400,189.000 86.400 C 188.450 86.400,188.000 86.220,188.000 86.000 C 188.000 85.780,187.460 85.600,186.800 85.600 C 186.140 85.600,185.600 85.457,185.600 85.282 C 185.600 85.107,184.925 84.919,184.100 84.864 C 183.275 84.810,182.546 84.611,182.480 84.423 C 182.318 83.961,171.647 83.869,171.062 84.325 C 169.838 85.277,167.299 84.834,168.292 83.841 C 168.449 83.685,168.360 83.422,168.095 83.258 C 167.785 83.067,167.595 81.716,167.563 79.477 C 167.536 77.562,167.354 75.895,167.157 75.774 C 166.961 75.652,166.800 75.023,166.800 74.376 C 166.800 73.729,166.620 73.200,166.400 73.200 C 166.180 73.200,166.000 72.581,166.000 71.824 C 166.000 71.067,165.820 70.336,165.600 70.200 C 165.380 70.064,165.200 69.593,165.200 69.153 C 165.200 68.713,165.020 68.464,164.800 68.600 C 164.574 68.740,164.400 68.412,164.400 67.847 C 164.400 67.297,164.220 66.736,164.000 66.600 C 163.780 66.464,163.600 66.022,163.600 65.618 C 163.600 65.214,163.169 64.469,162.643 63.963 C 162.117 63.456,161.776 62.807,161.886 62.521 C 161.996 62.234,161.886 62.000,161.643 62.000 C 161.399 62.000,161.200 61.730,161.200 61.400 C 161.200 61.070,161.020 60.800,160.800 60.800 C 160.580 60.800,160.397 60.485,160.394 60.100 C 160.389 59.502,160.331 59.487,160.000 60.000 C 159.688 60.483,159.611 60.419,159.606 59.676 C 159.603 59.168,159.447 58.847,159.260 58.963 C 159.073 59.078,158.668 58.684,158.360 58.086 C 157.712 56.830,157.496 56.534,155.990 54.846 C 155.379 54.161,154.681 53.600,154.440 53.600 C 154.198 53.600,154.000 53.420,154.000 53.200 C 154.000 52.980,153.730 52.800,153.400 52.800 C 153.070 52.800,152.800 52.620,152.800 52.400 C 152.800 52.180,152.530 52.000,152.200 52.000 C 151.870 52.000,151.600 51.827,151.600 51.616 C 151.600 50.957,149.889 49.600,149.058 49.600 C 148.623 49.600,148.378 49.489,148.514 49.352 C 148.887 48.980,147.668 47.911,147.200 48.200 C 146.977 48.338,146.686 48.169,146.554 47.825 C 146.422 47.481,145.974 47.200,145.557 47.200 C 145.141 47.200,144.800 47.020,144.800 46.800 C 144.800 46.580,144.440 46.400,144.000 46.400 C 143.560 46.400,143.200 46.220,143.200 46.000 C 143.200 45.780,142.851 45.600,142.424 45.600 C 141.997 45.600,141.534 45.417,141.396 45.193 C 141.258 44.970,140.966 44.898,140.747 45.033 C 140.528 45.168,140.044 45.002,139.671 44.664 C 139.297 44.326,138.494 44.104,137.886 44.171 C 137.278 44.238,136.682 44.133,136.563 43.940 C 136.443 43.746,136.177 43.691,135.972 43.817 C 135.768 43.944,135.600 43.866,135.600 43.645 C 135.600 43.424,134.889 43.298,134.014 43.364 C 133.142 43.430,132.369 43.306,132.296 43.088 C 132.124 42.572,122.047 42.400,121.734 42.907 C 121.602 43.120,121.350 43.049,121.156 42.743 C 120.967 42.444,120.809 42.395,120.806 42.633 M376.813 201.500 C 376.819 201.665,377.314 202.146,377.913 202.568 L 379.000 203.336 378.030 202.268 C 377.011 201.146,376.792 201.007,376.813 201.500 M384.493 209.200 C 384.768 209.640,385.131 210.000,385.300 210.000 C 385.469 210.000,385.382 209.640,385.107 209.200 C 384.832 208.760,384.469 208.400,384.300 208.400 C 384.131 208.400,384.218 208.760,384.493 209.200 M9.600 287.976 C 9.600 288.209,9.780 288.400,10.000 288.400 C 10.220 288.400,10.400 288.670,10.400 289.000 C 10.400 289.330,10.586 289.600,10.814 289.600 C 11.099 289.600,11.098 289.357,10.812 288.822 C 10.310 287.885,9.600 287.389,9.600 287.976 " stroke="none" fill="#9cdcf4" fill-rule="evenodd"></path><path id="path4" d="M241.000 221.023 C 238.360 221.303,235.750 221.647,235.200 221.788 C 232.234 222.547,231.247 222.969,231.071 223.553 C 230.964 223.909,230.133 226.139,229.225 228.510 C 226.525 235.556,225.261 240.789,223.650 251.600 C 222.019 262.546,223.118 278.095,226.379 290.200 C 228.379 297.626,230.761 303.644,235.007 312.000 C 240.015 321.853,249.934 333.934,259.767 342.154 C 263.705 345.447,271.163 350.800,271.813 350.800 C 271.946 350.800,272.808 351.303,273.728 351.917 C 274.648 352.532,276.660 353.653,278.200 354.408 C 279.740 355.164,281.293 356.102,281.650 356.494 C 282.295 357.201,352.569 357.737,354.400 357.049 C 355.065 356.799,357.122 356.361,357.900 356.304 C 358.175 356.283,358.400 356.151,358.400 356.010 C 358.400 355.869,358.941 355.792,359.602 355.837 C 360.264 355.883,360.939 355.713,361.102 355.460 C 361.266 355.207,361.767 354.982,362.215 354.959 C 363.281 354.906,366.000 353.609,366.000 353.154 C 366.000 352.959,366.416 352.800,366.925 352.800 C 367.433 352.800,368.236 352.440,368.708 352.000 C 369.180 351.560,369.735 351.200,369.941 351.200 C 370.147 351.200,370.893 350.660,371.600 350.000 C 372.307 349.340,373.096 348.800,373.354 348.800 C 373.612 348.800,374.083 348.440,374.400 348.000 C 374.717 347.560,375.252 347.197,375.588 347.194 C 376.082 347.189,376.096 347.122,375.660 346.845 C 375.257 346.590,375.435 346.363,376.360 345.954 C 377.042 345.652,377.600 345.244,377.600 345.048 C 377.600 344.852,378.005 344.284,378.500 343.785 C 380.986 341.280,382.136 340.000,381.899 340.000 C 381.755 340.000,382.088 339.548,382.640 338.997 C 383.193 338.443,383.516 337.788,383.360 337.535 C 383.185 337.252,383.253 337.186,383.538 337.362 C 383.812 337.531,384.000 337.393,384.000 337.024 C 384.000 336.681,384.141 336.400,384.313 336.400 C 384.485 336.400,384.865 335.590,385.157 334.600 C 385.449 333.610,385.827 332.800,385.997 332.800 C 386.168 332.800,386.411 332.485,386.539 332.100 C 386.667 331.715,387.045 330.680,387.380 329.800 C 387.714 328.920,387.991 327.885,387.994 327.500 C 387.997 327.115,388.135 326.800,388.300 326.800 C 388.465 326.800,388.635 326.155,388.679 325.367 C 388.722 324.578,388.929 323.724,389.139 323.467 C 389.634 322.861,389.661 307.515,389.166 307.821 C 388.965 307.945,388.777 307.542,388.749 306.924 C 388.648 304.699,388.502 304.005,388.010 303.412 C 387.735 303.081,387.615 302.538,387.743 302.205 C 387.870 301.872,387.801 301.600,387.587 301.600 C 387.374 301.600,387.200 301.335,387.200 301.011 C 387.200 299.491,385.220 296.168,383.856 295.400 C 383.466 295.180,382.843 294.460,382.473 293.800 C 382.103 293.140,381.708 292.510,381.595 292.400 C 381.481 292.290,380.581 291.210,379.595 290.000 C 377.035 286.862,376.927 286.754,373.489 283.904 C 371.778 282.486,369.258 280.755,367.889 280.057 C 366.520 279.359,364.860 278.494,364.200 278.134 C 362.093 276.984,361.628 276.800,360.829 276.800 C 360.399 276.800,359.936 276.620,359.800 276.400 C 359.664 276.180,359.122 276.000,358.595 276.000 C 358.069 276.000,357.224 275.835,356.719 275.634 C 353.317 274.278,341.659 274.377,338.301 275.791 C 337.793 276.005,337.302 275.728,336.501 274.776 C 330.902 268.119,325.357 264.542,317.600 262.584 C 315.108 261.955,305.137 261.791,304.071 262.362 C 303.699 262.561,302.609 262.786,301.649 262.862 C 299.647 263.020,299.687 263.068,298.418 259.000 C 297.228 255.183,296.609 253.796,293.420 247.803 C 292.602 246.264,291.804 244.914,291.647 244.803 C 291.490 244.691,290.923 243.970,290.386 243.200 C 289.850 242.430,289.056 241.350,288.621 240.800 C 287.252 239.069,280.671 232.841,279.000 231.696 C 278.120 231.093,277.174 230.387,276.898 230.126 C 276.621 229.866,276.036 229.538,275.598 229.399 C 275.159 229.260,274.800 229.005,274.800 228.833 C 274.800 228.537,272.738 227.458,267.507 225.018 C 263.285 223.048,258.665 221.832,253.000 221.201 C 247.005 220.533,245.800 220.515,241.000 221.023 M139.600 328.400 C 139.600 328.840,139.769 329.200,139.975 329.200 C 140.181 329.200,140.323 328.840,140.290 328.400 C 140.257 327.960,140.088 327.600,139.915 327.600 C 139.742 327.600,139.600 327.960,139.600 328.400 M147.783 343.099 C 147.902 343.411,148.000 343.741,148.000 343.833 C 148.000 343.925,148.169 344.000,148.375 344.000 C 148.581 344.000,148.725 343.670,148.695 343.267 C 148.665 342.863,148.398 342.533,148.103 342.533 C 147.804 342.533,147.662 342.785,147.783 343.099 M158.676 351.478 C 158.447 351.847,159.472 352.578,159.955 352.392 C 160.041 352.359,160.263 352.572,160.449 352.866 C 160.709 353.275,160.789 353.237,160.794 352.700 C 160.798 352.275,160.499 352.000,160.033 352.000 C 159.612 352.000,159.195 351.784,159.107 351.520 C 158.994 351.182,158.866 351.169,158.676 351.478 M163.600 354.333 C 163.600 354.896,164.050 355.156,164.637 354.931 C 164.944 354.813,165.096 354.555,164.974 354.358 C 164.695 353.906,163.600 353.887,163.600 354.333 M173.017 356.772 C 172.691 357.300,173.344 357.612,174.560 357.512 C 175.701 357.417,175.925 357.010,175.026 356.665 C 174.710 356.544,174.364 356.660,174.257 356.922 C 174.113 357.277,174.055 357.272,174.032 356.900 C 173.995 356.315,173.350 356.234,173.017 356.772 " stroke="none" fill="#e3f4fc" fill-rule="evenodd"></path></g></svg>