<svg id="svg" version="1.1" xmlns="http://www.w3.org/2000/svg" xmlns:xlink="http://www.w3.org/1999/xlink" width="400" height="400" viewBox="0, 0, 400,400"><g id="svgg"><path id="path0" d="M156.000 150.868 C 156.000 151.051,155.291 151.200,154.424 151.200 C 153.557 151.200,152.736 151.380,152.600 151.600 C 152.464 151.820,151.564 152.000,150.600 152.000 C 149.636 152.000,148.736 152.180,148.600 152.400 C 148.464 152.620,147.834 152.800,147.200 152.800 C 146.566 152.800,145.936 152.980,145.800 153.200 C 145.664 153.420,144.933 153.600,144.176 153.600 C 143.419 153.600,142.800 153.780,142.800 154.000 C 142.800 154.220,142.249 154.400,141.576 154.400 C 140.863 154.400,140.456 154.567,140.600 154.800 C 140.744 155.033,140.345 155.200,139.647 155.200 C 138.987 155.200,138.336 155.380,138.200 155.600 C 138.064 155.820,137.618 156.000,137.210 156.000 C 136.801 156.000,136.407 156.178,136.333 156.397 C 136.260 156.615,135.718 156.833,135.129 156.881 C 134.540 156.930,134.145 157.112,134.252 157.285 C 134.360 157.458,134.113 157.600,133.704 157.600 C 133.295 157.600,132.789 157.750,132.580 157.934 C 132.371 158.118,131.300 158.600,130.200 159.005 C 129.100 159.411,127.961 159.982,127.668 160.275 C 127.375 160.568,126.970 160.705,126.768 160.580 C 126.565 160.455,126.400 160.543,126.400 160.776 C 126.400 161.009,126.170 161.200,125.889 161.200 C 125.608 161.200,125.070 161.560,124.693 162.000 C 124.316 162.440,123.646 162.800,123.204 162.800 C 122.762 162.800,122.400 162.980,122.400 163.200 C 122.400 163.420,122.222 163.600,122.005 163.600 C 121.654 163.600,121.017 164.048,119.446 165.400 C 119.190 165.620,118.760 165.845,118.490 165.900 C 118.221 165.955,117.680 166.320,117.288 166.712 C 116.897 167.103,115.727 168.034,114.688 168.780 C 113.650 169.525,112.800 170.285,112.800 170.468 C 112.800 170.651,112.665 170.779,112.500 170.753 C 111.798 170.642,111.086 170.819,111.314 171.048 C 111.564 171.297,110.666 172.400,110.214 172.400 C 109.804 172.400,99.600 182.833,99.600 183.253 C 99.600 183.470,99.420 183.536,99.200 183.400 C 98.980 183.264,98.800 183.423,98.800 183.754 C 98.800 184.085,98.171 185.040,97.402 185.878 C 96.633 186.715,96.003 187.631,96.002 187.913 C 96.001 188.194,95.731 188.528,95.402 188.654 C 95.074 188.781,94.893 189.026,95.000 189.200 C 95.107 189.374,94.926 189.619,94.598 189.746 C 94.269 189.872,94.000 190.173,94.000 190.414 C 94.000 190.656,93.550 191.443,93.000 192.164 C 92.450 192.886,92.000 193.684,92.000 193.938 C 92.000 194.192,91.809 194.400,91.576 194.400 C 91.343 194.400,91.265 194.581,91.402 194.803 C 91.539 195.024,91.369 195.314,91.025 195.446 C 90.681 195.578,90.400 196.116,90.400 196.643 C 90.400 197.169,90.254 197.600,90.075 197.600 C 89.896 197.600,89.502 198.230,89.200 199.000 C 88.898 199.770,88.504 200.400,88.325 200.400 C 88.146 200.400,88.000 200.760,88.000 201.200 C 88.000 201.640,87.820 202.000,87.600 202.000 C 87.380 202.000,87.200 202.360,87.200 202.800 C 87.200 203.240,87.020 203.600,86.800 203.600 C 86.580 203.600,86.400 203.960,86.400 204.400 C 86.400 204.840,86.220 205.200,86.000 205.200 C 85.780 205.200,85.600 205.560,85.600 206.000 C 85.600 206.440,85.459 206.800,85.287 206.800 C 85.115 206.800,84.934 207.295,84.884 207.900 C 84.834 208.505,84.615 209.060,84.397 209.133 C 84.178 209.207,84.000 209.802,84.000 210.457 C 84.000 211.149,83.832 211.544,83.600 211.400 C 83.367 211.256,83.200 211.663,83.200 212.376 C 83.200 213.049,83.040 213.600,82.845 213.600 C 82.511 213.600,82.259 214.486,81.738 217.497 C 81.614 218.210,81.382 218.712,81.221 218.613 C 81.060 218.513,80.904 219.087,80.874 219.887 C 80.844 220.687,80.680 221.444,80.510 221.571 C 80.339 221.697,80.137 222.610,80.060 223.600 C 79.983 224.590,79.758 225.460,79.560 225.533 C 79.362 225.607,79.200 226.606,79.200 227.753 C 79.200 228.901,78.975 230.082,78.700 230.379 C 78.293 230.817,78.312 230.855,78.800 230.582 C 79.291 230.307,79.312 230.355,78.917 230.844 C 78.613 231.219,78.411 233.105,78.373 235.920 C 78.339 238.384,78.164 240.400,77.984 240.400 C 77.803 240.400,77.688 241.165,77.728 242.100 L 77.800 243.800 98.400 243.687 C 120.806 243.565,120.179 243.529,121.984 245.048 C 125.274 247.816,124.897 252.674,121.233 254.734 C 119.232 255.858,77.195 256.114,75.087 255.014 C 74.475 254.695,74.080 254.606,74.210 254.817 C 74.398 255.121,51.877 255.517,50.270 255.237 C 50.089 255.206,50.055 255.365,50.194 255.590 C 50.354 255.849,49.703 256.000,48.424 256.000 C 47.311 256.000,46.400 256.145,46.400 256.322 C 46.400 256.499,45.635 256.688,44.700 256.742 C 43.765 256.796,42.940 257.011,42.867 257.220 C 42.793 257.429,42.309 257.600,41.790 257.600 C 41.272 257.600,40.736 257.780,40.600 258.000 C 40.464 258.220,39.924 258.400,39.400 258.400 C 38.876 258.400,38.328 258.592,38.183 258.827 C 38.038 259.062,37.680 259.163,37.389 259.051 C 37.097 258.939,36.652 259.096,36.400 259.400 C 36.148 259.704,35.685 259.854,35.371 259.733 C 35.057 259.613,34.800 259.744,34.800 260.024 C 34.800 260.304,34.680 260.413,34.532 260.266 C 34.385 260.119,33.971 260.264,33.612 260.590 C 33.252 260.915,32.595 261.236,32.152 261.304 C 31.709 261.372,30.842 261.823,30.226 262.308 C 29.610 262.793,28.947 263.091,28.753 262.971 C 28.559 262.851,28.400 262.899,28.400 263.079 C 28.400 263.258,27.871 263.639,27.225 263.925 C 26.579 264.211,25.319 265.155,24.425 266.022 C 23.531 266.890,22.646 267.600,22.459 267.600 C 22.272 267.600,21.581 268.114,20.924 268.742 C 20.267 269.369,19.071 270.330,18.267 270.877 C 17.462 271.424,16.923 271.990,17.069 272.135 C 17.214 272.281,17.023 272.400,16.643 272.400 C 16.263 272.400,16.064 272.580,16.200 272.800 C 16.336 273.020,16.269 273.200,16.051 273.200 C 15.832 273.200,15.539 273.563,15.398 274.006 C 15.257 274.449,14.975 274.708,14.771 274.582 C 14.567 274.456,14.400 274.512,14.400 274.706 C 14.400 274.900,13.694 275.761,12.831 276.619 C 11.969 277.476,11.349 278.318,11.455 278.489 C 11.561 278.660,11.478 278.800,11.272 278.800 C 11.066 278.800,10.674 279.338,10.402 279.995 C 10.130 280.652,9.761 281.099,9.582 280.989 C 9.403 280.878,9.031 281.411,8.755 282.172 C 8.480 282.934,8.107 283.466,7.927 283.355 C 7.747 283.244,7.600 283.523,7.600 283.976 C 7.600 284.429,7.420 284.800,7.200 284.800 C 6.980 284.800,6.800 285.034,6.800 285.320 C 6.800 286.056,5.859 287.993,5.500 287.997 C 5.335 287.999,5.200 288.360,5.200 288.800 C 5.200 289.240,5.020 289.600,4.800 289.600 C 4.580 289.600,4.400 289.960,4.400 290.400 C 4.400 290.840,4.220 291.200,4.000 291.200 C 3.780 291.200,3.600 291.650,3.600 292.200 C 3.600 292.750,3.420 293.200,3.200 293.200 C 2.980 293.200,2.800 293.562,2.800 294.005 C 2.800 294.448,2.642 295.123,2.449 295.505 C 1.822 296.747,1.200 299.032,1.200 300.095 C 1.200 300.666,0.975 301.208,0.700 301.300 C -0.028 301.543,-0.028 328.057,0.700 328.300 C 0.987 328.396,1.200 329.136,1.200 330.033 C 1.200 330.895,1.380 331.600,1.600 331.600 C 1.820 331.600,2.000 332.140,2.000 332.800 C 2.000 333.460,2.180 334.000,2.400 334.000 C 2.620 334.000,2.800 334.439,2.800 334.976 C 2.800 335.513,2.980 336.064,3.200 336.200 C 3.420 336.336,3.600 336.897,3.600 337.447 C 3.600 338.012,3.774 338.340,4.000 338.200 C 4.227 338.060,4.400 338.396,4.400 338.976 C 4.400 339.539,4.580 340.000,4.800 340.000 C 5.020 340.000,5.200 340.360,5.200 340.800 C 5.200 341.240,5.380 341.600,5.600 341.600 C 5.820 341.600,6.000 341.960,6.000 342.400 C 6.000 342.840,6.180 343.200,6.400 343.200 C 6.620 343.200,6.800 343.436,6.800 343.725 C 6.800 344.013,7.160 344.636,7.600 345.108 C 8.040 345.580,8.400 346.244,8.400 346.583 C 8.400 346.922,8.591 347.200,8.824 347.200 C 9.057 347.200,9.136 347.380,9.000 347.600 C 8.864 347.820,8.943 348.000,9.176 348.000 C 9.409 348.000,9.600 348.270,9.600 348.600 C 9.600 348.930,9.780 349.200,10.000 349.200 C 10.220 349.200,10.400 349.404,10.400 349.653 C 10.400 349.902,10.717 350.397,11.104 350.753 C 11.492 351.109,12.278 352.030,12.851 352.800 C 13.423 353.570,14.681 354.953,15.646 355.873 C 19.704 359.743,21.788 361.600,22.071 361.600 C 22.237 361.600,23.009 362.236,23.787 363.013 C 24.564 363.791,25.200 364.201,25.200 363.924 C 25.200 363.648,25.480 363.822,25.823 364.311 C 26.165 364.800,26.704 365.200,27.019 365.200 C 27.335 365.200,27.818 365.560,28.093 366.000 C 28.368 366.440,28.783 366.800,29.016 366.800 C 29.677 366.800,31.593 367.765,31.597 368.100 C 31.599 368.265,31.960 368.400,32.400 368.400 C 32.840 368.400,33.200 368.580,33.200 368.800 C 33.200 369.020,33.650 369.200,34.200 369.200 C 34.750 369.200,35.200 369.380,35.200 369.600 C 35.200 369.820,35.555 370.000,35.988 370.000 C 36.421 370.000,37.411 370.357,38.188 370.793 C 38.965 371.229,39.600 371.513,39.600 371.423 C 39.600 371.334,40.613 371.617,41.852 372.052 C 44.831 373.099,47.241 373.613,50.400 373.873 C 51.830 373.991,53.301 374.247,53.669 374.441 C 54.970 375.129,307.430 374.887,308.002 374.198 C 308.316 373.819,309.204 373.600,310.425 373.600 C 311.485 373.600,312.464 373.420,312.600 373.200 C 312.736 372.980,313.513 372.800,314.326 372.800 C 319.560 372.800,332.211 368.262,341.000 363.233 C 356.035 354.629,369.052 336.943,373.556 319.000 C 383.535 279.243,356.952 237.929,316.800 230.791 C 313.300 230.169,312.760 229.954,313.926 229.645 C 314.435 229.510,303.764 229.460,290.212 229.534 C 273.760 229.624,265.173 229.530,264.372 229.250 C 263.529 228.956,263.250 228.958,263.435 229.256 C 263.617 229.551,261.034 229.637,254.930 229.540 C 243.237 229.353,244.002 229.889,241.587 220.196 C 236.922 201.481,226.852 185.224,212.000 172.435 C 203.645 165.240,189.531 157.409,180.200 154.792 C 173.718 152.974,167.380 151.604,165.400 151.594 C 164.475 151.589,164.337 151.498,164.800 151.197 C 165.211 150.928,164.804 150.884,163.506 151.056 C 162.282 151.218,161.408 151.139,161.038 150.832 C 160.402 150.304,156.000 150.336,156.000 150.868 " stroke="none" fill="#ccecfc" fill-rule="evenodd"></path><path id="path1" d="M247.275 25.706 C 245.339 26.326,243.477 28.385,242.899 30.547 C 242.212 33.114,242.198 57.816,242.882 60.154 C 243.405 61.943,245.533 64.400,246.560 64.400 C 246.912 64.400,247.200 64.580,247.200 64.800 C 247.200 65.022,248.267 65.200,249.600 65.200 C 250.933 65.200,252.000 65.022,252.000 64.800 C 252.000 64.580,252.276 64.400,252.613 64.400 C 253.668 64.400,255.848 61.852,256.226 60.178 C 256.656 58.272,256.648 32.423,256.217 30.296 C 255.491 26.720,251.118 24.475,247.275 25.706 M195.824 49.324 C 194.493 50.140,193.200 51.537,193.200 52.158 C 193.200 52.485,193.020 52.864,192.800 53.000 C 191.955 53.522,192.781 59.600,193.697 59.600 C 193.864 59.600,194.000 60.039,194.000 60.576 C 194.000 61.113,194.180 61.664,194.400 61.800 C 194.620 61.936,194.800 62.397,194.800 62.824 C 194.800 63.251,194.947 63.600,195.128 63.600 C 195.308 63.600,195.700 64.500,196.000 65.600 C 196.300 66.700,196.692 67.600,196.872 67.600 C 197.053 67.600,197.200 67.960,197.200 68.400 C 197.200 68.840,197.380 69.200,197.600 69.200 C 197.820 69.200,198.000 69.650,198.000 70.200 C 198.000 70.750,198.180 71.200,198.400 71.200 C 198.620 71.200,198.802 71.425,198.805 71.700 C 198.823 73.490,205.298 74.824,207.726 73.537 C 209.056 72.833,210.399 71.106,210.400 70.100 C 210.400 69.605,210.580 69.200,210.800 69.200 C 211.020 69.200,211.200 68.480,211.200 67.600 C 211.200 66.720,211.020 66.000,210.800 66.000 C 210.580 66.000,210.400 65.460,210.400 64.800 C 210.400 64.140,210.220 63.600,210.000 63.600 C 209.780 63.600,209.600 63.150,209.600 62.600 C 209.600 62.050,209.420 61.600,209.200 61.600 C 208.980 61.600,208.800 61.228,208.800 60.774 C 208.800 60.320,208.350 58.965,207.800 57.763 C 207.250 56.560,206.800 55.312,206.800 54.988 C 206.800 54.665,206.643 54.400,206.450 54.400 C 206.257 54.400,205.993 53.865,205.862 53.211 C 205.175 49.774,198.992 47.379,195.824 49.324 M294.950 50.633 C 293.878 51.800,293.054 53.232,292.598 54.715 C 292.213 55.972,291.740 57.171,291.549 57.380 C 291.357 57.589,291.200 58.174,291.200 58.680 C 291.200 59.186,291.020 59.600,290.800 59.600 C 290.580 59.600,290.400 59.960,290.400 60.400 C 290.400 60.840,290.220 61.200,290.000 61.200 C 289.780 61.200,289.600 61.639,289.600 62.176 C 289.600 62.713,289.420 63.264,289.200 63.400 C 288.980 63.536,288.800 63.997,288.800 64.424 C 288.800 64.851,288.620 65.200,288.400 65.200 C 288.180 65.200,288.000 66.190,288.000 67.400 C 288.000 68.610,288.180 69.600,288.400 69.600 C 288.620 69.600,288.800 69.968,288.800 70.418 C 288.800 71.288,290.108 72.801,291.504 73.549 C 292.442 74.051,298.000 74.176,298.000 73.695 C 298.000 73.527,298.405 73.212,298.900 72.995 C 299.395 72.778,299.978 72.195,300.195 71.700 C 300.412 71.205,300.727 70.800,300.895 70.800 C 301.063 70.800,301.200 70.440,301.200 70.000 C 301.200 69.560,301.380 69.200,301.600 69.200 C 301.820 69.200,302.000 68.851,302.000 68.424 C 302.000 67.997,302.180 67.536,302.400 67.400 C 302.620 67.264,302.800 66.713,302.800 66.176 C 302.800 65.639,302.980 65.200,303.200 65.200 C 303.420 65.200,303.600 64.840,303.600 64.400 C 303.600 63.960,303.780 63.600,304.000 63.600 C 304.220 63.600,304.400 63.161,304.400 62.624 C 304.400 62.087,304.580 61.536,304.800 61.400 C 305.020 61.264,305.200 60.803,305.200 60.376 C 305.200 59.949,305.380 59.600,305.600 59.600 C 305.820 59.600,306.000 59.161,306.000 58.624 C 306.000 58.087,306.180 57.536,306.400 57.400 C 308.064 56.372,305.475 49.600,303.418 49.600 C 303.078 49.600,302.800 49.420,302.800 49.200 C 302.800 48.966,301.512 48.807,299.700 48.817 L 296.600 48.835 294.950 50.633 M145.600 68.000 C 145.600 68.220,145.184 68.400,144.675 68.400 C 143.825 68.400,142.996 69.003,141.700 70.564 C 140.973 71.440,141.052 76.781,141.816 78.311 C 142.384 79.451,147.870 85.125,156.052 93.037 C 157.893 94.818,159.910 96.843,160.534 97.537 C 161.158 98.232,161.923 98.800,162.234 98.800 C 162.545 98.800,162.800 98.980,162.800 99.200 C 162.800 99.433,164.133 99.600,166.000 99.600 C 167.760 99.600,169.200 99.463,169.200 99.295 C 169.200 99.127,169.590 98.812,170.067 98.595 C 170.544 98.378,171.129 97.840,171.367 97.400 C 171.605 96.960,171.964 96.481,172.165 96.336 C 172.366 96.191,172.522 94.726,172.511 93.080 L 172.492 90.088 161.659 79.244 C 155.700 73.280,150.550 68.400,150.213 68.400 C 149.876 68.400,149.600 68.220,149.600 68.000 C 149.600 67.780,148.700 67.600,147.600 67.600 C 146.500 67.600,145.600 67.780,145.600 68.000 M349.800 68.000 C 349.664 68.220,349.248 68.401,348.876 68.402 C 347.642 68.405,327.006 89.562,326.430 91.415 C 325.625 94.006,327.518 98.800,329.347 98.800 C 329.706 98.800,330.000 98.980,330.000 99.200 C 330.000 99.433,331.333 99.600,333.200 99.600 C 335.067 99.600,336.400 99.433,336.400 99.200 C 336.400 98.980,336.653 98.800,336.961 98.800 C 337.270 98.800,338.395 97.868,339.461 96.729 C 340.528 95.590,342.735 93.385,344.367 91.829 C 350.551 85.933,357.182 79.086,357.414 78.357 C 357.546 77.941,357.822 77.600,358.027 77.600 C 358.232 77.600,358.400 76.250,358.400 74.600 C 358.400 72.950,358.264 71.600,358.098 71.600 C 357.931 71.600,357.556 71.060,357.264 70.400 C 356.972 69.740,356.478 69.200,356.166 69.200 C 355.855 69.200,355.600 69.020,355.600 68.800 C 355.600 68.580,355.150 68.400,354.600 68.400 C 354.050 68.400,353.600 68.220,353.600 68.000 C 353.600 67.780,352.801 67.600,351.824 67.600 C 350.847 67.600,349.936 67.780,349.800 68.000 M241.200 84.400 C 241.200 84.633,239.875 84.800,238.024 84.800 C 236.277 84.800,234.736 84.980,234.600 85.200 C 234.464 85.420,233.373 85.600,232.176 85.600 C 230.979 85.600,230.000 85.780,230.000 86.000 C 230.000 86.220,229.280 86.400,228.400 86.400 C 227.520 86.400,226.800 86.580,226.800 86.800 C 226.800 87.020,226.170 87.200,225.400 87.200 C 224.630 87.200,224.000 87.380,224.000 87.600 C 224.000 87.820,223.471 88.000,222.824 88.000 C 222.177 88.000,221.536 88.180,221.400 88.400 C 221.264 88.620,220.634 88.800,220.000 88.800 C 219.366 88.800,218.736 88.980,218.600 89.200 C 218.464 89.420,218.003 89.600,217.576 89.600 C 217.149 89.600,216.800 89.780,216.800 90.000 C 216.800 90.220,216.260 90.400,215.600 90.400 C 214.940 90.400,214.400 90.580,214.400 90.800 C 214.400 91.020,214.128 91.200,213.795 91.200 C 213.462 91.200,212.877 91.352,212.495 91.539 C 212.113 91.725,209.958 92.760,207.706 93.839 C 205.454 94.917,203.609 95.935,203.606 96.100 C 203.603 96.265,203.240 96.400,202.800 96.400 C 202.360 96.400,202.000 96.580,202.000 96.800 C 202.000 97.020,201.764 97.200,201.475 97.200 C 201.187 97.200,200.564 97.560,200.092 98.000 C 199.620 98.440,198.996 98.800,198.705 98.800 C 198.414 98.800,197.917 99.160,197.600 99.600 C 197.283 100.040,196.820 100.400,196.571 100.400 C 196.322 100.400,195.554 100.940,194.863 101.600 C 194.172 102.260,193.498 102.800,193.364 102.800 C 193.230 102.800,192.617 103.340,192.000 104.000 C 191.383 104.660,190.688 105.200,190.455 105.200 C 189.725 105.200,178.400 116.125,178.400 116.828 C 178.400 117.037,177.842 117.791,177.160 118.504 C 176.477 119.217,175.641 120.340,175.300 121.000 C 174.960 121.660,174.348 122.491,173.941 122.847 C 173.533 123.203,173.200 123.748,173.200 124.059 C 173.200 124.369,172.840 124.883,172.400 125.200 C 171.960 125.517,171.600 126.007,171.600 126.288 C 171.600 126.570,171.420 126.800,171.200 126.800 C 170.980 126.800,170.800 127.036,170.800 127.325 C 170.800 127.613,170.440 128.236,170.000 128.708 C 169.560 129.180,169.200 129.844,169.200 130.183 C 169.200 130.522,169.020 130.800,168.800 130.800 C 168.580 130.800,168.400 131.160,168.400 131.600 C 168.400 132.040,168.265 132.401,168.100 132.403 C 167.741 132.407,166.800 134.344,166.800 135.080 C 166.800 135.366,166.620 135.600,166.400 135.600 C 166.180 135.600,166.000 135.960,166.000 136.400 C 166.000 136.840,165.820 137.200,165.600 137.200 C 165.380 137.200,165.200 137.560,165.200 138.000 C 165.200 138.440,165.020 138.800,164.800 138.800 C 164.580 138.800,164.400 139.160,164.400 139.600 C 164.400 140.040,164.220 140.400,164.000 140.400 C 163.780 140.400,163.600 140.755,163.600 141.188 C 163.600 141.621,163.240 142.617,162.800 143.400 C 162.360 144.183,162.000 145.168,162.000 145.589 C 162.000 146.009,161.820 146.464,161.600 146.600 C 161.380 146.736,161.200 147.276,161.200 147.800 C 161.200 148.324,161.020 148.864,160.800 149.000 C 159.177 150.003,160.730 150.200,170.300 150.204 C 179.712 150.208,181.209 150.327,188.400 151.653 C 192.907 152.483,199.889 154.436,202.800 155.680 C 203.350 155.915,204.160 156.239,204.600 156.400 C 218.332 161.429,234.414 173.472,243.600 185.606 C 244.150 186.332,244.791 187.123,245.024 187.363 C 247.222 189.629,253.220 200.122,255.791 206.200 C 256.163 207.080,256.632 208.113,256.834 208.495 C 257.035 208.877,257.200 209.464,257.200 209.800 C 257.200 210.136,257.408 210.813,257.662 211.305 C 258.672 213.259,258.800 213.625,258.800 214.571 C 258.800 215.111,258.980 215.664,259.200 215.800 C 259.420 215.936,259.600 216.476,259.600 217.000 C 259.600 217.524,259.780 218.064,260.000 218.200 C 260.220 218.336,260.400 219.056,260.400 219.800 C 260.400 220.544,260.580 221.264,260.800 221.400 C 261.020 221.536,261.200 222.209,261.200 222.895 C 261.200 225.368,262.175 227.313,263.910 228.300 C 265.563 229.240,325.643 229.004,326.739 228.053 C 327.212 227.642,327.600 227.052,327.600 226.741 C 327.600 226.431,327.960 225.917,328.400 225.600 C 328.840 225.283,329.200 224.793,329.200 224.512 C 329.200 224.230,329.380 224.000,329.600 224.000 C 329.820 224.000,330.000 223.655,330.000 223.233 C 330.000 222.812,330.135 222.407,330.300 222.333 C 330.676 222.166,331.975 220.036,332.271 219.100 C 332.393 218.715,332.652 218.400,332.847 218.400 C 333.041 218.400,333.200 218.051,333.200 217.624 C 333.200 217.197,333.380 216.736,333.600 216.600 C 333.820 216.464,334.000 215.913,334.000 215.376 C 334.000 214.839,334.180 214.400,334.400 214.400 C 334.620 214.400,334.800 214.040,334.800 213.600 C 334.800 213.160,334.980 212.800,335.200 212.800 C 335.420 212.800,335.600 212.451,335.600 212.024 C 335.600 211.597,335.780 211.136,336.000 211.000 C 336.220 210.864,336.400 210.313,336.400 209.776 C 336.400 209.239,336.580 208.800,336.800 208.800 C 337.020 208.800,337.200 208.361,337.200 207.824 C 337.200 207.287,337.380 206.736,337.600 206.600 C 337.820 206.464,338.000 205.924,338.000 205.400 C 338.000 204.876,338.180 204.336,338.400 204.200 C 338.620 204.064,338.800 203.434,338.800 202.800 C 338.800 202.166,338.960 201.548,339.156 201.427 C 339.351 201.306,339.614 200.621,339.739 199.904 C 339.864 199.187,340.161 197.610,340.399 196.400 C 341.212 192.262,341.559 188.999,341.579 185.300 C 341.592 183.114,341.764 181.600,342.000 181.600 C 342.243 181.600,342.400 179.800,342.400 177.000 C 342.400 174.470,342.248 172.400,342.063 172.400 C 341.877 172.400,341.611 169.488,341.471 165.928 C 341.330 162.368,341.032 159.272,340.808 159.048 C 340.584 158.824,340.400 157.866,340.400 156.920 C 340.400 155.974,340.220 155.200,340.000 155.200 C 339.780 155.200,339.600 154.480,339.600 153.600 C 339.600 152.720,339.420 152.000,339.200 152.000 C 338.980 152.000,338.800 151.607,338.800 151.127 C 338.800 149.976,337.113 144.985,335.953 142.705 C 335.759 142.323,335.600 141.648,335.600 141.205 C 335.600 140.762,335.420 140.400,335.200 140.400 C 334.980 140.400,334.800 140.040,334.800 139.600 C 334.800 139.160,334.620 138.800,334.400 138.800 C 334.180 138.800,334.000 138.440,334.000 138.000 C 334.000 137.560,333.820 137.200,333.600 137.200 C 333.380 137.200,333.200 136.840,333.200 136.400 C 333.200 135.960,333.020 135.600,332.800 135.600 C 332.580 135.600,332.400 135.240,332.400 134.800 C 332.400 134.360,332.220 134.000,332.000 134.000 C 331.780 134.000,331.600 133.640,331.600 133.200 C 331.600 132.760,331.420 132.400,331.200 132.400 C 330.980 132.400,330.800 132.040,330.800 131.600 C 330.800 131.160,330.620 130.800,330.400 130.800 C 330.180 130.800,330.000 130.564,330.000 130.275 C 330.000 129.987,329.640 129.364,329.200 128.892 C 328.760 128.420,328.400 127.848,328.400 127.621 C 328.400 127.186,327.589 126.109,326.100 124.568 C 325.605 124.056,325.200 123.386,325.200 123.079 C 325.200 122.773,324.840 122.107,324.400 121.600 C 323.960 121.093,323.600 120.540,323.600 120.371 C 323.600 120.203,322.880 119.316,322.000 118.400 C 321.120 117.484,320.400 116.572,320.400 116.372 C 320.400 116.173,318.693 114.343,316.606 112.305 C 310.831 106.664,310.072 106.000,309.411 106.000 C 309.075 106.000,308.800 105.822,308.800 105.603 C 308.800 105.126,306.425 102.800,305.937 102.800 C 305.748 102.800,305.028 102.260,304.337 101.600 C 303.646 100.940,302.878 100.400,302.629 100.400 C 302.380 100.400,301.917 100.040,301.600 99.600 C 301.283 99.160,300.786 98.800,300.495 98.800 C 300.204 98.800,299.580 98.440,299.108 98.000 C 298.636 97.560,298.013 97.200,297.725 97.200 C 297.436 97.200,297.200 97.020,297.200 96.800 C 297.200 96.580,296.840 96.400,296.400 96.400 C 295.960 96.400,295.600 96.220,295.600 96.000 C 295.600 95.780,295.240 95.600,294.800 95.600 C 294.360 95.600,294.000 95.448,294.000 95.263 C 294.000 95.078,292.515 94.254,290.700 93.433 C 288.885 92.612,287.087 91.774,286.705 91.570 C 286.323 91.367,285.738 91.200,285.405 91.200 C 285.072 91.200,284.800 91.020,284.800 90.800 C 284.800 90.580,284.260 90.400,283.600 90.400 C 282.940 90.400,282.400 90.220,282.400 90.000 C 282.400 89.780,281.860 89.600,281.200 89.600 C 280.540 89.600,280.000 89.420,280.000 89.200 C 280.000 88.980,279.460 88.800,278.800 88.800 C 278.140 88.800,277.600 88.620,277.600 88.400 C 277.600 88.180,277.060 88.000,276.400 88.000 C 275.740 88.000,275.200 87.820,275.200 87.600 C 275.200 87.380,274.570 87.200,273.800 87.200 C 273.030 87.200,272.400 87.020,272.400 86.800 C 272.400 86.580,271.680 86.400,270.800 86.400 C 269.920 86.400,269.200 86.220,269.200 86.000 C 269.200 85.778,268.133 85.600,266.800 85.600 C 265.467 85.600,264.400 85.422,264.400 85.200 C 264.400 84.969,263.141 84.800,261.424 84.800 C 259.787 84.800,258.336 84.620,258.200 84.400 C 258.048 84.154,254.729 84.000,249.576 84.000 C 244.259 84.000,241.200 84.146,241.200 84.400 M123.878 121.354 C 123.065 122.099,122.400 122.999,122.400 123.354 C 122.400 123.709,122.220 124.000,122.000 124.000 C 121.774 124.000,121.600 125.133,121.600 126.600 C 121.600 128.067,121.774 129.200,122.000 129.200 C 122.220 129.200,122.400 129.478,122.400 129.818 C 122.400 130.618,124.182 132.400,124.982 132.400 C 125.322 132.400,125.600 132.580,125.600 132.800 C 125.600 133.020,126.050 133.200,126.600 133.200 C 127.150 133.200,127.600 133.380,127.600 133.600 C 127.600 133.820,127.960 134.000,128.400 134.000 C 128.840 134.000,129.200 134.180,129.200 134.400 C 129.200 134.620,129.549 134.800,129.976 134.800 C 130.403 134.800,130.864 134.980,131.000 135.200 C 131.136 135.420,131.687 135.600,132.224 135.600 C 132.761 135.600,133.200 135.780,133.200 136.000 C 133.200 136.220,133.549 136.400,133.976 136.400 C 134.403 136.400,134.864 136.580,135.000 136.800 C 135.136 137.020,135.687 137.200,136.224 137.200 C 136.761 137.200,137.200 137.380,137.200 137.600 C 137.200 138.180,142.643 138.096,143.683 137.500 C 145.298 136.575,146.400 135.243,146.400 134.218 C 146.400 133.658,146.580 133.200,146.800 133.200 C 147.020 133.200,147.200 132.401,147.200 131.424 C 147.200 130.447,147.020 129.536,146.800 129.400 C 146.580 129.264,146.400 128.873,146.400 128.530 C 146.400 127.645,143.700 125.285,142.347 124.988 C 141.721 124.851,141.106 124.572,140.981 124.369 C 140.855 124.166,140.313 124.000,139.776 124.000 C 139.239 124.000,138.800 123.820,138.800 123.600 C 138.800 123.380,138.440 123.200,138.000 123.200 C 137.560 123.200,137.200 123.020,137.200 122.800 C 137.200 122.580,136.851 122.400,136.424 122.400 C 135.997 122.400,135.536 122.220,135.400 122.000 C 135.264 121.780,134.713 121.600,134.176 121.600 C 133.639 121.600,133.200 121.420,133.200 121.200 C 133.200 120.980,132.840 120.800,132.400 120.800 C 131.960 120.800,131.600 120.620,131.600 120.400 C 131.600 119.208,125.382 119.976,123.878 121.354 M367.600 120.400 C 367.600 120.620,367.240 120.800,366.800 120.800 C 366.360 120.800,366.000 120.980,366.000 121.200 C 366.000 121.420,365.460 121.600,364.800 121.600 C 364.140 121.600,363.600 121.780,363.600 122.000 C 363.600 122.220,363.240 122.400,362.800 122.400 C 362.360 122.400,362.000 122.580,362.000 122.800 C 362.000 123.020,361.550 123.200,361.000 123.200 C 360.450 123.200,360.000 123.380,360.000 123.600 C 360.000 123.820,359.640 124.000,359.200 124.000 C 358.760 124.000,358.400 124.180,358.400 124.400 C 358.400 124.620,358.105 124.800,357.744 124.800 C 356.689 124.800,353.600 126.493,353.600 127.071 C 353.600 127.362,353.420 127.600,353.200 127.600 C 352.980 127.600,352.800 127.960,352.800 128.400 C 352.800 128.840,352.620 129.200,352.400 129.200 C 352.180 129.200,352.000 130.179,352.000 131.376 C 352.000 132.573,352.180 133.664,352.400 133.800 C 352.620 133.936,352.800 134.315,352.800 134.642 C 352.800 135.319,354.250 136.878,355.504 137.549 C 356.552 138.110,362.000 138.153,362.000 137.600 C 362.000 137.380,362.439 137.200,362.976 137.200 C 363.513 137.200,364.064 137.020,364.200 136.800 C 364.336 136.580,364.797 136.400,365.224 136.400 C 365.651 136.400,366.000 136.220,366.000 136.000 C 366.000 135.780,366.349 135.600,366.776 135.600 C 367.203 135.600,367.664 135.420,367.800 135.200 C 367.936 134.980,368.487 134.800,369.024 134.800 C 369.561 134.800,370.000 134.620,370.000 134.400 C 370.000 134.180,370.360 134.000,370.800 134.000 C 371.240 134.000,371.600 133.820,371.600 133.600 C 371.600 133.380,372.050 133.200,372.600 133.200 C 373.150 133.200,373.600 133.020,373.600 132.800 C 373.600 132.580,373.878 132.400,374.218 132.400 C 375.007 132.400,376.800 130.623,376.800 129.842 C 376.800 129.515,376.980 129.136,377.200 129.000 C 377.420 128.864,377.600 127.683,377.600 126.376 C 377.600 125.059,377.422 124.000,377.200 124.000 C 376.980 124.000,376.800 123.722,376.800 123.382 C 376.800 122.686,375.060 120.800,374.418 120.800 C 374.188 120.800,374.000 120.620,374.000 120.400 C 374.000 120.167,372.667 120.000,370.800 120.000 C 368.933 120.000,367.600 120.167,367.600 120.400 M365.200 170.400 C 365.200 170.620,364.922 170.800,364.582 170.800 C 364.242 170.800,363.545 171.219,363.033 171.731 C 360.385 174.379,360.345 178.850,362.947 181.453 L 364.695 183.200 380.947 183.200 C 391.516 183.200,397.200 183.060,397.200 182.800 C 397.200 182.580,397.483 182.400,397.829 182.400 C 400.213 182.400,401.032 174.389,398.882 172.088 C 398.221 171.380,397.391 170.800,397.040 170.800 C 396.688 170.800,396.400 170.620,396.400 170.400 C 396.400 170.140,390.933 170.000,380.800 170.000 C 370.667 170.000,365.200 170.140,365.200 170.400 M356.000 215.600 C 356.000 215.820,355.755 216.000,355.455 216.000 C 354.566 216.000,352.800 218.033,352.800 219.055 C 352.800 219.575,352.620 220.000,352.400 220.000 C 352.180 220.000,352.000 220.889,352.000 221.976 C 352.000 223.063,352.180 224.064,352.400 224.200 C 352.620 224.336,352.800 224.715,352.800 225.042 C 352.800 225.823,354.593 227.600,355.382 227.600 C 355.722 227.600,356.000 227.780,356.000 228.000 C 356.000 228.220,356.360 228.400,356.800 228.400 C 357.240 228.400,357.600 228.580,357.600 228.800 C 357.600 229.020,358.050 229.200,358.600 229.200 C 359.150 229.200,359.600 229.380,359.600 229.600 C 359.600 229.820,359.960 230.000,360.400 230.000 C 360.840 230.000,361.200 230.180,361.200 230.400 C 361.200 230.620,361.549 230.800,361.976 230.800 C 362.403 230.800,362.864 230.980,363.000 231.200 C 363.136 231.420,363.687 231.600,364.224 231.600 C 364.761 231.600,365.200 231.780,365.200 232.000 C 365.200 232.220,365.560 232.400,366.000 232.400 C 366.440 232.400,366.800 232.580,366.800 232.800 C 366.800 233.020,367.340 233.200,368.000 233.200 C 368.660 233.200,369.200 233.380,369.200 233.600 C 369.200 233.820,369.909 234.000,370.776 234.000 C 371.643 234.000,372.464 233.820,372.600 233.600 C 372.736 233.380,373.168 233.200,373.559 233.200 C 374.400 233.200,376.800 230.690,376.800 229.811 C 376.800 229.475,376.980 229.200,377.200 229.200 C 377.420 229.200,377.600 228.210,377.600 227.000 C 377.600 225.790,377.420 224.800,377.200 224.800 C 376.980 224.800,376.800 224.528,376.800 224.196 C 376.800 222.858,373.227 220.000,371.554 220.000 C 371.139 220.000,370.800 219.820,370.800 219.600 C 370.800 219.380,370.440 219.200,370.000 219.200 C 369.560 219.200,369.200 219.020,369.200 218.800 C 369.200 218.580,368.851 218.400,368.424 218.400 C 367.997 218.400,367.536 218.220,367.400 218.000 C 367.264 217.780,366.713 217.600,366.176 217.600 C 365.639 217.600,365.200 217.420,365.200 217.200 C 365.200 216.980,364.840 216.800,364.400 216.800 C 363.960 216.800,363.600 216.620,363.600 216.400 C 363.600 216.180,363.060 216.000,362.400 216.000 C 361.740 216.000,361.200 215.820,361.200 215.600 C 361.200 215.374,360.067 215.200,358.600 215.200 C 357.133 215.200,356.000 215.374,356.000 215.600 " stroke="none" fill="#fbd304" fill-rule="evenodd"></path><path id="path2" d="M164.800 151.169 C 164.324 151.501,164.447 151.589,165.400 151.594 C 167.380 151.604,173.718 152.974,180.200 154.792 C 189.531 157.409,203.645 165.240,212.000 172.435 C 226.883 185.251,236.921 201.475,241.611 220.295 C 243.204 226.686,243.778 228.022,245.300 228.879 C 246.810 229.729,263.682 229.879,263.360 229.039 C 263.225 228.688,262.979 228.400,262.813 228.400 C 262.268 228.400,260.864 225.047,260.384 222.600 C 260.126 221.280,259.775 219.750,259.604 219.200 C 259.433 218.650,259.071 217.390,258.801 216.400 C 258.530 215.410,258.167 214.240,257.995 213.800 C 257.822 213.360,257.464 212.370,257.200 211.600 C 255.076 205.415,249.018 193.443,246.912 191.271 C 246.631 190.981,246.400 190.589,246.400 190.400 C 246.400 190.211,246.169 189.819,245.887 189.529 C 245.605 189.238,244.933 188.370,244.394 187.600 C 243.401 186.181,242.934 185.615,239.459 181.628 C 236.987 178.791,231.402 173.330,229.518 171.906 C 228.721 171.304,227.829 170.578,227.535 170.293 C 224.014 166.872,205.368 156.400,202.799 156.400 C 202.574 156.400,202.077 156.226,201.695 156.013 C 200.828 155.529,197.459 154.403,195.600 153.975 C 194.830 153.798,193.390 153.446,192.400 153.194 C 185.137 151.344,166.506 149.977,164.800 151.169 M325.705 228.993 C 325.313 229.439,324.350 229.507,321.077 229.322 C 314.732 228.962,310.557 229.893,315.545 230.555 C 335.885 233.253,357.298 248.857,367.482 268.401 C 383.904 299.919,374.464 339.827,345.800 360.059 C 336.592 366.557,321.172 372.800,314.326 372.800 C 313.513 372.800,312.736 372.980,312.600 373.200 C 312.464 373.420,311.485 373.600,310.425 373.600 C 309.172 373.600,308.318 373.817,307.983 374.220 C 307.520 374.778,308.502 374.833,317.743 374.769 C 323.393 374.729,328.114 374.540,328.232 374.348 C 328.350 374.157,329.751 374.000,331.344 374.000 C 332.937 374.000,334.420 373.820,334.640 373.600 C 334.860 373.380,335.803 373.171,336.737 373.134 C 337.671 373.097,338.527 372.917,338.641 372.734 C 338.754 372.550,339.477 372.400,340.247 372.400 C 341.079 372.400,341.547 372.238,341.400 372.000 C 341.256 371.767,341.655 371.600,342.353 371.600 C 343.013 371.600,343.664 371.420,343.800 371.200 C 343.936 370.980,344.577 370.800,345.224 370.800 C 345.871 370.800,346.400 370.620,346.400 370.400 C 346.400 370.180,346.940 370.000,347.600 370.000 C 348.260 370.000,348.800 369.820,348.800 369.600 C 348.800 369.380,349.239 369.200,349.776 369.200 C 350.313 369.200,350.864 369.020,351.000 368.800 C 351.136 368.580,351.597 368.400,352.024 368.400 C 352.451 368.400,352.800 368.220,352.800 368.000 C 352.800 367.780,353.160 367.600,353.600 367.600 C 354.040 367.600,354.400 367.420,354.400 367.200 C 354.400 366.980,354.686 366.800,355.036 366.800 C 355.386 366.800,356.029 366.395,356.466 365.900 C 356.903 365.405,357.138 365.238,356.989 365.530 C 356.763 365.968,356.861 365.969,357.558 365.533 C 358.021 365.244,358.400 364.871,358.400 364.704 C 358.400 364.537,358.670 364.400,359.000 364.400 C 359.330 364.400,359.600 364.220,359.600 364.000 C 359.600 363.780,359.920 363.600,360.312 363.600 C 360.703 363.600,361.283 363.240,361.600 362.800 C 361.917 362.360,362.425 362.000,362.728 362.000 C 363.031 362.000,363.792 361.451,364.418 360.780 C 365.045 360.109,365.676 359.596,365.821 359.638 C 366.087 359.717,367.074 359.092,368.407 358.000 C 368.810 357.670,369.720 356.950,370.430 356.400 C 371.140 355.850,372.459 354.609,373.361 353.642 C 374.262 352.676,375.585 351.287,376.300 350.556 C 377.015 349.825,377.600 349.023,377.600 348.774 C 377.600 348.525,378.159 347.799,378.842 347.160 C 379.526 346.522,379.931 345.995,379.742 345.988 C 379.554 345.981,379.715 345.792,380.100 345.568 C 380.485 345.344,380.800 344.939,380.800 344.668 C 380.800 344.398,381.160 343.917,381.600 343.600 C 382.040 343.283,382.400 342.722,382.400 342.354 C 382.400 341.987,382.656 341.587,382.970 341.467 C 383.283 341.347,383.862 340.562,384.257 339.724 C 384.651 338.886,385.295 337.851,385.687 337.425 C 386.079 336.998,386.400 336.413,386.400 336.125 C 386.400 335.836,386.580 335.600,386.800 335.600 C 387.020 335.600,387.200 335.240,387.200 334.800 C 387.200 334.360,387.336 334.000,387.503 334.000 C 387.669 334.000,388.039 333.235,388.325 332.300 C 389.054 329.915,389.743 328.400,390.098 328.400 C 390.264 328.400,390.400 327.860,390.400 327.200 C 390.400 326.540,390.559 326.000,390.754 326.000 C 390.949 326.000,391.232 325.010,391.383 323.800 C 391.534 322.590,391.825 321.600,392.029 321.600 C 392.233 321.600,392.400 320.880,392.400 320.000 C 392.400 319.120,392.580 318.400,392.800 318.400 C 393.020 318.400,393.200 317.500,393.200 316.400 C 393.200 315.300,393.380 314.400,393.600 314.400 C 393.833 314.400,394.000 313.067,394.000 311.200 C 394.000 309.333,394.167 308.000,394.400 308.000 C 394.651 308.000,394.800 305.533,394.800 301.400 C 394.800 297.267,394.651 294.800,394.400 294.800 C 394.169 294.800,394.000 293.525,394.000 291.776 C 394.000 289.863,393.853 288.844,393.600 289.000 C 393.352 289.153,393.200 288.404,393.200 287.024 C 393.200 285.801,393.020 284.800,392.800 284.800 C 392.580 284.800,392.400 284.080,392.400 283.200 C 392.400 282.320,392.241 281.600,392.046 281.600 C 391.851 281.600,391.568 280.610,391.417 279.400 C 391.266 278.190,390.975 277.200,390.771 277.200 C 390.567 277.200,390.400 276.660,390.400 276.000 C 390.400 275.340,390.220 274.800,390.000 274.800 C 389.780 274.800,389.600 274.440,389.600 274.000 C 389.600 273.560,389.420 273.200,389.200 273.200 C 388.980 273.200,388.800 272.845,388.800 272.412 C 388.800 271.979,388.440 270.983,388.000 270.200 C 387.560 269.417,387.200 268.511,387.200 268.188 C 387.200 267.865,387.020 267.600,386.800 267.600 C 386.580 267.600,386.400 267.330,386.400 267.000 C 386.400 266.670,386.220 266.400,386.000 266.400 C 385.780 266.400,385.600 266.130,385.600 265.800 C 385.600 265.470,385.420 265.200,385.200 265.200 C 384.980 265.200,384.800 264.840,384.800 264.400 C 384.800 263.960,384.620 263.600,384.400 263.600 C 384.180 263.600,384.000 263.412,384.000 263.183 C 384.000 262.954,383.640 262.380,383.200 261.908 C 382.760 261.436,382.400 260.802,382.400 260.501 C 382.400 260.199,382.220 260.064,382.000 260.200 C 381.780 260.336,381.600 260.233,381.600 259.971 C 381.600 259.708,381.251 259.191,380.825 258.822 C 380.399 258.452,379.994 257.898,379.925 257.591 C 379.856 257.283,378.755 255.990,377.477 254.716 C 376.200 253.442,375.343 252.400,375.574 252.400 C 375.804 252.400,375.692 252.049,375.325 251.620 C 374.958 251.192,374.482 250.950,374.267 251.082 C 374.052 251.215,373.989 251.141,374.128 250.917 C 374.360 250.541,371.175 247.200,370.584 247.200 C 370.439 247.200,369.799 246.641,369.160 245.958 C 368.522 245.274,367.995 244.869,367.988 245.058 C 367.981 245.246,367.792 245.085,367.568 244.700 C 367.344 244.315,366.899 244.000,366.580 244.000 C 366.261 244.000,366.000 243.790,366.000 243.533 C 366.000 243.277,365.881 243.186,365.736 243.331 C 365.591 243.476,365.220 243.236,364.913 242.797 C 364.606 242.359,364.045 242.000,363.666 242.000 C 363.287 242.000,362.717 241.640,362.400 241.200 C 362.083 240.760,361.586 240.400,361.295 240.400 C 361.004 240.400,360.380 240.040,359.908 239.600 C 359.436 239.160,358.544 238.576,357.925 238.303 C 357.306 238.029,356.800 237.669,356.800 237.502 C 356.800 237.336,356.339 237.200,355.776 237.200 C 355.196 237.200,354.860 237.027,355.000 236.800 C 355.136 236.580,354.877 236.400,354.424 236.400 C 353.971 236.400,353.600 236.220,353.600 236.000 C 353.600 235.780,353.240 235.600,352.800 235.600 C 352.360 235.600,352.000 235.420,352.000 235.200 C 352.000 234.980,351.640 234.800,351.200 234.800 C 350.760 234.800,350.400 234.620,350.400 234.400 C 350.400 234.180,350.040 234.000,349.600 234.000 C 349.160 234.000,348.800 233.820,348.800 233.600 C 348.800 233.380,348.260 233.200,347.600 233.200 C 346.940 233.200,346.400 233.020,346.400 232.800 C 346.400 232.580,345.860 232.400,345.200 232.400 C 344.540 232.400,344.000 232.220,344.000 232.000 C 344.000 231.780,343.460 231.600,342.800 231.600 C 342.140 231.600,341.600 231.420,341.600 231.200 C 341.600 230.980,340.981 230.800,340.224 230.800 C 339.467 230.800,338.736 230.620,338.600 230.400 C 338.464 230.180,337.553 230.000,336.576 230.000 C 335.599 230.000,334.800 229.820,334.800 229.600 C 334.800 229.372,333.608 229.200,332.024 229.200 C 330.497 229.200,329.136 229.020,329.000 228.800 C 328.633 228.206,326.276 228.344,325.705 228.993 M77.637 247.592 C 77.562 252.898,77.014 254.400,75.154 254.400 C 74.317 254.400,73.823 255.013,74.518 255.190 C 74.783 255.258,85.048 255.382,97.328 255.466 L 119.656 255.620 121.215 254.743 C 124.716 252.776,125.282 248.029,122.335 245.350 C 120.402 243.592,120.506 243.600,98.860 243.600 C 82.587 243.600,78.028 243.491,77.888 243.100 C 77.789 242.825,77.677 244.846,77.637 247.592 " stroke="none" fill="#9ee4fb" fill-rule="evenodd"></path><path id="path3" d="M167.000 150.400 C 165.360 150.581,166.563 150.669,170.800 150.676 C 175.254 150.684,176.380 150.602,174.800 150.383 C 172.234 150.029,170.321 150.033,167.000 150.400 M161.160 150.920 C 161.346 151.106,162.106 151.196,162.849 151.119 C 164.167 150.983,164.158 150.975,162.510 150.780 C 161.581 150.671,160.973 150.733,161.160 150.920 M178.433 150.947 C 178.525 151.028,179.860 151.186,181.400 151.299 C 183.002 151.416,183.858 151.365,183.400 151.180 C 182.622 150.865,178.100 150.653,178.433 150.947 M185.233 151.744 C 185.325 151.824,186.210 151.996,187.200 152.127 C 188.402 152.286,188.734 152.247,188.200 152.010 C 187.436 151.672,184.886 151.443,185.233 151.744 M190.033 152.544 C 190.125 152.623,190.740 152.808,191.400 152.956 C 192.276 153.152,192.438 153.115,192.000 152.818 C 191.460 152.453,189.632 152.198,190.033 152.544 M194.000 153.600 C 194.330 153.813,194.870 153.988,195.200 153.988 C 195.733 153.988,195.733 153.945,195.200 153.600 C 194.870 153.387,194.330 153.212,194.000 153.212 C 193.467 153.212,193.467 153.255,194.000 153.600 M207.612 158.145 C 208.018 158.551,214.994 161.939,215.135 161.798 C 215.216 161.718,213.986 160.999,212.402 160.201 C 209.539 158.759,207.239 157.772,207.612 158.145 M216.400 162.764 C 216.950 163.214,217.555 163.586,217.743 163.591 C 217.932 163.596,220.072 164.972,222.498 166.650 C 224.924 168.327,226.781 169.493,226.625 169.240 C 226.261 168.652,219.835 164.326,217.321 162.977 C 215.834 162.179,215.626 162.131,216.400 162.764 M227.200 169.829 C 227.200 170.111,227.617 170.479,229.700 172.033 C 231.463 173.349,230.968 172.634,229.000 171.021 C 228.010 170.210,227.200 169.674,227.200 169.829 M235.554 177.500 C 237.462 179.425,239.963 182.134,241.112 183.521 C 242.260 184.907,243.200 185.888,243.200 185.701 C 243.200 185.019,232.998 174.000,232.368 174.000 C 232.212 174.000,233.646 175.575,235.554 177.500 M244.496 187.795 C 244.993 188.562,245.544 189.192,245.720 189.195 C 245.897 189.198,245.560 188.570,244.973 187.800 C 243.600 186.000,243.332 185.997,244.496 187.795 M246.473 190.600 C 246.723 191.150,247.084 191.600,247.273 191.600 C 247.463 191.600,247.324 191.150,246.963 190.600 C 246.603 190.050,246.243 189.600,246.163 189.600 C 246.083 189.600,246.222 190.050,246.473 190.600 M248.159 193.100 C 248.889 194.484,249.970 195.899,249.987 195.491 C 250.002 195.141,247.977 192.000,247.737 192.000 C 247.650 192.000,247.840 192.495,248.159 193.100 M250.586 197.100 C 250.935 197.815,251.306 198.400,251.410 198.400 C 251.808 198.400,251.552 197.763,250.767 196.800 L 249.952 195.800 250.586 197.100 M255.209 206.305 C 255.204 206.583,255.359 207.123,255.553 207.505 C 256.194 208.765,256.769 210.283,257.772 213.357 C 257.908 213.774,258.112 214.021,258.226 213.907 C 258.467 213.666,257.343 210.491,255.852 207.200 C 255.504 206.430,255.214 206.027,255.209 206.305 M259.206 217.833 C 259.209 218.255,259.395 218.870,259.618 219.200 C 259.915 219.638,259.952 219.476,259.756 218.600 C 259.427 217.129,259.198 216.810,259.206 217.833 M260.068 221.000 C 260.062 221.440,260.211 222.160,260.400 222.600 C 260.838 223.619,260.838 222.568,260.400 221.200 C 260.143 220.396,260.077 220.357,260.068 221.000 M275.872 229.500 C 282.071 229.562,292.331 229.562,298.672 229.500 C 305.012 229.438,299.940 229.387,287.400 229.387 C 274.860 229.387,269.672 229.438,275.872 229.500 " stroke="none" fill="#d9e292" fill-rule="evenodd"></path><path id="path4" d="M162.800 150.422 C 161.725 150.603,162.611 150.640,165.000 150.514 C 167.200 150.399,169.075 150.236,169.167 150.152 C 169.444 149.899,164.725 150.099,162.800 150.422 M175.200 150.394 C 177.492 150.734,182.257 150.913,181.967 150.647 C 181.875 150.564,179.820 150.399,177.400 150.281 C 174.339 150.133,173.670 150.167,175.200 150.394 M183.400 151.186 C 184.157 151.525,187.521 151.764,187.167 151.454 C 187.075 151.374,186.010 151.200,184.800 151.068 C 183.363 150.912,182.878 150.952,183.400 151.186 M188.200 151.981 C 188.640 152.181,189.437 152.356,189.972 152.372 C 190.506 152.387,191.496 152.568,192.172 152.773 C 192.847 152.978,194.210 153.362,195.200 153.626 C 197.368 154.205,201.492 155.523,202.600 155.990 C 204.180 156.657,204.842 156.791,204.597 156.395 C 204.463 156.178,204.091 156.000,203.771 156.000 C 203.451 156.000,202.877 155.829,202.495 155.619 C 201.385 155.010,197.128 153.699,192.100 152.418 C 189.789 151.829,187.232 151.543,188.200 151.981 M214.400 161.220 C 215.787 162.161,216.578 162.435,215.600 161.636 C 215.050 161.186,214.420 160.817,214.200 160.815 C 213.980 160.813,214.070 160.996,214.400 161.220 M226.600 168.991 C 229.862 171.914,232.400 174.023,232.400 173.811 C 232.400 173.507,230.160 171.543,227.498 169.515 C 226.344 168.636,225.940 168.400,226.600 168.991 M235.432 176.801 C 241.386 183.108,241.905 183.619,239.691 181.000 C 238.575 179.680,236.523 177.520,235.131 176.201 L 232.600 173.802 235.432 176.801 M247.085 190.900 C 249.370 194.263,250.760 196.004,249.369 193.760 C 247.195 190.253,245.370 187.607,245.122 187.603 C 244.969 187.602,245.853 189.085,247.085 190.900 M250.015 195.400 C 250.017 195.620,250.386 196.250,250.836 196.800 C 251.379 197.464,251.515 197.531,251.240 197.000 C 250.566 195.695,250.012 194.972,250.015 195.400 M259.840 219.066 C 260.208 220.599,260.400 220.744,260.400 219.490 C 260.400 218.917,260.213 218.332,259.984 218.190 C 259.711 218.021,259.662 218.323,259.840 219.066 M260.680 222.691 C 260.990 224.700,261.200 224.861,261.200 223.090 C 261.200 222.297,261.031 221.543,260.824 221.415 C 260.599 221.276,260.541 221.791,260.680 222.691 M263.776 228.613 C 264.446 229.119,268.765 229.187,295.176 229.103 L 325.800 229.005 295.217 228.900 C 275.635 228.833,264.492 228.652,264.237 228.397 C 264.019 228.179,263.651 228.006,263.420 228.013 C 263.189 228.020,263.349 228.290,263.776 228.613 " stroke="none" fill="#e1dd5e" fill-rule="evenodd"></path></g></svg>