<svg id="svg" version="1.1" xmlns="http://www.w3.org/2000/svg" xmlns:xlink="http://www.w3.org/1999/xlink" width="400" height="400" viewBox="0, 0, 400,400"><g id="svgg"><path id="path0" d="M249.400 75.216 C 243.422 75.652,238.226 76.437,233.600 77.604 C 232.610 77.854,231.215 78.154,230.500 78.273 C 229.785 78.391,229.200 78.648,229.200 78.844 C 229.200 79.040,228.671 79.200,228.024 79.200 C 227.377 79.200,226.736 79.380,226.600 79.600 C 226.464 79.820,225.924 80.000,225.400 80.000 C 224.876 80.000,224.336 80.180,224.200 80.400 C 224.064 80.620,223.603 80.800,223.176 80.800 C 222.749 80.800,222.400 80.980,222.400 81.200 C 222.400 81.420,221.860 81.600,221.200 81.600 C 220.540 81.600,220.000 81.780,220.000 82.000 C 220.000 82.220,219.651 82.400,219.224 82.400 C 218.797 82.400,218.336 82.580,218.200 82.800 C 218.064 83.020,217.513 83.200,216.976 83.200 C 216.439 83.200,216.000 83.380,216.000 83.600 C 216.000 83.820,215.640 84.000,215.200 84.000 C 214.760 84.000,214.400 84.180,214.400 84.400 C 214.400 84.620,214.040 84.800,213.600 84.800 C 213.160 84.800,212.800 84.980,212.800 85.200 C 212.800 85.420,212.440 85.600,212.000 85.600 C 211.560 85.600,211.200 85.736,211.200 85.902 C 211.200 86.069,210.615 86.464,209.900 86.780 C 209.185 87.097,208.251 87.680,207.825 88.078 C 207.398 88.475,206.813 88.800,206.525 88.800 C 206.236 88.800,206.000 88.980,206.000 89.200 C 206.000 89.420,205.680 89.600,205.288 89.600 C 204.897 89.600,204.317 89.960,204.000 90.400 C 203.683 90.840,203.103 91.200,202.712 91.200 C 202.320 91.200,202.000 91.360,202.000 91.557 C 202.000 91.753,201.591 92.016,201.092 92.141 C 200.593 92.266,199.790 92.736,199.309 93.185 C 198.827 93.633,198.289 94.000,198.113 94.000 C 197.720 94.000,194.825 96.423,192.586 98.625 C 191.677 99.519,190.319 100.685,189.567 101.215 C 187.724 102.517,180.452 110.175,178.885 112.464 C 178.533 112.979,177.946 113.670,177.582 114.000 C 177.217 114.330,176.617 115.140,176.248 115.800 C 174.995 118.044,173.910 119.799,173.654 120.000 C 173.514 120.110,173.144 120.695,172.832 121.300 C 172.520 121.905,172.115 122.400,171.932 122.400 C 171.750 122.400,171.600 122.678,171.600 123.017 C 171.600 123.356,171.240 124.020,170.800 124.492 C 170.360 124.964,170.000 125.587,170.000 125.875 C 170.000 126.164,169.820 126.400,169.600 126.400 C 169.380 126.400,169.200 126.670,169.200 127.000 C 169.200 127.330,169.020 127.600,168.800 127.600 C 168.580 127.600,168.400 127.960,168.400 128.400 C 168.400 128.840,168.220 129.200,168.000 129.200 C 167.780 129.200,167.600 129.560,167.600 130.000 C 167.600 130.440,167.420 130.800,167.200 130.800 C 166.980 130.800,166.800 131.160,166.800 131.600 C 166.800 132.040,166.620 132.400,166.400 132.400 C 166.180 132.400,166.000 132.760,166.000 133.200 C 166.000 133.640,165.820 134.000,165.600 134.000 C 165.380 134.000,165.200 134.540,165.200 135.200 C 165.200 135.860,165.020 136.400,164.800 136.400 C 164.580 136.400,164.400 136.760,164.400 137.200 C 164.400 137.640,164.220 138.000,164.000 138.000 C 163.780 138.000,163.600 138.540,163.600 139.200 C 163.600 139.860,163.420 140.400,163.200 140.400 C 162.980 140.400,162.800 140.749,162.800 141.176 C 162.800 141.603,162.620 142.064,162.400 142.200 C 162.180 142.336,162.000 142.876,162.000 143.400 C 162.000 143.924,161.820 144.464,161.600 144.600 C 161.380 144.736,161.200 145.289,161.200 145.829 C 161.200 146.369,161.031 147.123,160.824 147.505 C 160.617 147.887,160.349 148.650,160.228 149.200 C 159.917 150.608,159.267 151.489,158.900 151.000 C 158.422 150.363,155.199 148.800,154.362 148.800 C 153.943 148.800,153.600 148.620,153.600 148.400 C 153.600 148.180,153.060 148.000,152.400 148.000 C 151.740 148.000,151.200 147.820,151.200 147.600 C 151.200 147.380,150.480 147.200,149.600 147.200 C 148.720 147.200,148.000 147.020,148.000 146.800 C 148.000 146.580,147.100 146.400,146.000 146.400 C 144.900 146.400,144.000 146.220,144.000 146.000 C 144.000 145.746,140.933 145.600,135.600 145.600 C 130.267 145.600,127.200 145.746,127.200 146.000 C 127.200 146.220,126.300 146.400,125.200 146.400 C 124.100 146.400,123.200 146.580,123.200 146.800 C 123.200 147.020,122.480 147.200,121.600 147.200 C 120.720 147.200,120.000 147.380,120.000 147.600 C 120.000 147.820,119.460 148.000,118.800 148.000 C 118.140 148.000,117.600 148.180,117.600 148.400 C 117.600 148.620,117.060 148.800,116.400 148.800 C 115.740 148.800,115.200 148.980,115.200 149.200 C 115.200 149.420,114.840 149.600,114.400 149.600 C 113.960 149.600,113.600 149.780,113.600 150.000 C 113.600 150.220,113.240 150.400,112.800 150.400 C 112.360 150.400,112.000 150.580,112.000 150.800 C 112.000 151.020,111.640 151.200,111.200 151.200 C 110.760 151.200,110.400 151.346,110.400 151.525 C 110.400 151.704,109.770 152.098,109.000 152.400 C 108.230 152.702,107.600 153.096,107.600 153.275 C 107.600 153.454,107.375 153.600,107.100 153.601 C 106.825 153.601,105.970 154.141,105.200 154.800 C 104.430 155.459,103.647 155.999,103.460 155.999 C 103.274 156.000,102.644 156.495,102.060 157.100 C 101.477 157.705,100.502 158.457,99.893 158.772 C 98.045 159.725,92.865 165.567,91.650 168.068 C 91.348 168.691,90.943 169.200,90.750 169.200 C 90.558 169.200,90.400 169.520,90.400 169.912 C 90.400 170.303,90.040 170.883,89.600 171.200 C 89.160 171.517,88.800 172.097,88.800 172.488 C 88.800 172.880,88.620 173.200,88.400 173.200 C 88.180 173.200,88.000 173.545,88.000 173.967 C 88.000 174.388,87.865 174.793,87.700 174.867 C 87.201 175.088,85.600 178.422,85.600 179.238 C 85.600 179.657,85.420 180.000,85.200 180.000 C 84.980 180.000,84.800 180.540,84.800 181.200 C 84.800 181.860,84.620 182.400,84.400 182.400 C 84.180 182.400,84.000 182.940,84.000 183.600 C 84.000 184.260,83.820 184.800,83.600 184.800 C 83.380 184.800,83.200 185.509,83.200 186.376 C 83.200 187.243,83.020 188.064,82.800 188.200 C 82.580 188.336,82.400 189.332,82.400 190.414 L 82.400 192.380 81.100 192.150 C 80.385 192.024,79.170 191.759,78.400 191.562 C 77.630 191.365,75.256 191.203,73.124 191.202 C 70.973 191.201,69.137 191.022,69.000 190.800 C 68.864 190.580,67.694 190.400,66.400 190.400 C 65.106 190.400,63.936 190.580,63.800 190.800 C 63.664 191.020,61.916 191.200,59.916 191.200 C 55.567 191.200,48.095 192.501,45.905 193.639 C 45.523 193.838,44.859 194.000,44.429 194.000 C 43.999 194.000,43.536 194.180,43.400 194.400 C 43.264 194.620,42.713 194.800,42.176 194.800 C 41.639 194.800,41.200 194.980,41.200 195.200 C 41.200 195.420,40.840 195.600,40.400 195.600 C 39.960 195.600,39.600 195.780,39.600 196.000 C 39.600 196.220,39.240 196.400,38.800 196.400 C 38.360 196.400,38.000 196.580,38.000 196.800 C 38.000 197.020,37.766 197.200,37.480 197.200 C 36.744 197.200,34.807 198.141,34.803 198.500 C 34.801 198.665,34.440 198.800,34.000 198.800 C 33.560 198.800,33.200 198.980,33.200 199.200 C 33.200 199.420,32.840 199.600,32.400 199.600 C 31.960 199.600,31.600 199.780,31.600 200.000 C 31.600 200.220,31.330 200.400,31.000 200.400 C 30.670 200.400,30.400 200.580,30.400 200.800 C 30.400 201.020,30.130 201.200,29.800 201.200 C 29.470 201.200,29.200 201.380,29.200 201.600 C 29.200 201.820,28.930 202.000,28.600 202.000 C 28.270 202.000,28.000 202.180,28.000 202.400 C 28.000 202.620,27.770 202.800,27.488 202.800 C 27.207 202.800,26.717 203.160,26.400 203.600 C 26.083 204.040,25.671 204.400,25.486 204.400 C 25.300 204.400,24.297 205.274,23.257 206.342 C 22.217 207.409,20.923 208.515,20.383 208.799 C 19.842 209.083,19.040 209.763,18.600 210.311 C 18.160 210.859,16.675 212.474,15.300 213.900 C 13.925 215.326,12.800 216.660,12.800 216.865 C 12.800 217.069,12.350 217.686,11.800 218.236 C 11.250 218.786,10.800 219.395,10.800 219.590 C 10.800 219.784,10.575 220.184,10.300 220.479 C 9.499 221.337,8.400 223.468,8.400 224.162 C 8.400 224.513,8.220 224.800,8.000 224.800 C 7.780 224.800,7.600 225.070,7.600 225.400 C 7.600 225.730,7.420 226.000,7.200 226.000 C 6.980 226.000,6.800 226.360,6.800 226.800 C 6.800 227.240,6.620 227.600,6.400 227.600 C 6.180 227.600,6.000 227.960,6.000 228.400 C 6.000 228.840,5.820 229.200,5.600 229.200 C 5.380 229.200,5.200 229.560,5.200 230.000 C 5.200 230.440,5.020 230.800,4.800 230.800 C 4.580 230.800,4.400 231.149,4.400 231.576 C 4.400 232.003,4.220 232.464,4.000 232.600 C 3.780 232.736,3.600 233.287,3.600 233.824 C 3.600 234.361,3.420 234.800,3.200 234.800 C 2.980 234.800,2.800 235.340,2.800 236.000 C 2.800 236.660,2.620 237.200,2.400 237.200 C 2.180 237.200,2.000 237.740,2.000 238.400 C 2.000 239.060,1.820 239.600,1.600 239.600 C 1.380 239.600,1.200 240.284,1.200 241.120 C 1.200 241.956,0.975 242.865,0.700 243.140 C 0.319 243.521,0.200 247.005,0.200 257.800 C 0.200 268.595,0.319 272.079,0.700 272.460 C 0.975 272.735,1.200 273.644,1.200 274.480 C 1.200 275.316,1.380 276.000,1.600 276.000 C 1.820 276.000,2.000 276.540,2.000 277.200 C 2.000 277.860,2.180 278.400,2.400 278.400 C 2.620 278.400,2.800 278.940,2.800 279.600 C 2.800 280.260,2.980 280.800,3.200 280.800 C 3.420 280.800,3.600 281.340,3.600 282.000 C 3.600 282.660,3.780 283.200,4.000 283.200 C 4.220 283.200,4.400 283.560,4.400 284.000 C 4.400 284.440,4.580 284.800,4.800 284.800 C 5.020 284.800,5.200 285.160,5.200 285.600 C 5.200 286.040,5.380 286.400,5.600 286.400 C 5.820 286.400,6.000 286.760,6.000 287.200 C 6.000 287.640,6.180 288.000,6.400 288.000 C 6.620 288.000,6.800 288.360,6.800 288.800 C 6.800 289.240,6.980 289.600,7.200 289.600 C 7.420 289.600,7.600 289.960,7.600 290.400 C 7.600 290.840,7.735 291.202,7.900 291.204 C 8.065 291.206,8.555 292.016,8.990 293.004 C 9.424 293.992,9.907 294.800,10.063 294.800 C 10.219 294.800,10.462 295.166,10.604 295.613 C 10.746 296.060,11.298 296.862,11.831 297.395 C 12.364 297.928,12.800 298.528,12.800 298.728 C 12.800 298.929,13.745 300.101,14.900 301.333 C 16.055 302.566,17.635 304.255,18.412 305.087 C 19.188 305.919,20.423 307.050,21.155 307.600 C 21.887 308.150,23.091 309.185,23.830 309.900 C 24.569 310.615,25.320 311.200,25.498 311.200 C 25.677 311.200,26.083 311.560,26.400 312.000 C 26.717 312.440,27.207 312.800,27.488 312.800 C 27.770 312.800,28.000 312.980,28.000 313.200 C 28.000 313.420,28.188 313.600,28.417 313.600 C 28.646 313.600,29.220 313.960,29.692 314.400 C 30.164 314.840,30.787 315.200,31.075 315.200 C 31.364 315.200,31.600 315.380,31.600 315.600 C 31.600 315.820,31.945 316.000,32.367 316.000 C 32.788 316.000,33.193 316.135,33.267 316.300 C 33.455 316.724,38.399 319.200,39.056 319.200 C 39.355 319.200,39.600 319.380,39.600 319.600 C 39.600 319.820,39.960 320.000,40.400 320.000 C 40.840 320.000,41.200 320.180,41.200 320.400 C 41.200 320.620,41.639 320.800,42.176 320.800 C 42.713 320.800,43.264 320.980,43.400 321.200 C 43.536 321.420,44.076 321.600,44.600 321.600 C 45.124 321.600,45.664 321.780,45.800 322.000 C 45.936 322.220,46.476 322.400,47.000 322.400 C 47.524 322.400,48.052 322.561,48.174 322.758 C 48.295 322.955,49.071 323.215,49.897 323.337 C 50.724 323.459,52.390 323.758,53.600 324.001 C 60.415 325.371,125.029 325.721,127.175 324.400 C 128.732 323.442,130.800 321.281,130.800 320.613 C 130.800 320.276,130.980 320.000,131.200 320.000 C 131.810 320.000,131.652 317.503,130.987 316.624 C 130.664 316.196,130.400 315.429,130.400 314.918 C 130.400 312.781,127.780 310.028,125.051 309.298 C 123.640 308.921,115.580 308.800,91.771 308.800 C 71.729 308.800,59.675 308.651,58.477 308.389 C 57.445 308.162,55.700 307.790,54.600 307.561 C 53.500 307.332,52.240 307.002,51.800 306.828 C 51.360 306.653,50.280 306.284,49.400 306.006 C 43.601 304.178,35.765 299.218,30.930 294.316 C 26.873 290.203,26.791 290.112,25.598 288.400 C 25.061 287.630,24.317 286.667,23.943 286.260 C 22.082 284.228,17.808 274.312,16.848 269.800 C 16.614 268.700,16.238 266.955,16.011 265.923 C 15.460 263.409,15.487 252.454,16.052 249.424 C 19.886 228.845,35.573 212.180,55.000 208.048 C 56.100 207.814,57.845 207.438,58.877 207.211 C 61.739 206.584,71.309 206.720,75.000 207.440 C 76.760 207.784,78.787 208.160,79.504 208.277 C 80.221 208.393,80.906 208.649,81.027 208.844 C 81.148 209.040,81.676 209.200,82.200 209.200 C 82.724 209.200,83.264 209.380,83.400 209.600 C 83.536 209.820,83.915 210.000,84.243 210.000 C 84.571 210.000,85.584 210.360,86.494 210.800 C 93.422 214.147,98.533 209.748,98.115 200.800 C 97.911 196.429,98.852 188.663,99.644 188.173 C 99.840 188.052,100.000 187.608,100.000 187.187 C 100.000 185.408,103.650 178.843,106.553 175.400 C 119.947 159.518,143.218 157.101,159.070 169.947 C 166.844 176.246,173.878 173.115,173.986 163.306 C 174.001 161.922,174.738 158.427,176.054 153.500 C 177.079 149.662,177.344 148.835,178.361 146.300 C 178.560 145.805,179.132 144.320,179.633 143.000 C 181.339 138.506,188.518 125.871,189.974 124.800 C 190.124 124.690,190.506 124.221,190.823 123.757 C 192.574 121.199,198.723 114.629,201.827 112.000 C 207.855 106.895,212.951 103.457,218.980 100.427 C 223.744 98.033,225.685 97.176,228.200 96.358 C 229.080 96.071,229.971 95.693,230.180 95.518 C 230.389 95.343,230.963 95.200,231.456 95.200 C 231.949 95.200,232.464 95.020,232.600 94.800 C 232.736 94.580,233.289 94.400,233.829 94.400 C 234.369 94.400,235.123 94.236,235.505 94.035 C 235.887 93.835,237.280 93.461,238.600 93.205 C 239.920 92.950,241.630 92.585,242.400 92.396 C 246.049 91.499,252.207 91.122,259.800 91.333 C 268.560 91.576,271.084 91.887,278.400 93.622 C 279.390 93.857,280.697 94.149,281.305 94.271 C 281.913 94.393,282.508 94.651,282.629 94.846 C 282.749 95.041,283.276 95.200,283.800 95.200 C 284.324 95.200,284.864 95.380,285.000 95.600 C 285.136 95.820,285.651 96.000,286.144 96.000 C 286.637 96.000,287.211 96.152,287.420 96.338 C 287.629 96.523,288.880 97.100,290.200 97.619 C 295.804 99.821,305.970 105.784,310.200 109.349 C 313.882 112.452,316.974 115.409,320.000 118.720 C 324.211 123.327,324.026 123.111,325.194 124.800 C 325.726 125.570,326.272 126.290,326.407 126.400 C 326.631 126.582,328.267 129.026,329.490 131.007 C 333.805 137.990,337.923 147.620,339.577 154.600 C 339.837 155.700,340.212 157.230,340.409 158.000 C 342.864 167.594,342.698 183.504,340.024 194.800 C 338.508 201.202,338.729 203.500,341.093 205.911 C 342.050 206.888,345.235 208.400,346.335 208.400 C 346.925 208.400,349.775 209.362,353.394 210.783 C 377.653 220.307,390.674 250.192,381.551 275.409 C 380.468 278.404,376.409 286.268,375.685 286.774 C 375.507 286.898,374.924 287.630,374.390 288.400 C 369.422 295.560,358.768 303.446,350.600 306.009 C 349.720 306.285,348.640 306.653,348.200 306.828 C 347.760 307.002,346.500 307.332,345.400 307.561 C 344.300 307.790,342.555 308.162,341.523 308.389 C 340.276 308.662,313.704 308.810,262.323 308.830 C 204.150 308.853,184.702 308.977,183.796 309.330 C 180.612 310.572,178.400 312.990,178.400 315.229 C 178.400 315.735,178.001 316.573,177.514 317.091 C 176.770 317.883,176.706 318.158,177.114 318.812 C 177.381 319.239,177.600 319.862,177.600 320.195 C 177.600 320.528,177.737 320.800,177.905 320.800 C 178.073 320.800,178.388 321.201,178.605 321.691 C 178.822 322.181,179.810 323.126,180.800 323.791 L 182.600 325.000 258.400 325.103 C 331.542 325.203,341.011 325.084,346.400 324.001 C 347.610 323.758,349.276 323.459,350.103 323.337 C 350.929 323.215,351.705 322.955,351.826 322.758 C 351.948 322.561,352.476 322.400,353.000 322.400 C 353.524 322.400,354.064 322.220,354.200 322.000 C 354.336 321.780,354.876 321.600,355.400 321.600 C 355.924 321.600,356.464 321.420,356.600 321.200 C 356.736 320.980,357.287 320.800,357.824 320.800 C 358.361 320.800,358.800 320.620,358.800 320.400 C 358.800 320.180,359.160 320.000,359.600 320.000 C 360.040 320.000,360.400 319.820,360.400 319.600 C 360.400 319.380,360.645 319.200,360.944 319.200 C 361.601 319.200,366.545 316.724,366.733 316.300 C 366.807 316.135,367.212 316.000,367.633 316.000 C 368.055 316.000,368.400 315.820,368.400 315.600 C 368.400 315.380,368.670 315.200,369.000 315.200 C 369.330 315.200,369.600 315.020,369.600 314.800 C 369.600 314.580,369.870 314.400,370.200 314.400 C 370.530 314.400,370.800 314.220,370.800 314.000 C 370.800 313.780,371.070 313.600,371.400 313.600 C 371.730 313.600,372.000 313.420,372.000 313.200 C 372.000 312.980,372.230 312.800,372.512 312.800 C 372.793 312.800,373.283 312.440,373.600 312.000 C 373.917 311.560,374.323 311.200,374.502 311.200 C 374.680 311.200,375.431 310.615,376.170 309.900 C 376.909 309.185,378.091 308.160,378.797 307.623 C 380.482 306.341,382.400 304.540,382.400 304.242 C 382.400 304.112,383.480 302.908,384.800 301.568 C 386.120 300.227,387.200 298.958,387.200 298.747 C 387.200 298.536,387.636 297.928,388.169 297.395 C 388.702 296.862,389.254 296.060,389.396 295.613 C 389.538 295.166,389.781 294.800,389.937 294.800 C 390.093 294.800,390.576 293.992,391.010 293.004 C 391.445 292.016,391.935 291.206,392.100 291.204 C 392.265 291.202,392.400 290.840,392.400 290.400 C 392.400 289.960,392.580 289.600,392.800 289.600 C 393.020 289.600,393.200 289.240,393.200 288.800 C 393.200 288.360,393.380 288.000,393.600 288.000 C 393.820 288.000,394.000 287.640,394.000 287.200 C 394.000 286.760,394.180 286.400,394.400 286.400 C 394.620 286.400,394.800 286.040,394.800 285.600 C 394.800 285.160,394.980 284.800,395.200 284.800 C 395.420 284.800,395.600 284.451,395.600 284.024 C 395.600 283.597,395.780 283.136,396.000 283.000 C 396.220 282.864,396.400 282.313,396.400 281.776 C 396.400 281.239,396.580 280.800,396.800 280.800 C 397.020 280.800,397.200 280.260,397.200 279.600 C 397.200 278.940,397.380 278.400,397.600 278.400 C 397.820 278.400,398.000 277.860,398.000 277.200 C 398.000 276.540,398.180 276.000,398.400 276.000 C 398.620 276.000,398.800 275.316,398.800 274.480 C 398.800 273.644,399.025 272.735,399.300 272.460 C 399.681 272.079,399.800 268.595,399.800 257.800 C 399.800 247.005,399.681 243.521,399.300 243.140 C 399.025 242.865,398.800 242.057,398.800 241.344 C 398.800 240.631,398.620 239.936,398.400 239.800 C 398.180 239.664,398.000 239.023,398.000 238.376 C 398.000 237.729,397.820 237.200,397.600 237.200 C 397.380 237.200,397.200 236.660,397.200 236.000 C 397.200 235.340,397.020 234.800,396.800 234.800 C 396.580 234.800,396.400 234.361,396.400 233.824 C 396.400 233.287,396.220 232.736,396.000 232.600 C 395.780 232.464,395.600 232.003,395.600 231.576 C 395.600 231.149,395.420 230.800,395.200 230.800 C 394.980 230.800,394.800 230.440,394.800 230.000 C 394.800 229.560,394.620 229.200,394.400 229.200 C 394.180 229.200,394.000 228.840,394.000 228.400 C 394.000 227.960,393.820 227.600,393.600 227.600 C 393.380 227.600,393.200 227.240,393.200 226.800 C 393.200 226.360,393.020 226.000,392.800 226.000 C 392.580 226.000,392.400 225.730,392.400 225.400 C 392.400 225.070,392.220 224.800,392.000 224.800 C 391.780 224.800,391.600 224.513,391.600 224.162 C 391.600 223.468,390.501 221.337,389.700 220.479 C 389.425 220.184,389.200 219.784,389.200 219.590 C 389.200 219.395,388.750 218.786,388.200 218.236 C 387.650 217.686,387.200 217.074,387.200 216.876 C 387.200 216.392,379.574 208.400,379.112 208.400 C 378.912 208.400,377.871 207.500,376.800 206.400 C 375.729 205.300,374.700 204.400,374.514 204.400 C 374.329 204.400,373.917 204.040,373.600 203.600 C 373.283 203.160,372.793 202.800,372.512 202.800 C 372.230 202.800,372.000 202.620,372.000 202.400 C 372.000 202.180,371.730 202.000,371.400 202.000 C 371.070 202.000,370.800 201.820,370.800 201.600 C 370.800 201.380,370.564 201.200,370.275 201.200 C 369.987 201.200,369.364 200.840,368.892 200.400 C 368.420 199.960,367.756 199.600,367.417 199.600 C 367.078 199.600,366.800 199.420,366.800 199.200 C 366.800 198.980,366.440 198.800,366.000 198.800 C 365.560 198.800,365.200 198.620,365.200 198.400 C 365.200 198.180,364.840 198.000,364.400 198.000 C 363.960 198.000,363.600 197.820,363.600 197.600 C 363.600 197.380,363.240 197.200,362.800 197.200 C 362.360 197.200,362.000 197.020,362.000 196.800 C 362.000 196.580,361.640 196.400,361.200 196.400 C 360.760 196.400,360.400 196.220,360.400 196.000 C 360.400 195.780,360.051 195.600,359.624 195.600 C 359.197 195.600,358.736 195.420,358.600 195.200 C 358.464 194.980,357.984 194.800,357.533 194.800 C 356.805 194.800,356.742 194.631,356.976 193.300 C 357.873 188.193,358.091 184.704,358.084 175.600 C 358.076 165.137,357.841 160.805,357.204 159.400 C 357.005 158.960,356.748 157.790,356.634 156.800 C 356.206 153.106,355.906 151.589,355.558 151.374 C 355.361 151.252,355.200 150.544,355.200 149.800 C 355.200 149.056,355.020 148.336,354.800 148.200 C 354.580 148.064,354.400 147.423,354.400 146.776 C 354.400 146.129,354.220 145.600,354.000 145.600 C 353.780 145.600,353.600 145.161,353.600 144.624 C 353.600 144.087,353.420 143.536,353.200 143.400 C 352.980 143.264,352.800 142.713,352.800 142.176 C 352.800 141.639,352.620 141.200,352.400 141.200 C 352.180 141.200,352.000 140.660,352.000 140.000 C 352.000 139.340,351.820 138.800,351.600 138.800 C 351.380 138.800,351.200 138.440,351.200 138.000 C 351.200 137.560,351.020 137.200,350.800 137.200 C 350.580 137.200,350.400 136.660,350.400 136.000 C 350.400 135.340,350.220 134.800,350.000 134.800 C 349.780 134.800,349.600 134.440,349.600 134.000 C 349.600 133.560,349.420 133.200,349.200 133.200 C 348.980 133.200,348.800 132.840,348.800 132.400 C 348.800 131.960,348.620 131.600,348.400 131.600 C 348.180 131.600,348.000 131.240,348.000 130.800 C 348.000 130.360,347.820 130.000,347.600 130.000 C 347.380 130.000,347.200 129.640,347.200 129.200 C 347.200 128.760,347.064 128.400,346.898 128.400 C 346.731 128.400,346.340 127.815,346.028 127.100 C 345.716 126.385,345.132 125.509,344.730 125.153 C 344.329 124.797,344.000 124.212,344.000 123.853 C 344.000 123.494,343.820 123.200,343.600 123.200 C 343.380 123.200,343.200 122.880,343.200 122.488 C 343.200 122.097,342.840 121.517,342.400 121.200 C 341.960 120.883,341.600 120.331,341.600 119.973 C 341.600 119.615,341.240 118.907,340.800 118.400 C 340.360 117.893,340.000 117.333,340.000 117.157 C 340.000 116.981,339.550 116.386,339.000 115.836 C 338.450 115.286,338.000 114.670,338.000 114.466 C 338.000 114.263,337.280 113.355,336.400 112.448 C 335.520 111.541,334.800 110.708,334.800 110.597 C 334.800 110.006,321.511 97.239,319.196 95.606 C 318.428 95.065,317.451 94.302,317.025 93.911 C 316.598 93.520,316.013 93.200,315.725 93.200 C 315.436 93.200,315.200 93.047,315.200 92.861 C 315.200 92.674,314.480 92.197,313.600 91.800 C 312.720 91.403,312.000 90.926,312.000 90.739 C 312.000 90.553,311.706 90.400,311.347 90.400 C 310.988 90.400,310.403 90.084,310.047 89.697 C 309.691 89.311,308.860 88.726,308.200 88.398 C 307.540 88.070,306.910 87.707,306.800 87.591 C 306.391 87.161,299.781 83.994,299.300 83.997 C 299.025 83.999,298.800 83.820,298.800 83.600 C 298.800 83.380,298.440 83.200,298.000 83.200 C 297.560 83.200,297.200 83.053,297.200 82.872 C 297.200 82.692,296.300 82.300,295.200 82.000 C 294.100 81.700,293.200 81.308,293.200 81.128 C 293.200 80.947,292.761 80.800,292.224 80.800 C 291.687 80.800,291.136 80.620,291.000 80.400 C 290.864 80.180,290.324 80.000,289.800 80.000 C 289.276 80.000,288.736 79.820,288.600 79.600 C 288.464 79.380,287.924 79.200,287.400 79.200 C 286.876 79.200,286.336 79.020,286.200 78.800 C 286.064 78.580,285.333 78.400,284.576 78.400 C 283.819 78.400,283.200 78.220,283.200 78.000 C 283.200 77.780,282.491 77.600,281.624 77.600 C 280.757 77.600,279.936 77.420,279.800 77.200 C 279.664 76.980,278.764 76.800,277.800 76.800 C 276.836 76.800,275.936 76.620,275.800 76.400 C 275.664 76.180,274.675 76.000,273.602 76.000 C 272.530 76.000,271.235 75.842,270.726 75.649 C 269.385 75.141,254.562 74.840,249.400 75.216 M254.400 108.048 C 249.640 110.738,248.744 116.250,252.463 119.969 C 256.593 124.099,263.613 122.269,265.185 116.653 C 266.878 110.606,259.827 104.981,254.400 108.048 M284.993 116.136 C 282.058 117.467,280.491 120.586,280.907 124.271 C 281.191 126.796,282.065 127.786,286.841 130.992 C 296.208 137.280,303.264 146.121,307.600 157.000 C 309.469 161.688,311.209 170.746,311.203 175.746 C 311.190 185.184,325.098 185.462,325.871 176.039 C 327.185 160.015,318.357 139.119,304.800 126.163 C 295.993 117.746,289.116 114.265,284.993 116.136 M152.400 309.324 C 151.630 309.567,150.651 310.089,150.225 310.483 C 149.798 310.877,149.336 311.200,149.198 311.200 C 148.770 311.200,147.200 314.265,147.200 315.101 C 147.200 315.536,146.810 316.388,146.334 316.994 C 145.626 317.894,145.552 318.232,145.934 318.842 C 146.190 319.253,146.400 319.862,146.400 320.195 C 146.400 320.528,146.537 320.800,146.705 320.800 C 146.873 320.800,147.188 321.201,147.405 321.691 C 148.615 324.420,155.274 326.082,158.359 324.424 C 159.757 323.672,162.000 321.325,162.000 320.613 C 162.000 320.276,162.180 320.000,162.400 320.000 C 163.014 320.000,162.850 317.100,162.187 316.224 C 161.864 315.796,161.600 315.149,161.600 314.785 C 161.600 312.644,159.089 310.099,156.154 309.267 C 154.268 308.732,154.273 308.732,152.400 309.324 " stroke="none" fill="#040505" fill-rule="evenodd"></path><path id="path1" d="M251.544 91.790 C 251.404 91.929,249.695 92.205,247.745 92.403 C 245.795 92.601,243.300 92.943,242.200 93.163 C 238.700 93.863,236.639 94.328,235.200 94.743 C 234.430 94.965,233.350 95.263,232.800 95.406 C 232.250 95.550,231.440 95.814,231.000 95.993 C 230.560 96.172,229.570 96.541,228.800 96.813 C 223.323 98.742,214.607 103.178,210.452 106.150 C 209.491 106.837,208.411 107.580,208.052 107.800 C 207.694 108.020,207.310 108.296,207.200 108.414 C 207.090 108.532,205.650 109.727,204.000 111.069 C 200.733 113.727,194.192 120.331,191.985 123.200 C 191.223 124.190,190.497 125.090,190.371 125.200 C 188.284 127.021,179.200 143.991,179.200 146.068 C 179.200 146.397,179.078 146.789,178.929 146.938 C 178.489 147.378,176.822 152.524,176.810 153.476 C 176.805 153.958,176.639 154.452,176.442 154.574 C 176.245 154.695,175.985 155.471,175.863 156.297 C 175.741 157.124,175.445 158.790,175.206 160.000 C 174.966 161.210,174.668 163.370,174.543 164.800 C 174.418 166.230,174.155 167.571,173.958 167.780 C 173.761 167.989,173.600 168.397,173.600 168.686 C 173.600 170.508,170.689 173.075,167.800 173.801 C 166.143 174.217,162.400 173.746,162.400 173.121 C 162.400 172.944,162.175 172.799,161.900 172.798 C 161.625 172.797,160.857 172.287,160.193 171.665 C 158.576 170.149,154.663 167.522,152.200 166.299 C 150.442 165.427,148.312 164.641,143.736 163.178 C 139.959 161.971,128.286 162.466,124.600 163.991 C 124.160 164.173,122.783 164.713,121.540 165.191 C 107.479 170.599,98.801 183.999,98.800 200.304 C 98.800 211.019,93.410 215.471,85.688 211.137 C 84.966 210.731,84.032 210.400,83.611 210.400 C 83.191 210.400,82.736 210.220,82.600 210.000 C 82.464 209.780,81.924 209.600,81.400 209.600 C 80.876 209.600,80.348 209.439,80.226 209.242 C 80.105 209.045,79.329 208.783,78.503 208.659 C 77.676 208.535,75.560 208.206,73.800 207.928 C 67.830 206.985,56.859 207.641,53.000 209.172 C 52.560 209.346,51.480 209.706,50.600 209.971 C 42.398 212.441,31.258 220.319,26.801 226.800 C 26.272 227.570,25.728 228.290,25.593 228.400 C 24.830 229.021,22.652 232.735,20.901 236.400 C 16.123 246.406,14.739 259.779,17.445 269.800 C 21.583 285.122,31.492 297.137,45.299 303.576 C 47.215 304.469,49.046 305.200,49.368 305.200 C 49.690 305.200,50.051 305.359,50.171 305.554 C 50.292 305.749,50.887 306.007,51.495 306.129 C 52.103 306.251,53.410 306.554,54.400 306.803 C 59.313 308.039,61.419 308.119,92.800 308.263 C 128.698 308.429,126.396 308.240,129.243 311.252 C 130.327 312.398,130.813 313.378,131.198 315.189 L 131.709 317.600 138.590 317.600 L 145.472 317.600 145.910 316.637 C 146.152 316.107,146.541 314.961,146.776 314.090 C 149.120 305.382,162.734 307.609,162.794 316.709 L 162.800 317.618 169.900 317.509 L 177.000 317.400 177.559 315.600 C 178.428 312.801,178.910 311.887,180.145 310.697 C 182.701 308.236,176.562 308.419,261.600 308.266 C 315.473 308.169,340.077 307.992,341.600 307.691 C 342.810 307.452,344.610 307.052,345.600 306.803 C 346.590 306.554,347.897 306.251,348.505 306.129 C 349.113 306.007,349.708 305.749,349.829 305.554 C 349.949 305.359,350.331 305.200,350.677 305.200 C 353.620 305.200,363.478 298.936,368.607 293.807 C 372.637 289.777,373.000 289.365,374.786 286.800 C 375.323 286.030,375.860 285.310,375.981 285.200 C 376.557 284.674,378.977 279.968,380.506 276.400 C 384.874 266.208,384.995 251.224,380.800 240.200 C 380.338 238.986,377.049 232.228,376.809 232.000 C 376.693 231.890,376.345 231.308,376.035 230.707 C 375.726 230.105,375.181 229.295,374.825 228.907 C 374.469 228.518,373.736 227.570,373.195 226.800 C 370.678 223.216,363.211 216.572,359.633 214.733 C 359.065 214.440,358.510 214.107,358.400 213.993 C 358.290 213.878,356.940 213.184,355.400 212.450 C 353.860 211.716,352.287 210.955,351.905 210.758 C 351.523 210.561,350.859 210.400,350.429 210.400 C 349.999 210.400,349.536 210.220,349.400 210.000 C 349.264 209.780,348.724 209.600,348.200 209.600 C 347.676 209.600,347.136 209.420,347.000 209.200 C 346.864 208.980,346.335 208.800,345.825 208.800 C 340.858 208.800,337.240 203.321,338.601 197.860 C 341.006 188.211,341.876 178.785,341.208 169.613 C 340.675 162.281,340.018 158.534,338.033 151.500 C 336.299 145.354,331.737 135.345,328.753 131.138 C 328.339 130.554,328.000 129.894,328.000 129.672 C 328.000 129.449,327.855 129.207,327.677 129.133 C 327.499 129.060,326.749 128.100,326.010 127.000 C 322.416 121.649,313.208 112.137,308.400 108.808 C 307.630 108.275,306.910 107.728,306.800 107.593 C 306.022 106.637,300.615 103.391,295.600 100.869 C 286.271 96.178,278.317 93.727,268.000 92.364 C 264.299 91.875,251.891 91.442,251.544 91.790 M261.305 107.300 C 269.099 111.656,266.578 122.800,257.800 122.800 C 249.399 122.800,246.523 111.364,253.938 107.446 C 255.284 106.735,260.123 106.639,261.305 107.300 M291.716 115.653 C 303.800 121.770,316.046 135.801,321.695 150.000 C 321.914 150.550,322.252 151.313,322.447 151.695 C 322.641 152.077,322.800 152.741,322.800 153.171 C 322.800 153.601,322.980 154.064,323.200 154.200 C 323.420 154.336,323.600 154.876,323.600 155.400 C 323.600 155.924,323.760 156.452,323.956 156.573 C 324.151 156.694,324.414 157.379,324.539 158.096 C 324.664 158.813,324.963 160.390,325.204 161.600 C 326.497 168.104,327.181 176.979,326.447 177.713 C 326.201 177.959,326.000 178.462,326.000 178.832 C 326.000 181.197,321.330 183.792,317.564 183.520 C 312.427 183.148,310.712 180.368,309.967 171.200 C 309.516 165.657,309.195 163.482,308.759 163.020 C 308.562 162.811,308.400 162.147,308.400 161.544 C 308.400 160.941,308.220 160.336,308.000 160.200 C 307.780 160.064,307.600 159.524,307.600 159.000 C 307.600 158.476,307.420 157.936,307.200 157.800 C 306.980 157.664,306.798 157.248,306.797 156.876 C 306.772 152.046,295.270 137.458,287.351 132.214 C 281.149 128.108,280.259 126.927,280.244 122.792 C 280.224 116.772,286.370 112.946,291.716 115.653 " stroke="none" fill="#93e3fb" fill-rule="evenodd"></path><path id="path2" d="M256.900 91.476 C 257.285 91.576,257.915 91.576,258.300 91.476 C 258.685 91.375,258.370 91.293,257.600 91.293 C 256.830 91.293,256.515 91.375,256.900 91.476 M257.105 107.083 C 257.602 107.179,258.322 107.175,258.705 107.075 C 259.087 106.975,258.680 106.896,257.800 106.901 C 256.920 106.905,256.607 106.987,257.105 107.083 M197.600 116.200 C 196.628 117.190,195.923 118.000,196.033 118.000 C 196.143 118.000,197.028 117.190,198.000 116.200 C 198.972 115.210,199.677 114.400,199.567 114.400 C 199.457 114.400,198.572 115.210,197.600 116.200 M78.100 308.700 C 86.405 308.760,99.995 308.760,108.300 308.700 C 116.605 308.639,109.810 308.590,93.200 308.590 C 76.590 308.590,69.795 308.639,78.100 308.700 M223.468 308.700 C 244.186 308.757,278.206 308.757,299.068 308.700 C 319.931 308.643,302.980 308.596,261.400 308.596 C 219.820 308.596,202.751 308.643,223.468 308.700 " stroke="none" fill="#4c747c" fill-rule="evenodd"></path><path id="path3" d="M247.800 92.000 L 246.200 92.286 247.800 92.296 C 248.680 92.301,249.940 92.168,250.600 92.000 L 251.800 91.695 250.600 91.704 C 249.940 91.709,248.680 91.842,247.800 92.000 M264.800 92.000 C 265.350 92.176,266.520 92.317,267.400 92.314 L 269.000 92.308 267.400 91.977 C 266.520 91.795,265.350 91.654,264.800 91.663 L 263.800 91.680 264.800 92.000 M242.400 92.800 L 241.400 93.120 242.400 93.154 C 242.950 93.173,243.670 93.013,244.000 92.800 C 244.764 92.306,243.942 92.306,242.400 92.800 M271.200 92.800 C 271.530 93.013,272.250 93.173,272.800 93.154 L 273.800 93.120 272.800 92.800 C 271.258 92.306,270.436 92.306,271.200 92.800 M238.400 93.600 L 237.400 93.920 238.400 93.954 C 238.950 93.973,239.670 93.813,240.000 93.600 C 240.764 93.106,239.942 93.106,238.400 93.600 M275.600 93.582 C 275.930 93.805,276.545 93.991,276.967 93.994 C 277.990 94.002,277.671 93.773,276.200 93.444 C 275.324 93.248,275.162 93.285,275.600 93.582 M235.200 94.400 C 234.376 94.664,234.341 94.726,235.000 94.754 C 235.440 94.773,236.070 94.613,236.400 94.400 C 237.101 93.947,236.614 93.947,235.200 94.400 M278.800 94.382 C 279.130 94.605,279.745 94.791,280.167 94.794 C 281.190 94.802,280.871 94.573,279.400 94.244 C 278.524 94.048,278.362 94.085,278.800 94.382 M229.094 96.285 C 228.045 96.635,227.267 97.000,227.364 97.097 C 227.574 97.307,230.436 96.374,230.980 95.918 C 231.471 95.507,231.365 95.528,229.094 96.285 M284.200 95.975 C 284.640 96.170,286.530 96.914,288.400 97.629 C 290.270 98.344,291.980 99.052,292.200 99.202 C 292.785 99.602,294.000 100.004,294.000 99.797 C 294.000 99.417,286.480 96.283,284.599 95.879 C 283.725 95.691,283.617 95.717,284.200 95.975 M224.933 97.922 C 224.016 98.295,223.116 98.751,222.933 98.936 C 222.512 99.360,226.066 97.999,226.580 97.540 C 227.093 97.081,226.880 97.131,224.933 97.922 M219.900 100.226 C 218.855 100.770,218.000 101.305,218.000 101.414 C 218.000 101.593,221.960 99.723,222.367 99.352 C 222.862 98.901,221.561 99.362,219.900 100.226 M294.433 100.149 C 294.845 100.517,297.200 101.600,297.200 101.421 C 297.200 101.190,294.982 100.000,294.553 100.000 C 294.396 100.000,294.342 100.067,294.433 100.149 M214.700 103.029 C 214.095 103.357,213.600 103.710,213.600 103.813 C 213.600 104.199,214.232 103.957,215.200 103.200 C 216.389 102.270,216.211 102.209,214.700 103.029 M208.400 107.200 C 207.850 107.630,207.597 107.986,207.838 107.991 C 208.079 107.996,208.602 107.640,209.000 107.200 C 209.912 106.192,209.688 106.192,208.400 107.200 M306.805 107.480 C 306.808 107.656,307.438 108.207,308.205 108.704 C 310.003 109.868,310.000 109.600,308.200 108.227 C 307.430 107.640,306.802 107.303,306.805 107.480 M251.978 109.100 L 250.600 110.600 252.196 109.200 C 253.073 108.430,253.868 107.755,253.962 107.700 C 254.056 107.645,253.959 107.600,253.745 107.600 C 253.532 107.600,252.737 108.275,251.978 109.100 M261.638 107.700 C 261.732 107.755,262.527 108.430,263.404 109.200 L 265.000 110.600 263.622 109.100 C 262.863 108.275,262.068 107.600,261.855 107.600 C 261.641 107.600,261.544 107.645,261.638 107.700 M204.589 110.237 L 202.600 112.075 204.800 110.357 C 206.010 109.412,207.075 108.585,207.167 108.519 C 207.258 108.454,207.163 108.400,206.956 108.400 C 206.748 108.400,205.683 109.227,204.589 110.237 M311.400 111.062 C 311.840 111.504,314.180 113.734,316.600 116.018 C 320.624 119.817,320.727 119.888,317.800 116.856 C 316.040 115.033,313.700 112.803,312.600 111.900 C 311.500 110.997,310.960 110.621,311.400 111.062 M265.048 111.400 C 266.170 114.358,265.530 117.970,263.453 120.397 L 262.600 121.394 263.543 120.597 C 265.813 118.677,266.775 113.910,265.358 111.600 C 264.986 110.993,264.864 110.914,265.048 111.400 M197.893 116.307 C 195.532 118.675,193.600 120.758,193.600 120.935 C 193.600 121.112,193.825 121.005,194.100 120.697 C 194.375 120.389,196.397 118.306,198.592 116.068 C 200.788 113.831,202.495 112.000,202.386 112.000 C 202.276 112.000,200.254 113.938,197.893 116.307 M249.709 114.800 C 249.709 115.790,249.787 116.195,249.882 115.700 C 249.978 115.205,249.978 114.395,249.882 113.900 C 249.787 113.405,249.709 113.810,249.709 114.800 M285.600 115.218 C 285.162 115.515,285.324 115.552,286.200 115.356 C 287.671 115.027,287.990 114.798,286.967 114.806 C 286.545 114.809,285.930 114.995,285.600 115.218 M288.833 114.944 C 288.925 115.023,289.540 115.208,290.200 115.356 C 291.076 115.552,291.238 115.515,290.800 115.218 C 290.260 114.853,288.432 114.598,288.833 114.944 M283.000 116.610 L 281.800 117.616 283.300 116.768 C 284.125 116.302,284.800 115.849,284.800 115.760 C 284.800 115.357,284.101 115.687,283.000 116.610 M291.600 115.779 C 291.600 115.889,292.140 116.259,292.800 116.600 C 293.460 116.941,294.000 117.131,294.000 117.021 C 294.000 116.911,293.460 116.541,292.800 116.200 C 292.140 115.859,291.600 115.669,291.600 115.779 M250.553 118.601 C 250.864 119.261,251.535 120.161,252.045 120.601 C 252.940 121.373,252.938 121.357,251.986 120.154 C 251.444 119.468,250.772 118.568,250.494 118.154 C 250.196 117.709,250.220 117.892,250.553 118.601 M296.800 118.911 C 296.800 118.987,297.385 119.478,298.100 120.001 C 298.904 120.590,299.184 120.687,298.833 120.255 C 298.300 119.599,296.800 118.607,296.800 118.911 M301.800 122.936 C 303.120 124.164,304.348 125.176,304.529 125.184 C 304.954 125.205,304.299 124.593,301.600 122.449 L 299.400 120.702 301.800 122.936 M280.093 122.800 C 280.093 123.570,280.175 123.885,280.276 123.500 C 280.376 123.115,280.376 122.485,280.276 122.100 C 280.175 121.715,280.093 122.030,280.093 122.800 M326.067 127.125 C 326.799 128.230,327.470 129.063,327.558 128.975 C 327.746 128.788,325.640 125.672,325.102 125.339 C 324.901 125.215,325.336 126.019,326.067 127.125 M282.288 128.423 C 282.996 129.188,284.166 130.133,284.888 130.524 C 286.154 131.210,286.165 131.209,285.204 130.517 C 284.656 130.123,283.486 129.178,282.604 128.417 L 281.000 127.034 282.288 128.423 M308.600 129.600 C 309.459 130.480,310.237 131.200,310.328 131.200 C 310.665 131.200,307.786 128.066,307.419 128.034 C 307.209 128.015,307.741 128.720,308.600 129.600 M328.015 129.800 C 328.017 130.020,328.386 130.650,328.836 131.200 C 329.379 131.864,329.515 131.931,329.240 131.400 C 328.566 130.095,328.012 129.372,328.015 129.800 M185.814 131.435 C 185.441 132.004,185.205 132.538,185.289 132.622 C 185.373 132.707,185.758 132.241,186.144 131.588 C 187.006 130.128,186.748 130.009,185.814 131.435 M286.400 131.309 C 286.400 131.394,287.255 132.063,288.300 132.795 C 289.345 133.528,290.733 134.593,291.385 135.163 C 292.036 135.733,292.307 135.858,291.985 135.439 C 291.221 134.444,286.400 130.878,286.400 131.309 M311.573 133.100 C 314.116 136.233,314.423 136.546,313.239 134.800 C 311.594 132.372,310.964 131.600,310.633 131.600 C 310.480 131.600,310.903 132.275,311.573 133.100 M331.800 136.400 C 332.141 137.060,332.511 137.600,332.621 137.600 C 332.731 137.600,332.541 137.060,332.200 136.400 C 331.859 135.740,331.489 135.200,331.379 135.200 C 331.269 135.200,331.459 135.740,331.800 136.400 M292.800 136.086 C 292.800 136.444,297.257 140.877,297.436 140.697 C 297.515 140.619,296.504 139.490,295.190 138.190 C 293.875 136.889,292.800 135.943,292.800 136.086 M315.009 137.826 C 315.381 138.501,316.041 139.491,316.476 140.026 L 317.267 141.000 316.591 139.774 C 316.219 139.099,315.559 138.109,315.124 137.574 L 314.333 136.600 315.009 137.826 M332.834 138.200 C 332.834 138.420,333.178 139.230,333.600 140.000 C 334.022 140.770,334.366 141.220,334.366 141.000 C 334.366 140.780,334.022 139.970,333.600 139.200 C 333.178 138.430,332.834 137.980,332.834 138.200 M298.656 142.600 C 299.338 143.480,300.640 145.265,301.548 146.566 C 302.457 147.868,303.200 148.788,303.200 148.611 C 303.200 148.163,298.794 142.087,298.036 141.489 C 297.694 141.220,297.974 141.720,298.656 142.600 M317.800 142.400 C 318.141 143.060,318.511 143.600,318.621 143.600 C 318.731 143.600,318.541 143.060,318.200 142.400 C 317.859 141.740,317.489 141.200,317.379 141.200 C 317.269 141.200,317.459 141.740,317.800 142.400 M180.400 141.684 C 180.400 141.804,180.128 142.554,179.795 143.351 C 179.462 144.148,179.279 144.800,179.389 144.800 C 179.706 144.800,180.833 141.900,180.605 141.672 C 180.492 141.559,180.400 141.565,180.400 141.684 M335.213 143.600 C 336.605 147.119,336.748 147.425,336.775 146.953 C 336.807 146.379,335.178 142.325,334.704 141.800 C 334.505 141.580,334.734 142.390,335.213 143.600 M338.006 151.433 C 338.009 151.855,338.195 152.470,338.418 152.800 C 338.715 153.238,338.752 153.076,338.556 152.200 C 338.227 150.729,337.998 150.410,338.006 151.433 M176.446 153.067 C 176.421 153.324,176.284 153.864,176.141 154.267 C 175.940 154.836,175.994 154.897,176.379 154.542 C 176.652 154.291,176.789 153.751,176.684 153.342 C 176.579 152.934,176.472 152.810,176.446 153.067 M338.868 154.200 C 338.862 154.640,339.011 155.360,339.200 155.800 C 339.638 156.819,339.638 155.768,339.200 154.400 C 338.943 153.596,338.877 153.557,338.868 154.200 M175.429 157.029 C 175.281 157.615,175.251 158.184,175.361 158.294 C 175.471 158.404,175.681 158.015,175.829 157.429 C 175.976 156.842,176.006 156.273,175.896 156.163 C 175.786 156.053,175.576 156.442,175.429 157.029 M339.646 158.000 C 339.627 158.550,339.787 159.270,340.000 159.600 C 340.494 160.364,340.494 159.542,340.000 158.000 L 339.680 157.000 339.646 158.000 M307.628 159.076 C 307.613 159.558,307.780 160.064,308.000 160.200 C 308.473 160.492,308.473 160.101,308.000 159.000 C 307.669 158.229,307.655 158.231,307.628 159.076 M324.434 159.600 C 324.446 159.930,324.611 160.560,324.800 161.000 L 325.144 161.800 325.166 161.000 C 325.178 160.560,325.013 159.930,324.800 159.600 C 324.455 159.067,324.415 159.067,324.434 159.600 M174.849 160.200 C 174.816 160.640,174.696 161.450,174.583 162.000 L 174.377 163.000 174.806 162.019 C 175.042 161.479,175.161 160.669,175.072 160.219 C 174.913 159.421,174.907 159.421,174.849 160.200 M340.428 162.033 C 340.444 162.785,340.620 163.760,340.820 164.200 C 341.065 164.739,341.105 164.346,340.941 163.000 C 340.651 160.619,340.389 160.124,340.428 162.033 M308.428 161.876 C 308.413 162.358,308.580 162.864,308.800 163.000 C 309.273 163.292,309.273 162.901,308.800 161.800 C 308.469 161.029,308.455 161.031,308.428 161.876 M133.700 162.294 C 134.745 162.376,136.455 162.376,137.500 162.294 C 138.545 162.212,137.690 162.144,135.600 162.144 C 133.510 162.144,132.655 162.212,133.700 162.294 M129.100 162.682 C 129.595 162.778,130.405 162.778,130.900 162.682 C 131.395 162.587,130.990 162.509,130.000 162.509 C 129.010 162.509,128.605 162.587,129.100 162.682 M140.305 162.683 C 140.802 162.779,141.522 162.775,141.905 162.675 C 142.287 162.575,141.880 162.496,141.000 162.501 C 140.120 162.505,139.807 162.587,140.305 162.683 M126.200 163.200 C 125.093 163.482,125.077 163.509,126.000 163.547 C 126.550 163.569,127.270 163.413,127.600 163.200 C 128.281 162.760,127.929 162.760,126.200 163.200 M143.800 163.162 C 144.240 163.349,145.860 163.905,147.400 164.398 C 148.940 164.891,151.055 165.727,152.100 166.254 C 153.145 166.782,154.000 167.123,154.000 167.013 C 154.000 166.678,150.342 164.954,147.800 164.093 C 145.216 163.217,142.376 162.556,143.800 163.162 M325.438 164.600 C 325.770 166.584,326.002 166.904,325.994 165.367 C 325.991 164.725,325.804 163.930,325.579 163.600 C 325.286 163.170,325.246 163.454,325.438 164.600 M122.586 164.354 C 120.439 165.128,118.800 165.923,118.800 166.192 C 118.800 166.282,119.795 165.916,121.011 165.378 C 122.228 164.840,123.477 164.400,123.788 164.400 C 124.099 164.400,124.464 164.220,124.600 164.000 C 124.908 163.502,124.996 163.486,122.586 164.354 M309.246 165.200 C 309.227 165.750,309.387 166.470,309.600 166.800 C 310.094 167.564,310.094 166.742,309.600 165.200 L 309.280 164.200 309.246 165.200 M174.060 165.867 C 174.027 166.344,173.884 167.064,173.741 167.467 C 173.542 168.031,173.595 168.096,173.972 167.749 C 174.242 167.501,174.385 166.781,174.291 166.149 C 174.170 165.339,174.102 165.256,174.060 165.867 M115.310 167.960 C 113.983 168.818,112.754 169.763,112.580 170.060 C 112.392 170.380,112.576 170.331,113.031 169.940 C 113.454 169.577,114.880 168.632,116.200 167.841 C 117.520 167.049,118.403 166.402,118.162 166.401 C 117.921 166.400,116.638 167.102,115.310 167.960 M341.384 175.600 C 341.377 184.400,341.397 184.671,341.706 179.842 C 341.888 177.004,341.891 172.774,341.714 170.442 C 341.438 166.812,341.390 167.557,341.384 175.600 M154.400 167.301 C 154.510 167.426,155.590 168.202,156.800 169.026 C 158.010 169.850,158.689 170.172,158.309 169.741 C 157.930 169.310,156.850 168.534,155.909 168.016 C 154.969 167.499,154.290 167.177,154.400 167.301 M326.190 173.095 C 326.196 175.749,326.335 177.837,326.500 177.736 C 326.866 177.512,326.826 170.578,326.450 169.235 C 326.302 168.704,326.185 170.441,326.190 173.095 M310.030 171.033 C 310.046 172.335,310.210 174.210,310.395 175.200 C 310.625 176.430,310.662 175.734,310.513 173.000 C 310.270 168.544,309.984 167.380,310.030 171.033 M108.989 173.211 C 107.467 174.745,106.322 176.000,106.444 176.000 C 106.749 176.000,112.031 170.697,111.878 170.545 C 111.811 170.478,110.511 171.678,108.989 173.211 M171.375 171.650 C 170.552 172.525,170.452 172.747,171.041 172.391 C 171.767 171.951,173.043 170.400,172.678 170.400 C 172.608 170.400,172.021 170.963,171.375 171.650 M160.327 171.800 C 160.981 172.350,161.638 172.800,161.788 172.800 C 161.939 172.800,161.527 172.350,160.873 171.800 C 160.219 171.250,159.562 170.800,159.412 170.800 C 159.261 170.800,159.673 171.250,160.327 171.800 M164.400 173.753 C 164.400 174.093,166.305 174.242,167.027 173.959 C 167.574 173.745,167.303 173.648,166.100 173.628 C 165.165 173.613,164.400 173.669,164.400 173.753 M105.293 177.500 C 104.257 178.996,103.921 179.600,104.123 179.600 C 104.217 179.600,104.770 178.880,105.353 178.000 C 106.536 176.212,106.484 175.779,105.293 177.500 M325.045 179.788 C 324.680 180.344,324.522 180.800,324.695 180.800 C 325.084 180.800,326.119 179.186,325.882 178.949 C 325.786 178.853,325.410 179.231,325.045 179.788 M311.600 180.020 C 311.600 181.012,315.962 183.821,316.961 183.473 C 317.202 183.389,316.805 183.187,316.078 183.024 C 315.352 182.860,314.047 182.051,313.178 181.225 C 312.310 180.400,311.600 179.857,311.600 180.020 M101.400 184.261 C 101.064 185.065,100.882 185.815,100.995 185.928 C 101.108 186.041,101.200 186.035,101.200 185.916 C 101.200 185.796,101.472 185.046,101.805 184.249 C 102.138 183.452,102.321 182.800,102.211 182.800 C 102.101 182.800,101.736 183.458,101.400 184.261 M340.676 187.210 C 340.530 187.755,340.427 188.650,340.446 189.200 C 340.471 189.918,340.584 189.757,340.849 188.627 C 341.255 186.895,341.100 185.625,340.676 187.210 M99.040 191.640 C 98.893 192.557,98.852 193.385,98.947 193.480 C 99.042 193.576,99.246 192.910,99.400 192.000 C 99.554 191.090,99.596 190.262,99.493 190.160 C 99.390 190.057,99.187 190.723,99.040 191.640 M339.849 191.815 C 339.712 192.173,339.616 192.856,339.636 193.333 C 339.662 193.947,339.785 193.808,340.059 192.856 C 340.457 191.472,340.294 190.658,339.849 191.815 M98.562 200.200 C 98.562 203.720,98.624 205.106,98.698 203.281 C 98.772 201.456,98.772 198.576,98.697 196.881 C 98.622 195.186,98.561 196.680,98.562 200.200 M339.000 196.000 C 338.848 196.691,338.807 197.341,338.909 197.442 C 339.011 197.544,339.209 197.053,339.350 196.350 C 339.683 194.683,339.360 194.360,339.000 196.000 M338.252 198.900 C 337.924 200.123,337.950 201.702,338.306 202.260 C 338.468 202.513,338.606 201.658,338.614 200.360 C 338.630 197.733,338.598 197.608,338.252 198.900 M338.834 203.600 C 338.817 203.930,339.268 204.740,339.835 205.400 L 340.866 206.600 340.090 205.400 C 339.663 204.740,339.213 203.930,339.089 203.600 C 338.888 203.067,338.860 203.067,338.834 203.600 M59.400 207.600 L 58.200 207.905 59.400 207.913 C 60.060 207.917,61.050 207.776,61.600 207.600 L 62.600 207.280 61.600 207.287 C 61.050 207.291,60.060 207.432,59.400 207.600 M71.400 207.600 C 72.060 207.768,73.140 207.905,73.800 207.905 L 75.000 207.905 73.800 207.600 C 73.140 207.432,72.060 207.295,71.400 207.295 L 70.200 207.295 71.400 207.600 M96.892 209.029 C 96.397 209.783,96.072 210.400,96.169 210.400 C 96.447 210.400,98.104 207.971,97.939 207.806 C 97.857 207.724,97.386 208.274,96.892 209.029 M54.800 208.400 L 53.800 208.720 54.800 208.754 C 55.350 208.773,56.070 208.613,56.400 208.400 C 57.164 207.906,56.342 207.906,54.800 208.400 M76.800 208.382 C 77.130 208.605,77.745 208.791,78.167 208.794 C 79.190 208.802,78.871 208.573,77.400 208.244 C 76.524 208.048,76.362 208.085,76.800 208.382 M51.800 209.200 C 51.029 209.531,51.031 209.545,51.876 209.572 C 52.358 209.587,52.864 209.420,53.000 209.200 C 53.292 208.727,52.901 208.727,51.800 209.200 M94.000 211.400 C 93.420 211.732,93.252 211.972,93.600 211.973 C 93.930 211.974,94.549 211.710,94.976 211.387 C 95.964 210.640,95.315 210.648,94.000 211.400 M43.289 212.665 C 42.568 213.020,42.043 213.377,42.124 213.457 C 42.295 213.628,44.800 212.424,44.800 212.171 C 44.800 211.929,44.747 211.946,43.289 212.665 M90.800 212.400 C 89.996 212.657,89.957 212.723,90.600 212.732 C 91.040 212.738,91.760 212.589,92.200 212.400 C 93.219 211.962,92.168 211.962,90.800 212.400 M355.200 212.183 C 355.200 212.363,357.602 213.600,357.950 213.600 C 358.297 213.600,356.694 212.567,355.900 212.279 C 355.515 212.139,355.200 212.096,355.200 212.183 M39.198 215.101 C 35.100 217.891,33.630 218.999,33.615 219.311 C 33.607 219.482,34.727 218.759,36.104 217.703 C 37.481 216.648,39.281 215.368,40.104 214.860 C 41.376 214.073,41.905 213.596,41.500 213.601 C 41.445 213.602,40.409 214.277,39.198 215.101 M360.393 215.070 C 360.940 215.471,362.515 216.660,363.893 217.711 C 365.272 218.762,366.390 219.482,366.377 219.311 C 366.353 218.973,362.532 216.141,360.600 215.029 C 359.414 214.347,359.412 214.347,360.393 215.070 M368.817 221.815 C 370.017 223.143,371.082 224.171,371.181 224.100 C 371.281 224.029,370.298 222.943,368.998 221.686 L 366.633 219.400 368.817 221.815 M30.408 222.192 C 29.441 223.177,28.729 224.041,28.825 224.113 C 28.921 224.184,29.790 223.378,30.757 222.321 C 32.971 219.900,32.741 219.814,30.408 222.192 M26.227 227.000 C 25.640 227.770,25.303 228.398,25.480 228.395 C 25.656 228.392,26.207 227.762,26.704 226.995 C 27.868 225.197,27.600 225.200,26.227 227.000 M381.212 241.600 C 381.212 241.930,381.387 242.470,381.600 242.800 C 381.945 243.333,381.988 243.333,381.988 242.800 C 381.988 242.470,381.813 241.930,381.600 241.600 C 381.255 241.067,381.212 241.067,381.212 241.600 M17.400 244.800 C 17.248 245.491,17.207 246.141,17.309 246.242 C 17.411 246.344,17.609 245.853,17.750 245.150 C 18.083 243.483,17.760 243.160,17.400 244.800 M16.501 249.800 C 16.505 250.680,16.587 250.993,16.683 250.495 C 16.779 249.998,16.775 249.278,16.675 248.895 C 16.575 248.513,16.496 248.920,16.501 249.800 M383.293 249.600 C 383.293 250.370,383.375 250.685,383.476 250.300 C 383.576 249.915,383.576 249.285,383.476 248.900 C 383.375 248.515,383.293 248.830,383.293 249.600 M383.800 257.987 C 383.800 261.643,383.922 263.833,384.077 262.960 C 384.416 261.053,384.400 254.237,384.053 252.627 C 383.914 251.981,383.800 254.393,383.800 257.987 M15.742 257.800 C 15.741 259.780,15.808 260.640,15.892 259.712 C 15.976 258.784,15.977 257.164,15.895 256.112 C 15.812 255.060,15.743 255.820,15.742 257.800 M16.276 264.600 C 16.404 266.140,16.653 267.760,16.831 268.200 C 17.191 269.088,16.891 265.973,16.370 263.400 C 16.145 262.292,16.116 262.661,16.276 264.600 M383.055 267.055 C 382.913 268.086,382.874 269.008,382.969 269.102 C 383.063 269.196,383.265 268.439,383.418 267.418 C 383.571 266.398,383.610 265.476,383.504 265.371 C 383.398 265.265,383.196 266.023,383.055 267.055 M17.206 270.233 C 17.209 270.655,17.395 271.270,17.618 271.600 C 17.915 272.038,17.952 271.876,17.756 271.000 C 17.427 269.529,17.198 269.210,17.206 270.233 M21.800 282.000 C 22.141 282.660,22.511 283.200,22.621 283.200 C 22.731 283.200,22.541 282.660,22.200 282.000 C 21.859 281.340,21.489 280.800,21.379 280.800 C 21.269 280.800,21.459 281.340,21.800 282.000 M23.467 284.806 C 23.859 285.470,24.598 286.505,25.110 287.106 C 25.621 287.708,25.375 287.165,24.563 285.900 C 23.024 283.503,22.228 282.707,23.467 284.806 M374.892 286.629 C 374.397 287.383,374.072 288.000,374.169 288.000 C 374.447 288.000,376.104 285.571,375.939 285.406 C 375.857 285.324,375.386 285.874,374.892 286.629 M27.136 289.900 C 28.430 291.512,34.000 297.103,34.000 296.789 C 34.000 296.685,32.380 294.939,30.400 292.909 C 28.420 290.880,26.800 289.035,26.800 288.810 C 26.800 288.584,26.605 288.400,26.366 288.400 C 26.128 288.400,26.474 289.075,27.136 289.900 M373.200 288.818 C 373.200 289.048,371.542 290.983,369.515 293.118 C 366.426 296.373,366.302 296.548,368.745 294.200 C 372.079 290.998,374.268 288.400,373.634 288.400 C 373.395 288.400,373.200 288.588,373.200 288.818 M34.544 297.109 C 34.860 297.621,37.200 299.353,37.200 299.075 C 37.200 298.976,36.539 298.391,35.732 297.775 C 34.924 297.159,34.389 296.859,34.544 297.109 M360.500 300.446 C 358.695 301.602,358.863 301.868,360.700 300.763 C 362.560 299.645,362.618 299.598,362.167 299.607 C 361.965 299.610,361.215 299.988,360.500 300.446 M40.800 301.564 C 41.350 302.014,41.980 302.383,42.200 302.385 C 42.628 302.388,41.905 301.834,40.600 301.160 C 40.069 300.885,40.136 301.021,40.800 301.564 M356.400 302.800 C 355.190 303.439,354.341 303.971,354.513 303.981 C 354.938 304.007,358.800 302.036,358.800 301.793 C 358.800 301.526,358.855 301.503,356.400 302.800 M43.000 302.756 C 43.220 302.977,44.120 303.457,45.000 303.821 C 47.090 304.687,46.513 304.101,44.305 303.115 C 43.367 302.696,42.780 302.535,43.000 302.756 M351.905 304.763 C 349.769 305.545,348.878 306.158,350.646 305.630 C 352.476 305.084,354.000 304.438,354.000 304.210 C 354.000 304.094,353.955 304.016,353.900 304.035 C 353.845 304.054,352.947 304.382,351.905 304.763 M47.329 304.806 C 48.293 305.422,50.471 306.039,50.214 305.622 C 50.103 305.442,49.604 305.207,49.106 305.099 C 48.608 304.991,47.840 304.776,47.400 304.621 C 46.658 304.360,46.653 304.373,47.329 304.806 M50.833 306.144 C 50.925 306.223,51.540 306.408,52.200 306.556 C 53.076 306.752,53.238 306.715,52.800 306.418 C 52.260 306.053,50.432 305.798,50.833 306.144 M347.200 306.418 C 346.762 306.715,346.924 306.752,347.800 306.556 C 349.271 306.227,349.590 305.998,348.567 306.006 C 348.145 306.009,347.530 306.195,347.200 306.418 M53.633 306.943 C 53.725 307.021,54.430 307.201,55.200 307.342 C 56.185 307.523,56.422 307.482,56.000 307.206 C 55.458 306.850,53.237 306.603,53.633 306.943 M344.000 307.200 C 343.236 307.694,344.058 307.694,345.600 307.200 L 346.600 306.880 345.600 306.846 C 345.050 306.827,344.330 306.987,344.000 307.200 M58.600 308.023 C 60.737 308.465,62.204 308.450,60.800 308.000 C 60.250 307.824,59.170 307.683,58.400 307.686 L 57.000 307.692 58.600 308.023 M339.200 308.000 C 337.796 308.450,339.263 308.465,341.400 308.023 L 343.000 307.692 341.600 307.686 C 340.830 307.683,339.750 307.824,339.200 308.000 M123.233 308.543 C 123.676 308.922,126.017 309.151,125.796 308.794 C 125.662 308.577,124.993 308.400,124.310 308.400 C 123.626 308.400,123.142 308.464,123.233 308.543 M151.862 308.700 C 151.760 308.865,152.902 309.000,154.400 309.000 C 155.898 309.000,157.040 308.865,156.938 308.700 C 156.836 308.535,155.694 308.400,154.400 308.400 C 153.106 308.400,151.964 308.535,151.862 308.700 M183.015 308.776 C 182.876 309.001,183.391 309.059,184.291 308.920 C 186.300 308.610,186.461 308.400,184.690 308.400 C 183.897 308.400,183.143 308.569,183.015 308.776 M149.400 310.235 L 148.200 311.266 149.600 310.363 C 151.396 309.204,151.401 309.200,150.967 309.202 C 150.765 309.203,150.060 309.668,149.400 310.235 M160.038 310.977 C 160.388 311.430,160.973 312.245,161.338 312.789 C 161.702 313.333,162.000 313.588,162.000 313.356 C 162.000 313.123,161.415 312.308,160.700 311.543 C 159.985 310.779,159.687 310.524,160.038 310.977 M129.600 311.678 C 129.600 311.805,129.869 312.424,130.198 313.054 C 130.526 313.684,130.790 313.930,130.785 313.600 C 130.779 313.270,130.510 312.651,130.187 312.224 C 129.864 311.796,129.600 311.551,129.600 311.678 M147.249 312.652 C 146.583 314.114,146.874 314.195,147.689 312.774 C 148.060 312.128,148.220 311.600,148.046 311.600 C 147.871 311.600,147.513 312.073,147.249 312.652 M146.329 315.400 C 146.198 315.840,145.958 316.560,145.796 317.000 C 145.544 317.686,145.598 317.670,146.179 316.893 C 146.551 316.393,146.791 315.673,146.712 315.293 C 146.587 314.692,146.536 314.706,146.329 315.400 " stroke="none" fill="#5e939d" fill-rule="evenodd"></path><path id="path4" d="M250.900 91.494 C 251.945 91.576,253.655 91.576,254.700 91.494 C 255.745 91.412,254.890 91.344,252.800 91.344 C 250.710 91.344,249.855 91.412,250.900 91.494 M260.713 91.495 C 261.876 91.576,263.676 91.576,264.713 91.493 C 265.751 91.411,264.800 91.345,262.600 91.346 C 260.400 91.347,259.551 91.414,260.713 91.495 M242.400 92.395 C 241.991 92.655,242.310 92.699,243.400 92.532 C 245.377 92.229,245.714 91.998,244.167 92.006 C 243.525 92.009,242.730 92.184,242.400 92.395 M270.033 92.143 C 270.125 92.222,270.920 92.397,271.800 92.532 C 272.890 92.699,273.209 92.655,272.800 92.395 C 272.253 92.046,269.645 91.809,270.033 92.143 M238.600 93.200 C 237.581 93.638,238.632 93.638,240.000 93.200 C 240.804 92.943,240.843 92.877,240.200 92.868 C 239.760 92.862,239.040 93.011,238.600 93.200 M213.700 103.246 C 212.337 104.119,211.895 104.706,213.100 104.043 C 214.018 103.539,215.456 102.427,215.200 102.419 C 215.090 102.416,214.415 102.788,213.700 103.246 M300.200 102.689 C 300.420 102.912,302.521 104.373,304.869 105.936 C 307.217 107.498,309.253 108.962,309.393 109.188 C 309.533 109.415,309.830 109.600,310.054 109.600 C 310.660 109.600,308.644 108.024,304.600 105.336 C 300.581 102.664,299.588 102.067,300.200 102.689 M210.554 105.268 C 208.929 106.491,208.463 106.973,209.400 106.460 C 210.440 105.891,212.272 104.420,211.954 104.409 C 211.819 104.404,211.189 104.791,210.554 105.268 M206.785 108.029 L 205.400 109.258 206.900 108.181 C 208.226 107.230,208.657 106.800,208.285 106.800 C 208.222 106.800,207.547 107.353,206.785 108.029 M252.522 109.029 L 251.400 110.058 252.700 109.154 C 253.415 108.657,254.000 108.193,254.000 108.125 C 254.000 107.809,253.558 108.080,252.522 109.029 M261.600 108.111 C 261.600 108.187,262.185 108.678,262.900 109.201 C 263.704 109.790,263.984 109.887,263.633 109.455 C 263.100 108.799,261.600 107.807,261.600 108.111 M313.800 112.800 C 314.883 113.900,315.860 114.800,315.970 114.800 C 316.080 114.800,315.283 113.900,314.200 112.800 C 313.117 111.700,312.140 110.800,312.030 110.800 C 311.920 110.800,312.717 111.700,313.800 112.800 M200.656 113.009 C 199.807 113.774,199.276 114.400,199.477 114.400 C 199.679 114.400,200.454 113.770,201.200 113.000 C 202.936 111.209,202.649 111.214,200.656 113.009 M287.305 115.487 C 287.914 115.579,288.814 115.577,289.305 115.482 C 289.797 115.387,289.300 115.311,288.200 115.314 C 287.100 115.317,286.697 115.395,287.305 115.487 M282.406 117.794 C 281.663 118.561,281.132 119.250,281.227 119.325 C 281.322 119.400,282.006 118.773,282.746 117.931 C 284.429 116.018,284.212 115.931,282.406 117.794 M320.200 119.200 C 321.059 120.080,321.852 120.800,321.962 120.800 C 322.072 120.800,321.459 120.080,320.600 119.200 C 319.741 118.320,318.948 117.600,318.838 117.600 C 318.728 117.600,319.341 118.320,320.200 119.200 M194.426 119.322 L 193.451 120.600 194.726 119.425 C 196.051 118.203,196.203 117.985,195.700 118.022 C 195.535 118.034,194.962 118.619,194.426 119.322 M294.800 118.137 C 294.800 118.223,295.565 118.798,296.500 119.415 C 297.461 120.049,297.952 120.234,297.629 119.842 C 297.087 119.182,294.800 117.804,294.800 118.137 M251.404 119.272 C 251.762 119.862,252.538 120.638,253.128 120.996 L 254.200 121.647 253.280 120.844 C 252.774 120.401,251.999 119.626,251.556 119.120 L 250.753 118.200 251.404 119.272 M280.649 120.615 C 280.512 120.973,280.426 122.106,280.459 123.133 C 280.516 124.960,280.523 124.949,280.790 122.600 C 281.080 120.037,281.048 119.577,280.649 120.615 M301.641 123.300 C 301.737 123.355,302.712 124.210,303.807 125.200 L 305.800 127.000 304.017 125.100 C 303.036 124.055,302.061 123.200,301.850 123.200 C 301.639 123.200,301.545 123.245,301.641 123.300 M188.892 126.229 C 188.397 126.983,188.072 127.600,188.169 127.600 C 188.447 127.600,190.104 125.171,189.939 125.006 C 189.857 124.924,189.386 125.474,188.892 126.229 M326.400 126.521 C 326.400 126.692,327.030 127.767,327.800 128.910 C 328.570 130.054,329.200 130.850,329.200 130.679 C 329.200 130.508,328.570 129.433,327.800 128.290 C 327.030 127.146,326.400 126.350,326.400 126.521 M282.800 128.452 C 283.801 129.482,286.800 131.442,286.800 131.065 C 286.800 130.955,286.125 130.461,285.300 129.968 C 284.475 129.474,283.350 128.700,282.800 128.247 L 281.800 127.423 282.800 128.452 M308.025 129.431 C 308.781 130.328,309.481 130.997,309.580 130.917 C 309.679 130.838,309.060 130.104,308.205 129.287 L 306.650 127.800 308.025 129.431 M186.553 129.700 C 185.176 132.036,185.086 132.235,185.787 131.400 C 186.600 130.432,187.300 129.200,187.038 129.200 C 186.933 129.200,186.715 129.425,186.553 129.700 M287.200 131.346 C 287.200 131.456,287.740 131.930,288.400 132.400 C 289.060 132.870,289.600 133.164,289.600 133.054 C 289.600 132.944,289.060 132.470,288.400 132.000 C 287.740 131.530,287.200 131.236,287.200 131.346 M330.200 132.800 C 330.541 133.460,330.911 134.000,331.021 134.000 C 331.131 134.000,330.941 133.460,330.600 132.800 C 330.259 132.140,329.889 131.600,329.779 131.600 C 329.669 131.600,329.859 132.140,330.200 132.800 M312.391 134.788 C 312.857 135.441,313.442 136.102,313.691 136.256 C 313.941 136.411,313.641 135.876,313.025 135.068 C 311.688 133.315,311.184 133.092,312.391 134.788 M331.800 135.600 C 332.141 136.260,332.511 136.800,332.621 136.800 C 332.731 136.800,332.541 136.260,332.200 135.600 C 331.859 134.940,331.489 134.400,331.379 134.400 C 331.269 134.400,331.459 134.940,331.800 135.600 M295.000 138.000 C 296.528 139.540,297.869 140.800,297.979 140.800 C 298.089 140.800,296.928 139.540,295.400 138.000 C 293.872 136.460,292.531 135.200,292.421 135.200 C 292.311 135.200,293.472 136.460,295.000 138.000 M175.049 157.015 C 174.912 157.373,174.815 157.966,174.834 158.333 C 174.853 158.700,175.027 158.469,175.221 157.820 C 175.598 156.558,175.465 155.933,175.049 157.015 M340.258 158.800 C 340.575 160.525,340.802 160.851,340.794 159.567 C 340.791 159.035,340.611 158.330,340.394 158.000 C 340.118 157.578,340.077 157.815,340.258 158.800 M324.006 159.433 C 324.009 159.855,324.195 160.470,324.418 160.800 C 324.715 161.238,324.752 161.076,324.556 160.200 C 324.227 158.729,323.998 158.410,324.006 159.433 M174.256 160.884 C 174.121 161.388,174.030 162.340,174.053 163.000 C 174.081 163.828,174.197 163.584,174.426 162.213 C 174.776 160.123,174.674 159.326,174.256 160.884 M130.717 161.928 C 130.342 162.078,132.541 162.200,135.604 162.200 C 138.667 162.200,140.864 162.078,140.486 161.928 C 140.109 161.779,137.910 161.656,135.600 161.656 C 133.290 161.656,131.093 161.779,130.717 161.928 M309.044 162.600 C 309.373 164.071,309.602 164.390,309.594 163.367 C 309.591 162.945,309.405 162.330,309.182 162.000 C 308.885 161.562,308.848 161.724,309.044 162.600 M341.073 163.200 C 341.204 164.190,341.376 165.075,341.456 165.167 C 341.757 165.514,341.528 162.964,341.190 162.200 C 340.953 161.666,340.914 161.998,341.073 163.200 M324.806 163.433 C 324.809 164.075,324.984 164.870,325.195 165.200 C 325.455 165.609,325.499 165.290,325.332 164.200 C 325.029 162.223,324.798 161.886,324.806 163.433 M173.422 166.622 C 173.272 167.425,173.228 168.162,173.326 168.260 C 173.424 168.357,173.627 167.781,173.778 166.978 C 173.928 166.175,173.972 165.438,173.874 165.340 C 173.776 165.243,173.573 165.819,173.422 166.622 M152.400 165.779 C 152.400 165.889,152.940 166.259,153.600 166.600 C 154.260 166.941,154.800 167.131,154.800 167.021 C 154.800 166.911,154.260 166.541,153.600 166.200 C 152.940 165.859,152.400 165.669,152.400 165.779 M325.775 172.670 C 325.789 175.788,325.922 178.038,326.072 177.670 C 326.418 176.817,326.397 172.512,326.031 169.400 C 325.828 167.668,325.757 168.578,325.775 172.670 M341.800 175.355 C 341.800 179.510,341.925 182.210,342.077 181.355 C 342.429 179.378,342.425 171.961,342.070 169.600 C 341.922 168.610,341.800 171.200,341.800 175.355 M157.600 168.918 C 157.600 169.020,158.447 169.797,159.481 170.645 C 160.516 171.493,161.234 171.978,161.076 171.723 C 160.740 171.179,157.600 168.645,157.600 168.918 M171.429 171.162 L 170.258 172.600 171.609 171.313 C 172.351 170.605,172.878 169.958,172.779 169.875 C 172.681 169.792,172.073 170.371,171.429 171.162 M310.931 175.000 C 310.933 176.540,311.005 177.121,311.092 176.291 C 311.179 175.461,311.177 174.201,311.089 173.491 C 311.000 172.781,310.929 173.460,310.931 175.000 M165.107 173.490 C 165.826 173.579,166.906 173.577,167.507 173.486 C 168.108 173.395,167.520 173.322,166.200 173.324 C 164.880 173.326,164.388 173.401,165.107 173.490 M106.105 175.900 C 104.634 177.681,103.379 179.524,104.267 178.600 C 105.240 177.586,108.053 174.000,107.874 174.000 C 107.764 174.000,106.968 174.855,106.105 175.900 M311.200 178.186 C 311.200 178.605,312.806 181.200,313.065 181.200 C 313.175 181.200,312.859 180.525,312.363 179.700 C 311.258 177.862,311.200 177.787,311.200 178.186 M314.289 182.030 C 314.778 182.539,315.278 182.855,315.401 182.732 C 315.524 182.609,315.124 182.192,314.512 181.806 L 313.400 181.104 314.289 182.030 M341.254 186.800 C 341.219 187.350,341.096 188.250,340.983 188.800 L 340.777 189.800 341.207 188.815 C 341.443 188.274,341.565 187.374,341.478 186.815 L 341.320 185.800 341.254 186.800 M98.649 191.415 C 98.512 191.773,98.415 192.366,98.434 192.733 C 98.453 193.100,98.627 192.869,98.821 192.220 C 99.198 190.958,99.065 190.333,98.649 191.415 M340.454 191.467 C 340.425 191.944,340.296 192.664,340.170 193.067 C 339.952 193.761,339.964 193.762,340.396 193.088 C 340.647 192.697,340.775 191.977,340.681 191.488 C 340.509 190.601,340.509 190.601,340.454 191.467 M339.429 195.829 C 339.281 196.415,339.238 196.972,339.332 197.066 C 339.427 197.160,339.624 196.758,339.771 196.171 C 339.919 195.585,339.962 195.028,339.868 194.934 C 339.773 194.840,339.576 195.242,339.429 195.829 M98.148 199.200 C 98.148 201.510,98.214 202.455,98.295 201.300 C 98.376 200.145,98.376 198.255,98.295 197.100 C 98.214 195.945,98.148 196.890,98.148 199.200 M338.652 199.567 C 338.514 200.428,338.552 201.540,338.735 202.037 C 338.979 202.694,339.076 202.267,339.093 200.470 C 339.120 197.610,339.003 197.370,338.652 199.567 M59.273 207.141 C 58.763 207.284,61.193 207.350,64.673 207.287 C 73.338 207.129,74.359 206.924,66.600 206.900 C 63.080 206.889,59.783 206.997,59.273 207.141 M55.000 208.019 C 54.442 208.271,54.685 208.307,55.800 208.138 C 56.680 208.004,57.475 207.828,57.567 207.747 C 57.910 207.444,55.768 207.671,55.000 208.019 M75.233 207.743 C 75.325 207.822,76.120 207.997,77.000 208.132 C 78.090 208.299,78.409 208.255,78.000 207.995 C 77.453 207.646,74.845 207.409,75.233 207.743 M346.033 208.544 C 346.125 208.623,346.740 208.808,347.400 208.956 C 348.276 209.152,348.438 209.115,348.000 208.818 C 347.460 208.453,345.632 208.198,346.033 208.544 M89.507 211.890 C 90.226 211.979,91.306 211.977,91.907 211.886 C 92.508 211.795,91.920 211.722,90.600 211.724 C 89.280 211.726,88.788 211.801,89.507 211.890 M38.385 215.229 L 37.000 216.458 38.600 215.345 C 39.480 214.733,40.275 214.180,40.367 214.116 C 40.458 214.052,40.362 214.000,40.152 214.000 C 39.942 214.000,39.147 214.553,38.385 215.229 M359.600 214.124 C 359.600 214.217,360.365 214.798,361.300 215.415 C 362.235 216.032,362.789 216.280,362.531 215.968 C 362.034 215.367,359.600 213.836,359.600 214.124 M363.400 216.657 C 365.437 218.464,366.187 218.991,365.402 218.063 C 364.966 217.548,364.247 216.941,363.804 216.714 C 363.362 216.487,363.180 216.462,363.400 216.657 M30.589 221.700 L 27.800 224.600 30.700 221.811 C 32.295 220.277,33.600 218.972,33.600 218.911 C 33.600 218.617,33.180 219.006,30.589 221.700 M369.000 221.600 C 370.528 223.140,371.869 224.400,371.979 224.400 C 372.089 224.400,370.928 223.140,369.400 221.600 C 367.872 220.060,366.531 218.800,366.421 218.800 C 366.311 218.800,367.472 220.060,369.000 221.600 M26.344 226.300 C 25.193 227.689,24.706 228.400,24.904 228.400 C 25.014 228.400,25.586 227.770,26.173 227.000 C 27.263 225.571,27.395 225.032,26.344 226.300 M374.016 227.363 C 374.768 228.409,375.556 229.373,375.767 229.503 C 375.978 229.633,375.535 228.884,374.784 227.837 C 374.032 226.791,373.244 225.827,373.033 225.697 C 372.822 225.567,373.265 226.316,374.016 227.363 M22.304 232.100 C 21.412 233.465,19.927 236.461,20.072 236.604 C 20.142 236.674,20.866 235.486,21.681 233.965 C 23.149 231.222,23.434 230.371,22.304 232.100 M16.600 246.400 C 16.448 247.091,16.407 247.741,16.509 247.842 C 16.611 247.944,16.809 247.453,16.950 246.750 C 17.283 245.083,16.960 244.760,16.600 246.400 M383.695 249.600 C 383.695 250.150,383.832 251.140,384.000 251.800 C 384.272 252.870,384.305 252.892,384.305 252.000 C 384.305 251.450,384.168 250.460,384.000 249.800 C 383.728 248.730,383.695 248.708,383.695 249.600 M15.869 250.356 C 15.721 251.095,15.620 252.082,15.644 252.550 C 15.668 253.018,15.847 252.590,16.042 251.600 C 16.237 250.610,16.338 249.623,16.267 249.406 C 16.196 249.190,16.017 249.617,15.869 250.356 M15.640 263.433 C 15.662 264.075,15.833 265.050,16.020 265.600 C 16.249 266.274,16.284 265.949,16.128 264.600 C 15.869 262.350,15.579 261.659,15.640 263.433 M383.840 264.840 C 383.693 265.757,383.652 266.585,383.747 266.680 C 383.842 266.776,384.046 266.110,384.200 265.200 C 384.354 264.290,384.396 263.462,384.293 263.360 C 384.190 263.257,383.987 263.923,383.840 264.840 M16.456 268.400 C 16.456 268.730,16.611 269.360,16.800 269.800 C 17.017 270.304,17.144 270.378,17.144 270.000 C 17.144 269.670,16.989 269.040,16.800 268.600 C 16.583 268.096,16.456 268.022,16.456 268.400 M380.065 278.217 C 379.395 279.688,379.523 280.002,380.247 278.665 C 380.586 278.040,380.788 277.454,380.696 277.363 C 380.605 277.271,380.321 277.656,380.065 278.217 M21.560 282.200 C 22.234 283.505,22.788 284.228,22.785 283.800 C 22.783 283.580,22.414 282.950,21.964 282.400 C 21.421 281.736,21.285 281.669,21.560 282.200 M23.160 285.000 C 23.834 286.305,24.388 287.028,24.385 286.600 C 24.383 286.380,24.014 285.750,23.564 285.200 C 23.021 284.536,22.885 284.469,23.160 285.000 M376.214 285.435 C 375.841 286.004,375.605 286.538,375.689 286.622 C 375.773 286.707,376.158 286.241,376.544 285.588 C 377.406 284.128,377.148 284.009,376.214 285.435 M27.200 290.525 C 27.200 290.594,27.785 291.179,28.500 291.825 L 29.800 293.000 28.625 291.700 C 27.530 290.488,27.200 290.216,27.200 290.525 M370.659 292.461 C 369.630 293.595,368.856 294.589,368.938 294.671 C 369.019 294.753,369.936 293.825,370.974 292.610 C 373.354 289.824,373.142 289.724,370.659 292.461 M32.316 295.710 C 33.792 297.091,35.630 298.633,36.400 299.137 L 37.800 300.054 36.400 298.928 C 35.630 298.309,33.905 296.767,32.566 295.501 C 31.227 294.236,30.019 293.200,29.882 293.200 C 29.744 293.200,30.840 294.330,32.316 295.710 M366.562 296.331 C 365.664 297.139,364.315 298.300,363.565 298.912 C 362.202 300.022,362.202 300.022,363.887 298.865 C 365.941 297.454,368.537 295.204,368.340 295.006 C 368.260 294.927,367.460 295.523,366.562 296.331 M54.600 307.600 C 55.040 307.789,55.670 307.944,56.000 307.944 C 56.378 307.944,56.304 307.817,55.800 307.600 C 55.360 307.411,54.730 307.256,54.400 307.256 C 54.022 307.256,54.096 307.383,54.600 307.600 M344.200 307.600 C 343.696 307.817,343.622 307.944,344.000 307.944 C 344.330 307.944,344.960 307.789,345.400 307.600 C 345.904 307.383,345.978 307.256,345.600 307.256 C 345.270 307.256,344.640 307.411,344.200 307.600 M60.505 308.687 C 61.114 308.779,62.014 308.777,62.505 308.682 C 62.997 308.587,62.500 308.511,61.400 308.514 C 60.300 308.517,59.897 308.595,60.505 308.687 M337.705 308.687 C 338.314 308.779,339.214 308.777,339.705 308.682 C 340.197 308.587,339.700 308.511,338.600 308.514 C 337.500 308.517,337.097 308.595,337.705 308.687 M124.600 309.200 C 125.040 309.389,125.670 309.544,126.000 309.544 C 126.378 309.544,126.304 309.417,125.800 309.200 C 125.360 309.011,124.730 308.856,124.400 308.856 C 124.022 308.856,124.096 308.983,124.600 309.200 M155.800 309.200 C 156.240 309.389,156.870 309.544,157.200 309.544 C 157.578 309.544,157.504 309.417,157.000 309.200 C 156.560 309.011,155.930 308.856,155.600 308.856 C 155.222 308.856,155.296 308.983,155.800 309.200 M161.606 314.633 C 161.609 315.055,161.795 315.670,162.018 316.000 C 162.315 316.438,162.352 316.276,162.156 315.400 C 161.827 313.929,161.598 313.610,161.606 314.633 M130.434 315.024 C 130.415 315.476,130.683 316.196,131.030 316.624 C 131.376 317.051,131.537 317.161,131.387 316.869 C 131.237 316.576,130.969 315.856,130.791 315.269 C 130.533 314.411,130.462 314.363,130.434 315.024 M178.054 315.220 C 178.025 315.781,177.865 316.412,177.700 316.623 C 177.535 316.833,177.641 316.802,177.935 316.554 C 178.229 316.306,178.388 315.674,178.289 315.151 C 178.111 314.210,178.108 314.210,178.054 315.220 " stroke="none" fill="#446c74" fill-rule="evenodd"></path></g></svg>