<svg id="svg" version="1.1" xmlns="http://www.w3.org/2000/svg" xmlns:xlink="http://www.w3.org/1999/xlink" width="400" height="400" viewBox="0, 0, 400,400"><g id="svgg"><path id="path0" d="M142.900 0.274 C 141.525 0.364,140.400 0.593,140.400 0.782 C 140.400 0.971,139.455 1.227,138.300 1.350 C 133.863 1.823,132.400 2.093,132.400 2.440 C 132.400 2.638,131.860 2.800,131.200 2.800 C 130.540 2.800,130.000 2.980,130.000 3.200 C 130.000 3.420,129.381 3.600,128.624 3.600 C 127.867 3.600,127.136 3.780,127.000 4.000 C 126.864 4.220,126.313 4.400,125.776 4.400 C 125.239 4.400,124.800 4.580,124.800 4.800 C 124.800 5.020,124.260 5.200,123.600 5.200 C 122.940 5.200,122.400 5.380,122.400 5.600 C 122.400 5.820,122.040 6.000,121.600 6.000 C 121.160 6.000,120.800 6.180,120.800 6.400 C 120.800 6.620,120.260 6.800,119.600 6.800 C 118.940 6.800,118.400 6.980,118.400 7.200 C 118.400 7.420,118.040 7.600,117.600 7.600 C 117.160 7.600,116.800 7.780,116.800 8.000 C 116.800 8.220,116.458 8.400,116.041 8.400 C 115.182 8.400,107.872 11.948,107.667 12.465 C 107.593 12.649,107.188 12.800,106.767 12.800 C 106.345 12.800,106.000 12.958,106.000 13.151 C 106.000 13.345,105.460 13.727,104.800 14.000 C 104.140 14.273,103.600 14.655,103.600 14.849 C 103.600 15.042,103.280 15.200,102.888 15.200 C 102.497 15.200,101.917 15.560,101.600 16.000 C 101.283 16.440,100.838 16.800,100.612 16.801 C 100.385 16.801,99.570 17.341,98.800 18.000 C 98.030 18.659,97.247 19.199,97.060 19.199 C 96.874 19.200,96.217 19.740,95.600 20.400 C 94.983 21.060,94.351 21.600,94.195 21.600 C 94.039 21.600,93.146 22.365,92.210 23.300 C 91.274 24.235,90.100 25.270,89.600 25.600 C 88.095 26.595,84.800 29.848,84.800 30.340 C 84.800 30.593,84.620 30.800,84.400 30.800 C 84.167 30.800,84.000 32.133,84.000 34.000 C 84.000 35.867,84.167 37.200,84.400 37.200 C 84.620 37.200,84.800 37.450,84.800 37.755 C 84.800 38.060,85.295 38.403,85.900 38.517 C 86.505 38.631,87.733 38.999,88.630 39.336 C 91.457 40.397,95.427 38.131,100.800 32.386 C 106.220 26.592,124.878 17.111,136.100 14.451 C 142.022 13.046,142.725 12.926,149.200 12.204 C 160.053 10.993,169.091 11.682,180.800 14.613 C 185.409 15.766,185.741 15.869,189.800 17.378 C 206.811 23.707,222.714 36.193,232.745 51.096 C 235.365 54.990,237.144 55.496,243.090 54.037 C 249.040 52.577,250.497 52.400,256.587 52.400 C 273.124 52.400,289.919 60.436,298.684 72.543 C 299.504 73.674,300.289 74.690,300.429 74.800 C 301.761 75.843,305.914 84.173,307.608 89.200 C 309.081 93.570,310.083 94.834,312.950 95.934 C 314.077 96.367,316.530 97.315,318.400 98.043 C 341.669 107.091,358.465 130.123,360.084 155.200 C 360.219 157.296,360.929 157.190,353.200 156.230 C 346.375 155.382,339.603 155.981,333.164 158.002 C 330.834 158.734,329.600 158.516,329.600 157.375 C 329.600 157.053,329.438 156.477,329.241 156.095 C 329.043 155.713,328.134 153.838,327.220 151.929 C 321.858 140.721,318.271 137.283,313.897 139.158 C 309.891 140.876,309.305 144.642,312.346 149.121 C 314.407 152.155,317.538 158.139,318.771 161.400 C 319.270 162.720,319.820 164.160,319.993 164.600 C 320.167 165.040,320.543 166.210,320.829 167.200 C 322.086 171.552,326.814 173.914,329.760 171.662 C 330.581 171.034,335.388 169.288,338.000 168.670 C 371.767 160.670,399.558 195.495,383.911 226.200 C 372.277 249.030,342.020 255.760,322.604 239.837 C 318.939 236.831,318.332 236.220,315.512 232.686 C 310.473 226.373,308.808 226.301,302.230 232.108 C 281.610 250.311,253.424 253.658,228.942 240.810 C 223.929 238.179,222.808 238.197,218.600 240.977 C 205.387 249.705,187.333 250.911,172.800 244.036 C 159.054 237.533,149.857 225.907,146.350 210.600 C 145.612 207.381,145.609 194.619,146.345 191.600 C 152.104 167.977,170.046 154.000,194.612 154.000 L 202.372 154.000 203.771 152.772 C 204.540 152.097,205.571 150.882,206.062 150.072 C 210.269 143.136,218.548 135.058,226.200 130.424 C 245.450 118.764,268.870 118.024,289.200 128.432 C 294.508 131.150,295.037 131.313,296.758 130.764 C 299.900 129.761,301.650 126.714,300.816 123.700 C 300.122 121.196,298.719 120.113,292.000 116.897 C 259.921 101.541,220.143 111.170,199.449 139.300 L 197.169 142.400 191.884 142.407 C 166.855 142.442,144.433 159.073,136.613 183.400 C 136.124 184.923,135.929 185.685,134.721 190.800 C 134.379 192.249,134.209 195.800,134.223 201.200 C 134.245 209.282,134.450 211.079,136.029 217.000 C 136.264 217.880,136.555 219.008,136.676 219.506 C 136.797 220.004,137.054 220.510,137.248 220.630 C 137.441 220.749,137.610 221.152,137.623 221.524 C 137.636 221.896,138.071 223.099,138.590 224.197 C 139.274 225.643,139.405 226.276,139.067 226.491 C 138.152 227.073,74.565 226.827,70.400 226.226 C 59.371 224.632,50.701 221.436,41.629 215.618 C 37.209 212.785,35.532 212.508,33.038 214.200 C 32.228 214.750,31.212 215.200,30.782 215.200 C 30.275 215.200,30.000 215.473,30.000 215.976 C 30.000 216.403,29.820 216.864,29.600 217.000 C 29.080 217.322,29.080 220.278,29.600 220.600 C 29.820 220.736,30.000 221.195,30.000 221.621 C 30.000 222.642,31.408 224.223,32.847 224.819 C 33.481 225.082,34.000 225.455,34.000 225.649 C 34.000 225.842,34.320 226.000,34.712 226.000 C 35.103 226.000,35.683 226.360,36.000 226.800 C 36.317 227.240,36.897 227.600,37.288 227.600 C 37.680 227.600,38.000 227.780,38.000 228.000 C 38.000 228.220,38.236 228.400,38.525 228.400 C 38.813 228.400,39.436 228.760,39.908 229.200 C 40.380 229.640,41.044 230.000,41.383 230.000 C 41.722 230.000,42.000 230.180,42.000 230.400 C 42.000 230.620,42.360 230.800,42.800 230.800 C 43.240 230.800,43.601 230.935,43.603 231.100 C 43.607 231.506,45.586 232.400,46.480 232.400 C 46.876 232.400,47.200 232.580,47.200 232.800 C 47.200 233.020,47.560 233.200,48.000 233.200 C 48.440 233.200,48.800 233.380,48.800 233.600 C 48.800 233.820,49.340 234.000,50.000 234.000 C 50.660 234.000,51.200 234.180,51.200 234.400 C 51.200 234.620,51.639 234.800,52.176 234.800 C 52.713 234.800,53.264 234.980,53.400 235.200 C 53.536 235.420,54.177 235.600,54.824 235.600 C 55.471 235.600,56.000 235.780,56.000 236.000 C 56.000 236.220,56.529 236.400,57.176 236.400 C 57.823 236.400,58.464 236.580,58.600 236.800 C 58.736 237.020,59.546 237.200,60.400 237.200 C 61.254 237.200,62.064 237.380,62.200 237.600 C 62.336 237.820,63.427 238.000,64.624 238.000 C 65.821 238.000,66.800 238.180,66.800 238.400 C 66.800 238.642,68.525 238.800,71.176 238.800 C 73.663 238.800,75.660 238.973,75.800 239.200 C 75.962 239.462,88.209 239.600,111.239 239.600 L 146.431 239.600 150.231 243.400 C 152.321 245.490,154.222 247.200,154.455 247.200 C 154.688 247.200,155.383 247.740,156.000 248.400 C 156.617 249.060,157.274 249.600,157.460 249.601 C 157.647 249.601,158.430 250.144,159.200 250.806 C 159.970 251.469,161.095 252.232,161.700 252.503 C 162.305 252.774,162.800 253.131,162.800 253.298 C 162.800 253.464,163.160 253.600,163.600 253.600 C 164.040 253.600,164.401 253.735,164.403 253.900 C 164.407 254.259,166.344 255.200,167.080 255.200 C 167.366 255.200,167.600 255.380,167.600 255.600 C 167.600 255.820,167.960 256.000,168.400 256.000 C 168.840 256.000,169.200 256.147,169.200 256.328 C 169.200 256.508,170.111 256.904,171.225 257.207 C 172.339 257.510,173.335 257.894,173.438 258.061 C 173.540 258.227,174.699 258.485,176.012 258.633 C 177.325 258.782,178.400 259.060,178.400 259.252 C 178.400 259.443,179.300 259.600,180.400 259.600 C 181.500 259.600,182.400 259.780,182.400 260.000 C 182.400 260.237,183.859 260.400,185.976 260.400 C 187.943 260.400,189.664 260.580,189.800 260.800 C 190.125 261.325,195.600 261.325,195.600 260.800 C 195.600 260.560,197.200 260.400,199.600 260.400 C 202.000 260.400,203.600 260.240,203.600 260.000 C 203.600 259.780,204.410 259.600,205.400 259.600 C 206.390 259.600,207.200 259.420,207.200 259.200 C 207.200 258.980,207.776 258.800,208.480 258.800 C 210.019 258.800,214.400 257.550,214.400 257.111 C 214.400 256.940,214.839 256.800,215.376 256.800 C 215.913 256.800,216.464 256.620,216.600 256.400 C 216.736 256.180,217.197 256.000,217.624 256.000 C 218.051 256.000,218.400 255.820,218.400 255.600 C 218.400 255.380,218.760 255.200,219.200 255.200 C 219.640 255.200,220.000 255.020,220.000 254.800 C 220.000 254.580,220.360 254.400,220.800 254.400 C 221.240 254.400,221.601 254.265,221.603 254.100 C 221.612 253.290,225.343 252.372,225.667 253.100 C 225.796 253.390,228.755 254.887,230.800 255.697 C 231.350 255.915,232.113 256.252,232.495 256.447 C 232.877 256.641,233.464 256.800,233.800 256.800 C 234.136 256.800,234.723 256.958,235.105 257.151 C 236.414 257.812,238.601 258.374,240.911 258.644 C 242.182 258.792,243.318 259.067,243.435 259.256 C 243.552 259.445,244.627 259.600,245.824 259.600 C 247.021 259.600,248.000 259.780,248.000 260.000 C 248.000 260.242,249.733 260.400,252.400 260.400 C 255.067 260.400,256.800 260.558,256.800 260.800 C 256.800 261.031,258.067 261.200,259.800 261.200 C 261.533 261.200,262.800 261.031,262.800 260.800 C 262.800 260.558,264.533 260.400,267.200 260.400 C 269.867 260.400,271.600 260.242,271.600 260.000 C 271.600 259.780,272.412 259.600,273.405 259.600 C 274.398 259.600,275.523 259.429,275.905 259.220 C 276.287 259.010,277.632 258.728,278.894 258.592 C 280.155 258.455,281.291 258.177,281.417 257.972 C 281.544 257.767,282.089 257.600,282.629 257.600 C 283.169 257.600,283.968 257.420,284.405 257.200 C 284.842 256.980,285.558 256.620,285.995 256.400 C 286.432 256.180,287.020 256.000,287.302 256.000 C 288.031 256.000,296.173 252.000,296.333 251.563 C 296.407 251.363,296.812 251.200,297.233 251.200 C 297.655 251.200,298.000 251.020,298.000 250.800 C 298.000 250.580,298.320 250.400,298.712 250.400 C 299.103 250.400,299.683 250.040,300.000 249.600 C 300.317 249.160,300.857 248.800,301.200 248.800 C 301.543 248.800,302.083 248.440,302.400 248.000 C 302.717 247.560,303.215 247.200,303.506 247.200 C 303.798 247.200,304.456 246.795,304.968 246.300 C 307.971 243.398,307.769 243.382,311.228 246.800 C 312.786 248.340,314.229 249.600,314.434 249.600 C 314.639 249.600,315.372 250.140,316.063 250.800 C 316.754 251.460,317.479 252.000,317.676 252.000 C 317.873 252.000,318.420 252.360,318.892 252.800 C 319.364 253.240,319.987 253.600,320.275 253.600 C 320.564 253.600,320.800 253.780,320.800 254.000 C 320.800 254.220,321.160 254.400,321.600 254.400 C 322.040 254.400,322.400 254.580,322.400 254.800 C 322.400 255.020,322.760 255.200,323.200 255.200 C 323.640 255.200,324.000 255.380,324.000 255.600 C 324.000 255.820,324.360 256.000,324.800 256.000 C 325.240 256.000,325.600 256.151,325.600 256.336 C 325.600 256.521,326.365 256.913,327.300 257.208 C 328.235 257.503,329.184 257.880,329.410 258.046 C 329.635 258.213,330.760 258.473,331.910 258.626 C 333.059 258.778,334.000 259.060,334.000 259.252 C 334.000 259.443,334.900 259.600,336.000 259.600 C 337.100 259.600,338.000 259.780,338.000 260.000 C 338.000 260.233,339.325 260.400,341.176 260.400 C 342.923 260.400,344.464 260.580,344.600 260.800 C 344.736 261.020,346.176 261.200,347.800 261.200 C 349.424 261.200,350.864 261.020,351.000 260.800 C 351.136 260.580,352.576 260.400,354.200 260.400 C 355.824 260.400,357.264 260.220,357.400 260.000 C 357.536 259.780,358.447 259.600,359.424 259.600 C 360.401 259.600,361.200 259.443,361.200 259.252 C 361.200 259.060,362.280 258.781,363.600 258.632 C 364.920 258.482,366.000 258.189,366.000 257.980 C 366.000 257.771,366.355 257.600,366.788 257.600 C 367.221 257.600,368.217 257.240,369.000 256.800 C 369.783 256.360,370.674 256.000,370.979 256.000 C 371.284 256.000,371.593 255.865,371.667 255.700 C 371.740 255.535,372.700 254.953,373.800 254.407 C 374.900 253.861,376.091 253.096,376.447 252.707 C 376.803 252.318,377.299 252.000,377.551 252.000 C 377.802 252.000,378.572 251.460,379.263 250.800 C 379.954 250.140,380.678 249.600,380.873 249.600 C 381.803 249.600,391.600 238.928,391.600 237.915 C 391.600 237.619,391.960 237.117,392.400 236.800 C 392.840 236.483,393.200 235.903,393.200 235.512 C 393.200 235.120,393.380 234.800,393.600 234.800 C 393.820 234.800,394.000 234.440,394.000 234.000 C 394.000 233.560,394.180 233.200,394.400 233.200 C 394.620 233.200,394.800 232.840,394.800 232.400 C 394.800 231.960,394.980 231.600,395.200 231.600 C 395.420 231.600,395.600 231.240,395.600 230.800 C 395.600 230.360,395.780 230.000,396.000 230.000 C 396.220 230.000,396.400 229.640,396.400 229.200 C 396.400 228.760,396.580 228.400,396.800 228.400 C 397.020 228.400,397.200 227.860,397.200 227.200 C 397.200 226.540,397.380 226.000,397.600 226.000 C 397.820 226.000,398.000 225.561,398.000 225.024 C 398.000 224.487,398.180 223.936,398.400 223.800 C 398.620 223.664,398.800 223.038,398.800 222.410 C 398.800 221.781,399.025 221.192,399.300 221.100 C 400.028 220.857,400.028 195.142,399.300 194.900 C 399.025 194.808,398.800 194.118,398.800 193.367 C 398.800 192.615,398.620 192.000,398.400 192.000 C 398.180 192.000,398.000 191.460,398.000 190.800 C 398.000 190.140,397.820 189.600,397.600 189.600 C 397.380 189.600,397.200 189.240,397.200 188.800 C 397.200 188.360,397.020 188.000,396.800 188.000 C 396.580 188.000,396.400 187.460,396.400 186.800 C 396.400 186.140,396.220 185.600,396.000 185.600 C 395.780 185.600,395.600 185.240,395.600 184.800 C 395.600 184.360,395.420 184.000,395.200 184.000 C 394.980 184.000,394.800 183.640,394.800 183.200 C 394.800 182.760,394.620 182.400,394.400 182.400 C 394.180 182.400,394.000 182.164,394.000 181.875 C 394.000 181.587,393.640 180.964,393.200 180.492 C 392.760 180.020,392.400 179.356,392.400 179.017 C 392.400 178.678,392.259 178.400,392.086 178.400 C 391.914 178.400,391.427 177.815,391.005 177.100 C 390.582 176.386,389.824 175.387,389.319 174.882 C 388.813 174.377,388.400 173.811,388.400 173.623 C 388.400 173.149,382.860 167.600,382.387 167.600 C 382.175 167.600,381.259 166.880,380.352 166.000 C 379.445 165.120,378.455 164.400,378.152 164.400 C 377.848 164.400,377.600 164.250,377.600 164.068 C 377.600 163.885,377.105 163.480,376.500 163.168 C 375.895 162.856,375.310 162.511,375.200 162.401 C 375.090 162.290,374.640 162.000,374.200 161.756 C 373.146 161.172,372.760 159.241,372.529 153.400 C 372.424 150.760,372.173 148.429,371.969 148.220 C 371.766 148.011,371.600 146.886,371.600 145.720 C 371.600 144.554,371.420 143.600,371.200 143.600 C 370.980 143.600,370.800 142.880,370.800 142.000 C 370.800 141.120,370.620 140.400,370.400 140.400 C 370.180 140.400,370.000 139.680,370.000 138.800 C 370.000 137.920,369.820 137.200,369.600 137.200 C 369.380 137.200,369.200 136.660,369.200 136.000 C 369.200 135.340,369.020 134.800,368.800 134.800 C 368.580 134.800,368.400 134.260,368.400 133.600 C 368.400 132.940,368.220 132.400,368.000 132.400 C 367.780 132.400,367.600 131.961,367.600 131.424 C 367.600 130.887,367.420 130.336,367.200 130.200 C 366.980 130.064,366.800 129.603,366.800 129.176 C 366.800 128.749,366.620 128.400,366.400 128.400 C 366.180 128.400,366.000 128.040,366.000 127.600 C 366.000 127.160,365.820 126.800,365.600 126.800 C 365.380 126.800,365.200 126.535,365.200 126.211 C 365.200 125.887,364.742 124.852,364.182 123.911 C 363.623 122.970,363.062 121.885,362.936 121.500 C 362.810 121.115,362.548 120.800,362.353 120.800 C 362.159 120.800,362.000 120.440,362.000 120.000 C 362.000 119.560,361.820 119.200,361.600 119.200 C 361.380 119.200,361.200 118.880,361.200 118.488 C 361.200 118.097,360.840 117.517,360.400 117.200 C 359.960 116.883,359.600 116.318,359.600 115.945 C 359.600 115.572,359.460 115.207,359.290 115.133 C 359.119 115.060,358.624 114.441,358.190 113.758 C 356.256 110.717,344.113 98.000,343.144 98.000 C 342.911 98.000,342.217 97.460,341.600 96.800 C 340.983 96.140,340.364 95.600,340.223 95.600 C 340.082 95.600,339.580 95.240,339.108 94.800 C 338.636 94.360,338.013 94.000,337.725 94.000 C 337.436 94.000,337.200 93.859,337.200 93.686 C 337.200 93.514,336.123 92.839,334.807 92.186 C 333.490 91.534,332.410 90.865,332.407 90.700 C 332.403 90.535,332.040 90.400,331.600 90.400 C 331.160 90.400,330.800 90.220,330.800 90.000 C 330.800 89.780,330.440 89.600,330.000 89.600 C 329.560 89.600,329.200 89.420,329.200 89.200 C 329.200 88.980,328.840 88.800,328.400 88.800 C 327.960 88.800,327.600 88.620,327.600 88.400 C 327.600 88.180,327.240 88.000,326.800 88.000 C 326.360 88.000,326.000 87.820,326.000 87.600 C 326.000 87.380,325.640 87.200,325.200 87.200 C 324.760 87.200,324.400 87.020,324.400 86.800 C 324.400 86.580,323.950 86.400,323.400 86.400 C 322.850 86.400,322.400 86.220,322.400 86.000 C 322.400 85.780,321.995 85.594,321.500 85.587 C 320.365 85.571,319.200 84.706,319.200 83.880 C 319.200 83.532,319.020 83.136,318.800 83.000 C 318.580 82.864,318.400 82.313,318.400 81.776 C 318.400 81.239,318.220 80.800,318.000 80.800 C 317.780 80.800,317.600 80.451,317.600 80.024 C 317.600 79.597,317.420 79.136,317.200 79.000 C 316.980 78.864,316.800 78.403,316.800 77.976 C 316.800 77.549,316.620 77.200,316.400 77.200 C 316.180 77.200,316.000 76.840,316.000 76.400 C 316.000 75.960,315.820 75.600,315.600 75.600 C 315.380 75.600,315.200 75.322,315.200 74.983 C 315.200 74.644,314.840 73.980,314.400 73.508 C 313.960 73.036,313.600 72.413,313.600 72.125 C 313.600 71.836,313.420 71.600,313.200 71.600 C 312.980 71.600,312.800 71.280,312.800 70.888 C 312.800 70.497,312.440 69.917,312.000 69.600 C 311.560 69.283,311.200 68.769,311.200 68.459 C 311.200 68.148,310.885 67.602,310.500 67.246 C 310.115 66.889,309.530 66.126,309.200 65.550 C 307.872 63.231,301.843 56.800,300.997 56.800 C 300.891 56.800,299.885 55.900,298.761 54.800 C 297.638 53.700,296.507 52.800,296.248 52.800 C 295.989 52.800,295.517 52.440,295.200 52.000 C 294.883 51.560,294.343 51.200,294.000 51.200 C 293.657 51.200,293.117 50.840,292.800 50.400 C 292.483 49.960,292.071 49.600,291.884 49.600 C 291.697 49.600,290.792 49.092,289.872 48.472 C 287.835 47.097,283.072 44.800,282.259 44.800 C 281.933 44.800,281.607 44.658,281.533 44.484 C 281.257 43.828,273.732 41.691,270.400 41.322 C 269.410 41.212,268.429 40.960,268.220 40.761 C 268.011 40.563,265.986 40.400,263.720 40.400 C 261.240 40.400,259.600 40.241,259.600 40.000 C 259.600 39.765,258.200 39.600,256.200 39.600 C 254.200 39.600,252.800 39.765,252.800 40.000 C 252.800 40.237,251.333 40.400,249.200 40.400 C 247.067 40.400,245.600 40.563,245.600 40.800 C 245.600 41.020,244.655 41.201,243.500 41.203 C 241.481 41.205,238.800 39.306,238.800 37.873 C 238.800 37.688,238.119 36.876,237.287 36.069 C 236.455 35.261,235.334 33.970,234.796 33.200 C 233.278 31.029,226.810 24.800,226.073 24.800 C 225.897 24.800,225.133 24.084,224.376 23.209 C 223.619 22.334,222.775 21.614,222.500 21.609 C 222.225 21.604,222.000 21.420,222.000 21.200 C 222.000 20.980,221.802 20.800,221.560 20.800 C 221.319 20.800,220.617 20.260,220.000 19.600 C 219.383 18.940,218.631 18.400,218.328 18.400 C 218.025 18.400,217.517 18.040,217.200 17.600 C 216.883 17.160,216.343 16.800,216.000 16.800 C 215.657 16.800,215.117 16.440,214.800 16.000 C 214.483 15.560,213.943 15.200,213.600 15.200 C 213.257 15.200,212.717 14.840,212.400 14.400 C 212.083 13.960,211.503 13.600,211.112 13.600 C 210.720 13.600,210.400 13.420,210.400 13.200 C 210.400 12.980,210.040 12.800,209.600 12.800 C 209.160 12.800,208.800 12.620,208.800 12.400 C 208.800 12.180,208.616 12.000,208.391 12.000 C 208.167 12.000,207.312 11.566,206.491 11.036 C 205.671 10.505,204.010 9.680,202.800 9.201 C 201.590 8.723,200.287 8.167,199.905 7.966 C 199.523 7.765,198.938 7.600,198.605 7.600 C 198.272 7.600,198.000 7.420,198.000 7.200 C 198.000 6.980,197.561 6.800,197.024 6.800 C 196.487 6.800,195.936 6.620,195.800 6.400 C 195.664 6.180,195.203 6.000,194.776 6.000 C 194.349 6.000,194.000 5.820,194.000 5.600 C 194.000 5.380,193.460 5.200,192.800 5.200 C 192.140 5.200,191.600 5.020,191.600 4.800 C 191.600 4.580,191.150 4.400,190.600 4.400 C 190.050 4.400,189.600 4.220,189.600 4.000 C 189.600 3.780,189.071 3.600,188.424 3.600 C 187.777 3.600,187.136 3.420,187.000 3.200 C 186.864 2.980,186.133 2.800,185.376 2.800 C 184.619 2.800,184.000 2.638,184.000 2.440 C 184.000 2.242,183.235 1.978,182.300 1.853 C 177.822 1.254,176.960 1.078,176.443 0.659 C 175.891 0.212,148.617 -0.101,142.900 0.274 M69.464 51.360 C 68.439 52.329,67.600 53.409,67.600 53.760 C 67.600 54.112,67.420 54.400,67.200 54.400 C 66.980 54.400,66.800 54.760,66.800 55.200 C 66.800 55.640,66.620 56.000,66.400 56.000 C 66.180 56.000,66.000 56.360,66.000 56.800 C 66.000 57.240,65.820 57.600,65.600 57.600 C 65.380 57.600,65.200 57.960,65.200 58.400 C 65.200 58.840,65.020 59.200,64.800 59.200 C 64.580 59.200,64.400 59.650,64.400 60.200 C 64.400 60.750,64.220 61.200,64.000 61.200 C 63.780 61.200,63.600 61.560,63.600 62.000 C 63.600 62.440,63.420 62.800,63.200 62.800 C 62.980 62.800,62.800 63.340,62.800 64.000 C 62.800 64.660,62.620 65.200,62.400 65.200 C 62.180 65.200,62.000 65.549,62.000 65.976 C 62.000 66.403,61.820 66.864,61.600 67.000 C 61.380 67.136,61.200 67.599,61.200 68.029 C 61.200 68.459,61.042 69.123,60.849 69.505 C 60.280 70.633,59.600 72.996,59.600 73.848 C 59.600 74.284,59.425 74.815,59.211 75.029 C 58.997 75.243,58.702 76.719,58.554 78.309 C 58.406 79.899,58.131 81.200,57.943 81.200 C 57.754 81.200,57.600 81.573,57.600 82.029 C 57.600 83.149,56.672 84.000,55.452 84.000 C 54.899 84.000,54.336 84.180,54.200 84.400 C 54.064 84.620,53.524 84.800,53.000 84.800 C 52.476 84.800,51.936 84.980,51.800 85.200 C 51.664 85.420,51.113 85.600,50.576 85.600 C 50.039 85.600,49.600 85.780,49.600 86.000 C 49.600 86.220,49.161 86.400,48.624 86.400 C 48.087 86.400,47.536 86.580,47.400 86.800 C 47.264 87.020,46.803 87.200,46.376 87.200 C 45.949 87.200,45.600 87.380,45.600 87.600 C 45.600 87.820,45.240 88.000,44.800 88.000 C 44.360 88.000,44.000 88.146,44.000 88.325 C 44.000 88.504,43.370 88.898,42.600 89.200 C 41.830 89.502,41.200 89.896,41.200 90.075 C 41.200 90.254,40.840 90.400,40.400 90.400 C 39.960 90.400,39.600 90.580,39.600 90.800 C 39.600 91.020,39.240 91.200,38.800 91.200 C 38.360 91.200,38.000 91.345,38.000 91.523 C 38.000 91.701,37.280 92.164,36.400 92.552 C 35.520 92.940,34.800 93.425,34.800 93.629 C 34.800 93.833,34.480 94.000,34.088 94.000 C 33.697 94.000,33.117 94.360,32.800 94.800 C 32.483 95.240,32.020 95.600,31.771 95.600 C 31.522 95.600,30.754 96.140,30.063 96.800 C 29.372 97.460,28.689 98.000,28.544 98.000 C 28.225 98.000,16.800 109.531,16.800 109.853 C 16.800 109.977,16.260 110.583,15.600 111.200 C 14.940 111.817,14.400 112.527,14.400 112.779 C 14.400 113.030,13.950 113.686,13.400 114.236 C 12.850 114.786,12.400 115.395,12.400 115.590 C 12.400 115.784,12.175 116.188,11.900 116.487 C 10.787 117.698,8.404 122.339,8.402 123.300 C 8.401 123.685,8.254 124.000,8.075 124.000 C 7.896 124.000,7.502 124.630,7.200 125.400 C 6.898 126.170,6.504 126.800,6.325 126.800 C 6.146 126.800,6.000 127.160,6.000 127.600 C 6.000 128.040,5.820 128.400,5.600 128.400 C 5.380 128.400,5.200 128.940,5.200 129.600 C 5.200 130.260,5.020 130.800,4.800 130.800 C 4.580 130.800,4.400 131.160,4.400 131.600 C 4.400 132.040,4.220 132.400,4.000 132.400 C 3.780 132.400,3.600 132.940,3.600 133.600 C 3.600 134.260,3.420 134.800,3.200 134.800 C 2.980 134.800,2.800 135.329,2.800 135.976 C 2.800 136.623,2.620 137.264,2.400 137.400 C 2.180 137.536,2.000 138.267,2.000 139.024 C 2.000 139.781,1.820 140.400,1.600 140.400 C 1.380 140.400,1.200 141.195,1.200 142.167 C 1.200 143.224,0.999 144.000,0.700 144.100 C -0.029 144.343,-0.029 175.657,0.700 175.900 C 0.987 175.996,1.200 176.736,1.200 177.633 C 1.200 178.495,1.380 179.200,1.600 179.200 C 1.820 179.200,2.000 179.920,2.000 180.800 C 2.000 181.680,2.180 182.400,2.400 182.400 C 2.620 182.400,2.800 182.940,2.800 183.600 C 2.800 184.260,2.980 184.800,3.200 184.800 C 3.420 184.800,3.600 185.340,3.600 186.000 C 3.600 186.660,3.780 187.200,4.000 187.200 C 4.220 187.200,4.400 187.650,4.400 188.200 C 4.400 188.750,4.580 189.200,4.800 189.200 C 5.020 189.200,5.200 189.465,5.200 189.788 C 5.200 190.111,5.560 191.017,6.000 191.800 C 6.440 192.583,6.800 193.579,6.800 194.012 C 6.800 194.445,6.980 194.800,7.200 194.800 C 7.420 194.800,7.600 195.160,7.600 195.600 C 7.600 196.040,7.780 196.400,8.000 196.400 C 8.220 196.400,8.400 196.749,8.400 197.176 C 8.400 197.603,8.580 198.064,8.801 198.201 C 9.022 198.337,9.546 199.203,9.966 200.124 C 10.927 202.231,12.101 203.600,12.947 203.600 C 13.306 203.600,13.600 203.780,13.600 204.000 C 13.600 204.921,19.824 204.474,19.894 203.548 C 19.929 203.080,20.316 202.315,20.752 201.848 C 23.082 199.360,22.922 198.041,19.436 191.000 C 15.953 183.964,14.475 179.783,12.825 172.300 C 7.374 147.578,19.345 119.185,41.453 104.402 C 45.440 101.736,53.359 97.600,54.478 97.600 C 54.787 97.600,55.211 97.457,55.420 97.282 C 55.891 96.887,57.246 96.465,64.133 94.567 C 67.355 93.679,68.506 92.385,69.154 88.922 C 71.547 76.136,73.093 71.241,77.853 61.382 C 80.246 56.426,80.221 54.185,77.749 51.712 C 77.227 51.191,76.800 50.502,76.800 50.182 C 76.800 48.600,71.482 49.454,69.464 51.360 M26.784 154.921 C 25.825 155.428,24.730 156.373,24.350 157.021 C 22.771 159.713,23.755 169.102,26.487 177.400 C 32.144 194.587,46.820 208.297,64.600 213.005 C 73.710 215.417,80.785 215.388,82.800 212.932 C 86.587 208.314,83.215 203.200,76.381 203.200 C 74.827 203.200,72.710 203.009,71.677 202.775 C 66.087 201.511,65.372 201.316,63.000 200.415 C 47.316 194.460,35.200 177.643,35.200 161.829 C 35.200 155.809,31.244 152.562,26.784 154.921 M119.200 271.200 C 119.200 271.420,118.964 271.600,118.676 271.600 C 118.181 271.600,117.125 272.587,113.114 276.800 C 111.018 279.001,108.400 282.618,108.400 283.313 C 108.400 283.594,108.040 284.083,107.600 284.400 C 107.160 284.717,106.800 285.297,106.800 285.688 C 106.800 286.080,106.620 286.400,106.400 286.400 C 106.180 286.400,106.000 286.760,106.000 287.200 C 106.000 287.640,105.820 288.000,105.600 288.000 C 105.380 288.000,105.200 288.360,105.200 288.800 C 105.200 289.240,105.020 289.600,104.800 289.600 C 104.580 289.600,104.400 289.960,104.400 290.400 C 104.400 290.840,104.220 291.200,104.000 291.200 C 103.780 291.200,103.600 291.740,103.600 292.400 C 103.600 293.060,103.420 293.600,103.200 293.600 C 102.980 293.600,102.800 294.320,102.800 295.200 C 102.800 296.080,102.620 296.800,102.400 296.800 C 102.156 296.800,102.000 298.659,102.000 301.576 C 102.000 304.329,102.169 306.458,102.400 306.600 C 102.620 306.736,102.800 307.467,102.800 308.224 C 102.800 308.981,102.980 309.600,103.200 309.600 C 103.420 309.600,103.600 309.960,103.600 310.400 C 103.600 310.840,103.780 311.200,104.000 311.200 C 104.220 311.200,104.400 311.520,104.400 311.912 C 104.400 312.303,104.760 312.883,105.200 313.200 C 105.640 313.517,106.000 314.025,106.000 314.328 C 106.000 315.066,109.606 318.400,110.405 318.400 C 110.622 318.400,110.801 318.535,110.803 318.700 C 110.807 319.106,112.786 320.000,113.680 320.000 C 114.076 320.000,114.400 320.160,114.400 320.356 C 114.400 320.978,117.238 321.306,122.600 321.306 C 127.962 321.306,130.800 320.978,130.800 320.356 C 130.800 320.160,131.155 320.000,131.588 320.000 C 132.980 320.000,135.832 318.162,138.182 315.749 C 139.948 313.936,140.319 313.414,141.046 311.720 C 141.404 310.884,141.856 309.887,142.049 309.505 C 142.242 309.123,142.400 308.268,142.400 307.605 C 142.400 306.942,142.580 306.400,142.800 306.400 C 143.043 306.400,143.200 304.600,143.200 301.800 C 143.200 299.000,143.043 297.200,142.800 297.200 C 142.580 297.200,142.400 296.480,142.400 295.600 C 142.400 294.720,142.243 294.000,142.051 294.000 C 141.859 294.000,141.583 293.256,141.438 292.348 C 141.141 290.490,138.909 285.600,138.358 285.600 C 138.161 285.600,138.000 285.240,138.000 284.800 C 138.000 284.360,137.820 284.000,137.600 284.000 C 137.380 284.000,137.200 283.757,137.200 283.459 C 137.200 283.162,136.660 282.354,136.000 281.663 C 135.340 280.972,134.800 280.241,134.800 280.039 C 134.800 279.836,133.720 278.573,132.400 277.232 C 131.080 275.892,130.000 274.697,130.000 274.578 C 130.000 274.223,127.834 272.426,127.388 272.413 C 127.162 272.406,126.717 272.040,126.400 271.600 C 125.765 270.719,119.200 270.354,119.200 271.200 M274.947 279.324 C 274.477 279.806,273.307 280.939,272.347 281.842 C 269.623 284.403,266.099 288.267,265.562 289.281 C 265.294 289.786,264.775 290.470,264.409 290.800 C 262.675 292.364,258.400 299.861,258.400 301.340 C 258.400 301.703,258.220 302.000,258.000 302.000 C 257.780 302.000,257.600 302.540,257.600 303.200 C 257.600 303.860,257.420 304.400,257.200 304.400 C 256.980 304.400,256.800 304.940,256.800 305.600 C 256.800 306.260,256.620 306.800,256.400 306.800 C 256.180 306.800,256.000 307.419,256.000 308.176 C 256.000 308.933,255.820 309.664,255.600 309.800 C 255.365 309.945,255.200 312.271,255.200 315.424 C 255.200 318.741,255.353 320.800,255.600 320.800 C 255.820 320.800,256.000 321.430,256.000 322.200 C 256.000 322.970,256.180 323.600,256.400 323.600 C 256.620 323.600,256.800 323.830,256.800 324.110 C 256.800 325.785,260.802 332.051,262.400 332.877 C 262.950 333.162,263.691 333.711,264.047 334.097 C 264.403 334.484,264.988 334.800,265.347 334.800 C 265.706 334.800,266.000 334.980,266.000 335.200 C 266.000 335.420,266.360 335.600,266.800 335.600 C 267.240 335.600,267.600 335.780,267.600 336.000 C 267.600 336.220,267.949 336.400,268.376 336.400 C 268.803 336.400,269.264 336.580,269.400 336.800 C 269.536 337.020,270.267 337.200,271.024 337.200 C 271.781 337.200,272.400 337.380,272.400 337.600 C 272.400 337.851,274.867 338.000,279.000 338.000 C 283.133 338.000,285.600 337.851,285.600 337.600 C 285.600 337.380,286.123 337.200,286.762 337.200 C 287.884 337.200,291.261 335.714,291.533 335.100 C 291.607 334.935,292.012 334.800,292.433 334.800 C 292.855 334.800,293.200 334.650,293.200 334.468 C 293.200 334.285,293.693 333.880,294.295 333.568 C 295.717 332.831,298.800 329.772,298.800 329.099 C 298.800 328.812,299.160 328.317,299.600 328.000 C 300.040 327.683,300.400 327.103,300.400 326.712 C 300.400 326.320,300.580 326.000,300.800 326.000 C 301.020 326.000,301.200 325.561,301.200 325.024 C 301.200 324.487,301.380 323.936,301.600 323.800 C 301.820 323.664,302.000 323.034,302.000 322.400 C 302.000 321.766,302.180 321.136,302.400 321.000 C 302.634 320.855,302.800 318.537,302.800 315.400 C 302.800 312.263,302.634 309.945,302.400 309.800 C 302.180 309.664,302.000 308.854,302.000 308.000 C 302.000 307.146,301.820 306.336,301.600 306.200 C 301.380 306.064,301.200 305.524,301.200 305.000 C 301.200 304.476,301.020 303.936,300.800 303.800 C 300.580 303.664,300.400 303.203,300.400 302.776 C 300.400 302.349,300.220 302.000,300.000 302.000 C 299.780 302.000,299.600 301.640,299.600 301.200 C 299.600 300.760,299.420 300.400,299.200 300.400 C 298.980 300.400,298.800 300.040,298.800 299.600 C 298.800 299.160,298.620 298.800,298.400 298.800 C 298.180 298.800,298.000 298.440,298.000 298.000 C 298.000 297.560,297.820 297.200,297.600 297.200 C 297.380 297.200,297.200 296.840,297.200 296.400 C 297.200 295.960,297.020 295.600,296.800 295.600 C 296.580 295.600,296.400 295.330,296.400 295.000 C 296.400 294.670,296.220 294.400,296.000 294.400 C 295.780 294.400,295.600 294.130,295.600 293.800 C 295.600 293.470,295.420 293.200,295.200 293.200 C 294.980 293.200,294.800 293.002,294.800 292.760 C 294.800 292.519,294.260 291.817,293.600 291.200 C 292.940 290.583,292.400 289.868,292.400 289.611 C 292.400 289.353,292.175 288.894,291.900 288.589 C 291.625 288.284,290.590 287.089,289.600 285.932 C 287.526 283.510,284.196 280.119,282.889 279.100 C 281.469 277.993,276.097 278.145,274.947 279.324 M124.526 287.700 C 133.428 298.672,132.690 308.976,123.000 308.995 C 115.785 309.008,112.537 304.053,115.293 297.239 C 117.500 291.783,121.282 286.000,122.643 286.000 C 122.920 286.000,123.767 286.765,124.526 287.700 M281.452 296.100 C 294.366 312.277,293.255 325.400,278.972 325.400 C 264.930 325.400,263.587 312.920,275.906 296.900 C 278.947 292.945,278.935 292.947,281.452 296.100 M197.200 313.200 C 197.200 313.420,196.885 313.610,196.500 313.622 C 196.115 313.634,194.990 314.539,194.000 315.633 C 193.010 316.727,190.490 319.406,188.400 321.587 C 182.896 327.331,181.600 328.772,181.600 329.147 C 181.600 329.331,181.060 330.046,180.400 330.737 C 179.740 331.428,179.200 332.129,179.200 332.296 C 179.199 332.463,178.749 333.123,178.200 333.762 C 177.650 334.401,177.200 335.049,177.200 335.201 C 177.200 335.353,176.839 335.893,176.398 336.402 C 173.845 339.346,174.699 346.410,177.643 346.692 C 183.868 347.289,184.428 347.035,188.002 342.007 C 192.757 335.317,199.030 328.000,200.011 328.000 C 200.912 328.000,207.120 335.081,211.060 340.601 C 213.706 344.310,218.251 352.545,219.227 355.400 C 219.377 355.840,219.697 356.692,219.938 357.292 C 226.578 373.862,217.260 388.400,200.000 388.400 C 186.288 388.400,178.000 380.305,178.000 366.912 C 178.000 363.379,176.998 361.574,174.447 360.513 C 173.651 360.181,172.887 359.731,172.749 359.512 C 172.014 358.341,166.800 360.728,166.800 362.236 C 166.800 362.546,166.620 362.800,166.400 362.800 C 166.149 362.800,166.000 365.267,166.000 369.400 C 166.000 373.533,166.149 376.000,166.400 376.000 C 166.620 376.000,166.800 376.720,166.800 377.600 C 166.800 378.480,166.980 379.200,167.200 379.200 C 167.420 379.200,167.600 379.740,167.600 380.400 C 167.600 381.060,167.780 381.600,168.000 381.600 C 168.220 381.600,168.400 381.960,168.400 382.400 C 168.400 382.840,168.580 383.200,168.800 383.200 C 169.020 383.200,169.200 383.560,169.200 384.000 C 169.200 384.440,169.380 384.800,169.600 384.800 C 169.820 384.800,170.000 385.120,170.000 385.512 C 170.000 385.903,170.360 386.483,170.800 386.800 C 171.240 387.117,171.600 387.608,171.600 387.891 C 171.600 388.544,176.712 393.612,178.133 394.368 C 178.720 394.680,179.200 395.085,179.200 395.268 C 179.200 395.450,179.560 395.600,180.000 395.600 C 180.440 395.600,180.801 395.735,180.803 395.900 C 180.807 396.259,182.744 397.200,183.480 397.200 C 183.766 397.200,184.000 397.380,184.000 397.600 C 184.000 397.820,184.360 398.000,184.800 398.000 C 185.240 398.000,185.600 398.180,185.600 398.400 C 185.600 398.620,186.125 398.800,186.767 398.800 C 187.408 398.800,188.008 399.025,188.100 399.300 C 188.342 400.027,211.658 400.027,211.900 399.300 C 211.992 399.025,212.592 398.800,213.233 398.800 C 213.875 398.800,214.400 398.620,214.400 398.400 C 214.400 398.180,214.760 398.000,215.200 398.000 C 215.640 398.000,216.000 397.820,216.000 397.600 C 216.000 397.380,216.416 397.200,216.925 397.200 C 217.433 397.200,218.236 396.840,218.708 396.400 C 219.180 395.960,219.844 395.600,220.183 395.600 C 220.522 395.600,220.800 395.450,220.800 395.268 C 220.800 395.085,221.289 394.680,221.886 394.368 C 223.300 393.629,228.400 388.558,228.400 387.891 C 228.400 387.608,228.760 387.117,229.200 386.800 C 229.640 386.483,230.000 385.903,230.000 385.512 C 230.000 385.120,230.180 384.800,230.400 384.800 C 230.620 384.800,230.800 384.440,230.800 384.000 C 230.800 383.560,230.980 383.200,231.200 383.200 C 231.420 383.200,231.600 382.840,231.600 382.400 C 231.600 381.960,231.780 381.600,232.000 381.600 C 232.220 381.600,232.400 381.060,232.400 380.400 C 232.400 379.740,232.580 379.200,232.800 379.200 C 233.020 379.200,233.200 378.480,233.200 377.600 C 233.200 376.720,233.380 376.000,233.600 376.000 C 233.853 376.000,234.000 373.208,234.000 368.424 C 234.000 363.804,233.844 360.751,233.600 360.600 C 233.380 360.464,233.200 359.553,233.200 358.576 C 233.200 357.599,233.020 356.800,232.800 356.800 C 232.580 356.800,232.400 356.271,232.400 355.624 C 232.400 354.977,232.220 354.336,232.000 354.200 C 231.780 354.064,231.600 353.513,231.600 352.976 C 231.600 352.439,231.420 352.000,231.200 352.000 C 230.980 352.000,230.800 351.460,230.800 350.800 C 230.800 350.140,230.620 349.600,230.400 349.600 C 230.180 349.600,230.000 349.251,230.000 348.824 C 230.000 348.397,229.820 347.936,229.600 347.800 C 229.380 347.664,229.200 347.203,229.200 346.776 C 229.200 346.349,229.020 346.000,228.800 346.000 C 228.580 346.000,228.400 345.766,228.400 345.480 C 228.400 344.744,227.459 342.807,227.100 342.803 C 226.935 342.801,226.800 342.530,226.800 342.200 C 226.800 341.870,226.620 341.600,226.400 341.600 C 226.180 341.600,226.000 341.330,226.000 341.000 C 226.000 340.670,225.820 340.400,225.600 340.400 C 225.380 340.400,225.200 340.113,225.200 339.762 C 225.200 339.068,224.101 336.937,223.300 336.079 C 223.025 335.784,222.800 335.384,222.800 335.190 C 222.800 334.995,222.350 334.386,221.800 333.836 C 221.250 333.286,220.800 332.624,220.800 332.365 C 220.800 332.106,220.476 331.603,220.081 331.247 C 219.686 330.891,218.928 329.970,218.396 329.200 C 217.865 328.430,216.929 327.323,216.315 326.740 C 215.702 326.156,215.200 325.569,215.200 325.434 C 215.200 325.299,213.715 323.666,211.900 321.806 C 210.085 319.945,207.610 317.349,206.400 316.036 C 205.190 314.722,203.885 313.637,203.500 313.624 C 203.115 313.611,202.800 313.420,202.800 313.200 C 202.800 312.971,201.600 312.800,200.000 312.800 C 198.400 312.800,197.200 312.971,197.200 313.200 M52.200 323.600 C 52.064 323.820,51.423 324.000,50.776 324.000 C 50.129 324.000,49.600 324.180,49.600 324.400 C 49.600 324.620,49.346 324.800,49.036 324.800 C 48.347 324.800,43.767 329.200,42.165 331.400 C 41.524 332.280,40.145 333.843,39.100 334.874 C 38.055 335.905,37.200 336.958,37.200 337.214 C 37.200 337.470,36.660 338.183,36.000 338.800 C 35.340 339.417,34.800 340.127,34.800 340.379 C 34.800 340.630,34.395 341.256,33.900 341.768 C 32.411 343.309,31.600 344.386,31.600 344.821 C 31.600 345.048,31.240 345.620,30.800 346.092 C 30.360 346.564,30.000 347.187,30.000 347.475 C 30.000 347.764,29.820 348.000,29.600 348.000 C 29.380 348.000,29.200 348.360,29.200 348.800 C 29.200 349.240,29.020 349.600,28.800 349.600 C 28.580 349.600,28.400 349.960,28.400 350.400 C 28.400 350.840,28.220 351.200,28.000 351.200 C 27.780 351.200,27.600 351.560,27.600 352.000 C 27.600 352.440,27.420 352.800,27.200 352.800 C 26.980 352.800,26.800 353.124,26.800 353.520 C 26.800 353.916,26.644 354.411,26.453 354.620 C 25.939 355.183,24.800 358.801,24.800 359.871 C 24.800 360.382,24.620 360.800,24.400 360.800 C 24.180 360.800,24.000 361.610,24.000 362.600 C 24.000 363.590,23.820 364.400,23.600 364.400 C 23.348 364.400,23.200 367.133,23.200 371.800 C 23.200 376.467,23.348 379.200,23.600 379.200 C 23.820 379.200,24.000 379.920,24.000 380.800 C 24.000 381.680,24.180 382.400,24.400 382.400 C 24.620 382.400,24.800 382.738,24.800 383.151 C 24.800 385.839,31.341 394.800,33.303 394.800 C 33.589 394.800,34.083 395.160,34.400 395.600 C 34.717 396.040,35.297 396.400,35.688 396.400 C 36.080 396.400,36.400 396.580,36.400 396.800 C 36.400 397.020,36.760 397.200,37.200 397.200 C 37.640 397.200,38.000 397.380,38.000 397.600 C 38.000 397.820,38.360 398.000,38.800 398.000 C 39.240 398.000,39.600 398.180,39.600 398.400 C 39.600 398.620,40.125 398.800,40.767 398.800 C 41.408 398.800,42.008 399.025,42.100 399.300 C 42.228 399.684,44.809 399.800,53.200 399.800 C 61.591 399.800,64.172 399.684,64.300 399.300 C 64.392 399.025,64.891 398.800,65.410 398.800 C 65.928 398.800,66.464 398.620,66.600 398.400 C 66.736 398.180,67.197 398.000,67.624 398.000 C 68.051 398.000,68.400 397.820,68.400 397.600 C 68.400 397.380,68.760 397.200,69.200 397.200 C 69.640 397.200,70.000 397.020,70.000 396.800 C 70.000 396.580,70.270 396.400,70.600 396.400 C 70.930 396.400,71.200 396.220,71.200 396.000 C 71.200 395.780,71.430 395.600,71.712 395.600 C 71.993 395.600,72.483 395.240,72.800 394.800 C 73.117 394.360,73.522 394.000,73.699 394.000 C 74.119 394.000,77.600 390.519,77.600 390.099 C 77.600 389.922,77.960 389.517,78.400 389.200 C 78.840 388.883,79.200 388.303,79.200 387.912 C 79.200 387.520,79.380 387.200,79.600 387.200 C 79.820 387.200,80.000 386.840,80.000 386.400 C 80.000 385.960,80.180 385.600,80.400 385.600 C 80.620 385.600,80.800 385.240,80.800 384.800 C 80.800 384.360,80.980 384.000,81.200 384.000 C 81.420 384.000,81.600 383.460,81.600 382.800 C 81.600 382.140,81.780 381.600,82.000 381.600 C 82.220 381.600,82.400 380.880,82.400 380.000 C 82.400 379.120,82.580 378.400,82.800 378.400 C 83.051 378.400,83.200 375.933,83.200 371.800 C 83.200 367.667,83.051 365.200,82.800 365.200 C 82.580 365.200,82.400 364.401,82.400 363.424 C 82.400 362.447,82.220 361.536,82.000 361.400 C 81.780 361.264,81.600 360.724,81.600 360.200 C 81.600 359.676,81.420 359.136,81.200 359.000 C 80.980 358.864,80.800 358.313,80.800 357.776 C 80.800 357.239,80.620 356.800,80.400 356.800 C 80.180 356.800,80.000 356.260,80.000 355.600 C 80.000 354.940,79.820 354.400,79.600 354.400 C 79.380 354.400,79.200 354.040,79.200 353.600 C 79.200 353.160,79.020 352.800,78.800 352.800 C 78.580 352.800,78.400 352.440,78.400 352.000 C 78.400 351.560,78.220 351.200,78.000 351.200 C 77.780 351.200,77.600 350.840,77.600 350.400 C 77.600 349.960,77.420 349.600,77.200 349.600 C 76.980 349.600,76.800 349.240,76.800 348.800 C 76.800 348.360,76.641 348.000,76.446 348.000 C 76.251 348.000,75.774 347.325,75.387 346.500 C 74.638 344.905,72.583 341.751,71.719 340.871 C 71.434 340.581,71.200 340.182,71.200 339.985 C 71.200 339.788,70.570 338.997,69.800 338.227 C 69.030 337.457,68.400 336.638,68.400 336.407 C 68.400 336.176,67.095 334.650,65.500 333.015 C 63.905 331.380,61.778 329.178,60.773 328.121 C 57.444 324.620,56.545 324.000,54.803 324.000 C 53.922 324.000,53.200 323.820,53.200 323.600 C 53.200 323.380,53.031 323.200,52.824 323.200 C 52.617 323.200,52.336 323.380,52.200 323.600 M346.800 323.600 C 346.800 323.820,346.067 324.000,345.171 324.000 C 343.518 324.000,341.695 325.335,338.430 328.937 C 337.864 329.562,336.095 331.405,334.500 333.031 C 332.905 334.657,331.600 336.176,331.600 336.407 C 331.600 336.638,330.970 337.457,330.200 338.227 C 329.430 338.997,328.800 339.788,328.800 339.985 C 328.800 340.182,328.575 340.581,328.300 340.871 C 327.248 341.984,325.714 344.253,325.171 345.500 C 324.859 346.215,324.469 346.800,324.302 346.800 C 324.136 346.800,324.000 347.070,324.000 347.400 C 324.000 347.730,323.820 348.000,323.600 348.000 C 323.380 348.000,323.200 348.360,323.200 348.800 C 323.200 349.240,323.020 349.600,322.800 349.600 C 322.580 349.600,322.400 349.960,322.400 350.400 C 322.400 350.840,322.220 351.200,322.000 351.200 C 321.780 351.200,321.600 351.560,321.600 352.000 C 321.600 352.440,321.420 352.800,321.200 352.800 C 320.980 352.800,320.800 353.160,320.800 353.600 C 320.800 354.040,320.620 354.400,320.400 354.400 C 320.180 354.400,320.000 354.940,320.000 355.600 C 320.000 356.260,319.820 356.800,319.600 356.800 C 319.380 356.800,319.200 357.239,319.200 357.776 C 319.200 358.313,319.020 358.864,318.800 359.000 C 318.580 359.136,318.400 359.676,318.400 360.200 C 318.400 360.724,318.220 361.264,318.000 361.400 C 317.780 361.536,317.600 362.346,317.600 363.200 C 317.600 364.054,317.420 364.864,317.200 365.000 C 316.960 365.149,316.800 367.863,316.800 371.800 C 316.800 375.737,316.960 378.451,317.200 378.600 C 317.420 378.736,317.600 379.467,317.600 380.224 C 317.600 380.981,317.780 381.600,318.000 381.600 C 318.220 381.600,318.400 382.140,318.400 382.800 C 318.400 383.460,318.580 384.000,318.800 384.000 C 319.020 384.000,319.200 384.234,319.200 384.520 C 319.200 385.256,320.141 387.193,320.500 387.197 C 320.665 387.199,320.800 387.520,320.800 387.912 C 320.800 388.303,321.160 388.883,321.600 389.200 C 322.040 389.517,322.400 389.922,322.400 390.099 C 322.400 390.519,325.881 394.000,326.301 394.000 C 326.478 394.000,326.883 394.360,327.200 394.800 C 327.517 395.240,328.007 395.600,328.288 395.600 C 328.570 395.600,328.800 395.780,328.800 396.000 C 328.800 396.220,329.070 396.400,329.400 396.400 C 329.730 396.400,330.000 396.580,330.000 396.800 C 330.000 397.020,330.360 397.200,330.800 397.200 C 331.240 397.200,331.600 397.380,331.600 397.600 C 331.600 397.820,331.949 398.000,332.376 398.000 C 332.803 398.000,333.264 398.180,333.400 398.400 C 333.536 398.620,334.072 398.800,334.590 398.800 C 335.109 398.800,335.608 399.025,335.700 399.300 C 335.828 399.684,338.409 399.800,346.800 399.800 C 355.191 399.800,357.772 399.684,357.900 399.300 C 357.992 399.025,358.592 398.800,359.233 398.800 C 359.875 398.800,360.400 398.620,360.400 398.400 C 360.400 398.180,360.760 398.000,361.200 398.000 C 361.640 398.000,362.000 397.820,362.000 397.600 C 362.000 397.380,362.360 397.200,362.800 397.200 C 363.240 397.200,363.600 397.020,363.600 396.800 C 363.600 396.580,363.920 396.400,364.312 396.400 C 364.703 396.400,365.283 396.040,365.600 395.600 C 365.917 395.160,366.383 394.800,366.635 394.800 C 368.344 394.800,374.613 386.708,375.058 383.927 C 375.192 383.087,375.459 382.400,375.651 382.400 C 375.843 382.400,376.000 381.680,376.000 380.800 C 376.000 379.920,376.180 379.200,376.400 379.200 C 376.652 379.200,376.800 376.467,376.800 371.800 C 376.800 367.133,376.652 364.400,376.400 364.400 C 376.180 364.400,376.000 363.691,376.000 362.824 C 376.000 361.957,375.845 361.152,375.656 361.035 C 375.467 360.918,375.201 360.011,375.065 359.020 C 374.929 358.028,374.634 356.854,374.409 356.409 C 374.184 355.964,373.820 355.242,373.600 354.805 C 373.380 354.368,373.200 353.738,373.200 353.405 C 373.200 353.072,373.020 352.800,372.800 352.800 C 372.580 352.800,372.400 352.440,372.400 352.000 C 372.400 351.560,372.220 351.200,372.000 351.200 C 371.780 351.200,371.600 350.840,371.600 350.400 C 371.600 349.960,371.420 349.600,371.200 349.600 C 370.980 349.600,370.800 349.240,370.800 348.800 C 370.800 348.360,370.620 348.000,370.400 348.000 C 370.180 348.000,370.000 347.764,370.000 347.475 C 370.000 347.187,369.640 346.564,369.200 346.092 C 368.760 345.620,368.400 345.048,368.400 344.821 C 368.400 344.386,367.589 343.309,366.100 341.768 C 365.605 341.256,365.200 340.630,365.200 340.379 C 365.200 340.127,364.660 339.417,364.000 338.800 C 363.340 338.183,362.800 337.477,362.800 337.231 C 362.800 336.984,361.810 335.793,360.600 334.583 C 359.390 333.373,358.400 332.207,358.400 331.993 C 358.400 331.349,351.675 324.800,351.013 324.800 C 350.676 324.800,350.400 324.620,350.400 324.400 C 350.400 324.180,349.871 324.000,349.224 324.000 C 348.577 324.000,347.936 323.820,347.800 323.600 C 347.664 323.380,347.383 323.200,347.176 323.200 C 346.969 323.200,346.800 323.380,346.800 323.600 M55.208 340.500 C 59.017 344.465,67.200 356.008,67.200 357.417 C 67.200 357.522,67.550 358.372,67.979 359.304 C 75.429 375.523,68.693 388.431,52.800 388.394 C 30.638 388.342,29.252 364.604,50.062 341.500 C 53.377 337.820,52.751 337.942,55.208 340.500 M350.600 342.232 C 352.360 344.316,354.010 346.258,354.267 346.549 C 354.524 346.839,355.833 348.750,357.176 350.796 C 370.503 371.091,365.819 388.400,347.000 388.400 C 324.260 388.400,323.143 363.330,344.866 340.500 C 347.337 337.903,346.808 337.743,350.600 342.232 " stroke="none" fill="#050505" fill-rule="evenodd"></path><path id="path1" d="M156.400 12.385 C 155.850 12.569,153.386 12.738,150.924 12.760 C 148.416 12.782,146.338 12.976,146.200 13.200 C 146.064 13.420,144.984 13.600,143.800 13.600 C 142.616 13.600,141.536 13.780,141.400 14.000 C 141.264 14.220,140.454 14.400,139.600 14.400 C 138.746 14.400,137.936 14.580,137.800 14.800 C 137.664 15.020,136.944 15.200,136.200 15.200 C 135.456 15.200,134.736 15.380,134.600 15.600 C 134.464 15.820,133.834 16.000,133.200 16.000 C 132.566 16.000,131.958 16.144,131.849 16.321 C 131.740 16.497,130.728 16.893,129.600 17.200 C 128.472 17.507,127.460 17.903,127.351 18.079 C 127.242 18.256,126.713 18.400,126.176 18.400 C 125.639 18.400,125.200 18.541,125.200 18.713 C 125.200 18.885,124.366 19.272,123.347 19.573 C 122.328 19.873,119.583 21.108,117.247 22.316 C 114.911 23.525,112.596 24.713,112.103 24.957 C 111.610 25.200,111.205 25.535,111.203 25.700 C 111.201 25.865,110.975 26.000,110.700 26.001 C 110.425 26.001,109.570 26.541,108.800 27.200 C 108.030 27.859,107.267 28.399,107.105 28.399 C 106.942 28.400,106.492 28.660,106.105 28.977 C 105.717 29.294,103.960 30.715,102.200 32.136 C 100.440 33.556,98.010 35.661,96.800 36.813 C 92.945 40.484,90.192 41.138,86.602 39.234 C 85.429 38.612,84.960 38.519,84.838 38.887 C 84.746 39.162,83.980 40.050,83.136 40.862 C 82.291 41.673,81.600 42.531,81.600 42.769 C 81.600 43.006,81.420 43.200,81.200 43.200 C 80.980 43.200,80.800 43.481,80.800 43.824 C 80.800 44.167,80.636 44.346,80.435 44.221 C 80.234 44.097,79.830 44.536,79.537 45.198 C 79.244 45.859,78.858 46.400,78.679 46.400 C 78.499 46.400,78.452 46.561,78.574 46.758 C 78.696 46.955,78.515 47.224,78.172 47.355 C 77.830 47.487,77.662 47.777,77.800 48.000 C 77.938 48.223,77.769 48.514,77.425 48.646 C 76.416 49.033,76.694 49.890,78.400 51.648 C 80.770 54.090,80.776 56.851,78.423 61.546 C 76.536 65.313,75.429 67.772,74.801 69.600 C 74.536 70.370,74.174 71.360,73.996 71.800 C 73.475 73.090,73.129 74.120,72.789 75.400 C 72.613 76.060,72.201 77.590,71.872 78.800 C 71.544 80.010,70.974 82.710,70.605 84.800 C 70.236 86.890,69.744 89.372,69.511 90.317 C 69.007 92.356,66.757 94.800,65.384 94.800 C 64.869 94.800,64.336 94.980,64.200 95.200 C 64.064 95.420,63.344 95.600,62.600 95.600 C 61.856 95.600,61.136 95.780,61.000 96.000 C 60.864 96.220,60.324 96.400,59.800 96.400 C 59.276 96.400,58.736 96.580,58.600 96.800 C 58.464 97.020,57.924 97.200,57.400 97.200 C 56.876 97.200,56.336 97.380,56.200 97.600 C 56.064 97.820,55.620 98.000,55.214 98.000 C 54.808 98.000,53.784 98.342,52.938 98.760 C 52.092 99.178,50.860 99.763,50.200 100.060 C 48.771 100.703,42.771 104.023,42.200 104.487 C 41.980 104.666,40.554 105.726,39.031 106.843 C 35.265 109.607,31.166 113.443,28.400 116.792 C 27.630 117.724,26.820 118.697,26.600 118.953 C 25.120 120.679,23.600 122.819,23.600 123.177 C 23.600 123.409,23.420 123.600,23.200 123.600 C 22.980 123.600,22.800 123.777,22.800 123.992 C 22.800 124.208,22.204 125.333,21.475 126.492 C 19.768 129.208,17.577 133.837,16.407 137.200 C 16.139 137.970,15.782 138.960,15.615 139.400 C 14.900 141.280,14.400 143.111,14.400 143.848 C 14.400 144.284,14.238 144.811,14.041 145.020 C 13.666 145.417,13.484 146.495,12.724 152.800 C 11.828 160.239,12.409 168.433,14.400 176.400 C 14.647 177.390,14.949 178.697,15.071 179.305 C 15.193 179.913,15.451 180.508,15.646 180.629 C 15.841 180.749,16.000 181.136,16.000 181.489 C 16.000 182.400,16.976 184.619,20.085 190.777 C 23.485 197.511,23.657 199.469,21.097 202.282 C 20.295 203.164,19.744 205.405,20.435 204.978 C 20.636 204.854,20.800 204.994,20.800 205.288 C 20.800 205.583,21.160 206.083,21.600 206.400 C 22.040 206.717,22.400 207.108,22.400 207.269 C 22.400 207.430,23.309 208.470,24.419 209.581 C 25.530 210.691,26.335 211.600,26.209 211.600 C 26.082 211.600,26.789 212.410,27.779 213.400 C 29.844 215.465,30.309 215.561,31.874 214.245 C 34.756 211.820,37.273 211.994,41.700 214.927 C 45.186 217.236,47.957 218.728,52.600 220.796 C 53.700 221.287,54.913 221.848,55.295 222.044 C 55.677 222.240,56.341 222.400,56.771 222.400 C 57.201 222.400,57.664 222.580,57.800 222.800 C 57.936 223.020,58.577 223.200,59.224 223.200 C 59.871 223.200,60.400 223.380,60.400 223.600 C 60.400 223.820,61.019 224.000,61.776 224.000 C 62.533 224.000,63.264 224.180,63.400 224.400 C 63.536 224.620,64.411 224.800,65.344 224.800 C 66.277 224.800,67.211 224.966,67.420 225.169 C 68.231 225.956,138.800 226.980,138.800 226.204 C 138.800 226.086,138.641 225.677,138.447 225.295 C 136.858 222.172,135.299 217.384,134.443 213.000 C 133.395 207.634,133.200 205.782,133.200 201.200 C 133.200 196.618,133.395 194.766,134.443 189.400 C 135.040 186.345,135.939 183.156,136.840 180.900 C 137.038 180.405,137.358 179.595,137.552 179.100 C 138.083 177.744,141.350 171.029,141.591 170.800 C 141.707 170.690,142.056 170.105,142.368 169.500 C 142.680 168.895,143.085 168.400,143.268 168.400 C 143.450 168.400,143.600 168.222,143.600 168.004 C 143.600 166.679,152.069 157.370,155.800 154.595 C 156.680 153.940,157.490 153.292,157.600 153.154 C 158.878 151.551,169.515 146.051,173.800 144.777 C 174.680 144.516,175.713 144.144,176.095 143.951 C 176.477 143.758,177.321 143.600,177.971 143.600 C 178.621 143.600,179.264 143.420,179.400 143.200 C 179.536 142.980,180.411 142.800,181.344 142.800 C 182.277 142.800,183.220 142.620,183.441 142.399 C 183.667 142.173,186.661 141.961,190.339 141.911 L 196.836 141.823 199.099 138.812 C 202.498 134.288,207.006 129.506,209.997 127.253 C 210.766 126.674,211.778 125.840,212.247 125.400 C 214.206 123.561,219.492 119.912,221.800 118.805 C 222.460 118.488,223.450 117.941,224.000 117.589 C 226.002 116.307,233.296 113.304,236.700 112.360 C 237.415 112.162,238.675 111.806,239.500 111.570 C 242.058 110.836,244.517 110.344,246.600 110.149 C 247.700 110.046,248.960 109.784,249.400 109.566 C 250.430 109.059,268.538 109.351,271.800 109.928 C 273.120 110.161,275.010 110.533,276.000 110.755 C 276.990 110.976,278.340 111.270,279.000 111.409 C 279.660 111.547,280.560 111.802,281.000 111.976 C 281.440 112.149,283.330 112.793,285.200 113.406 C 288.409 114.458,294.258 117.137,297.792 119.173 C 301.172 121.120,302.581 124.098,301.501 127.011 L 300.854 128.759 304.127 131.538 C 305.927 133.067,308.452 135.421,309.738 136.769 L 312.076 139.221 313.300 138.610 C 316.593 136.967,322.800 139.942,322.800 143.164 C 322.800 143.404,322.952 143.600,323.137 143.600 C 323.323 143.600,323.905 144.455,324.432 145.500 C 324.958 146.545,325.484 147.490,325.600 147.600 C 325.716 147.710,326.258 148.700,326.805 149.800 C 327.352 150.900,327.935 151.860,328.100 151.933 C 328.265 152.007,328.400 152.305,328.400 152.596 C 328.400 153.052,328.753 153.865,330.395 157.200 C 330.699 157.817,332.617 157.822,333.400 157.209 C 333.824 156.876,335.770 156.498,338.900 156.140 C 339.945 156.021,340.800 155.760,340.800 155.561 C 340.800 155.056,354.687 155.093,355.000 155.600 C 355.136 155.820,356.137 156.000,357.224 156.000 L 359.200 156.000 359.200 152.824 C 359.200 151.077,359.020 149.536,358.800 149.400 C 358.580 149.264,358.400 148.364,358.400 147.400 C 358.400 146.436,358.220 145.536,358.000 145.400 C 357.780 145.264,357.600 144.544,357.600 143.800 C 357.600 143.056,357.420 142.336,357.200 142.200 C 356.980 142.064,356.800 141.524,356.800 141.000 C 356.800 140.476,356.620 139.936,356.400 139.800 C 356.180 139.664,356.000 139.201,356.000 138.771 C 356.000 138.341,355.841 137.677,355.647 137.295 C 355.452 136.913,355.111 136.150,354.889 135.600 C 352.592 129.918,347.077 120.695,344.227 117.769 C 343.772 117.302,343.040 116.466,342.600 115.913 C 340.920 113.798,339.322 112.159,337.879 111.073 C 337.055 110.453,335.973 109.537,335.473 109.037 C 334.974 108.537,333.043 107.107,331.182 105.858 C 329.322 104.609,327.620 103.450,327.400 103.284 C 326.503 102.606,318.647 98.800,318.143 98.800 C 317.844 98.800,317.600 98.620,317.600 98.400 C 317.600 98.180,317.161 98.000,316.624 98.000 C 316.087 98.000,315.536 97.820,315.400 97.600 C 315.264 97.380,314.724 97.200,314.200 97.200 C 313.676 97.200,313.136 97.020,313.000 96.800 C 312.864 96.580,312.439 96.400,312.055 96.400 C 311.145 96.400,308.400 93.881,308.400 93.046 C 308.400 92.691,308.220 92.400,308.000 92.400 C 307.780 92.400,307.600 91.860,307.600 91.200 C 307.600 90.540,307.420 90.000,307.200 90.000 C 306.980 90.000,306.800 89.460,306.800 88.800 C 306.800 88.140,306.620 87.600,306.400 87.600 C 306.180 87.600,306.000 87.328,306.000 86.995 C 306.000 86.662,305.840 86.077,305.644 85.695 C 305.448 85.313,304.863 84.100,304.344 83.000 C 303.825 81.900,303.265 80.940,303.100 80.867 C 302.935 80.793,302.800 80.388,302.800 79.967 C 302.800 79.545,302.642 79.200,302.449 79.200 C 302.255 79.200,301.873 78.660,301.600 78.000 C 301.327 77.340,300.957 76.800,300.778 76.800 C 300.600 76.800,300.340 76.441,300.201 76.002 C 300.062 75.564,299.734 74.978,299.474 74.702 C 299.213 74.425,298.280 73.299,297.400 72.199 C 295.307 69.584,292.154 66.438,290.400 65.214 C 289.630 64.677,288.730 63.958,288.400 63.616 C 288.070 63.274,287.305 62.740,286.700 62.430 C 286.095 62.119,285.600 61.715,285.600 61.532 C 285.600 61.350,285.330 61.200,285.000 61.200 C 284.670 61.200,284.400 61.020,284.400 60.800 C 284.400 60.580,284.145 60.400,283.833 60.400 C 283.522 60.400,283.207 60.259,283.133 60.088 C 281.993 57.415,265.382 53.074,256.400 53.101 C 251.800 53.115,245.112 53.951,243.000 54.776 C 237.275 57.014,235.397 56.296,231.189 50.262 C 229.985 48.536,228.595 46.699,228.100 46.180 C 227.605 45.661,227.200 45.059,227.200 44.843 C 227.200 44.146,217.209 34.428,213.997 32.000 C 213.269 31.450,212.445 30.775,212.165 30.500 C 211.886 30.225,211.504 30.000,211.317 30.000 C 211.130 30.000,210.717 29.640,210.400 29.200 C 210.083 28.760,209.627 28.400,209.387 28.400 C 209.147 28.400,208.602 28.085,208.175 27.700 C 207.749 27.315,206.905 26.745,206.300 26.432 C 205.695 26.120,205.200 25.715,205.200 25.532 C 205.200 25.350,204.855 25.200,204.433 25.200 C 204.012 25.200,203.607 25.040,203.533 24.845 C 203.323 24.286,191.920 18.872,189.000 17.945 C 188.120 17.665,187.229 17.293,187.020 17.118 C 186.811 16.943,186.237 16.800,185.744 16.800 C 185.251 16.800,184.736 16.620,184.600 16.400 C 184.464 16.180,183.834 16.000,183.200 16.000 C 182.566 16.000,181.936 15.820,181.800 15.600 C 181.664 15.380,180.933 15.200,180.176 15.200 C 179.419 15.200,178.800 15.020,178.800 14.800 C 178.800 14.580,178.001 14.400,177.024 14.400 C 176.047 14.400,175.136 14.220,175.000 14.000 C 174.864 13.780,173.809 13.600,172.656 13.600 C 171.503 13.600,170.389 13.436,170.180 13.236 C 169.971 13.036,167.550 12.778,164.800 12.663 C 162.050 12.547,159.260 12.362,158.600 12.251 C 157.940 12.140,156.950 12.200,156.400 12.385 M234.800 134.865 C 224.178 136.603,214.292 140.073,212.599 142.658 C 212.239 143.207,211.237 144.385,210.373 145.276 C 209.508 146.167,208.800 147.145,208.800 147.448 C 208.800 147.752,208.665 148.000,208.500 148.001 C 208.335 148.001,207.675 148.856,207.032 149.901 C 204.416 154.157,202.282 155.475,198.822 154.974 C 191.973 153.983,183.111 155.019,176.522 157.582 C 174.805 158.250,173.175 158.797,172.900 158.798 C 172.625 158.799,172.400 158.980,172.400 159.200 C 172.400 159.420,172.040 159.600,171.600 159.600 C 171.160 159.600,170.800 159.780,170.800 160.000 C 170.800 160.220,170.530 160.400,170.200 160.400 C 169.870 160.400,169.600 160.536,169.600 160.702 C 169.600 160.869,169.028 161.258,168.328 161.568 C 167.628 161.878,166.521 162.641,165.869 163.265 C 165.216 163.889,164.513 164.400,164.307 164.400 C 163.632 164.400,156.558 171.747,155.063 174.000 C 154.260 175.210,153.459 176.380,153.283 176.600 C 152.931 177.040,149.741 183.608,149.106 185.200 C 148.886 185.750,148.548 186.513,148.353 186.895 C 148.159 187.277,148.000 188.031,148.000 188.571 C 148.000 189.111,147.820 189.664,147.600 189.800 C 147.380 189.936,147.200 190.746,147.200 191.600 C 147.200 192.454,147.020 193.264,146.800 193.400 C 146.556 193.551,146.400 196.596,146.400 201.200 C 146.400 205.804,146.556 208.849,146.800 209.000 C 147.020 209.136,147.200 209.946,147.200 210.800 C 147.200 211.654,147.380 212.464,147.600 212.600 C 147.820 212.736,148.000 213.289,148.000 213.829 C 148.000 214.369,148.159 215.123,148.353 215.505 C 148.548 215.887,148.886 216.650,149.105 217.200 C 149.792 218.922,152.968 225.390,153.230 225.600 C 153.368 225.710,153.715 226.250,154.001 226.800 C 155.090 228.890,163.444 237.999,164.275 238.001 C 164.454 238.001,165.230 238.541,166.000 239.200 C 166.770 239.859,167.625 240.399,167.900 240.399 C 168.175 240.400,168.400 240.580,168.400 240.800 C 168.400 241.020,168.670 241.200,169.000 241.200 C 169.330 241.200,169.600 241.380,169.600 241.600 C 169.600 241.820,169.870 242.000,170.200 242.000 C 170.530 242.000,170.800 242.180,170.800 242.400 C 170.800 242.620,171.124 242.800,171.520 242.800 C 171.916 242.800,172.411 242.953,172.620 243.140 C 175.904 246.082,190.494 248.513,198.600 247.469 C 200.924 247.170,201.777 246.990,205.600 245.995 C 208.316 245.288,214.225 242.979,214.800 242.400 C 214.910 242.289,215.540 241.929,216.200 241.599 C 216.860 241.270,217.749 240.685,218.175 240.300 C 218.602 239.915,219.187 239.600,219.475 239.600 C 219.764 239.600,220.000 239.420,220.000 239.200 C 220.000 238.980,220.360 238.800,220.800 238.800 C 221.240 238.800,221.600 238.620,221.600 238.400 C 221.600 238.180,222.590 238.000,223.800 238.000 C 225.010 238.000,226.000 238.180,226.000 238.400 C 226.000 238.620,226.360 238.800,226.800 238.800 C 227.240 238.800,227.600 238.980,227.600 239.200 C 227.600 239.420,227.945 239.600,228.367 239.600 C 228.788 239.600,229.193 239.735,229.267 239.900 C 229.455 240.324,234.399 242.800,235.056 242.800 C 235.355 242.800,235.600 242.980,235.600 243.200 C 235.600 243.420,235.860 243.600,236.177 243.600 C 236.495 243.600,238.340 244.131,240.277 244.779 C 251.988 248.700,267.212 248.700,278.923 244.779 C 280.860 244.131,282.705 243.600,283.023 243.600 C 283.340 243.600,283.600 243.420,283.600 243.200 C 283.600 242.980,283.949 242.800,284.376 242.800 C 284.803 242.800,285.264 242.620,285.400 242.400 C 285.536 242.180,285.997 242.000,286.424 242.000 C 286.851 242.000,287.200 241.820,287.200 241.600 C 287.200 241.380,287.560 241.200,288.000 241.200 C 288.440 241.200,288.800 241.041,288.800 240.847 C 288.800 240.652,289.115 240.393,289.500 240.271 C 290.409 239.983,292.353 238.788,293.358 237.900 C 293.794 237.515,294.372 237.200,294.642 237.200 C 294.912 237.200,295.193 237.065,295.267 236.900 C 295.340 236.735,296.390 235.841,297.600 234.914 C 299.955 233.110,301.264 232.001,303.800 229.664 C 306.441 227.230,308.958 226.584,311.481 227.691 C 312.591 228.178,315.200 230.484,315.200 230.977 C 315.200 231.735,323.787 240.400,324.538 240.400 C 324.805 240.400,325.283 240.760,325.600 241.200 C 325.917 241.640,326.497 242.000,326.888 242.000 C 327.280 242.000,327.600 242.136,327.600 242.302 C 327.600 242.469,328.185 242.861,328.900 243.175 C 329.615 243.489,331.100 244.154,332.200 244.654 C 335.685 246.237,338.531 246.903,345.733 247.821 C 349.909 248.354,358.591 246.752,363.563 244.531 C 367.082 242.959,368.595 242.121,369.755 241.100 C 370.193 240.715,370.690 240.400,370.860 240.400 C 371.135 240.400,372.200 239.484,375.977 236.000 C 376.573 235.450,377.812 234.039,378.730 232.864 L 380.400 230.728 380.400 225.741 C 380.400 222.998,380.209 219.910,379.975 218.877 C 378.936 214.281,378.700 213.329,378.321 212.200 C 375.553 203.940,368.614 194.264,362.400 189.999 C 361.630 189.471,360.910 188.932,360.800 188.801 C 360.546 188.501,358.004 187.002,355.349 185.587 C 344.423 179.766,328.822 179.057,317.400 183.863 C 313.433 185.533,312.400 185.267,312.400 182.576 C 312.400 182.253,312.234 181.677,312.032 181.295 C 311.830 180.913,311.258 179.520,310.763 178.200 C 305.743 164.830,294.788 151.859,282.000 144.145 C 278.986 142.327,272.684 139.200,272.034 139.200 C 271.789 139.200,271.277 139.041,270.895 138.847 C 269.680 138.229,268.252 137.705,266.400 137.199 C 265.410 136.929,264.150 136.565,263.600 136.390 C 263.050 136.216,261.430 135.863,260.000 135.605 C 258.570 135.347,256.536 134.970,255.480 134.768 C 253.080 134.308,237.765 134.380,234.800 134.865 M32.537 154.469 C 34.887 156.009,35.394 157.279,35.944 163.000 C 36.555 169.348,37.587 173.374,39.846 178.226 C 40.844 180.370,43.761 185.101,44.393 185.600 C 44.532 185.710,44.926 186.209,45.267 186.709 C 51.285 195.521,63.370 201.520,77.392 202.655 C 84.766 203.252,87.631 210.085,82.234 214.201 C 80.496 215.527,67.263 215.333,65.820 213.961 C 65.611 213.763,65.083 213.600,64.647 213.600 C 62.520 213.600,53.701 209.906,50.128 207.517 C 49.208 206.903,48.340 206.400,48.198 206.400 C 46.855 206.400,36.621 196.764,33.754 192.800 C 30.966 188.947,27.200 182.018,27.200 180.745 C 27.200 180.335,27.020 180.000,26.800 180.000 C 26.580 180.000,26.400 179.561,26.400 179.024 C 26.400 178.487,26.220 177.936,26.000 177.800 C 25.780 177.664,25.600 177.124,25.600 176.600 C 25.600 176.076,25.440 175.548,25.244 175.427 C 25.049 175.306,24.786 174.621,24.661 173.904 C 24.536 173.187,24.224 171.610,23.967 170.400 C 23.711 169.190,23.425 165.770,23.331 162.800 L 23.160 157.400 24.489 156.000 C 27.007 153.346,29.965 152.783,32.537 154.469 " stroke="none" fill="#e4ecf0" fill-rule="evenodd"></path><path id="path2" d="M197.561 330.713 C 194.121 334.395,192.646 336.101,191.608 337.600 C 191.075 338.370,190.525 339.090,190.387 339.200 C 190.249 339.310,189.210 340.779,188.080 342.464 C 184.940 347.144,183.133 348.037,178.782 347.060 C 177.267 346.720,177.090 346.957,175.101 352.000 C 174.884 352.550,174.548 353.313,174.353 353.695 C 174.159 354.077,174.000 354.741,174.000 355.171 C 174.000 355.601,173.820 356.064,173.600 356.200 C 172.767 356.715,173.122 360.000,174.011 360.000 C 174.456 360.000,175.626 360.805,176.611 361.789 L 178.400 363.579 178.400 366.890 C 178.400 380.601,185.833 387.794,200.000 387.794 C 212.511 387.794,219.727 382.283,221.253 371.561 C 222.311 364.126,218.786 352.279,213.153 344.338 C 212.739 343.754,212.400 343.171,212.400 343.043 C 212.400 342.914,212.137 342.492,211.816 342.105 C 211.495 341.717,210.314 340.146,209.192 338.613 C 208.070 337.080,205.948 334.488,204.476 332.853 C 203.004 331.218,201.509 329.547,201.153 329.140 C 200.204 328.055,199.934 328.173,197.561 330.713 M50.315 341.700 C 45.721 347.034,41.600 352.635,41.600 353.545 C 41.600 353.758,41.459 353.993,41.286 354.067 C 41.114 354.140,40.306 355.559,39.491 357.220 C 30.953 374.626,36.906 388.036,53.155 387.993 C 75.159 387.935,76.524 364.050,55.802 341.669 C 54.921 340.717,54.140 339.772,54.067 339.569 C 53.718 338.605,52.273 339.425,50.315 341.700 M344.559 341.300 C 323.420 363.763,324.682 387.799,347.000 387.797 C 357.311 387.797,363.203 383.311,364.336 374.600 C 364.753 371.391,363.667 363.136,362.754 362.571 C 362.559 362.451,362.400 362.026,362.400 361.627 C 362.400 358.308,349.281 339.200,347.003 339.200 C 346.746 339.200,345.646 340.145,344.559 341.300 " stroke="none" fill="#83e7e7" fill-rule="evenodd"></path><path id="path3" d="M153.300 11.876 C 153.685 11.976,154.315 11.976,154.700 11.876 C 155.085 11.775,154.770 11.693,154.000 11.693 C 153.230 11.693,152.915 11.775,153.300 11.876 M161.500 11.882 C 161.995 11.978,162.805 11.978,163.300 11.882 C 163.795 11.787,163.390 11.709,162.400 11.709 C 161.410 11.709,161.005 11.787,161.500 11.882 M191.091 142.289 C 191.801 142.377,193.061 142.379,193.891 142.292 C 194.721 142.205,194.140 142.133,192.600 142.131 C 191.060 142.129,190.381 142.200,191.091 142.289 M346.300 167.482 C 346.795 167.578,347.605 167.578,348.100 167.482 C 348.595 167.387,348.190 167.309,347.200 167.309 C 346.210 167.309,345.805 167.387,346.300 167.482 M133.731 201.000 C 133.733 202.540,133.805 203.121,133.892 202.291 C 133.979 201.461,133.977 200.201,133.889 199.491 C 133.800 198.781,133.729 199.460,133.731 201.000 M388.109 206.000 C 388.109 206.990,388.187 207.395,388.282 206.900 C 388.378 206.405,388.378 205.595,388.282 205.100 C 388.187 204.605,388.109 205.010,388.109 206.000 M388.109 210.000 C 388.109 210.990,388.187 211.395,388.282 210.900 C 388.378 210.405,388.378 209.595,388.282 209.100 C 388.187 208.605,388.109 209.010,388.109 210.000 M73.700 226.676 C 74.085 226.776,74.715 226.776,75.100 226.676 C 75.485 226.575,75.170 226.493,74.400 226.493 C 73.630 226.493,73.315 226.575,73.700 226.676 M121.327 286.900 C 119.252 289.199,116.950 293.142,115.293 297.239 C 112.537 304.053,115.785 309.008,123.000 308.995 C 132.690 308.976,133.428 298.672,124.526 287.700 C 122.952 285.760,122.466 285.639,121.327 286.900 M275.906 296.900 C 263.587 312.920,264.930 325.400,278.972 325.400 C 293.255 325.400,294.366 312.277,281.452 296.100 C 278.935 292.947,278.947 292.945,275.906 296.900 M199.000 328.517 C 198.780 328.784,197.295 330.431,195.700 332.177 C 194.105 333.922,192.800 335.497,192.800 335.678 C 192.800 335.858,194.035 334.609,195.545 332.903 C 198.533 329.524,199.483 328.621,200.400 328.284 C 200.825 328.128,200.766 328.058,200.200 328.047 C 199.760 328.038,199.220 328.249,199.000 328.517 M202.855 331.100 C 206.452 334.907,210.934 340.515,211.486 341.900 C 211.596 342.175,211.853 342.400,212.059 342.400 C 212.917 342.400,202.734 329.701,201.819 329.630 C 201.609 329.613,202.075 330.275,202.855 331.100 M191.027 337.800 C 190.440 338.570,190.103 339.198,190.280 339.195 C 190.456 339.192,191.007 338.562,191.504 337.795 C 192.668 335.997,192.400 336.000,191.027 337.800 M50.036 341.517 C 47.300 344.543,43.570 349.388,42.232 351.653 C 40.990 353.757,41.884 352.834,43.543 350.300 C 46.243 346.177,52.089 339.455,53.200 339.196 C 54.026 339.004,54.080 338.917,53.512 338.699 C 52.998 338.501,52.116 339.216,50.036 341.517 M344.666 340.691 C 343.446 341.950,342.509 343.042,342.583 343.117 C 342.658 343.191,343.572 342.341,344.614 341.226 C 346.903 338.779,347.110 338.761,348.985 340.836 C 349.797 341.735,350.525 342.409,350.601 342.332 C 350.738 342.195,347.283 338.400,347.021 338.400 C 346.946 338.400,345.887 339.431,344.666 340.691 M55.263 341.100 C 56.047 341.925,57.143 343.140,57.699 343.800 C 60.004 346.537,60.775 347.257,59.224 345.226 C 57.237 342.622,54.490 339.600,54.111 339.600 C 53.960 339.600,54.479 340.275,55.263 341.100 M187.591 342.576 C 184.955 346.389,184.067 346.979,181.000 346.953 C 179.005 346.936,178.803 346.992,179.800 347.281 C 181.446 347.759,183.374 347.416,184.816 346.389 C 185.871 345.637,190.336 339.600,189.836 339.600 C 189.733 339.600,188.722 340.939,187.591 342.576 M212.413 342.909 C 212.398 343.259,214.423 346.400,214.663 346.400 C 214.885 346.400,213.782 344.356,213.043 343.400 C 212.703 342.960,212.420 342.739,212.413 342.909 M352.208 344.500 C 353.067 345.545,353.834 346.400,353.912 346.400 C 354.198 346.400,352.461 344.178,351.566 343.400 C 351.060 342.960,351.349 343.455,352.208 344.500 M340.101 346.100 C 338.255 348.447,336.762 350.711,338.070 349.181 C 339.443 347.576,342.426 343.600,342.258 343.600 C 342.154 343.600,341.184 344.725,340.101 346.100 M214.809 347.100 C 214.814 347.265,215.185 347.850,215.633 348.400 L 216.448 349.400 215.814 348.100 C 215.211 346.865,214.789 346.445,214.809 347.100 M356.285 350.100 C 358.570 353.463,359.960 355.204,358.569 352.960 C 356.395 349.453,354.570 346.807,354.322 346.803 C 354.169 346.802,355.053 348.285,356.285 350.100 M62.635 350.300 C 63.670 351.895,64.586 353.200,64.671 353.200 C 64.971 353.200,62.981 350.005,61.876 348.714 C 61.258 347.991,61.599 348.705,62.635 350.300 M216.438 349.800 C 216.438 350.020,216.961 351.190,217.600 352.400 C 218.239 353.610,218.762 354.420,218.762 354.200 C 218.762 353.980,218.239 352.810,217.600 351.600 C 216.961 350.390,216.438 349.580,216.438 349.800 M335.849 352.100 C 334.388 354.389,331.995 358.990,332.008 359.489 C 332.012 359.660,332.898 358.137,333.977 356.105 C 335.056 354.073,336.325 351.868,336.796 351.205 C 337.268 350.542,337.550 350.000,337.422 350.000 C 337.295 350.000,336.587 350.945,335.849 352.100 M65.400 354.800 C 65.741 355.460,66.111 356.000,66.221 356.000 C 66.331 356.000,66.141 355.460,65.800 354.800 C 65.459 354.140,65.089 353.600,64.979 353.600 C 64.869 353.600,65.059 354.140,65.400 354.800 M359.279 354.600 C 359.870 356.060,361.269 358.800,361.424 358.800 C 361.716 358.800,360.508 356.085,359.776 355.092 C 359.413 354.601,359.190 354.380,359.279 354.600 M66.417 356.700 C 66.439 357.101,67.962 359.870,67.983 359.549 C 68.011 359.135,66.805 356.400,66.595 356.400 C 66.488 356.400,66.408 356.535,66.417 356.700 M219.758 357.702 C 220.700 360.729,221.396 365.567,221.382 368.995 C 221.373 371.192,221.491 372.542,221.643 371.995 C 222.365 369.403,221.197 359.533,219.942 357.615 C 219.602 357.095,219.573 357.108,219.758 357.702 M176.755 362.200 C 177.863 363.661,177.980 364.113,178.102 367.400 L 178.235 371.000 178.318 367.367 L 178.400 363.733 176.971 362.167 L 175.542 360.600 176.755 362.200 M37.000 362.000 C 36.850 362.473,36.817 362.950,36.927 363.060 C 37.037 363.170,37.250 362.873,37.400 362.400 C 37.550 361.927,37.583 361.450,37.473 361.340 C 37.363 361.230,37.150 361.527,37.000 362.000 M330.250 364.086 C 329.907 365.265,329.534 367.304,329.421 368.615 C 329.220 370.945,329.228 370.931,329.780 368.000 C 330.091 366.350,330.534 364.382,330.765 363.626 C 330.997 362.871,331.116 362.183,331.030 362.097 C 330.944 362.011,330.593 362.906,330.250 364.086 M36.273 364.153 C 36.123 364.545,36.011 365.166,36.025 365.533 C 36.042 365.975,36.181 365.874,36.437 365.234 C 36.649 364.703,36.761 364.082,36.685 363.854 C 36.609 363.627,36.424 363.761,36.273 364.153 M363.212 364.000 C 363.212 364.330,363.387 364.870,363.600 365.200 C 363.945 365.733,363.988 365.733,363.988 365.200 C 363.988 364.870,363.813 364.330,363.600 364.000 C 363.255 363.467,363.212 363.467,363.212 364.000 M69.668 364.800 C 69.688 365.839,70.318 367.546,70.332 366.600 C 70.338 366.160,70.189 365.440,70.000 365.000 C 69.789 364.510,69.661 364.432,69.668 364.800 M364.277 368.600 C 364.400 369.920,364.568 371.075,364.650 371.167 C 364.918 371.464,364.715 368.634,364.380 367.400 C 364.165 366.611,364.130 367.022,364.277 368.600 M35.450 368.050 C 35.135 369.625,35.194 375.097,35.540 376.324 C 35.683 376.832,35.800 374.897,35.800 372.024 C 35.800 366.248,35.803 366.284,35.450 368.050 M70.493 369.200 C 70.493 369.970,70.575 370.285,70.676 369.900 C 70.776 369.515,70.776 368.885,70.676 368.500 C 70.575 368.115,70.493 368.430,70.493 369.200 M70.629 373.229 C 70.476 374.579,70.433 375.766,70.533 375.867 C 70.634 375.967,70.844 374.947,71.000 373.600 C 71.156 372.253,71.199 371.066,71.095 370.962 C 70.991 370.858,70.781 371.878,70.629 373.229 M178.487 371.800 C 178.491 372.240,178.632 373.140,178.800 373.800 C 179.074 374.878,179.106 374.898,179.113 374.000 C 179.117 373.450,178.976 372.550,178.800 372.000 C 178.549 371.216,178.481 371.173,178.487 371.800 M364.464 373.450 C 364.429 374.138,364.311 375.308,364.201 376.050 L 364.003 377.400 364.424 376.058 C 364.655 375.320,364.773 374.150,364.686 373.458 L 364.528 372.200 364.464 373.450 M220.854 373.867 C 220.825 374.344,220.696 375.064,220.570 375.467 C 220.352 376.161,220.364 376.162,220.796 375.488 C 221.047 375.097,221.175 374.377,221.081 373.888 C 220.909 373.001,220.909 373.001,220.854 373.867 M179.401 376.000 C 179.761 377.199,180.753 379.200,180.988 379.200 C 181.171 379.200,179.618 375.523,179.298 375.200 C 179.190 375.090,179.236 375.450,179.401 376.000 M329.641 376.744 C 329.546 378.928,334.755 386.000,336.458 386.000 C 336.663 386.000,335.897 385.235,334.756 384.300 C 332.649 382.572,330.530 379.361,329.984 377.067 C 329.740 376.046,329.674 375.983,329.641 376.744 M70.046 376.920 C 70.021 377.316,69.717 378.188,69.371 378.857 C 69.024 379.527,68.834 380.167,68.947 380.280 C 69.272 380.605,70.446 377.508,70.260 376.819 C 70.131 376.342,70.082 376.366,70.046 376.920 M219.478 377.805 C 219.112 378.572,218.895 379.200,218.996 379.200 C 219.270 379.200,220.484 376.751,220.301 376.568 C 220.214 376.481,219.844 377.038,219.478 377.805 M363.040 379.240 C 362.686 379.949,362.474 380.607,362.569 380.702 C 362.664 380.797,363.038 380.301,363.400 379.600 C 363.762 378.899,363.974 378.241,363.871 378.138 C 363.768 378.035,363.394 378.531,363.040 379.240 M181.896 380.600 C 182.350 381.260,183.229 382.250,183.850 382.800 C 184.599 383.464,184.459 383.196,183.432 382.000 C 181.336 379.557,180.915 379.174,181.896 380.600 M217.231 381.280 C 216.482 382.172,214.791 383.599,213.473 384.451 C 212.154 385.303,211.249 386.000,211.460 386.000 C 212.654 386.000,219.317 380.384,218.771 379.838 C 218.673 379.739,217.979 380.388,217.231 381.280 M38.319 382.242 C 39.788 384.381,43.640 386.894,46.200 387.383 C 47.287 387.591,47.267 387.560,45.978 387.054 C 42.976 385.876,41.077 384.687,39.304 382.877 C 38.019 381.565,37.722 381.374,38.319 382.242 M361.246 382.424 C 360.158 383.894,356.878 386.043,354.400 386.908 C 353.410 387.254,352.938 387.551,353.351 387.568 C 355.237 387.648,360.942 383.929,362.047 381.900 C 362.638 380.815,362.245 381.072,361.246 382.424 M66.004 383.656 C 65.016 384.549,63.576 385.614,62.804 386.022 C 62.032 386.431,61.590 386.773,61.822 386.782 C 62.496 386.811,65.693 384.621,66.975 383.254 C 68.590 381.531,68.158 381.710,66.004 383.656 M185.596 384.195 C 186.159 384.874,188.381 386.159,188.595 385.929 C 188.661 385.858,187.891 385.291,186.883 384.669 C 185.875 384.047,185.296 383.833,185.596 384.195 M337.200 386.231 C 337.200 386.549,340.181 387.624,340.755 387.513 C 341.080 387.451,340.413 387.101,339.273 386.736 C 338.133 386.372,337.200 386.145,337.200 386.231 M59.600 387.200 C 58.776 387.464,58.741 387.526,59.400 387.554 C 59.840 387.573,60.470 387.413,60.800 387.200 C 61.501 386.747,61.014 386.747,59.600 387.200 M191.600 387.182 C 191.930 387.405,192.545 387.591,192.967 387.594 C 193.990 387.602,193.671 387.373,192.200 387.044 C 191.324 386.848,191.162 386.885,191.600 387.182 M207.200 387.200 C 206.376 387.464,206.341 387.526,207.000 387.554 C 207.440 387.573,208.070 387.413,208.400 387.200 C 209.101 386.747,208.614 386.747,207.200 387.200 M48.876 388.060 C 49.384 388.203,51.240 388.320,53.000 388.320 C 54.760 388.320,56.616 388.203,57.124 388.060 C 57.632 387.917,55.776 387.800,53.000 387.800 C 50.224 387.800,48.368 387.917,48.876 388.060 M195.276 388.060 C 195.784 388.203,197.910 388.320,200.000 388.320 C 202.090 388.320,204.216 388.203,204.724 388.060 C 205.232 387.917,203.106 387.800,200.000 387.800 C 196.894 387.800,194.768 387.917,195.276 388.060 M342.876 388.060 C 343.384 388.203,345.240 388.320,347.000 388.320 C 348.760 388.320,350.616 388.203,351.124 388.060 C 351.632 387.917,349.776 387.800,347.000 387.800 C 344.224 387.800,342.368 387.917,342.876 388.060 " stroke="none" fill="#0cc6c6" fill-rule="evenodd"></path><path id="path4" d="M151.400 12.026 C 145.960 12.452,142.613 12.993,136.600 14.418 C 122.712 17.709,108.116 25.507,98.000 35.040 C 94.892 37.968,93.439 39.133,92.348 39.570 C 91.455 39.927,91.449 39.951,92.246 39.975 C 93.182 40.003,94.480 39.079,97.194 36.453 C 98.187 35.491,100.440 33.546,102.200 32.129 C 103.960 30.713,105.717 29.294,106.105 28.977 C 106.492 28.660,106.942 28.400,107.105 28.399 C 107.267 28.399,108.030 27.859,108.800 27.200 C 109.570 26.541,110.425 26.001,110.700 26.001 C 110.975 26.000,111.201 25.865,111.203 25.700 C 111.205 25.535,111.610 25.200,112.103 24.957 C 112.596 24.713,114.911 23.525,117.247 22.316 C 119.583 21.108,122.328 19.873,123.347 19.573 C 124.366 19.272,125.200 18.885,125.200 18.713 C 125.200 18.541,125.639 18.400,126.176 18.400 C 126.713 18.400,127.242 18.256,127.351 18.079 C 127.460 17.903,128.472 17.507,129.600 17.200 C 130.728 16.893,131.740 16.497,131.849 16.321 C 131.958 16.144,132.566 16.000,133.200 16.000 C 133.834 16.000,134.464 15.820,134.600 15.600 C 134.736 15.380,135.456 15.200,136.200 15.200 C 136.944 15.200,137.664 15.020,137.800 14.800 C 137.936 14.580,138.746 14.400,139.600 14.400 C 140.454 14.400,141.264 14.220,141.400 14.000 C 141.536 13.780,142.591 13.600,143.744 13.600 C 144.897 13.600,146.011 13.436,146.220 13.236 C 147.257 12.243,169.143 12.243,170.180 13.236 C 170.389 13.436,171.503 13.600,172.656 13.600 C 173.809 13.600,174.864 13.780,175.000 14.000 C 175.136 14.220,176.047 14.400,177.024 14.400 C 178.001 14.400,178.800 14.580,178.800 14.800 C 178.800 15.020,179.419 15.200,180.176 15.200 C 180.933 15.200,181.664 15.380,181.800 15.600 C 181.936 15.820,182.566 16.000,183.200 16.000 C 183.834 16.000,184.464 16.180,184.600 16.400 C 184.736 16.620,185.251 16.800,185.744 16.800 C 186.237 16.800,186.811 16.943,187.020 17.118 C 187.229 17.293,188.120 17.665,189.000 17.945 C 191.920 18.872,203.323 24.286,203.533 24.845 C 203.607 25.040,204.012 25.200,204.433 25.200 C 204.855 25.200,205.200 25.350,205.200 25.532 C 205.200 25.715,205.695 26.120,206.300 26.432 C 206.905 26.745,207.749 27.315,208.175 27.700 C 208.602 28.085,209.147 28.400,209.387 28.400 C 209.627 28.400,210.083 28.760,210.400 29.200 C 210.717 29.640,211.130 30.000,211.317 30.000 C 211.504 30.000,211.886 30.225,212.165 30.500 C 212.445 30.775,213.269 31.450,213.997 32.000 C 217.209 34.428,227.200 44.146,227.200 44.843 C 227.200 45.059,227.605 45.661,228.100 46.180 C 228.595 46.699,229.985 48.536,231.189 50.262 C 235.397 56.296,237.275 57.014,243.000 54.776 C 248.001 52.822,260.178 52.606,268.400 54.326 C 272.737 55.234,282.729 59.141,283.133 60.088 C 283.207 60.259,283.522 60.400,283.833 60.400 C 284.145 60.400,284.400 60.580,284.400 60.800 C 284.400 61.020,284.670 61.200,285.000 61.200 C 285.330 61.200,285.600 61.350,285.600 61.532 C 285.600 61.715,286.095 62.119,286.700 62.430 C 287.305 62.740,288.070 63.274,288.400 63.616 C 288.730 63.958,289.630 64.677,290.400 65.214 C 292.154 66.438,295.307 69.584,297.400 72.199 C 298.280 73.299,299.213 74.425,299.474 74.702 C 299.734 74.978,300.062 75.564,300.201 76.002 C 300.340 76.441,300.600 76.800,300.778 76.800 C 300.957 76.800,301.327 77.340,301.600 78.000 C 301.873 78.660,302.255 79.200,302.449 79.200 C 302.642 79.200,302.800 79.545,302.800 79.967 C 302.800 80.388,302.935 80.793,303.100 80.867 C 303.265 80.940,303.825 81.900,304.344 83.000 C 304.863 84.100,305.448 85.313,305.644 85.695 C 305.840 86.077,306.000 86.662,306.000 86.995 C 306.000 87.328,306.180 87.600,306.400 87.600 C 306.620 87.600,306.800 88.140,306.800 88.800 C 306.800 89.460,306.980 90.000,307.200 90.000 C 307.420 90.000,307.600 90.540,307.600 91.200 C 307.600 91.860,307.780 92.400,308.000 92.400 C 308.220 92.400,308.400 92.691,308.400 93.046 C 308.400 93.881,311.145 96.400,312.055 96.400 C 312.439 96.400,312.864 96.580,313.000 96.800 C 313.136 97.020,313.676 97.200,314.200 97.200 C 314.724 97.200,315.264 97.380,315.400 97.600 C 315.536 97.820,316.087 98.000,316.624 98.000 C 317.161 98.000,317.600 98.180,317.600 98.400 C 317.600 98.620,317.844 98.800,318.143 98.800 C 318.647 98.800,326.503 102.606,327.400 103.284 C 327.620 103.450,329.322 104.609,331.182 105.858 C 333.043 107.107,334.974 108.537,335.473 109.037 C 335.973 109.537,337.055 110.453,337.879 111.073 C 339.322 112.159,340.920 113.798,342.600 115.913 C 343.040 116.466,343.772 117.302,344.227 117.769 C 347.077 120.695,352.592 129.918,354.889 135.600 C 355.111 136.150,355.452 136.913,355.647 137.295 C 355.841 137.677,356.000 138.341,356.000 138.771 C 356.000 139.201,356.180 139.664,356.400 139.800 C 356.620 139.936,356.800 140.476,356.800 141.000 C 356.800 141.524,356.980 142.064,357.200 142.200 C 357.420 142.336,357.600 143.056,357.600 143.800 C 357.600 144.544,357.780 145.264,358.000 145.400 C 358.220 145.536,358.400 146.436,358.400 147.400 C 358.400 148.364,358.580 149.264,358.800 149.400 C 359.020 149.536,359.200 151.077,359.200 152.824 L 359.200 156.000 357.224 156.000 C 356.137 156.000,355.136 155.820,355.000 155.600 C 354.687 155.093,340.800 155.056,340.800 155.561 C 340.800 155.760,339.945 156.021,338.900 156.140 C 335.770 156.498,333.824 156.876,333.400 157.209 C 332.617 157.822,330.699 157.817,330.395 157.200 C 328.753 153.865,328.400 153.052,328.400 152.596 C 328.400 152.305,328.265 152.007,328.100 151.933 C 327.935 151.860,327.352 150.900,326.805 149.800 C 326.258 148.700,325.716 147.710,325.600 147.600 C 325.484 147.490,324.958 146.545,324.432 145.500 C 323.905 144.455,323.323 143.600,323.137 143.600 C 322.952 143.600,322.800 143.404,322.800 143.164 C 322.800 139.942,316.593 136.967,313.300 138.610 L 312.076 139.221 309.738 136.769 C 308.452 135.421,305.927 133.067,304.127 131.538 L 300.854 128.759 301.501 127.011 C 302.581 124.098,301.172 121.120,297.792 119.173 C 294.258 117.137,288.409 114.458,285.200 113.406 C 283.330 112.793,281.440 112.149,281.000 111.976 C 279.998 111.581,278.219 111.193,276.400 110.974 C 274.576 110.755,275.674 111.156,280.400 112.435 C 287.578 114.379,297.848 119.168,299.859 121.508 C 302.205 124.238,301.149 128.984,297.847 130.551 C 295.639 131.599,294.498 131.343,289.147 128.603 C 260.350 113.856,225.617 122.115,207.594 147.995 C 204.433 152.535,203.003 153.987,201.641 154.041 C 201.068 154.064,197.630 154.049,194.000 154.009 C 190.193 153.966,186.554 154.128,185.400 154.392 C 180.602 155.489,179.670 155.735,177.400 156.499 C 153.002 164.717,139.535 192.608,148.248 216.871 C 158.644 245.820,193.069 257.464,218.826 240.744 C 222.780 238.178,223.997 238.199,229.421 240.928 C 249.385 250.972,270.620 251.056,289.146 241.165 C 294.654 238.223,298.286 235.656,302.600 231.655 C 308.038 226.610,311.046 226.581,314.698 231.536 C 334.725 258.707,376.158 251.918,386.320 219.800 C 390.277 207.293,387.411 192.506,379.109 182.600 C 367.053 168.214,347.663 163.621,331.000 171.204 C 324.878 173.990,322.376 172.615,319.992 165.154 C 319.262 162.869,318.519 160.730,318.341 160.400 C 318.162 160.070,317.503 158.720,316.875 157.400 C 315.436 154.374,314.335 152.452,312.427 149.631 C 308.689 144.103,310.533 138.400,316.058 138.400 C 319.575 138.400,325.866 146.930,329.406 156.500 C 330.187 158.611,330.525 158.729,333.286 157.861 C 340.828 155.487,354.298 155.062,359.365 157.037 C 360.094 157.322,360.117 157.171,359.864 153.768 C 358.729 138.488,351.340 123.141,339.743 111.974 C 336.842 109.180,330.380 104.000,329.796 104.000 C 329.657 104.000,328.792 103.484,327.872 102.854 C 325.480 101.214,318.358 97.875,314.529 96.598 C 310.113 95.126,309.177 94.142,307.569 89.277 C 301.862 72.019,286.515 57.605,270.000 53.991 C 259.463 51.685,252.201 51.785,241.816 54.378 C 236.534 55.697,235.842 55.327,230.659 48.409 C 220.714 35.136,205.287 23.096,192.200 18.394 C 191.760 18.236,190.950 17.915,190.400 17.680 C 183.964 14.930,173.748 12.731,164.020 12.003 C 158.133 11.562,157.294 11.563,151.400 12.026 M86.600 39.200 C 87.463 39.640,88.439 40.000,88.769 40.000 C 89.099 40.000,88.663 39.640,87.800 39.200 C 86.937 38.760,85.961 38.400,85.631 38.400 C 85.301 38.400,85.737 38.760,86.600 39.200 M77.200 50.950 C 77.200 51.307,77.383 51.600,77.606 51.600 C 80.101 51.600,80.129 56.955,77.659 61.907 C 74.328 68.586,71.489 76.989,70.061 84.400 C 69.828 85.610,69.422 87.734,69.159 89.121 C 68.539 92.397,67.337 93.715,64.169 94.597 C 49.871 98.574,41.800 102.903,32.918 111.357 C 24.814 119.069,18.559 128.737,15.290 138.600 C 13.312 144.571,12.615 147.904,11.962 154.524 C 11.101 163.267,12.898 176.103,16.020 183.500 C 16.229 183.995,16.555 184.805,16.744 185.300 C 17.101 186.232,19.256 190.578,21.253 194.389 C 22.877 197.488,22.754 199.547,20.810 201.800 C 20.430 202.240,20.000 202.960,19.854 203.400 C 19.637 204.058,19.737 204.022,20.420 203.200 C 23.698 199.252,23.660 197.858,20.085 190.777 C 16.976 184.619,16.000 182.400,16.000 181.489 C 16.000 181.136,15.841 180.749,15.646 180.629 C 15.451 180.508,15.193 179.913,15.071 179.305 C 14.949 178.697,14.647 177.390,14.400 176.400 C 12.409 168.433,11.828 160.239,12.724 152.800 C 13.484 146.495,13.666 145.417,14.041 145.020 C 14.238 144.811,14.400 144.284,14.400 143.848 C 14.400 143.111,14.900 141.280,15.615 139.400 C 15.782 138.960,16.139 137.970,16.407 137.200 C 17.577 133.837,19.768 129.208,21.475 126.492 C 22.204 125.333,22.800 124.208,22.800 123.992 C 22.800 123.777,22.980 123.600,23.200 123.600 C 23.420 123.600,23.600 123.409,23.600 123.177 C 23.600 122.819,25.120 120.679,26.600 118.953 C 26.820 118.697,27.630 117.724,28.400 116.792 C 31.166 113.443,35.265 109.607,39.031 106.843 C 40.554 105.726,41.980 104.666,42.200 104.487 C 42.771 104.023,48.771 100.703,50.200 100.060 C 50.860 99.763,52.092 99.178,52.938 98.760 C 53.784 98.342,54.808 98.000,55.214 98.000 C 55.620 98.000,56.064 97.820,56.200 97.600 C 56.336 97.380,56.876 97.200,57.400 97.200 C 57.924 97.200,58.464 97.020,58.600 96.800 C 58.736 96.580,59.276 96.400,59.800 96.400 C 60.324 96.400,60.864 96.220,61.000 96.000 C 61.136 95.780,61.856 95.600,62.600 95.600 C 63.344 95.600,64.064 95.420,64.200 95.200 C 64.336 94.980,64.869 94.800,65.384 94.800 C 66.757 94.800,69.007 92.356,69.511 90.317 C 69.744 89.372,70.236 86.890,70.605 84.800 C 70.974 82.710,71.544 80.010,71.872 78.800 C 72.201 77.590,72.613 76.060,72.789 75.400 C 73.129 74.120,73.475 73.090,73.996 71.800 C 74.174 71.360,74.536 70.370,74.801 69.600 C 75.429 67.772,76.536 65.313,78.423 61.546 C 80.694 57.014,80.746 54.171,78.600 51.828 C 77.668 50.810,77.200 50.517,77.200 50.950 M249.455 109.511 C 249.341 109.696,252.791 109.773,257.123 109.681 C 263.041 109.556,266.180 109.680,269.746 110.178 C 272.357 110.542,274.583 110.750,274.694 110.640 C 274.915 110.418,273.920 110.170,271.200 109.771 C 268.385 109.357,249.688 109.134,249.455 109.511 M244.400 110.400 C 244.070 110.613,243.313 110.791,242.719 110.794 C 242.124 110.797,241.224 110.961,240.719 111.158 C 240.213 111.355,238.990 111.741,238.000 112.016 C 233.520 113.259,226.232 116.160,224.000 117.589 C 223.450 117.941,222.460 118.488,221.800 118.805 C 219.492 119.912,214.206 123.561,212.247 125.400 C 211.778 125.840,210.766 126.674,209.997 127.253 C 206.983 129.524,202.499 134.287,199.032 138.900 C 197.457 140.997,196.438 142.000,195.885 142.000 C 195.435 142.000,195.178 142.112,195.315 142.248 C 196.039 142.972,197.616 141.753,199.781 138.793 C 204.044 132.964,214.245 123.762,220.200 120.372 C 229.410 115.130,237.072 112.245,246.200 110.582 L 249.000 110.072 247.000 110.042 C 245.900 110.026,244.730 110.187,244.400 110.400 M255.480 134.768 C 256.536 134.970,258.570 135.347,260.000 135.605 C 261.430 135.863,263.050 136.216,263.600 136.390 C 264.150 136.565,265.410 136.929,266.400 137.199 C 268.252 137.705,269.680 138.229,270.895 138.847 C 271.277 139.041,271.789 139.200,272.034 139.200 C 272.684 139.200,278.986 142.327,282.000 144.145 C 294.788 151.859,305.743 164.830,310.763 178.200 C 311.258 179.520,311.830 180.913,312.032 181.295 C 312.234 181.677,312.400 182.253,312.400 182.576 C 312.400 185.267,313.433 185.533,317.400 183.863 C 328.822 179.057,344.423 179.766,355.349 185.587 C 358.004 187.002,360.546 188.501,360.800 188.801 C 360.910 188.932,361.630 189.471,362.400 189.999 C 366.884 193.077,372.659 200.045,375.553 205.872 C 378.217 211.236,378.306 211.497,379.975 218.877 C 380.209 219.910,380.400 222.998,380.400 225.741 L 380.400 230.728 378.730 232.864 C 377.812 234.039,376.573 235.450,375.977 236.000 C 372.200 239.484,371.135 240.400,370.860 240.400 C 370.690 240.400,370.193 240.715,369.755 241.100 C 366.484 243.978,359.342 246.538,351.533 247.633 C 348.237 248.095,347.116 248.049,341.200 247.213 C 338.278 246.799,334.658 245.770,332.200 244.654 C 331.100 244.154,329.615 243.489,328.900 243.175 C 328.185 242.861,327.600 242.469,327.600 242.302 C 327.600 242.136,327.280 242.000,326.888 242.000 C 326.497 242.000,325.917 241.640,325.600 241.200 C 325.283 240.760,324.805 240.400,324.538 240.400 C 323.787 240.400,315.200 231.735,315.200 230.977 C 315.200 230.484,312.591 228.178,311.481 227.691 C 308.958 226.584,306.441 227.230,303.800 229.664 C 301.264 232.001,299.955 233.110,297.600 234.914 C 296.390 235.841,295.340 236.735,295.267 236.900 C 295.193 237.065,294.912 237.200,294.642 237.200 C 294.372 237.200,293.794 237.515,293.358 237.900 C 292.353 238.788,290.409 239.983,289.500 240.271 C 289.115 240.393,288.800 240.652,288.800 240.847 C 288.800 241.041,288.440 241.200,288.000 241.200 C 287.560 241.200,287.200 241.380,287.200 241.600 C 287.200 241.820,286.851 242.000,286.424 242.000 C 285.997 242.000,285.536 242.180,285.400 242.400 C 285.264 242.620,284.803 242.800,284.376 242.800 C 283.949 242.800,283.600 242.980,283.600 243.200 C 283.600 243.420,283.340 243.600,283.023 243.600 C 282.705 243.600,280.860 244.131,278.923 244.779 C 267.212 248.700,251.988 248.700,240.277 244.779 C 238.340 244.131,236.495 243.600,236.177 243.600 C 235.860 243.600,235.600 243.420,235.600 243.200 C 235.600 242.980,235.355 242.800,235.056 242.800 C 234.399 242.800,229.455 240.324,229.267 239.900 C 229.193 239.735,228.788 239.600,228.367 239.600 C 227.945 239.600,227.600 239.420,227.600 239.200 C 227.600 238.980,227.240 238.800,226.800 238.800 C 226.360 238.800,226.000 238.620,226.000 238.400 C 226.000 238.180,225.010 238.000,223.800 238.000 C 222.590 238.000,221.600 238.180,221.600 238.400 C 221.600 238.620,221.240 238.800,220.800 238.800 C 220.360 238.800,220.000 238.980,220.000 239.200 C 220.000 239.420,219.764 239.600,219.475 239.600 C 219.187 239.600,218.602 239.915,218.175 240.300 C 217.749 240.685,216.860 241.270,216.200 241.599 C 215.540 241.929,214.910 242.289,214.800 242.400 C 214.225 242.979,208.316 245.288,205.600 245.995 C 201.777 246.990,200.924 247.170,198.600 247.469 C 190.494 248.513,175.904 246.082,172.620 243.140 C 172.411 242.953,171.916 242.800,171.520 242.800 C 171.124 242.800,170.800 242.620,170.800 242.400 C 170.800 242.180,170.530 242.000,170.200 242.000 C 169.870 242.000,169.600 241.820,169.600 241.600 C 169.600 241.380,169.330 241.200,169.000 241.200 C 168.670 241.200,168.400 241.020,168.400 240.800 C 168.400 240.580,168.175 240.400,167.900 240.399 C 167.625 240.399,166.770 239.859,166.000 239.200 C 165.230 238.541,164.454 238.001,164.275 238.001 C 163.444 237.999,155.090 228.890,154.001 226.800 C 153.715 226.250,153.368 225.710,153.230 225.600 C 152.968 225.390,149.792 218.922,149.105 217.200 C 148.886 216.650,148.548 215.887,148.353 215.505 C 148.159 215.123,148.000 214.369,148.000 213.829 C 148.000 213.289,147.820 212.736,147.600 212.600 C 147.380 212.464,147.200 211.654,147.200 210.800 C 147.200 209.946,147.020 209.136,146.800 209.000 C 146.556 208.849,146.400 205.804,146.400 201.200 C 146.400 196.596,146.556 193.551,146.800 193.400 C 147.020 193.264,147.200 192.454,147.200 191.600 C 147.200 190.746,147.380 189.936,147.600 189.800 C 147.820 189.664,148.000 189.111,148.000 188.571 C 148.000 188.031,148.159 187.277,148.353 186.895 C 148.548 186.513,148.886 185.750,149.106 185.200 C 149.741 183.608,152.931 177.040,153.283 176.600 C 153.459 176.380,154.260 175.210,155.063 174.000 C 156.558 171.747,163.632 164.400,164.307 164.400 C 164.513 164.400,165.216 163.889,165.869 163.265 C 166.521 162.641,167.628 161.878,168.328 161.568 C 169.028 161.258,169.600 160.869,169.600 160.702 C 169.600 160.536,169.870 160.400,170.200 160.400 C 170.530 160.400,170.800 160.220,170.800 160.000 C 170.800 159.780,171.160 159.600,171.600 159.600 C 172.040 159.600,172.400 159.420,172.400 159.200 C 172.400 158.980,172.625 158.799,172.900 158.798 C 173.175 158.797,174.805 158.250,176.522 157.582 C 183.111 155.019,191.973 153.983,198.822 154.974 C 202.282 155.475,204.416 154.157,207.032 149.901 C 207.675 148.856,208.335 148.001,208.500 148.001 C 208.665 148.000,208.800 147.752,208.800 147.448 C 208.800 147.145,209.508 146.167,210.373 145.276 C 211.237 144.385,212.239 143.207,212.599 142.658 C 213.157 141.806,216.691 139.777,219.400 138.755 C 223.650 137.150,228.823 135.843,234.800 134.865 C 237.765 134.380,253.080 134.308,255.480 134.768 M191.905 141.883 C 192.402 141.979,193.122 141.975,193.505 141.875 C 193.887 141.775,193.480 141.696,192.600 141.701 C 191.720 141.705,191.407 141.787,191.905 141.883 M183.393 142.412 C 183.158 142.792,189.520 142.534,189.967 142.145 C 190.058 142.065,188.674 142.000,186.890 142.000 C 185.097 142.000,183.533 142.184,183.393 142.412 M179.400 143.200 C 179.121 143.652,180.025 143.652,181.800 143.200 C 182.933 142.912,182.907 142.892,181.324 142.847 C 180.402 142.821,179.536 142.980,179.400 143.200 M176.000 143.975 C 175.670 144.155,174.680 144.516,173.800 144.778 C 169.517 146.050,158.878 151.551,157.600 153.154 C 157.490 153.292,156.680 153.940,155.800 154.595 C 152.069 157.370,143.600 166.679,143.600 168.004 C 143.600 168.222,143.450 168.400,143.268 168.400 C 143.085 168.400,142.680 168.895,142.368 169.500 C 142.056 170.105,141.707 170.690,141.591 170.800 C 141.350 171.029,138.083 177.744,137.552 179.100 C 137.358 179.595,137.038 180.405,136.840 180.900 C 135.580 184.055,134.775 187.292,133.626 193.824 C 133.077 196.947,133.077 205.453,133.626 208.576 C 134.775 215.108,135.580 218.345,136.840 221.500 C 137.765 223.815,138.120 224.651,138.447 225.295 C 138.641 225.677,138.800 226.081,138.800 226.192 C 138.800 226.304,124.535 226.442,107.100 226.500 L 75.400 226.605 107.113 226.702 C 142.416 226.811,139.856 227.036,138.458 223.948 C 137.093 220.932,136.030 217.410,134.791 211.800 C 132.933 203.390,133.751 191.738,136.841 182.600 C 142.870 164.770,156.466 151.219,174.400 145.165 C 177.137 144.241,178.514 143.619,177.800 143.629 C 177.140 143.639,176.330 143.794,176.000 143.975 M26.609 154.124 C 26.173 154.386,25.219 155.230,24.489 156.000 L 23.160 157.400 23.331 162.800 C 23.425 165.770,23.711 169.190,23.967 170.400 C 24.224 171.610,24.536 173.187,24.661 173.904 C 24.786 174.621,25.049 175.306,25.244 175.427 C 25.440 175.548,25.600 176.076,25.600 176.600 C 25.600 177.124,25.780 177.664,26.000 177.800 C 26.220 177.936,26.400 178.487,26.400 179.024 C 26.400 179.561,26.580 180.000,26.800 180.000 C 27.318 180.000,27.355 180.196,26.188 176.770 C 23.668 169.372,22.823 159.273,24.514 156.759 C 28.111 151.413,35.187 154.387,35.208 161.254 C 35.222 165.934,36.753 172.481,39.045 177.666 C 43.966 188.799,56.331 199.475,66.800 201.628 C 73.100 202.923,74.921 203.200,77.146 203.200 C 84.008 203.200,86.989 210.288,81.641 213.886 C 79.533 215.304,71.572 214.986,65.200 213.231 C 64.430 213.019,63.170 212.678,62.400 212.473 C 49.267 208.987,35.940 197.581,29.129 184.000 C 28.081 181.910,27.218 180.490,27.211 180.845 C 27.191 182.010,31.049 189.061,33.754 192.800 C 36.621 196.764,46.855 206.400,48.198 206.400 C 48.340 206.400,49.208 206.903,50.128 207.517 C 53.701 209.906,62.520 213.600,64.647 213.600 C 65.083 213.600,65.611 213.763,65.820 213.961 C 67.263 215.333,80.496 215.527,82.234 214.201 C 87.631 210.085,84.766 203.252,77.392 202.655 C 63.370 201.520,51.285 195.521,45.267 186.709 C 44.926 186.209,44.532 185.710,44.393 185.600 C 40.896 182.838,36.798 171.877,35.944 163.000 C 35.394 157.279,34.887 156.009,32.537 154.469 C 31.052 153.496,27.952 153.315,26.609 154.124 M34.200 212.891 C 32.863 213.368,30.480 215.200,31.196 215.200 C 31.448 215.200,32.243 214.750,32.964 214.200 C 35.506 212.262,36.999 212.643,44.000 217.018 C 49.717 220.590,57.273 223.592,64.480 225.154 C 68.373 225.997,75.850 226.688,74.000 226.034 C 73.450 225.839,71.796 225.662,70.324 225.640 C 68.852 225.618,67.536 225.420,67.400 225.200 C 67.264 224.980,66.364 224.800,65.400 224.800 C 64.436 224.800,63.536 224.620,63.400 224.400 C 63.264 224.180,62.533 224.000,61.776 224.000 C 61.019 224.000,60.400 223.820,60.400 223.600 C 60.400 223.380,59.871 223.200,59.224 223.200 C 58.577 223.200,57.936 223.020,57.800 222.800 C 57.664 222.580,57.201 222.400,56.771 222.400 C 56.341 222.400,55.677 222.240,55.295 222.044 C 54.913 221.848,53.790 221.327,52.800 220.885 C 47.677 218.602,45.330 217.350,41.975 215.108 C 38.082 212.507,36.523 212.063,34.200 212.891 " stroke="none" fill="#bbcbdb" fill-rule="evenodd"></path></g></svg>