<svg id="svg" version="1.1" xmlns="http://www.w3.org/2000/svg" xmlns:xlink="http://www.w3.org/1999/xlink" width="400" height="400" viewBox="0, 0, 400,400"><g id="svgg"><path id="path0" d="M201.500 0.432 C 201.115 0.656,200.797 0.696,200.794 0.520 C 200.791 0.344,200.654 0.411,200.490 0.668 C 200.326 0.925,199.932 1.195,199.614 1.268 C 198.879 1.436,197.200 3.035,197.200 3.568 C 197.200 3.790,196.840 4.165,196.400 4.400 C 195.960 4.635,195.600 5.092,195.600 5.414 C 195.600 5.736,195.399 6.000,195.153 6.000 C 194.904 6.000,194.799 6.353,194.916 6.800 C 195.031 7.239,194.934 7.717,194.701 7.861 C 194.433 8.027,194.396 7.930,194.600 7.600 C 194.798 7.280,194.766 7.174,194.520 7.326 C 194.298 7.463,194.153 8.256,194.197 9.088 C 194.242 9.920,194.136 10.695,193.961 10.810 C 193.786 10.926,193.597 11.794,193.542 12.739 L 193.440 14.457 192.320 13.175 C 191.704 12.469,191.200 12.027,191.200 12.192 C 191.200 12.357,190.756 12.201,190.214 11.846 C 189.672 11.491,188.862 11.200,188.414 11.200 C 187.966 11.200,187.600 10.998,187.600 10.751 C 187.600 10.421,187.458 10.420,187.063 10.748 C 186.768 10.993,186.417 11.084,186.284 10.950 C 185.908 10.575,181.854 10.503,181.369 10.864 C 181.131 11.040,180.590 11.237,180.165 11.302 C 179.740 11.367,178.949 11.730,178.407 12.110 C 177.865 12.489,177.221 12.800,176.975 12.800 C 176.729 12.800,176.323 13.250,176.073 13.800 C 175.822 14.350,175.433 14.800,175.209 14.800 C 174.984 14.800,174.800 15.081,174.800 15.424 C 174.800 15.767,174.620 15.936,174.400 15.800 C 174.180 15.664,174.000 15.833,174.000 16.176 C 174.000 16.519,173.820 16.800,173.600 16.800 C 173.380 16.800,173.200 17.145,173.200 17.567 C 173.200 17.988,173.027 18.393,172.815 18.467 C 172.604 18.540,172.379 19.365,172.315 20.299 C 172.252 21.234,172.065 21.999,171.900 21.999 C 171.449 22.000,171.539 24.715,172.000 25.000 C 172.220 25.136,172.400 25.856,172.400 26.600 C 172.400 27.344,172.580 28.064,172.800 28.200 C 173.020 28.336,173.200 28.797,173.200 29.224 C 173.200 29.651,173.380 30.000,173.600 30.000 C 173.820 30.000,174.000 30.268,174.000 30.597 C 174.000 30.925,174.360 31.418,174.800 31.693 C 175.240 31.968,175.600 32.389,175.600 32.629 C 175.600 32.869,176.050 33.306,176.600 33.600 C 177.150 33.894,177.600 34.285,177.600 34.468 C 177.600 34.650,177.851 34.800,178.157 34.800 C 178.464 34.800,178.813 35.056,178.933 35.370 C 179.053 35.683,179.748 36.227,180.476 36.579 C 181.736 37.188,183.993 38.954,185.860 40.793 C 186.493 41.416,186.775 41.502,186.929 41.120 C 187.045 40.830,187.151 40.969,187.168 41.432 C 187.187 41.913,187.661 42.505,188.289 42.832 C 188.889 43.145,190.080 44.075,190.938 44.900 C 191.795 45.725,192.745 46.400,193.048 46.400 C 193.395 46.400,193.600 46.847,193.600 47.600 C 193.600 48.400,193.400 48.800,193.000 48.800 C 192.670 48.800,192.400 48.620,192.400 48.400 C 192.400 48.180,192.085 47.996,191.700 47.991 C 191.315 47.986,190.550 47.630,190.000 47.200 C 189.450 46.770,188.813 46.414,188.585 46.409 C 188.356 46.404,187.463 46.040,186.600 45.600 C 185.737 45.160,184.799 44.800,184.515 44.800 C 184.232 44.800,184.000 44.640,184.000 44.443 C 184.000 44.095,182.097 43.404,181.500 43.534 C 181.335 43.570,181.200 43.420,181.200 43.200 C 181.200 42.980,180.958 42.800,180.662 42.800 C 180.366 42.800,179.798 42.440,179.400 42.000 C 179.002 41.560,178.500 41.200,178.285 41.200 C 178.070 41.200,177.603 40.868,177.247 40.463 C 176.891 40.057,176.190 39.508,175.689 39.243 C 175.188 38.977,174.883 38.589,175.012 38.380 C 175.142 38.171,174.994 38.000,174.686 38.000 C 174.377 38.000,173.798 37.640,173.400 37.200 C 173.002 36.760,172.543 36.400,172.381 36.400 C 172.219 36.400,171.167 35.485,170.043 34.367 C 168.920 33.249,167.988 32.574,167.973 32.867 C 167.958 33.160,167.758 33.012,167.529 32.538 C 167.299 32.064,166.148 31.260,164.971 30.752 C 163.767 30.232,163.026 29.707,163.277 29.552 C 163.522 29.401,163.290 29.280,162.761 29.284 C 162.233 29.288,161.306 29.178,160.702 29.038 C 157.947 28.403,152.903 29.014,153.110 29.958 C 153.170 30.234,153.027 30.341,152.792 30.195 C 152.076 29.753,148.000 32.976,148.000 33.984 C 148.000 34.239,147.820 34.336,147.600 34.200 C 147.380 34.064,147.200 34.323,147.200 34.776 C 147.200 35.229,147.020 35.600,146.800 35.600 C 146.580 35.600,146.400 35.960,146.400 36.400 C 146.400 36.840,146.243 37.200,146.052 37.200 C 145.622 37.200,145.557 44.847,145.982 45.400 C 146.151 45.620,146.399 46.250,146.532 46.800 C 146.666 47.350,147.220 48.276,147.764 48.857 C 148.308 49.438,148.643 50.023,148.510 50.157 C 148.376 50.291,148.452 50.400,148.678 50.400 C 148.904 50.400,149.955 51.207,151.014 52.193 L 152.939 53.985 152.008 54.793 C 151.496 55.237,150.925 55.600,150.739 55.600 C 150.552 55.600,150.400 55.870,150.400 56.200 C 150.400 56.530,150.175 56.755,149.900 56.700 C 149.625 56.645,149.449 56.838,149.510 57.130 C 149.570 57.421,149.449 57.554,149.241 57.425 C 148.771 57.135,146.363 60.636,146.240 61.789 C 146.190 62.254,146.019 62.845,145.860 63.103 C 145.477 63.723,145.672 69.997,146.082 70.250 C 146.257 70.359,146.400 70.797,146.400 71.224 C 146.400 71.651,146.625 71.955,146.900 71.900 C 147.175 71.845,147.350 72.101,147.290 72.468 C 147.167 73.210,148.612 74.917,149.700 75.317 C 150.085 75.459,150.400 75.851,150.400 76.187 C 150.400 76.533,150.748 76.800,151.200 76.800 C 151.640 76.800,152.000 76.936,152.000 77.102 C 152.000 77.895,154.708 78.493,158.329 78.500 C 161.184 78.505,161.885 78.598,161.000 78.854 C 160.340 79.046,159.260 79.111,158.600 78.999 C 157.547 78.821,157.511 78.844,158.300 79.185 C 158.795 79.399,159.200 79.700,159.200 79.854 C 159.200 80.008,159.085 80.018,158.944 79.877 C 158.803 79.736,158.145 79.931,157.482 80.311 C 156.176 81.057,154.260 82.792,154.718 82.813 C 154.873 82.820,154.711 83.045,154.358 83.314 C 154.005 83.583,153.588 84.206,153.432 84.699 C 153.276 85.192,152.899 85.843,152.596 86.147 C 151.847 86.896,151.639 95.600,152.370 95.600 C 152.518 95.600,152.858 96.204,153.125 96.943 C 153.590 98.228,157.424 102.415,157.756 102.000 C 157.844 101.890,158.279 102.128,158.722 102.529 C 159.165 102.930,160.129 103.353,160.864 103.469 C 161.599 103.585,162.482 103.830,162.826 104.014 C 163.171 104.199,165.757 104.316,168.573 104.275 L 173.693 104.200 173.500 106.900 C 173.394 108.385,173.426 109.600,173.572 109.600 C 173.795 109.600,174.010 111.000,174.110 113.100 C 174.123 113.375,174.283 113.600,174.467 113.600 C 174.650 113.600,174.800 113.971,174.800 114.424 C 174.800 114.877,174.980 115.136,175.200 115.000 C 175.420 114.864,175.600 115.033,175.600 115.376 C 175.600 115.719,175.780 116.000,176.000 116.000 C 176.220 116.000,176.400 116.193,176.400 116.429 C 176.400 117.054,177.457 118.010,177.786 117.681 C 177.940 117.526,178.030 117.580,177.986 117.800 C 177.796 118.744,178.066 119.130,179.098 119.389 C 179.702 119.540,180.441 119.868,180.742 120.118 C 181.043 120.367,181.759 120.634,182.334 120.711 C 182.909 120.788,183.595 121.030,183.858 121.248 C 184.412 121.708,188.400 121.558,188.400 121.076 C 188.400 120.898,188.580 120.864,188.800 121.000 C 189.020 121.136,189.200 121.067,189.200 120.847 C 189.200 120.626,189.556 120.515,189.992 120.598 C 190.427 120.682,190.888 120.582,191.015 120.375 C 191.143 120.169,191.560 120.000,191.942 120.000 C 192.851 120.000,197.200 115.913,197.200 115.060 C 197.200 114.697,197.380 114.400,197.600 114.400 C 197.820 114.400,198.000 113.939,198.000 113.376 C 198.000 112.796,198.173 112.460,198.400 112.600 C 198.662 112.762,198.800 109.954,198.800 104.473 L 198.800 96.099 200.400 94.400 C 201.280 93.466,202.000 92.533,202.000 92.327 C 202.000 92.121,202.180 92.064,202.400 92.200 C 202.620 92.336,202.800 92.289,202.800 92.095 C 202.800 91.020,206.431 87.988,207.216 88.408 C 207.659 88.646,207.929 88.991,207.816 89.175 C 207.702 89.359,207.967 89.603,208.404 89.717 C 208.842 89.831,209.200 90.200,209.200 90.536 C 209.200 90.871,209.560 91.260,210.000 91.400 C 210.440 91.540,210.800 91.867,210.800 92.127 C 210.800 92.387,211.430 93.308,212.200 94.173 L 213.600 95.745 213.684 102.173 L 213.768 108.600 214.000 102.400 L 214.232 96.200 214.310 102.200 C 214.353 105.500,214.221 108.464,214.017 108.787 C 213.784 109.154,213.796 109.555,214.049 109.859 C 214.271 110.127,214.482 111.078,214.517 111.973 C 214.552 112.868,214.711 113.600,214.869 113.600 C 215.150 113.600,215.949 114.903,216.769 116.700 C 216.995 117.195,217.375 117.600,217.614 117.600 C 217.852 117.600,217.936 117.780,217.800 118.000 C 217.664 118.220,217.923 118.400,218.376 118.400 C 218.829 118.400,219.200 118.580,219.200 118.800 C 219.200 119.020,219.481 119.200,219.824 119.200 C 220.167 119.200,220.350 119.358,220.230 119.551 C 220.043 119.854,222.180 120.540,222.530 120.290 C 222.600 120.241,222.984 120.527,223.384 120.926 C 224.146 121.689,228.117 121.847,229.027 121.151 C 229.261 120.971,230.026 120.780,230.727 120.727 C 231.427 120.673,232.000 120.488,232.000 120.315 C 232.000 120.142,232.236 120.000,232.525 120.000 C 232.813 120.000,233.436 119.640,233.908 119.200 C 234.380 118.760,234.877 118.400,235.012 118.400 C 235.445 118.400,236.400 117.273,236.400 116.762 C 236.400 116.490,236.517 116.384,236.660 116.527 C 237.020 116.887,237.972 115.560,237.987 114.676 C 237.995 114.227,238.178 114.063,238.468 114.242 C 238.791 114.442,238.849 114.305,238.654 113.798 C 238.486 113.358,238.579 112.936,238.886 112.745 C 239.261 112.513,239.373 111.337,239.300 108.413 L 239.201 104.400 244.200 104.400 C 246.950 104.400,249.200 104.258,249.200 104.085 C 249.200 103.912,249.785 103.712,250.500 103.641 C 251.215 103.570,252.150 103.472,252.577 103.424 C 253.005 103.376,253.425 103.126,253.510 102.869 C 253.596 102.611,254.017 102.400,254.446 102.400 C 254.874 102.400,255.328 102.131,255.454 101.802 C 255.581 101.474,255.846 101.305,256.045 101.428 C 256.243 101.550,256.514 101.369,256.646 101.025 C 256.778 100.681,257.106 100.400,257.375 100.400 C 257.644 100.400,258.106 99.950,258.400 99.400 C 258.694 98.850,259.085 98.400,259.268 98.400 C 259.450 98.400,259.600 98.040,259.600 97.600 C 259.600 97.160,259.780 96.800,260.000 96.800 C 260.220 96.800,260.400 96.361,260.400 95.824 C 260.400 95.287,260.580 94.736,260.800 94.600 C 261.020 94.464,261.200 92.923,261.200 91.176 C 261.200 89.325,261.033 88.000,260.800 88.000 C 260.580 88.000,260.400 87.561,260.400 87.024 C 260.400 86.487,260.220 85.936,260.000 85.800 C 259.780 85.664,259.600 85.286,259.600 84.960 C 259.600 84.370,259.085 83.603,258.071 82.681 C 257.781 82.416,257.189 81.878,256.757 81.485 C 256.324 81.092,255.799 80.877,255.590 81.006 C 255.380 81.136,255.316 80.964,255.447 80.621 C 255.616 80.181,255.440 80.000,254.843 80.000 C 252.535 80.000,254.649 78.622,257.198 78.465 C 258.407 78.390,259.487 78.210,259.598 78.065 C 260.062 77.456,262.313 76.444,262.608 76.711 C 262.784 76.870,262.799 76.775,262.641 76.500 C 262.463 76.191,262.591 76.000,262.976 76.000 C 263.547 76.000,263.785 75.520,263.637 74.670 C 263.606 74.489,263.765 74.455,263.990 74.594 C 264.216 74.733,264.400 74.646,264.400 74.400 C 264.400 74.154,264.578 74.063,264.795 74.197 C 265.013 74.332,265.097 74.196,264.981 73.896 C 264.866 73.595,265.134 73.022,265.576 72.621 C 266.019 72.221,266.285 71.737,266.167 71.547 C 266.049 71.356,266.143 71.200,266.376 71.200 C 266.609 71.200,266.800 70.761,266.800 70.224 C 266.800 69.687,266.984 69.133,267.209 68.994 C 267.891 68.573,267.082 60.800,266.356 60.800 C 266.160 60.800,266.000 60.512,266.000 60.160 C 266.000 59.809,265.466 59.022,264.814 58.413 C 264.162 57.804,263.742 57.192,263.881 57.053 C 264.020 56.914,263.950 56.800,263.726 56.800 C 263.502 56.800,262.754 56.260,262.063 55.600 C 261.372 54.940,260.626 54.400,260.404 54.400 C 259.721 54.400,259.988 53.838,261.070 53.000 C 263.545 51.082,265.916 48.259,266.385 46.669 C 266.656 45.751,267.006 44.730,267.162 44.400 C 267.632 43.408,267.676 38.000,267.214 38.000 C 266.986 38.000,266.800 37.676,266.800 37.280 C 266.800 36.386,265.906 34.407,265.500 34.403 C 265.335 34.401,265.200 34.228,265.200 34.018 C 265.200 33.808,264.750 33.186,264.200 32.636 C 263.650 32.086,263.200 31.753,263.200 31.895 C 263.200 32.037,262.936 31.804,262.613 31.376 C 262.290 30.949,262.020 30.735,262.013 30.900 C 262.006 31.065,261.633 30.833,261.185 30.385 C 260.737 29.937,260.197 29.678,259.985 29.809 C 259.773 29.940,259.600 29.857,259.600 29.624 C 259.600 29.391,259.161 29.200,258.624 29.200 C 258.087 29.200,257.559 29.058,257.452 28.884 C 257.058 28.246,250.000 28.988,250.000 29.667 C 250.000 29.876,249.820 29.936,249.600 29.800 C 249.380 29.664,249.200 29.738,249.200 29.964 C 249.200 30.190,248.930 30.271,248.600 30.145 C 248.270 30.018,248.000 30.114,248.000 30.357 C 248.000 30.601,247.770 30.800,247.488 30.800 C 247.207 30.800,246.717 31.160,246.400 31.600 C 246.083 32.040,245.677 32.400,245.498 32.400 C 245.319 32.400,244.648 32.895,244.007 33.500 C 241.591 35.779,240.816 36.400,240.391 36.400 C 240.150 36.400,240.064 36.580,240.200 36.800 C 240.336 37.020,240.173 37.200,239.838 37.200 C 239.502 37.200,239.035 37.560,238.800 38.000 C 238.565 38.440,238.108 38.800,237.786 38.800 C 237.464 38.800,237.200 38.980,237.200 39.200 C 237.200 39.420,236.919 39.600,236.576 39.600 C 236.233 39.600,236.047 39.753,236.163 39.940 C 236.278 40.127,235.884 40.530,235.286 40.837 C 234.689 41.144,233.930 41.682,233.600 42.033 C 233.270 42.385,232.518 42.791,231.928 42.937 C 231.338 43.082,230.573 43.484,230.228 43.829 C 229.883 44.175,229.600 44.341,229.600 44.200 C 229.600 44.059,229.317 44.226,228.971 44.571 C 228.626 44.917,228.030 45.200,227.648 45.200 C 227.266 45.200,226.604 45.464,226.176 45.787 C 225.749 46.110,224.995 46.380,224.500 46.387 C 223.998 46.394,223.644 46.621,223.700 46.900 C 223.761 47.203,223.460 47.353,222.935 47.281 C 222.460 47.215,221.954 47.350,221.812 47.581 C 221.669 47.811,221.193 48.000,220.753 48.000 C 220.313 48.000,220.064 48.180,220.200 48.400 C 220.336 48.620,220.167 48.800,219.824 48.800 C 219.481 48.800,219.200 48.480,219.200 48.089 C 219.200 47.257,220.278 45.600,220.818 45.600 C 221.255 45.600,222.381 44.711,224.240 42.900 C 224.973 42.185,225.736 41.600,225.936 41.600 C 226.361 41.600,231.264 37.735,231.694 37.061 C 231.856 36.808,231.991 36.749,231.994 36.931 C 231.997 37.113,232.554 36.708,233.231 36.031 C 233.908 35.354,234.638 34.800,234.854 34.800 C 235.070 34.800,235.136 34.620,235.000 34.400 C 234.864 34.180,235.048 34.000,235.408 34.000 C 236.215 34.000,239.290 30.870,238.978 30.365 C 238.854 30.164,238.954 30.000,239.200 30.000 C 239.446 30.000,239.536 29.820,239.400 29.600 C 239.264 29.380,239.335 29.200,239.558 29.200 C 239.781 29.200,240.082 28.572,240.226 27.804 C 240.370 27.035,240.620 26.488,240.781 26.588 C 241.240 26.872,241.159 20.733,240.689 19.608 C 240.255 18.570,240.137 18.218,240.050 17.700 C 239.936 17.026,238.096 15.235,237.796 15.507 C 237.618 15.668,237.592 15.468,237.738 15.063 C 237.929 14.531,237.780 14.268,237.202 14.116 C 236.761 14.001,236.400 13.772,236.400 13.607 C 236.400 12.756,232.977 11.119,230.855 10.954 C 229.615 10.858,227.927 10.713,227.104 10.633 C 226.280 10.553,225.706 10.648,225.827 10.844 C 225.948 11.040,225.407 11.200,224.624 11.200 C 223.667 11.200,223.200 11.385,223.200 11.763 C 223.200 12.128,222.920 12.252,222.400 12.116 C 221.953 11.999,221.600 12.104,221.600 12.353 C 221.600 12.599,221.389 12.800,221.131 12.800 C 220.874 12.800,220.334 13.098,219.931 13.462 C 219.242 14.086,218.782 11.865,219.179 9.822 C 219.219 9.614,219.078 9.074,218.866 8.622 C 218.654 8.170,218.262 7.217,217.994 6.505 C 217.726 5.793,217.348 5.309,217.154 5.429 C 216.959 5.549,216.778 5.457,216.750 5.224 C 216.584 3.815,215.930 2.741,215.369 2.957 C 215.033 3.085,214.922 2.948,215.063 2.580 C 215.193 2.241,215.049 2.000,214.718 2.000 C 214.406 2.000,213.755 1.631,213.270 1.180 C 212.786 0.728,212.224 0.461,212.022 0.586 C 211.821 0.711,211.542 0.630,211.404 0.407 C 211.074 -0.127,202.422 -0.105,201.500 0.432 M86.400 43.501 C 86.400 43.790,85.261 43.947,82.500 44.037 C 81.738 44.062,81.200 44.289,81.200 44.587 C 81.200 44.867,80.885 45.090,80.500 45.082 C 78.929 45.051,76.436 45.729,76.240 46.240 C 76.114 46.567,75.757 46.682,75.350 46.525 C 74.920 46.360,74.766 46.421,74.932 46.690 C 75.175 47.083,74.473 47.578,73.329 47.821 C 72.732 47.947,68.000 52.762,68.000 53.243 C 68.000 53.439,67.730 53.600,67.400 53.600 C 67.027 53.600,66.800 53.978,66.800 54.600 C 66.800 55.150,66.620 55.600,66.400 55.600 C 66.180 55.600,66.000 55.881,66.000 56.224 C 66.000 56.567,65.820 56.736,65.600 56.600 C 65.380 56.464,65.200 56.633,65.200 56.976 C 65.200 57.319,64.999 57.600,64.753 57.600 C 64.507 57.600,64.398 57.951,64.511 58.381 C 64.623 58.810,64.525 59.225,64.292 59.303 C 63.856 59.448,63.596 60.340,63.535 61.900 C 63.516 62.395,63.372 62.800,63.216 62.800 C 63.059 62.800,62.902 63.552,62.866 64.471 C 62.830 65.391,62.584 66.741,62.320 67.471 C 61.946 68.505,61.946 68.906,62.320 69.280 C 62.584 69.544,62.800 70.768,62.800 72.000 C 62.800 73.232,62.969 74.411,63.176 74.620 C 63.383 74.829,63.644 75.513,63.757 76.141 C 63.870 76.768,64.328 77.983,64.775 78.841 C 65.221 79.698,65.455 80.405,65.294 80.412 C 65.132 80.419,65.319 80.610,65.708 80.837 C 66.098 81.064,66.329 81.391,66.222 81.564 C 66.115 81.737,66.383 82.260,66.816 82.725 C 67.250 83.191,68.054 84.234,68.603 85.042 C 69.151 85.850,69.600 86.410,69.600 86.287 C 69.600 86.163,70.159 86.569,70.842 87.188 C 72.800 88.965,73.584 89.601,73.804 89.592 C 73.916 89.587,74.524 89.850,75.153 90.176 C 75.783 90.502,76.386 90.681,76.492 90.574 C 76.599 90.468,76.914 90.655,77.192 90.990 C 77.470 91.326,78.126 91.600,78.649 91.600 C 79.172 91.600,79.600 91.761,79.600 91.958 C 79.600 92.732,91.352 93.524,91.812 92.781 C 91.941 92.571,92.757 92.400,93.624 92.400 C 94.491 92.400,95.200 92.220,95.200 92.000 C 95.200 91.780,95.620 91.600,96.133 91.600 C 96.647 91.600,97.202 91.465,97.367 91.300 C 97.532 91.135,97.787 90.984,97.933 90.965 C 98.796 90.854,99.919 90.168,100.744 89.251 C 101.263 88.673,101.547 88.470,101.375 88.800 C 101.172 89.190,101.401 89.122,102.031 88.605 C 104.156 86.860,106.394 84.575,106.397 84.149 C 106.399 83.901,106.805 83.397,107.300 83.030 C 107.795 82.663,107.930 82.470,107.600 82.600 C 107.270 82.730,107.405 82.537,107.900 82.170 C 108.395 81.803,108.800 81.164,108.800 80.751 C 108.800 80.338,108.980 80.000,109.200 80.000 C 109.420 80.000,109.600 79.655,109.600 79.233 C 109.600 78.812,109.778 78.407,109.997 78.333 C 110.215 78.260,110.434 77.705,110.484 77.100 C 110.534 76.495,110.715 76.000,110.887 76.000 C 111.059 76.000,111.200 75.280,111.200 74.400 C 111.200 73.520,111.361 72.800,111.557 72.800 C 111.753 72.800,111.940 70.730,111.973 68.200 C 112.011 65.246,111.883 63.600,111.616 63.600 C 111.387 63.600,111.200 62.981,111.200 62.224 C 111.200 61.467,111.020 60.736,110.800 60.600 C 110.580 60.464,110.400 59.913,110.400 59.376 C 110.400 58.839,110.220 58.400,110.000 58.400 C 109.780 58.400,109.600 58.040,109.600 57.600 C 109.600 57.160,109.420 56.800,109.200 56.800 C 108.980 56.800,108.800 56.519,108.800 56.176 C 108.800 55.802,108.613 55.668,108.332 55.842 C 108.017 56.036,107.948 55.913,108.119 55.466 C 108.260 55.100,108.201 54.800,107.987 54.800 C 107.774 54.800,107.600 54.601,107.600 54.358 C 107.600 53.878,105.212 50.689,104.681 50.459 C 104.502 50.382,103.979 49.932,103.519 49.459 C 103.059 48.987,102.812 48.870,102.971 49.200 C 103.147 49.567,103.036 49.528,102.686 49.100 C 102.370 48.715,101.926 48.400,101.699 48.400 C 101.471 48.400,101.178 48.119,101.046 47.775 C 100.914 47.431,100.635 47.254,100.427 47.383 C 100.219 47.512,99.903 47.388,99.725 47.108 C 99.274 46.402,97.757 45.600,96.872 45.600 C 96.466 45.600,96.009 45.475,95.856 45.323 C 95.704 45.171,95.187 44.986,94.707 44.913 C 94.227 44.840,93.737 44.632,93.617 44.451 C 93.498 44.269,92.984 44.155,92.475 44.196 C 91.967 44.236,90.622 44.029,89.488 43.735 C 87.141 43.126,86.400 43.070,86.400 43.501 M177.328 69.467 C 177.288 69.669,177.632 69.862,178.092 69.897 C 178.552 69.932,179.034 70.117,179.164 70.309 C 179.365 70.607,180.540 71.223,181.200 71.378 C 183.279 71.864,185.885 74.000,184.400 74.000 C 184.180 74.000,184.000 74.281,184.000 74.624 C 184.000 74.967,183.865 75.165,183.700 75.066 C 183.535 74.966,183.180 75.122,182.912 75.413 C 182.527 75.829,182.527 75.983,182.912 76.139 C 183.181 76.248,183.076 76.351,182.676 76.368 C 182.278 76.386,182.064 76.580,182.200 76.800 C 182.336 77.020,182.291 77.200,182.099 77.200 C 181.908 77.200,181.402 77.515,180.975 77.900 C 179.977 78.801,162.350 78.994,162.693 78.100 C 162.799 77.825,163.128 77.600,163.425 77.600 C 164.172 77.600,166.823 75.756,166.516 75.450 C 166.379 75.312,166.667 75.200,167.157 75.200 C 167.647 75.200,167.944 75.032,167.817 74.828 C 167.691 74.623,167.815 74.311,168.093 74.134 C 168.597 73.814,168.814 73.746,169.624 73.650 C 169.857 73.623,169.936 73.420,169.800 73.200 C 169.664 72.980,169.821 72.800,170.148 72.800 C 170.475 72.800,171.058 72.485,171.442 72.100 C 173.974 69.567,177.630 67.931,177.328 69.467 M240.000 70.800 C 240.880 71.629,241.600 72.237,241.600 72.151 C 241.600 71.814,244.963 74.454,245.487 75.203 C 245.794 75.642,246.239 76.000,246.476 76.000 C 246.712 76.000,247.218 76.360,247.600 76.800 C 247.982 77.240,248.768 77.639,249.347 77.687 C 249.926 77.735,250.400 77.915,250.400 78.087 C 250.400 78.259,246.356 78.400,241.414 78.400 L 232.428 78.400 231.514 77.371 C 231.011 76.805,230.105 75.801,229.500 75.140 C 228.039 73.544,228.219 72.464,230.010 72.070 C 230.334 71.998,230.660 71.772,230.734 71.568 C 230.808 71.363,231.026 71.292,231.218 71.411 C 231.410 71.530,231.890 71.454,232.284 71.243 C 232.678 71.031,233.326 70.757,233.725 70.632 C 234.124 70.508,234.348 70.240,234.223 70.038 C 234.098 69.836,234.312 69.719,234.698 69.779 C 235.084 69.839,235.727 69.663,236.126 69.388 C 237.142 68.689,238.147 69.055,240.000 70.800 M253.600 78.800 C 253.600 79.020,253.330 79.200,253.000 79.200 C 252.670 79.200,252.400 79.020,252.400 78.800 C 252.400 78.580,252.670 78.400,253.000 78.400 C 253.330 78.400,253.600 78.580,253.600 78.800 M170.805 208.600 C 170.801 208.820,170.037 209.034,169.107 209.077 C 168.177 209.119,167.352 209.345,167.274 209.579 C 167.196 209.813,166.967 209.903,166.766 209.779 C 166.565 209.655,166.400 209.754,166.400 210.000 C 166.400 210.246,166.241 210.349,166.047 210.229 C 165.853 210.109,165.178 210.410,164.547 210.897 C 162.748 212.286,162.400 212.695,162.400 213.414 C 162.400 213.815,162.181 214.002,161.858 213.877 C 161.521 213.748,161.040 214.224,160.589 215.135 C 159.049 218.242,158.707 224.136,159.987 225.500 C 160.451 225.995,160.622 226.400,160.367 226.400 C 160.023 226.400,160.018 226.540,160.348 226.937 C 160.593 227.232,160.675 227.592,160.530 227.737 C 160.385 227.882,160.477 228.000,160.733 228.000 C 160.990 228.000,161.200 228.281,161.200 228.624 C 161.200 228.967,161.380 229.136,161.600 229.000 C 161.820 228.864,162.000 228.943,162.000 229.176 C 162.000 229.409,162.270 229.600,162.600 229.600 C 162.930 229.600,163.200 229.876,163.200 230.213 C 163.200 230.549,163.470 230.929,163.800 231.055 C 164.130 231.182,164.400 231.536,164.400 231.843 C 164.400 232.149,164.760 232.400,165.200 232.400 C 165.640 232.400,166.000 232.580,166.000 232.800 C 166.000 233.020,166.585 233.203,167.300 233.206 C 168.175 233.210,168.424 233.324,168.061 233.554 C 167.741 233.756,169.253 233.904,171.761 233.914 C 174.092 233.925,176.001 233.813,176.003 233.666 C 176.007 233.377,177.940 232.400,178.508 232.400 C 179.040 232.400,179.995 231.329,179.714 231.048 C 179.578 230.911,179.685 230.800,179.952 230.800 C 180.583 230.800,182.425 228.958,182.109 228.642 C 181.976 228.509,182.128 228.400,182.448 228.400 C 182.768 228.400,183.059 228.011,183.095 227.536 C 183.131 227.061,183.322 226.566,183.520 226.436 C 184.335 225.903,185.102 219.834,184.409 219.405 C 184.184 219.267,184.000 218.544,184.000 217.800 C 184.000 217.056,183.820 216.336,183.600 216.200 C 183.380 216.064,183.200 215.643,183.200 215.265 C 183.200 214.886,182.840 214.317,182.400 214.000 C 181.960 213.683,181.600 213.183,181.600 212.888 C 181.600 212.594,181.420 212.464,181.200 212.600 C 180.980 212.736,180.800 212.651,180.800 212.411 C 180.800 212.171,180.510 211.864,180.156 211.728 C 179.802 211.592,179.060 211.061,178.506 210.548 C 177.952 210.035,177.322 209.725,177.105 209.859 C 176.888 209.993,176.570 209.874,176.397 209.596 C 176.206 209.286,175.171 209.076,173.742 209.057 C 172.454 209.040,171.268 208.840,171.106 208.613 C 170.918 208.349,170.810 208.345,170.805 208.600 M318.000 262.355 C 318.000 262.561,317.546 262.680,316.990 262.619 C 316.435 262.558,315.882 262.667,315.763 262.860 C 315.643 263.054,315.369 263.104,315.153 262.971 C 314.938 262.838,314.455 262.862,314.081 263.025 C 313.706 263.188,313.138 263.373,312.817 263.437 C 311.295 263.741,309.200 265.209,309.200 265.971 C 309.200 266.207,309.048 266.400,308.861 266.400 C 308.230 266.400,306.800 267.890,306.800 268.547 C 306.800 268.906,306.575 269.203,306.300 269.206 C 305.967 269.210,306.000 269.342,306.400 269.600 C 306.800 269.858,306.833 269.990,306.500 269.994 C 306.225 269.997,305.997 270.405,305.994 270.900 C 305.989 271.639,305.914 271.693,305.577 271.200 C 305.256 270.733,305.179 270.865,305.225 271.800 C 305.452 276.371,305.233 277.754,304.400 277.000 C 303.960 276.602,303.595 276.439,303.588 276.638 C 303.581 276.837,303.392 276.685,303.168 276.300 C 302.944 275.915,302.499 275.600,302.180 275.600 C 301.861 275.600,301.600 275.420,301.600 275.200 C 301.600 274.980,301.465 274.821,301.300 274.847 C 300.228 275.017,298.792 274.737,299.000 274.400 C 299.157 274.145,298.012 274.000,295.847 274.000 C 293.977 274.000,292.336 274.180,292.200 274.400 C 292.064 274.620,291.547 274.800,291.052 274.800 C 290.556 274.800,289.764 275.160,289.292 275.600 C 288.820 276.040,288.178 276.400,287.866 276.400 C 287.174 276.400,286.305 277.372,286.670 277.737 C 286.815 277.882,286.633 278.000,286.267 278.000 C 285.900 278.000,285.600 278.270,285.600 278.600 C 285.600 278.930,285.390 279.200,285.133 279.200 C 284.877 279.200,284.771 279.305,284.899 279.433 C 285.027 279.560,284.697 280.306,284.166 281.088 C 283.131 282.613,282.654 290.800,283.600 290.800 C 283.820 290.800,284.000 291.077,284.000 291.416 C 284.000 292.648,287.457 296.632,290.000 298.332 C 290.550 298.699,291.450 299.392,292.000 299.872 C 293.470 301.153,294.511 302.034,296.403 303.600 C 297.334 304.370,298.659 305.492,299.348 306.094 C 300.036 306.695,300.836 307.190,301.124 307.194 C 301.412 307.197,301.536 307.380,301.400 307.600 C 301.264 307.820,301.433 308.000,301.776 308.000 C 302.119 308.000,302.400 308.180,302.400 308.400 C 302.400 308.620,302.588 308.800,302.818 308.800 C 303.643 308.800,305.254 310.812,305.127 311.683 C 305.008 312.496,304.958 312.508,304.329 311.875 C 303.959 311.504,303.374 311.200,303.029 311.200 C 302.683 311.200,302.400 311.001,302.400 310.757 C 302.400 310.514,302.142 310.414,301.826 310.535 C 301.510 310.656,301.192 310.575,301.119 310.356 C 301.045 310.136,300.719 309.904,300.393 309.840 C 299.667 309.697,297.797 308.947,296.239 308.175 C 295.600 307.859,294.835 307.600,294.539 307.600 C 294.242 307.600,294.000 307.420,294.000 307.200 C 294.000 306.980,293.640 306.800,293.200 306.800 C 292.760 306.800,292.400 306.620,292.400 306.400 C 292.400 306.180,292.080 306.000,291.688 306.000 C 291.297 306.000,290.717 305.640,290.400 305.200 C 290.083 304.760,289.583 304.400,289.288 304.400 C 288.994 304.400,288.864 304.220,289.000 304.000 C 289.136 303.780,288.866 303.600,288.400 303.600 C 287.934 303.600,287.664 303.420,287.800 303.200 C 287.936 302.980,287.756 302.800,287.400 302.800 C 287.044 302.800,286.843 302.655,286.952 302.477 C 287.148 302.160,285.414 300.648,284.741 300.550 C 284.554 300.522,284.190 300.478,283.933 300.450 C 283.677 300.423,283.580 300.286,283.719 300.147 C 283.987 299.879,281.735 297.600,281.202 297.600 C 281.029 297.600,280.193 296.974,279.344 296.209 C 278.495 295.444,277.674 294.814,277.521 294.809 C 277.367 294.804,276.751 294.345,276.151 293.789 C 275.414 293.106,274.969 292.926,274.779 293.235 C 274.575 293.564,274.449 293.548,274.326 293.177 C 274.123 292.568,273.238 292.391,269.100 292.133 C 267.088 292.007,266.000 292.086,266.000 292.357 C 266.000 292.587,265.764 292.684,265.476 292.574 C 265.188 292.463,264.280 292.829,263.458 293.386 C 262.637 293.944,261.830 294.400,261.666 294.400 C 261.236 294.400,258.624 297.374,258.470 298.040 C 258.398 298.348,258.173 298.660,257.970 298.733 C 257.766 298.807,257.600 299.291,257.600 299.810 C 257.600 300.328,257.420 300.864,257.200 301.000 C 256.980 301.136,256.800 302.767,256.800 304.624 C 256.800 306.608,256.965 308.000,257.200 308.000 C 257.420 308.000,257.600 308.360,257.600 308.800 C 257.600 309.240,257.780 309.600,258.000 309.600 C 258.220 309.600,258.379 309.735,258.353 309.900 C 258.184 310.969,258.620 311.770,260.300 313.476 C 261.345 314.538,262.734 315.749,263.386 316.169 C 264.565 316.927,264.567 316.934,263.686 317.327 C 263.199 317.544,262.800 317.954,262.800 318.238 C 262.800 318.521,262.592 318.881,262.338 319.038 C 262.034 319.226,261.976 319.131,262.169 318.762 C 262.329 318.453,262.103 318.605,261.666 319.100 C 261.229 319.595,260.676 320.000,260.436 320.000 C 260.196 320.000,260.000 320.227,260.000 320.504 C 260.000 320.781,259.640 321.232,259.200 321.507 C 258.760 321.782,258.400 322.355,258.400 322.780 C 258.400 323.205,258.220 323.664,258.000 323.800 C 257.780 323.936,257.600 324.487,257.600 325.024 C 257.600 325.561,257.411 326.000,257.179 326.000 C 256.912 326.000,256.786 327.242,256.834 329.400 C 256.875 331.270,257.064 332.800,257.254 332.800 C 257.444 332.800,257.600 333.441,257.600 334.224 C 257.600 335.071,257.762 335.547,258.000 335.400 C 258.220 335.264,258.400 335.356,258.400 335.605 C 258.400 335.854,258.672 336.329,259.004 336.661 C 259.336 336.993,259.533 337.385,259.443 337.532 C 259.353 337.680,260.341 338.565,261.639 339.499 C 262.938 340.433,264.000 341.006,264.000 340.770 C 264.000 340.535,264.294 340.637,264.653 340.995 C 265.518 341.861,275.200 341.621,275.200 340.733 C 275.200 340.550,275.399 340.400,275.642 340.400 C 276.272 340.400,278.405 338.538,278.111 338.244 C 277.977 338.110,278.212 337.994,278.633 337.987 C 279.568 337.972,280.800 337.087,280.800 336.432 C 280.800 336.169,280.980 336.064,281.200 336.200 C 281.420 336.336,281.600 336.257,281.600 336.024 C 281.600 335.791,281.881 335.600,282.224 335.600 C 282.567 335.600,282.736 335.420,282.600 335.200 C 282.464 334.980,282.556 334.800,282.805 334.800 C 283.449 334.800,284.416 333.750,284.081 333.414 C 283.926 333.260,283.980 333.170,284.200 333.214 C 285.102 333.396,285.521 333.154,285.780 332.300 C 285.947 331.751,286.135 331.596,286.261 331.902 C 286.375 332.179,286.641 332.298,286.852 332.168 C 287.063 332.038,287.671 332.217,288.204 332.566 C 288.736 332.914,289.448 333.200,289.786 333.200 C 290.124 333.200,290.400 333.391,290.400 333.624 C 290.400 333.857,290.565 333.945,290.768 333.820 C 290.970 333.695,291.422 333.879,291.771 334.228 C 292.121 334.578,292.629 334.790,292.900 334.700 C 293.171 334.610,293.613 334.730,293.883 334.968 C 295.220 336.148,295.538 336.330,295.816 336.076 C 296.449 335.498,295.343 337.174,294.069 338.727 C 293.337 339.619,292.758 340.457,292.783 340.589 C 293.016 341.815,291.553 342.000,281.629 342.000 C 276.045 342.000,271.600 342.158,271.600 342.356 C 271.600 342.551,271.375 342.703,271.100 342.693 C 269.811 342.645,269.174 342.835,269.400 343.200 C 269.536 343.420,269.367 343.600,269.024 343.600 C 268.681 343.600,268.400 343.791,268.400 344.024 C 268.400 344.257,268.220 344.336,268.000 344.200 C 267.780 344.064,267.600 344.189,267.600 344.479 C 267.600 344.768,267.087 345.232,266.459 345.510 C 265.431 345.965,264.369 347.577,263.369 350.200 C 262.929 351.355,262.814 357.760,263.229 358.017 C 263.422 358.137,263.638 358.587,263.709 359.017 C 264.005 360.802,266.814 364.387,267.924 364.396 C 268.212 364.398,268.336 364.580,268.200 364.800 C 268.064 365.020,268.233 365.200,268.576 365.200 C 268.919 365.200,269.200 365.380,269.200 365.600 C 269.200 365.820,269.740 366.000,270.400 366.000 C 271.060 366.000,271.600 366.180,271.600 366.400 C 271.600 366.651,274.067 366.800,278.200 366.800 L 284.800 366.800 284.800 371.400 C 284.800 374.200,284.957 376.000,285.200 376.000 C 285.420 376.000,285.600 376.360,285.600 376.800 C 285.600 377.240,285.780 377.600,286.000 377.600 C 286.220 377.600,286.400 377.865,286.400 378.189 C 286.400 379.114,289.943 382.423,291.759 383.195 C 294.616 384.409,294.962 384.512,296.739 384.674 C 297.789 384.770,298.731 384.629,299.116 384.317 C 299.598 383.926,299.680 383.922,299.453 384.300 C 299.288 384.575,299.333 384.800,299.553 384.800 C 299.773 384.800,300.064 384.620,300.200 384.400 C 300.336 384.180,300.897 384.000,301.447 384.000 C 302.012 384.000,302.340 383.826,302.200 383.600 C 302.062 383.376,302.371 383.200,302.901 383.200 C 303.856 383.200,305.600 381.898,305.600 381.184 C 305.600 380.973,305.887 380.800,306.237 380.800 C 306.588 380.800,306.969 380.440,307.084 380.000 C 307.199 379.560,307.452 379.200,307.647 379.200 C 307.841 379.200,308.000 378.829,308.000 378.376 C 308.000 377.923,308.180 377.664,308.400 377.800 C 308.620 377.936,308.800 377.687,308.800 377.247 C 308.800 376.807,308.980 376.336,309.200 376.200 C 309.445 376.049,309.602 372.822,309.606 367.876 C 309.613 359.392,309.619 359.351,311.189 358.277 C 311.733 357.905,311.974 357.600,311.724 357.600 C 311.474 357.600,312.419 356.496,313.825 355.146 C 315.230 353.796,316.296 352.555,316.193 352.388 C 316.089 352.221,316.288 351.975,316.635 351.842 C 317.527 351.500,318.883 351.541,318.659 351.904 C 318.556 352.072,318.749 352.567,319.089 353.004 C 319.618 353.685,319.671 353.695,319.458 353.079 C 319.311 352.652,319.370 352.458,319.605 352.603 C 319.822 352.737,320.000 353.105,320.000 353.420 C 320.000 353.735,320.360 354.218,320.800 354.493 C 321.240 354.768,321.602 355.174,321.604 355.396 C 321.606 355.618,322.182 356.250,322.885 356.800 C 325.205 358.616,325.163 358.437,325.341 367.200 C 325.444 372.207,325.689 375.789,325.972 376.400 C 326.798 378.185,327.478 379.227,328.348 380.037 C 328.816 380.474,329.200 381.023,329.200 381.258 C 329.200 381.498,329.502 381.570,329.888 381.422 C 330.266 381.276,330.448 381.285,330.293 381.441 C 329.868 381.866,333.125 384.114,333.795 383.857 C 334.113 383.735,334.488 383.819,334.628 384.045 C 334.767 384.270,335.133 384.358,335.440 384.240 C 335.748 384.122,336.000 384.184,336.000 384.378 C 336.000 384.750,339.302 384.629,341.500 384.177 C 342.215 384.030,342.800 383.750,342.800 383.555 C 342.800 383.360,343.160 383.200,343.600 383.200 C 344.040 383.200,344.400 383.020,344.400 382.800 C 344.400 382.580,344.630 382.400,344.912 382.400 C 345.193 382.400,345.676 382.050,345.985 381.621 C 346.293 381.193,346.693 380.934,346.873 381.045 C 347.053 381.156,347.200 381.091,347.200 380.899 C 347.200 380.708,347.551 380.174,347.980 379.714 C 348.831 378.801,350.476 375.525,350.371 374.955 C 350.335 374.760,350.327 372.845,350.353 370.700 L 350.400 366.800 357.024 366.800 C 360.667 366.800,363.564 366.665,363.463 366.500 C 363.361 366.335,363.832 366.160,364.509 366.111 C 365.186 366.061,365.843 365.881,365.970 365.710 C 366.096 365.539,366.689 365.147,367.286 364.839 C 367.884 364.531,368.278 364.127,368.163 363.940 C 368.047 363.753,368.233 363.600,368.576 363.600 C 368.919 363.600,369.200 363.433,369.200 363.229 C 369.200 363.024,369.515 362.542,369.900 362.157 C 370.285 361.772,370.623 361.309,370.650 361.129 C 370.678 360.948,370.736 360.755,370.781 360.700 C 370.825 360.645,370.921 360.289,370.994 359.908 C 371.067 359.527,371.404 358.939,371.743 358.600 C 372.468 357.875,372.545 351.670,371.851 350.000 C 370.915 347.750,368.280 344.253,367.848 344.686 C 367.711 344.822,367.600 344.623,367.600 344.243 C 367.600 343.863,367.432 343.656,367.228 343.783 C 367.023 343.909,366.741 343.827,366.600 343.600 C 365.785 342.281,363.530 342.000,353.755 342.000 C 344.440 342.000,343.985 341.964,343.507 341.200 C 343.232 340.760,342.751 340.400,342.437 340.400 C 342.123 340.400,341.986 340.281,342.131 340.135 C 342.277 339.990,341.677 339.166,340.798 338.305 C 339.919 337.443,339.200 336.579,339.200 336.383 C 339.200 335.868,340.639 335.177,341.012 335.514 C 341.186 335.671,341.199 335.575,341.041 335.300 C 340.766 334.823,341.442 334.607,342.700 334.770 C 342.975 334.806,343.200 334.670,343.200 334.468 C 343.200 334.265,343.718 333.996,344.352 333.870 C 344.985 333.743,345.795 333.348,346.152 332.991 C 346.508 332.635,346.800 332.452,346.800 332.586 C 346.800 332.719,347.123 332.655,347.519 332.443 C 348.379 331.983,350.936 333.057,350.533 333.709 C 350.392 333.937,350.458 334.011,350.680 333.874 C 350.902 333.737,351.906 334.413,352.911 335.376 C 353.916 336.340,354.825 337.042,354.930 336.936 C 355.246 336.621,356.800 337.752,356.800 338.296 C 356.800 338.573,356.935 338.779,357.100 338.753 C 357.885 338.629,358.424 338.838,358.211 339.183 C 357.997 339.528,360.191 340.968,360.534 340.708 C 360.613 340.649,360.930 340.803,361.239 341.052 C 362.038 341.695,368.710 341.772,369.464 341.147 C 369.944 340.749,370.132 340.764,370.424 341.226 C 370.734 341.716,370.789 341.717,370.794 341.233 C 370.797 340.922,370.913 340.780,371.051 340.918 C 371.573 341.440,376.000 337.808,376.000 336.857 C 376.000 336.674,376.360 336.198,376.800 335.800 C 377.240 335.402,377.600 334.744,377.600 334.338 C 377.600 333.932,377.762 333.600,377.960 333.600 C 378.785 333.600,378.468 325.424,377.608 324.501 C 377.164 324.024,376.800 323.356,376.800 323.017 C 376.800 322.678,376.620 322.400,376.400 322.400 C 376.180 322.400,376.000 322.122,376.000 321.782 C 376.000 321.141,374.281 319.200,373.714 319.200 C 373.537 319.200,373.163 318.833,372.883 318.384 C 372.603 317.936,372.219 317.665,372.029 317.782 C 371.839 317.899,371.575 317.712,371.442 317.365 C 371.109 316.498,371.138 316.314,371.566 316.579 C 371.767 316.703,371.992 316.669,372.066 316.502 C 372.140 316.336,372.799 315.705,373.531 315.100 C 374.263 314.495,374.739 314.000,374.588 314.000 C 374.438 314.000,374.874 313.478,375.558 312.840 C 376.241 312.201,376.800 311.391,376.800 311.040 C 376.800 310.688,376.980 310.400,377.200 310.400 C 377.420 310.400,377.600 310.051,377.600 309.624 C 377.600 309.197,377.757 308.750,377.949 308.632 C 378.753 308.134,378.467 301.605,377.552 299.581 C 377.068 298.509,376.558 297.702,376.419 297.788 C 376.280 297.874,376.138 297.575,376.104 297.123 C 376.070 296.672,375.651 296.009,375.174 295.651 C 374.696 295.293,373.966 294.685,373.553 294.300 C 373.139 293.915,372.800 293.703,372.800 293.829 C 372.800 293.954,372.517 293.774,372.171 293.429 C 371.626 292.883,370.492 292.596,369.500 292.753 C 369.335 292.779,369.200 292.657,369.200 292.482 C 369.200 292.307,367.715 292.125,365.900 292.077 C 363.424 292.012,362.750 292.100,363.200 292.429 C 363.666 292.769,363.518 292.819,362.536 292.651 C 361.588 292.488,361.208 292.602,361.015 293.106 C 360.809 293.642,360.690 293.669,360.426 293.242 C 360.163 292.817,359.919 292.881,359.247 293.553 C 358.781 294.019,358.220 294.400,358.000 294.400 C 357.780 294.400,357.600 294.591,357.600 294.824 C 357.600 295.057,357.420 295.136,357.200 295.000 C 356.980 294.864,356.800 294.992,356.800 295.285 C 356.800 295.578,356.178 296.153,355.418 296.562 C 354.658 296.972,354.073 297.508,354.118 297.753 C 354.163 297.999,353.867 298.143,353.460 298.073 C 353.016 297.997,352.825 298.117,352.983 298.373 C 353.129 298.608,353.006 298.800,352.712 298.800 C 352.417 298.800,351.917 299.160,351.600 299.600 C 351.283 300.040,350.886 300.400,350.719 300.400 C 350.369 300.400,348.469 302.000,346.560 303.900 C 345.841 304.615,345.077 305.200,344.860 305.200 C 344.644 305.200,344.407 305.335,344.333 305.500 C 344.141 305.932,340.828 307.600,340.162 307.600 C 339.853 307.600,339.600 307.780,339.600 308.000 C 339.600 308.220,339.229 308.400,338.776 308.400 C 338.323 308.400,338.051 308.560,338.172 308.755 C 338.293 308.950,338.168 309.102,337.896 309.092 C 336.310 309.035,335.576 309.238,335.838 309.662 C 336.006 309.934,335.949 310.016,335.698 309.861 C 335.094 309.487,333.953 310.000,334.264 310.504 C 334.407 310.735,334.348 310.815,334.133 310.682 C 333.918 310.550,333.261 310.691,332.671 310.997 C 332.082 311.302,331.600 311.437,331.600 311.296 C 331.600 311.155,331.384 311.256,331.120 311.520 C 330.445 312.195,330.000 312.117,330.000 311.323 C 330.000 310.619,332.757 307.800,333.446 307.800 C 334.099 307.800,337.200 304.965,337.206 304.362 C 337.211 303.924,337.283 303.912,337.535 304.308 C 337.770 304.678,338.204 304.434,339.138 303.408 C 339.843 302.634,340.609 302.000,340.841 302.000 C 341.073 302.000,341.954 301.280,342.800 300.400 C 343.646 299.520,344.522 298.800,344.749 298.800 C 344.975 298.800,345.344 298.485,345.568 298.100 C 345.792 297.715,345.981 297.551,345.988 297.736 C 345.995 297.921,346.987 297.044,348.194 295.788 C 349.401 294.532,350.290 293.345,350.169 293.150 C 350.048 292.954,350.213 292.693,350.535 292.570 C 351.301 292.276,351.895 290.534,352.017 288.222 C 352.203 284.680,351.978 282.004,351.500 282.100 C 351.191 282.162,351.048 281.855,351.125 281.300 C 351.194 280.805,351.059 280.400,350.825 280.400 C 350.591 280.400,350.400 280.029,350.400 279.576 C 350.400 279.123,350.220 278.864,350.000 279.000 C 349.780 279.136,349.600 278.982,349.600 278.657 C 349.600 278.041,346.786 275.600,346.076 275.600 C 345.851 275.600,345.576 275.375,345.465 275.100 C 345.311 274.718,345.256 274.724,345.232 275.127 C 345.209 275.501,344.863 275.414,344.038 274.827 C 342.776 273.928,337.117 273.616,335.695 274.367 C 335.313 274.568,334.450 274.935,333.779 275.183 C 333.107 275.430,332.091 276.064,331.522 276.592 C 330.146 277.868,330.000 277.614,330.000 273.933 C 330.000 272.111,329.833 270.800,329.600 270.800 C 329.380 270.800,329.200 270.440,329.200 270.000 C 329.200 269.560,329.064 269.200,328.898 269.200 C 328.731 269.200,328.352 268.650,328.054 267.977 C 327.756 267.304,327.418 266.849,327.302 266.964 C 327.187 267.080,326.576 266.525,325.946 265.732 C 325.316 264.939,324.795 264.540,324.788 264.845 C 324.779 265.227,324.648 265.181,324.366 264.696 C 323.905 263.905,321.301 262.690,320.769 263.019 C 320.579 263.137,319.878 262.951,319.212 262.606 C 318.545 262.261,318.000 262.148,318.000 262.355 M182.800 376.225 C 182.030 376.516,181.580 376.783,181.800 376.817 C 182.020 376.852,181.750 377.013,181.200 377.175 C 180.650 377.338,180.249 377.693,180.310 377.965 C 180.370 378.237,180.248 378.353,180.037 378.223 C 179.827 378.093,179.401 378.348,179.091 378.791 C 178.782 379.233,178.409 379.476,178.264 379.331 C 178.119 379.186,178.000 379.367,178.000 379.733 C 178.000 380.100,177.820 380.400,177.600 380.400 C 177.380 380.400,177.221 380.535,177.247 380.700 C 177.373 381.497,177.160 382.022,176.800 381.800 C 176.574 381.661,176.400 381.985,176.400 382.543 C 176.400 383.088,176.211 383.596,175.980 383.673 C 174.854 384.049,175.728 394.000,176.888 394.000 C 177.085 394.000,177.136 394.180,177.000 394.400 C 176.864 394.620,177.053 394.800,177.419 394.800 C 177.832 394.800,178.002 395.017,177.867 395.370 C 177.740 395.701,178.062 396.211,178.637 396.587 C 179.181 396.944,179.545 397.365,179.447 397.524 C 179.349 397.683,179.703 398.018,180.235 398.269 C 180.964 398.613,181.143 398.612,180.966 398.263 C 180.836 398.008,181.096 398.250,181.543 398.800 C 182.743 400.277,192.823 400.356,194.385 398.900 C 194.916 398.405,195.542 397.995,195.775 397.989 C 196.009 397.983,196.650 397.335,197.200 396.549 C 197.750 395.762,198.515 394.777,198.900 394.360 C 199.285 393.942,199.600 393.330,199.600 393.000 C 199.600 392.670,199.743 392.400,199.919 392.400 C 200.094 392.400,200.286 390.312,200.345 387.760 C 200.420 384.552,200.321 383.201,200.027 383.384 C 199.792 383.529,199.600 383.363,199.600 383.015 C 199.600 382.233,197.631 379.200,197.123 379.200 C 196.919 379.200,196.867 379.016,197.006 378.790 C 197.145 378.565,197.111 378.406,196.930 378.437 C 196.123 378.578,195.573 378.367,195.797 378.005 C 195.937 377.778,195.777 377.711,195.421 377.847 C 195.013 378.004,194.800 377.857,194.800 377.419 C 194.800 377.053,194.620 376.864,194.400 377.000 C 194.180 377.136,194.000 377.085,194.000 376.888 C 194.000 375.615,185.710 375.124,182.800 376.225 " stroke="none" fill="#bcf3fc" fill-rule="evenodd"></path><path id="path1" d="M57.600 122.800 C 57.600 123.020,57.060 123.200,56.400 123.200 C 55.740 123.200,55.200 123.380,55.200 123.600 C 55.200 123.820,54.840 124.000,54.400 124.000 C 53.960 124.000,53.600 124.180,53.600 124.400 C 53.600 124.620,53.330 124.800,53.000 124.800 C 52.670 124.800,52.400 124.980,52.400 125.200 C 52.400 125.420,52.130 125.600,51.800 125.600 C 51.467 125.600,51.200 125.956,51.200 126.400 C 51.200 126.844,50.933 127.200,50.600 127.200 C 50.270 127.200,50.000 127.367,50.000 127.571 C 50.000 127.776,49.775 128.181,49.500 128.471 C 48.733 129.282,48.071 130.852,47.844 132.400 C 47.513 134.651,47.122 136.400,46.949 136.400 C 46.740 136.400,45.059 135.459,44.800 135.198 C 43.757 134.144,33.568 133.377,34.200 134.400 C 34.344 134.633,33.937 134.800,33.224 134.800 C 32.551 134.800,32.000 134.980,32.000 135.200 C 32.000 135.420,31.797 135.600,31.548 135.600 C 30.658 135.600,26.843 139.983,27.004 140.821 C 27.089 141.261,26.988 141.516,26.779 141.387 C 26.571 141.258,26.388 141.298,26.372 141.476 C 26.357 141.654,26.245 142.340,26.123 143.000 C 25.670 145.451,25.860 150.800,26.400 150.800 C 26.526 150.800,26.660 151.202,26.697 151.694 C 26.734 152.186,26.952 152.651,27.182 152.727 C 27.412 152.804,27.600 153.082,27.600 153.344 C 27.600 153.607,27.915 154.113,28.300 154.469 C 28.685 154.824,29.576 155.729,30.279 156.479 C 30.983 157.229,32.063 158.103,32.679 158.421 C 33.296 158.740,34.434 159.630,35.209 160.400 C 35.984 161.170,36.860 161.852,37.155 161.915 C 37.451 161.979,38.377 162.744,39.215 163.615 C 40.052 164.487,40.949 165.200,41.208 165.200 C 41.467 165.200,42.156 165.706,42.740 166.325 C 43.323 166.943,44.115 167.567,44.500 167.712 C 44.885 167.857,45.200 168.261,45.200 168.611 C 45.200 168.961,45.348 169.156,45.529 169.044 C 45.957 168.779,47.200 170.237,47.200 171.005 C 47.200 171.332,46.930 171.600,46.600 171.600 C 46.270 171.600,46.000 171.420,46.000 171.200 C 46.000 170.980,45.550 170.800,45.000 170.800 C 44.450 170.800,44.000 170.620,44.000 170.400 C 44.000 170.180,43.640 170.000,43.200 170.000 C 42.760 170.000,42.400 169.820,42.400 169.600 C 42.400 169.380,42.040 169.200,41.600 169.200 C 41.160 169.200,40.800 169.020,40.800 168.800 C 40.800 168.580,40.547 168.400,40.238 168.400 C 39.929 168.400,38.984 168.054,38.138 167.630 C 37.292 167.207,36.015 166.623,35.300 166.333 C 34.585 166.042,34.000 165.669,34.000 165.502 C 34.000 165.336,33.719 165.200,33.376 165.200 C 33.033 165.200,32.840 165.059,32.946 164.887 C 33.053 164.715,32.478 164.131,31.670 163.589 C 30.861 163.048,29.705 162.090,29.100 161.460 C 28.495 160.831,27.997 160.469,27.994 160.658 C 27.991 160.846,27.854 160.789,27.690 160.532 C 27.526 160.275,27.133 160.005,26.817 159.932 C 26.027 159.751,24.466 158.269,24.676 157.900 C 24.770 157.735,24.567 157.600,24.224 157.600 C 23.881 157.600,23.600 157.420,23.600 157.200 C 23.600 156.980,23.402 156.800,23.160 156.800 C 22.919 156.800,22.217 156.260,21.600 155.600 C 20.983 154.940,20.281 154.400,20.040 154.400 C 19.798 154.400,19.600 154.249,19.600 154.064 C 19.600 153.879,18.886 153.492,18.013 153.204 C 17.141 152.916,16.514 152.539,16.621 152.366 C 16.728 152.193,14.740 152.054,12.203 152.057 C 9.492 152.060,7.685 152.214,7.819 152.431 C 7.945 152.634,7.587 152.800,7.024 152.800 C 6.461 152.800,6.000 152.980,6.000 153.200 C 6.000 153.420,5.710 153.600,5.357 153.600 C 4.644 153.600,1.211 157.128,1.204 157.867 C 1.202 158.123,0.975 158.408,0.700 158.500 C 0.330 158.624,0.200 160.210,0.200 164.600 C 0.200 168.992,0.330 170.577,0.700 170.700 C 0.975 170.792,1.200 171.122,1.200 171.433 C 1.200 171.745,1.380 172.000,1.600 172.000 C 1.820 172.000,2.000 172.188,2.000 172.418 C 2.000 172.648,2.450 173.286,3.000 173.836 C 3.550 174.386,4.000 174.719,4.000 174.576 C 4.000 174.433,4.531 174.883,5.179 175.577 C 5.827 176.272,6.462 176.817,6.589 176.790 C 6.716 176.762,7.040 176.829,7.310 176.938 C 7.579 177.048,7.414 177.151,6.942 177.168 C 6.007 177.203,3.472 179.338,3.881 179.747 C 4.020 179.886,3.968 180.000,3.767 180.000 C 3.160 180.001,1.435 181.722,0.797 182.962 C 0.007 184.499,-0.076 195.242,0.700 195.500 C 0.975 195.592,1.200 195.895,1.200 196.174 C 1.200 196.886,3.339 199.045,4.787 199.794 C 5.454 200.138,6.000 200.596,6.000 200.810 C 6.000 201.025,6.529 201.200,7.176 201.200 C 7.823 201.200,8.464 201.380,8.600 201.600 C 8.736 201.820,9.962 202.006,11.324 202.014 C 13.539 202.027,13.704 202.082,12.887 202.535 C 12.386 202.814,12.101 203.167,12.254 203.321 C 12.408 203.474,12.199 203.600,11.789 203.600 C 10.909 203.600,6.800 207.711,6.800 208.592 C 6.800 208.926,6.655 209.200,6.478 209.200 C 6.301 209.200,6.112 209.965,6.058 210.900 C 6.004 211.835,5.789 212.660,5.580 212.733 C 5.074 212.911,5.091 215.485,5.600 215.800 C 5.820 215.936,6.000 216.757,6.000 217.624 C 6.000 218.491,6.158 219.200,6.351 219.200 C 6.545 219.200,6.943 219.785,7.237 220.500 C 7.934 222.196,10.798 225.196,11.724 225.198 C 12.122 225.199,12.336 225.380,12.200 225.600 C 12.060 225.826,12.388 226.000,12.953 226.000 C 13.503 226.000,14.064 226.180,14.200 226.400 C 14.348 226.640,17.015 226.800,20.857 226.800 L 27.266 226.800 27.160 229.900 C 27.101 231.605,27.183 233.450,27.341 234.000 C 28.266 237.223,28.562 238.000,28.864 238.000 C 29.049 238.000,29.200 238.197,29.200 238.437 C 29.200 238.958,30.792 241.052,31.057 240.880 C 31.159 240.814,31.755 241.309,32.382 241.980 C 33.008 242.651,33.863 243.200,34.280 243.200 C 34.698 243.200,35.212 243.372,35.423 243.583 C 35.634 243.794,36.553 244.019,37.464 244.083 C 38.376 244.147,39.039 244.335,38.938 244.500 C 38.836 244.665,39.293 244.800,39.953 244.800 C 40.613 244.800,41.264 244.620,41.400 244.400 C 41.536 244.180,42.357 244.000,43.224 244.000 C 44.091 244.000,44.800 243.820,44.800 243.600 C 44.800 243.380,45.160 243.200,45.600 243.200 C 46.040 243.200,46.400 243.020,46.400 242.800 C 46.400 242.580,46.664 242.400,46.987 242.400 C 47.741 242.400,50.400 239.969,50.400 239.279 C 50.400 238.990,50.580 238.864,50.800 239.000 C 51.020 239.136,51.200 238.967,51.200 238.624 C 51.200 238.281,51.380 238.000,51.600 238.000 C 51.820 238.000,52.000 237.471,52.000 236.824 C 52.000 236.177,52.180 235.536,52.400 235.400 C 52.644 235.249,52.800 232.128,52.800 227.373 L 52.800 219.593 53.900 218.329 C 54.505 217.634,55.306 216.794,55.680 216.461 C 56.053 216.129,56.268 215.709,56.156 215.529 C 56.044 215.348,56.190 215.200,56.480 215.200 C 56.937 215.200,58.264 213.593,58.057 213.291 C 58.016 213.231,58.453 212.711,59.028 212.135 L 60.075 211.089 61.019 212.044 C 61.538 212.570,62.196 213.209,62.481 213.464 C 62.767 213.719,63.990 215.034,65.200 216.386 L 67.400 218.845 67.638 226.123 C 67.879 233.518,68.048 234.847,69.018 237.022 C 69.601 238.327,72.000 241.523,72.000 240.994 C 72.000 240.820,72.336 241.065,72.747 241.539 C 73.158 242.012,73.798 242.400,74.171 242.400 C 74.543 242.400,74.736 242.580,74.600 242.800 C 74.459 243.028,74.804 243.200,75.400 243.200 C 75.996 243.200,76.341 243.372,76.200 243.600 C 76.053 243.838,76.521 244.000,77.353 244.000 C 78.123 244.000,78.864 244.180,79.000 244.400 C 79.360 244.982,81.599 244.896,81.606 244.300 C 81.610 243.967,81.742 244.000,82.000 244.400 C 82.258 244.800,82.390 244.833,82.394 244.500 C 82.398 244.184,82.990 244.000,84.000 244.000 C 84.880 244.000,85.600 243.820,85.600 243.600 C 85.600 243.380,85.960 243.200,86.400 243.200 C 86.840 243.200,87.200 243.020,87.200 242.800 C 87.200 242.580,87.434 242.400,87.719 242.400 C 88.431 242.400,91.600 239.304,91.600 238.609 C 91.600 238.300,91.780 237.936,92.000 237.800 C 92.220 237.664,92.400 237.203,92.400 236.776 C 92.400 236.349,92.580 236.000,92.800 236.000 C 93.043 236.000,93.200 234.200,93.200 231.400 L 93.200 226.800 99.800 226.800 C 103.933 226.800,106.400 226.651,106.400 226.400 C 106.400 226.180,106.760 226.000,107.200 226.000 C 107.640 226.000,108.000 225.820,108.000 225.600 C 108.000 225.380,108.315 225.197,108.700 225.194 C 109.523 225.186,112.000 223.107,112.000 222.424 C 112.000 222.165,112.164 222.054,112.365 222.179 C 112.566 222.303,112.970 221.864,113.263 221.202 C 113.556 220.541,113.931 220.000,114.098 220.000 C 114.264 220.000,114.400 219.471,114.400 218.824 C 114.400 218.177,114.580 217.536,114.800 217.400 C 115.020 217.264,115.200 215.723,115.200 213.976 C 115.200 212.125,115.033 210.800,114.800 210.800 C 114.580 210.800,114.400 210.445,114.400 210.012 C 114.400 208.269,112.045 205.139,109.900 204.032 C 109.295 203.720,108.800 203.315,108.800 203.132 C 108.800 202.950,108.440 202.800,108.000 202.800 C 107.560 202.800,107.200 202.620,107.200 202.400 C 107.200 202.175,108.325 202.000,109.776 202.000 C 111.193 202.000,112.464 201.820,112.600 201.600 C 112.736 201.380,113.197 201.200,113.624 201.200 C 114.051 201.200,114.400 201.020,114.400 200.800 C 114.400 200.580,114.720 200.400,115.112 200.400 C 115.503 200.400,116.083 200.040,116.400 199.600 C 116.717 199.160,117.213 198.800,117.501 198.800 C 117.789 198.800,118.145 198.485,118.292 198.100 C 118.439 197.715,118.888 197.046,119.290 196.614 C 119.691 196.182,119.931 195.597,119.822 195.314 C 119.714 195.031,119.889 194.800,120.213 194.800 C 120.599 194.800,120.800 194.389,120.800 193.600 C 120.800 192.940,120.966 192.400,121.168 192.400 C 121.631 192.400,121.439 187.135,120.898 185.000 C 120.675 184.120,120.467 183.580,120.437 183.800 C 120.407 184.020,120.078 183.584,119.708 182.831 C 118.987 181.369,116.913 179.109,115.077 177.785 C 113.969 176.987,114.500 175.201,115.847 175.200 C 116.412 175.199,118.400 173.353,118.400 172.830 C 118.400 172.567,118.580 172.464,118.800 172.600 C 119.020 172.736,119.200 172.567,119.200 172.224 C 119.200 171.881,119.347 171.600,119.528 171.600 C 119.708 171.600,120.100 170.700,120.400 169.600 C 120.700 168.500,121.053 167.600,121.185 167.600 C 121.627 167.600,121.666 162.088,121.225 161.815 C 120.991 161.671,120.800 161.124,120.800 160.600 C 120.800 160.076,120.620 159.536,120.400 159.400 C 120.180 159.264,120.000 158.793,120.000 158.353 C 120.000 157.913,119.820 157.664,119.600 157.800 C 119.380 157.936,119.200 157.806,119.200 157.512 C 119.200 157.217,118.844 156.720,118.409 156.406 C 117.827 155.987,117.748 155.754,118.109 155.524 C 118.448 155.309,118.377 155.210,117.876 155.206 C 117.478 155.203,117.264 155.020,117.400 154.800 C 117.536 154.580,117.277 154.400,116.824 154.400 C 116.371 154.400,115.999 154.265,115.997 154.100 C 115.993 153.741,114.056 152.800,113.320 152.800 C 113.034 152.800,112.800 152.620,112.800 152.400 C 112.800 152.160,111.208 152.000,108.824 152.000 C 106.604 152.000,104.738 152.177,104.600 152.400 C 104.464 152.620,104.003 152.800,103.576 152.800 C 103.149 152.800,102.800 152.980,102.800 153.200 C 102.800 153.420,102.564 153.600,102.275 153.600 C 101.987 153.600,101.395 153.915,100.960 154.300 C 100.526 154.685,99.547 155.436,98.785 155.970 C 98.023 156.503,96.969 157.448,96.442 158.070 C 95.915 158.691,95.309 159.200,95.095 159.200 C 94.881 159.200,94.086 159.744,93.329 160.409 C 92.572 161.074,91.778 161.510,91.566 161.379 C 91.354 161.248,91.230 161.289,91.290 161.470 C 91.351 161.652,91.310 161.816,91.200 161.836 C 91.090 161.856,90.316 162.536,89.481 163.348 C 88.604 164.199,87.758 164.707,87.481 164.548 C 87.216 164.396,87.126 164.412,87.281 164.583 C 87.648 164.991,86.630 166.000,85.852 166.000 C 85.519 166.000,85.136 166.180,85.000 166.400 C 84.864 166.620,84.403 166.800,83.976 166.800 C 83.549 166.800,83.200 166.980,83.200 167.200 C 83.200 167.420,82.930 167.600,82.600 167.600 C 82.270 167.600,82.000 167.780,82.000 168.000 C 82.000 168.220,81.764 168.400,81.475 168.400 C 81.186 168.400,80.205 168.760,79.294 169.200 C 78.384 169.640,77.360 170.000,77.019 170.000 C 76.679 170.000,76.400 170.180,76.400 170.400 C 76.400 170.620,76.040 170.800,75.600 170.800 C 75.160 170.800,74.800 170.980,74.800 171.200 C 74.800 171.420,74.451 171.600,74.025 171.600 C 73.496 171.600,73.269 171.346,73.310 170.800 C 73.343 170.360,73.518 170.000,73.698 170.000 C 73.879 170.000,74.661 169.366,75.436 168.591 C 76.211 167.815,77.043 167.303,77.285 167.452 C 77.548 167.615,77.610 167.539,77.438 167.262 C 77.281 167.008,77.358 166.800,77.608 166.800 C 77.858 166.800,78.724 166.125,79.531 165.300 C 80.339 164.475,81.489 163.548,82.086 163.240 C 82.684 162.932,83.078 162.527,82.963 162.340 C 82.847 162.153,83.033 162.000,83.376 162.000 C 83.719 162.000,84.000 161.842,84.000 161.649 C 84.000 161.455,84.546 161.071,85.213 160.795 C 85.880 160.518,86.329 160.196,86.211 160.077 C 86.093 159.959,86.762 159.308,87.698 158.631 C 90.104 156.891,92.400 154.691,92.400 154.125 C 92.400 153.861,92.715 153.410,93.101 153.123 C 95.065 151.657,95.433 140.400,93.517 140.400 C 93.343 140.400,93.200 140.112,93.200 139.760 C 93.200 139.409,92.666 138.622,92.014 138.013 C 91.362 137.404,90.922 136.811,91.037 136.696 C 91.152 136.581,90.696 136.244,90.023 135.946 C 89.350 135.648,88.800 135.269,88.800 135.102 C 88.800 134.936,88.440 134.800,88.000 134.800 C 87.560 134.800,87.200 134.641,87.200 134.446 C 87.200 133.932,78.528 133.869,78.211 134.382 C 78.069 134.612,77.603 134.800,77.176 134.800 C 76.749 134.800,76.400 134.980,76.400 135.200 C 76.400 135.420,76.175 135.600,75.900 135.600 C 75.625 135.601,74.877 136.051,74.238 136.600 C 73.599 137.150,73.059 137.600,73.038 137.601 C 73.017 137.601,73.061 136.412,73.136 134.957 C 73.216 133.397,73.093 132.133,72.836 131.876 C 72.596 131.636,72.400 131.099,72.400 130.682 C 72.400 129.394,68.643 124.800,67.590 124.800 C 67.349 124.800,67.281 124.592,67.438 124.338 C 67.607 124.064,67.549 123.985,67.294 124.142 C 67.058 124.288,66.580 124.123,66.232 123.775 C 65.759 123.302,65.598 123.276,65.594 123.671 C 65.589 124.084,65.518 124.091,65.271 123.702 C 65.098 123.428,64.470 123.164,63.878 123.115 C 63.285 123.066,62.800 122.885,62.800 122.713 C 62.800 122.541,61.630 122.400,60.200 122.400 C 58.733 122.400,57.600 122.574,57.600 122.800 M336.559 127.134 C 336.648 127.280,336.168 127.440,335.491 127.489 C 334.814 127.539,334.157 127.719,334.030 127.890 C 333.904 128.061,333.290 128.465,332.666 128.786 C 332.043 129.108,331.003 130.008,330.356 130.786 C 329.709 131.564,328.879 132.518,328.512 132.907 C 327.853 133.606,327.653 134.181,327.486 135.862 C 327.439 136.336,327.278 136.648,327.129 136.556 C 326.727 136.308,326.838 142.089,327.251 142.879 C 327.446 143.252,327.643 144.017,327.690 144.579 C 327.736 145.140,327.915 145.600,328.087 145.600 C 328.259 145.600,328.400 145.830,328.400 146.110 C 328.400 146.742,333.408 152.000,334.010 152.000 C 334.250 152.000,334.336 152.180,334.200 152.400 C 334.064 152.620,334.263 152.800,334.643 152.800 C 335.023 152.800,335.228 152.905,335.099 153.034 C 334.971 153.163,335.751 154.135,336.833 155.194 L 338.800 157.121 338.800 159.960 L 338.800 162.800 335.766 162.800 C 332.243 162.800,333.006 163.362,323.683 153.900 C 323.088 153.296,322.274 152.801,321.876 152.800 C 321.478 152.800,321.264 152.620,321.400 152.400 C 321.536 152.180,321.287 152.000,320.847 152.000 C 320.407 152.000,319.949 151.841,319.829 151.647 C 319.510 151.131,311.600 151.070,311.600 151.584 C 311.600 151.813,311.126 152.000,310.547 152.000 C 309.968 152.000,309.203 152.327,308.847 152.728 C 308.491 153.128,307.885 153.572,307.500 153.715 C 307.115 153.858,306.800 154.251,306.800 154.587 C 306.800 154.924,306.582 155.155,306.315 155.100 C 306.048 155.045,305.645 155.405,305.420 155.900 C 305.195 156.395,304.873 156.800,304.705 156.800 C 304.537 156.800,304.400 157.160,304.400 157.600 C 304.400 158.040,304.220 158.400,304.000 158.400 C 303.780 158.400,303.600 158.760,303.600 159.200 C 303.600 159.640,303.444 160.000,303.253 160.000 C 302.743 160.000,302.674 167.075,303.180 167.388 C 303.411 167.531,303.600 168.087,303.600 168.624 C 303.600 169.161,303.780 169.600,304.000 169.600 C 304.220 169.600,304.400 169.898,304.400 170.262 C 304.400 170.626,305.570 172.071,307.000 173.473 C 309.616 176.039,310.075 176.668,309.037 176.270 C 308.681 176.133,308.297 176.483,307.989 177.227 C 307.722 177.872,307.255 178.400,306.951 178.400 C 306.648 178.400,306.400 178.542,306.400 178.717 C 306.400 178.891,305.815 179.670,305.100 180.448 C 303.761 181.905,303.645 182.149,303.507 183.818 C 303.462 184.358,303.285 184.800,303.113 184.800 C 302.941 184.800,302.800 186.330,302.800 188.200 C 302.800 190.200,302.965 191.600,303.200 191.600 C 303.420 191.600,303.600 192.100,303.600 192.712 C 303.600 193.365,303.930 194.061,304.400 194.400 C 304.840 194.717,305.200 195.297,305.200 195.688 C 305.200 196.080,305.481 196.400,305.824 196.400 C 306.167 196.400,306.353 196.553,306.237 196.740 C 306.122 196.927,306.465 197.314,307.000 197.600 C 307.535 197.886,307.875 198.278,307.757 198.470 C 307.638 198.662,307.689 198.794,307.870 198.763 C 308.778 198.605,309.619 198.845,309.400 199.200 C 309.264 199.420,309.433 199.623,309.776 199.650 C 310.924 199.742,311.132 199.798,311.433 200.100 C 311.886 200.553,319.515 200.461,319.800 200.000 C 319.936 199.780,320.497 199.600,321.047 199.600 C 321.612 199.600,321.940 199.426,321.800 199.200 C 321.664 198.980,321.837 198.800,322.184 198.800 C 322.531 198.800,325.105 196.550,327.903 193.800 L 332.991 188.800 335.895 188.800 L 338.800 188.800 338.800 191.724 C 338.800 194.635,338.793 194.654,337.209 196.024 C 336.334 196.781,335.614 197.559,335.609 197.753 C 335.604 197.947,335.195 198.454,334.700 198.880 C 332.477 200.792,329.200 204.124,329.200 204.473 C 329.200 204.684,328.935 205.122,328.611 205.447 C 327.236 206.821,326.242 215.011,327.396 215.454 C 327.680 215.563,327.839 215.955,327.751 216.326 C 327.662 216.697,327.855 217.450,328.178 218.000 C 328.501 218.550,328.938 219.377,329.150 219.839 C 329.512 220.630,333.257 223.597,333.901 223.602 C 334.065 223.604,334.730 223.881,335.378 224.219 C 337.430 225.289,344.064 224.683,345.702 223.275 C 346.089 222.943,346.511 222.777,346.640 222.906 C 346.945 223.212,351.133 219.094,350.917 218.700 C 350.389 217.736,351.897 218.702,353.891 220.604 C 355.161 221.816,356.515 222.908,356.900 223.031 C 357.285 223.153,357.600 223.452,357.600 223.694 C 357.600 223.935,357.714 224.020,357.853 223.881 C 357.992 223.742,358.465 223.821,358.905 224.056 C 360.257 224.780,367.271 224.860,368.044 224.161 C 368.405 223.834,368.947 223.619,369.250 223.683 C 369.552 223.747,369.751 223.562,369.690 223.270 C 369.624 222.954,369.770 222.858,370.051 223.031 C 370.317 223.196,370.763 222.992,371.078 222.561 C 371.384 222.142,371.762 221.823,371.917 221.850 C 372.480 221.951,373.860 220.579,373.694 220.083 C 373.601 219.804,373.767 219.626,374.062 219.687 C 374.410 219.760,374.565 219.474,374.501 218.877 C 374.443 218.344,374.570 218.058,374.801 218.200 C 375.020 218.336,375.200 218.077,375.200 217.624 C 375.200 217.171,375.380 216.800,375.600 216.800 C 375.820 216.800,376.000 215.900,376.000 214.800 C 376.000 213.688,376.184 212.800,376.414 212.800 C 376.700 212.800,376.700 212.560,376.414 212.026 C 376.186 211.601,376.000 210.431,376.000 209.426 C 376.000 208.422,375.820 207.600,375.600 207.600 C 375.380 207.600,375.200 207.190,375.200 206.689 C 375.200 205.376,374.384 204.367,369.113 199.163 L 364.400 194.509 364.400 191.655 L 364.400 188.800 367.600 188.800 C 369.586 188.800,370.800 188.961,370.800 189.224 C 370.800 189.457,370.980 189.536,371.200 189.400 C 371.420 189.264,371.600 189.444,371.600 189.800 C 371.600 190.156,371.780 190.336,372.000 190.200 C 372.220 190.064,372.400 190.233,372.400 190.576 C 372.400 190.919,372.584 191.200,372.809 191.200 C 373.293 191.200,377.600 195.571,377.600 196.062 C 377.600 196.248,377.881 196.400,378.224 196.400 C 378.567 196.400,378.736 196.580,378.600 196.800 C 378.464 197.020,378.590 197.200,378.880 197.200 C 379.170 197.200,379.632 197.560,379.907 198.000 C 380.182 198.440,380.675 198.800,381.003 198.800 C 381.332 198.800,381.600 198.980,381.600 199.200 C 381.600 199.420,381.960 199.600,382.400 199.600 C 382.840 199.600,383.200 199.790,383.200 200.022 C 383.200 200.693,392.019 200.438,392.710 199.747 C 393.015 199.442,393.430 199.295,393.632 199.420 C 393.835 199.545,394.000 199.457,394.000 199.224 C 394.000 198.991,394.275 198.800,394.611 198.800 C 395.386 198.800,398.800 195.413,398.800 194.644 C 398.800 194.326,399.025 193.992,399.300 193.900 C 399.670 193.777,399.800 192.192,399.800 187.800 C 399.800 183.410,399.670 181.824,399.300 181.700 C 399.025 181.608,398.800 181.280,398.800 180.970 C 398.800 180.660,398.440 180.182,398.000 179.907 C 397.560 179.632,397.200 179.170,397.200 178.880 C 397.200 178.590,397.020 178.464,396.800 178.600 C 396.580 178.736,396.399 178.612,396.399 178.324 C 396.398 178.036,395.859 177.440,395.200 177.000 C 394.090 176.259,393.575 175.200,394.324 175.200 C 394.897 175.200,398.800 171.217,398.800 170.632 C 398.800 170.321,399.025 169.992,399.300 169.900 C 399.670 169.777,399.800 168.191,399.800 163.800 C 399.800 159.409,399.670 157.823,399.300 157.700 C 399.025 157.608,398.800 157.295,398.800 157.003 C 398.800 156.257,395.358 152.800,394.615 152.800 C 394.277 152.800,394.000 152.620,394.000 152.400 C 394.000 152.180,393.460 152.000,392.800 152.000 C 392.140 152.000,391.600 151.843,391.600 151.651 C 391.600 151.459,389.890 151.270,387.800 151.231 C 385.710 151.192,384.000 151.305,384.000 151.482 C 384.000 151.795,381.506 152.797,380.500 152.888 C 380.225 152.913,380.000 153.072,380.000 153.242 C 380.000 153.696,373.248 160.400,372.791 160.400 C 372.576 160.400,372.400 160.604,372.400 160.853 C 372.400 162.115,370.689 162.800,367.539 162.800 L 364.400 162.800 364.400 160.100 C 364.401 157.284,365.179 155.724,366.900 155.085 C 367.285 154.942,367.600 154.571,367.600 154.260 C 367.600 153.949,368.257 153.194,369.059 152.582 C 370.847 151.219,372.800 149.206,372.800 148.727 C 372.800 148.532,373.340 147.845,374.000 147.200 C 374.660 146.555,375.200 145.661,375.200 145.213 C 375.200 144.766,375.380 144.400,375.600 144.400 C 375.820 144.400,376.000 143.688,376.000 142.819 C 376.000 141.949,376.223 140.748,376.495 140.151 C 376.889 139.286,376.889 139.030,376.495 138.898 C 376.191 138.797,376.000 137.974,376.000 136.767 C 376.000 135.685,375.843 134.800,375.650 134.800 C 375.457 134.800,375.189 134.246,375.054 133.568 C 374.812 132.358,372.206 129.200,371.449 129.200 C 371.237 129.200,370.750 128.916,370.367 128.570 C 369.715 127.980,368.922 127.703,367.676 127.631 C 367.388 127.614,367.236 127.465,367.337 127.300 C 367.819 126.515,360.878 126.757,359.346 127.578 C 358.502 128.030,357.667 128.400,357.489 128.400 C 357.093 128.400,356.515 128.858,353.788 131.331 L 351.658 133.261 349.166 130.831 C 347.796 129.494,346.433 128.400,346.137 128.400 C 345.842 128.400,345.600 128.240,345.600 128.044 C 345.600 127.848,344.925 127.570,344.100 127.425 C 341.890 127.039,336.369 126.826,336.559 127.134 M244.600 148.400 C 244.751 148.644,244.137 148.800,243.024 148.800 C 242.021 148.800,241.200 148.980,241.200 149.200 C 241.200 149.420,240.660 149.600,240.000 149.600 C 239.340 149.600,238.800 149.780,238.800 150.000 C 238.800 150.220,238.440 150.400,238.000 150.400 C 237.560 150.400,237.200 150.580,237.200 150.800 C 237.200 151.020,236.840 151.200,236.400 151.200 C 235.960 151.200,235.600 151.380,235.600 151.600 C 235.600 151.820,235.339 152.000,235.020 152.000 C 234.701 152.000,234.256 152.315,234.032 152.700 C 233.808 153.085,233.619 153.251,233.612 153.068 C 233.605 152.886,232.873 153.471,231.985 154.368 C 231.096 155.266,230.196 156.000,229.985 156.000 C 229.773 156.000,229.600 156.172,229.600 156.382 C 229.600 156.592,229.150 157.214,228.600 157.764 C 228.050 158.314,227.600 158.930,227.600 159.133 C 227.600 159.336,227.330 159.726,227.000 160.000 C 226.670 160.274,226.400 160.836,226.400 161.249 C 226.400 161.662,226.220 162.000,226.000 162.000 C 225.780 162.000,225.600 162.450,225.600 163.000 C 225.600 163.550,225.420 164.000,225.200 164.000 C 224.980 164.000,224.800 164.540,224.800 165.200 C 224.800 165.860,224.620 166.400,224.400 166.400 C 224.175 166.400,224.000 167.522,224.000 168.967 C 224.000 170.657,223.829 171.595,223.500 171.714 C 223.105 171.858,223.111 172.083,223.530 172.790 C 223.821 173.281,223.866 173.564,223.630 173.418 C 223.393 173.272,223.200 173.418,223.200 173.743 C 223.200 174.068,223.370 174.393,223.578 174.467 C 223.786 174.540,223.994 175.815,224.041 177.300 C 224.088 178.785,224.278 180.000,224.463 180.000 C 224.648 180.000,224.800 180.349,224.800 180.776 C 224.800 181.203,224.980 181.664,225.200 181.800 C 225.420 181.936,225.600 182.476,225.600 183.000 C 225.600 183.524,225.783 184.066,226.007 184.204 C 226.230 184.342,226.309 184.623,226.183 184.828 C 226.056 185.032,226.143 185.200,226.376 185.200 C 226.609 185.200,226.800 185.432,226.800 185.715 C 226.800 185.998,227.333 186.853,227.984 187.615 C 228.635 188.377,229.175 189.135,229.184 189.300 C 229.209 189.767,230.963 191.412,231.311 191.296 C 231.482 191.239,231.727 191.464,231.854 191.796 C 231.981 192.128,232.297 192.400,232.554 192.400 C 232.812 192.400,233.283 192.760,233.600 193.200 C 233.917 193.640,234.399 194.000,234.671 194.000 C 234.942 194.000,235.847 194.463,236.682 195.030 C 237.517 195.596,238.695 196.159,239.300 196.280 C 239.905 196.401,240.400 196.641,240.400 196.813 C 240.400 197.174,243.399 197.547,248.700 197.846 C 251.189 197.987,252.400 197.915,252.400 197.627 C 252.400 197.392,253.109 197.200,253.976 197.200 C 254.843 197.200,255.664 197.020,255.800 196.800 C 255.936 196.580,256.607 196.400,257.290 196.400 C 257.974 196.400,258.416 196.283,258.273 196.139 C 257.973 195.840,259.816 194.800,260.646 194.800 C 260.951 194.800,261.200 194.620,261.200 194.400 C 261.200 194.180,261.470 194.000,261.800 194.000 C 262.130 194.000,262.400 193.820,262.400 193.600 C 262.400 193.380,262.595 193.200,262.833 193.200 C 263.071 193.200,264.151 192.319,265.233 191.243 C 266.315 190.167,267.200 189.392,267.200 189.521 C 267.200 189.986,269.070 187.208,270.024 185.325 C 270.561 184.266,271.135 183.340,271.300 183.267 C 271.465 183.193,271.600 182.788,271.600 182.367 C 271.600 181.945,271.762 181.600,271.960 181.600 C 272.499 181.600,272.831 178.373,272.845 173.000 C 272.859 167.972,272.533 164.800,272.002 164.800 C 271.830 164.800,271.453 164.002,271.164 163.026 C 270.876 162.050,270.496 161.340,270.320 161.449 C 270.144 161.558,270.000 161.247,270.000 160.757 C 270.000 160.267,269.883 159.984,269.740 160.127 C 269.427 160.439,268.431 159.211,268.413 158.491 C 268.397 157.882,264.192 153.600,263.609 153.600 C 263.384 153.600,263.200 153.464,263.200 153.298 C 263.200 153.131,262.650 152.752,261.977 152.454 C 261.304 152.156,260.856 151.811,260.981 151.686 C 261.191 151.475,260.129 151.001,256.900 149.863 C 256.185 149.610,255.600 149.268,255.600 149.102 C 255.600 148.936,254.689 148.800,253.576 148.800 C 252.329 148.800,251.648 148.647,251.800 148.400 C 251.958 148.144,250.663 148.000,248.200 148.000 C 245.737 148.000,244.442 148.144,244.600 148.400 M31.900 192.871 C 32.615 193.160,33.200 193.531,33.200 193.698 C 33.200 193.864,33.560 194.000,34.000 194.000 C 34.440 194.000,34.800 194.180,34.800 194.400 C 34.800 194.620,35.250 194.800,35.800 194.800 C 36.350 194.800,36.800 194.980,36.800 195.200 C 36.800 195.420,37.141 195.600,37.557 195.600 C 38.628 195.600,38.871 196.573,37.964 197.226 C 37.544 197.529,37.200 197.923,37.200 198.102 C 37.200 198.280,36.583 199.044,35.829 199.798 L 34.458 201.169 26.029 201.284 C 18.498 201.388,16.021 201.138,18.400 200.516 C 18.840 200.401,19.200 200.148,19.200 199.953 C 19.200 199.759,19.481 199.600,19.824 199.600 C 20.167 199.600,20.336 199.420,20.200 199.200 C 20.064 198.980,20.188 198.797,20.476 198.793 C 21.039 198.785,22.953 197.337,24.962 195.400 C 25.646 194.740,26.671 193.960,27.238 193.667 C 27.806 193.374,28.508 192.805,28.798 192.403 C 29.161 191.899,29.524 191.777,29.963 192.009 C 30.313 192.195,31.185 192.583,31.900 192.871 M93.518 193.500 C 96.838 196.613,98.747 198.207,99.002 198.080 C 99.134 198.014,99.755 198.509,100.382 199.180 C 101.008 199.851,101.809 200.400,102.160 200.400 C 102.512 200.400,102.800 200.580,102.800 200.800 C 102.800 201.722,86.243 201.295,85.588 200.356 C 84.637 198.991,82.801 197.086,82.794 197.458 C 82.791 197.646,82.627 197.546,82.431 197.236 C 81.923 196.435,82.350 195.600,83.266 195.600 C 83.696 195.600,83.936 195.420,83.800 195.200 C 83.660 194.974,83.988 194.800,84.553 194.800 C 85.103 194.800,85.664 194.620,85.800 194.400 C 85.936 194.180,86.407 194.000,86.847 194.000 C 87.287 194.000,87.536 193.820,87.400 193.600 C 87.260 193.373,87.596 193.200,88.176 193.200 C 88.739 193.200,89.200 193.020,89.200 192.800 C 89.200 192.580,89.549 192.400,89.976 192.400 C 90.403 192.400,90.864 192.220,91.000 192.000 C 91.346 191.440,91.275 191.397,93.518 193.500 M215.800 265.600 C 215.664 265.820,215.203 266.000,214.776 266.000 C 214.349 266.000,214.000 266.180,214.000 266.400 C 214.000 266.620,213.730 266.800,213.400 266.800 C 212.728 266.800,209.415 269.949,209.743 270.276 C 209.858 270.391,209.603 270.860,209.176 271.318 C 208.749 271.776,208.400 272.567,208.400 273.075 C 208.400 273.584,208.220 274.000,208.000 274.000 C 207.761 274.000,207.600 275.533,207.600 277.800 C 207.600 280.067,207.761 281.600,208.000 281.600 C 208.220 281.600,208.400 282.037,208.400 282.571 C 208.400 283.106,208.686 283.829,209.037 284.179 C 209.387 284.530,209.726 285.127,209.790 285.508 C 209.854 285.889,210.107 286.155,210.353 286.100 C 210.599 286.045,210.807 286.225,210.816 286.500 C 210.892 288.935,222.915 292.079,224.200 290.000 C 224.336 289.780,224.797 289.600,225.224 289.600 C 225.651 289.600,226.000 289.420,226.000 289.200 C 226.000 288.980,226.256 288.800,226.568 288.800 C 227.191 288.800,230.800 285.362,230.800 284.768 C 230.800 284.566,230.980 284.400,231.200 284.400 C 231.420 284.400,231.600 284.029,231.600 283.576 C 231.600 283.123,231.745 282.843,231.923 282.953 C 232.101 283.062,232.291 282.403,232.345 281.486 C 232.399 280.570,232.583 279.726,232.755 279.610 C 233.186 279.320,233.183 276.036,232.751 275.770 C 232.558 275.650,232.400 275.017,232.400 274.362 C 232.400 273.708,232.109 272.728,231.754 272.186 C 231.399 271.644,231.223 271.200,231.363 271.200 C 231.503 271.200,230.627 270.210,229.417 269.000 C 228.207 267.790,226.943 266.800,226.609 266.800 C 226.274 266.800,225.999 266.665,225.997 266.500 C 225.985 265.378,216.457 264.537,215.800 265.600 M100.000 274.400 C 100.000 274.620,99.550 274.800,99.000 274.800 C 98.450 274.800,98.000 274.980,98.000 275.200 C 98.000 275.420,97.705 275.600,97.344 275.600 C 96.983 275.600,96.488 275.860,96.244 276.178 C 96.000 276.496,95.539 276.811,95.220 276.878 C 94.490 277.032,92.759 279.478,92.685 280.461 C 92.655 280.868,92.488 281.200,92.315 281.200 C 92.142 281.200,92.000 281.470,92.000 281.800 C 92.000 282.130,91.820 282.400,91.600 282.400 C 91.358 282.400,91.200 284.133,91.200 286.800 L 91.200 291.200 86.800 291.200 C 84.133 291.200,82.400 291.358,82.400 291.600 C 82.400 291.820,82.040 292.000,81.600 292.000 C 81.160 292.000,80.800 292.180,80.800 292.400 C 80.800 292.620,80.440 292.800,80.000 292.800 C 79.560 292.800,79.200 292.989,79.200 293.221 C 79.200 293.452,78.660 293.830,78.000 294.060 C 77.341 294.290,76.885 294.613,76.987 294.778 C 77.089 294.944,76.864 295.430,76.486 295.860 C 75.430 297.062,74.800 298.308,74.800 299.195 C 74.800 299.638,74.620 300.000,74.400 300.000 C 73.818 300.000,73.902 306.429,74.500 307.717 C 74.775 308.309,75.135 308.795,75.300 308.797 C 75.465 308.799,75.600 309.231,75.600 309.758 C 75.600 311.072,79.665 315.200,80.960 315.200 C 81.286 315.200,81.664 315.380,81.800 315.600 C 81.936 315.820,82.767 316.000,83.647 316.000 C 84.527 316.000,85.145 316.166,85.020 316.368 C 84.885 316.586,87.608 316.754,91.696 316.780 C 95.790 316.806,98.655 316.983,98.734 317.214 C 98.808 317.429,99.033 317.503,99.234 317.379 C 99.435 317.255,99.600 317.361,99.600 317.616 C 99.600 317.871,100.140 318.583,100.800 319.200 C 102.368 320.665,102.331 320.890,100.173 323.048 L 98.346 324.875 92.163 324.820 C 88.763 324.790,85.760 324.903,85.490 325.072 C 85.221 325.240,84.344 325.421,83.543 325.472 C 81.207 325.622,76.026 329.071,76.641 330.066 C 76.756 330.253,76.569 330.514,76.225 330.646 C 75.881 330.778,75.600 331.136,75.600 331.443 C 75.600 331.749,75.409 332.000,75.176 332.000 C 74.943 332.000,74.844 332.148,74.956 332.329 C 75.068 332.509,74.898 333.160,74.580 333.774 C 73.906 335.072,73.756 341.600,74.400 341.600 C 74.620 341.600,74.800 341.960,74.800 342.400 C 74.800 342.840,74.980 343.200,75.200 343.200 C 75.420 343.200,75.600 343.526,75.600 343.925 C 75.600 344.323,75.960 345.036,76.400 345.508 C 76.840 345.980,77.200 346.554,77.200 346.783 C 77.200 347.012,77.346 347.200,77.525 347.200 C 77.703 347.200,78.198 347.515,78.625 347.900 C 79.051 348.285,79.940 348.846,80.600 349.147 C 81.260 349.447,82.113 349.852,82.495 350.047 C 82.877 350.241,84.992 350.400,87.195 350.400 L 91.200 350.400 91.200 354.600 C 91.200 357.133,91.359 358.800,91.600 358.800 C 91.820 358.800,92.000 359.340,92.000 360.000 C 92.000 360.660,92.159 361.200,92.354 361.200 C 92.549 361.200,93.013 361.841,93.385 362.624 C 93.756 363.407,94.362 364.163,94.730 364.304 C 95.099 364.445,95.749 364.884,96.175 365.280 C 96.602 365.676,97.187 366.000,97.475 366.000 C 97.764 366.000,98.000 366.180,98.000 366.400 C 98.000 366.620,98.439 366.800,98.976 366.800 C 99.513 366.800,100.064 366.980,100.200 367.200 C 100.336 367.420,102.067 367.600,104.047 367.600 C 106.345 367.600,107.558 367.455,107.400 367.200 C 107.256 366.967,107.663 366.800,108.376 366.800 C 109.049 366.800,109.600 366.620,109.600 366.400 C 109.600 366.180,109.881 366.000,110.224 366.000 C 110.567 366.000,110.736 365.820,110.600 365.600 C 110.464 365.380,110.639 365.200,110.990 365.200 C 111.633 365.200,114.144 362.941,114.324 362.200 C 114.560 361.232,115.422 359.600,115.698 359.600 C 115.864 359.600,116.000 358.880,116.000 358.000 C 116.000 357.120,116.166 356.400,116.368 356.400 C 116.576 356.400,116.755 353.419,116.781 349.548 L 116.825 342.697 118.648 340.975 C 120.299 339.415,121.600 339.015,121.600 340.066 C 121.600 340.276,121.780 340.336,122.000 340.200 C 122.220 340.064,122.400 340.233,122.400 340.576 C 122.400 340.919,122.552 341.200,122.739 341.200 C 124.392 341.200,124.758 342.533,124.944 349.230 C 125.147 356.486,125.483 359.600,126.064 359.600 C 126.275 359.600,126.344 359.768,126.217 359.972 C 125.922 360.449,127.949 363.436,128.469 363.290 C 128.684 363.230,128.745 363.366,128.604 363.593 C 128.464 363.821,128.765 364.174,129.274 364.378 C 129.793 364.586,129.937 364.763,129.600 364.780 C 129.270 364.797,129.990 365.284,131.200 365.862 C 132.410 366.440,133.713 367.068,134.095 367.257 C 135.022 367.715,140.939 367.697,141.420 367.235 C 141.629 367.034,142.250 366.809,142.800 366.735 C 143.350 366.661,144.070 366.329,144.400 365.997 C 144.730 365.666,145.495 365.140,146.100 364.830 C 146.705 364.519,147.200 364.059,147.200 363.808 C 147.200 363.556,147.560 362.964,148.000 362.492 C 148.440 362.020,148.800 361.345,148.800 360.993 C 148.800 360.641,148.980 360.464,149.200 360.600 C 149.427 360.740,149.600 360.404,149.600 359.824 C 149.600 359.261,149.780 358.800,150.000 358.800 C 150.220 358.800,150.379 358.665,150.353 358.500 C 150.327 358.335,150.327 356.445,150.353 354.300 L 150.400 350.400 154.600 350.400 C 157.133 350.400,158.800 350.241,158.800 350.000 C 158.800 349.780,159.261 349.600,159.824 349.600 C 160.404 349.600,160.740 349.427,160.600 349.200 C 160.464 348.980,160.641 348.800,160.993 348.800 C 161.345 348.800,162.020 348.440,162.492 348.000 C 162.964 347.560,163.556 347.200,163.808 347.200 C 164.059 347.200,164.519 346.705,164.830 346.100 C 165.140 345.495,165.666 344.730,165.997 344.400 C 166.329 344.070,166.663 343.350,166.741 342.800 C 166.818 342.250,167.043 341.497,167.241 341.126 C 167.729 340.211,167.698 334.658,167.202 334.162 C 166.984 333.944,166.764 333.278,166.715 332.682 C 166.666 332.087,166.515 331.600,166.380 331.600 C 166.246 331.600,165.898 331.156,165.607 330.614 C 165.317 330.071,164.927 329.722,164.740 329.837 C 164.553 329.953,164.400 329.798,164.400 329.493 C 164.400 328.856,162.756 327.200,162.123 327.200 C 161.889 327.200,161.467 326.922,161.185 326.582 C 160.903 326.242,160.442 326.052,160.162 326.159 C 159.881 326.267,159.595 326.188,159.526 325.984 C 159.457 325.780,158.537 325.580,157.483 325.541 C 156.429 325.501,155.473 325.318,155.360 325.135 C 155.246 324.951,152.323 324.800,148.865 324.800 C 142.919 324.800,142.545 324.754,141.988 323.956 C 141.665 323.491,140.902 322.569,140.293 321.906 C 139.072 320.576,139.044 320.662,141.479 318.149 L 142.758 316.828 149.377 316.780 C 153.017 316.754,156.097 316.567,156.221 316.366 C 156.345 316.165,157.079 316.000,157.852 316.000 C 158.625 316.000,159.527 315.730,159.857 315.401 C 160.186 315.071,160.938 314.682,161.528 314.535 C 162.701 314.244,165.200 311.769,165.200 310.898 C 165.200 310.598,165.380 310.464,165.600 310.600 C 165.827 310.740,166.000 310.404,166.000 309.824 C 166.000 309.261,166.180 308.800,166.400 308.800 C 166.620 308.800,166.800 308.429,166.800 307.976 C 166.800 307.523,166.980 307.264,167.200 307.400 C 167.455 307.558,167.600 306.345,167.600 304.047 C 167.600 302.067,167.420 300.336,167.200 300.200 C 166.980 300.064,166.800 299.528,166.800 299.010 C 166.800 298.491,166.665 298.007,166.500 297.933 C 166.335 297.860,165.810 297.080,165.334 296.200 C 164.857 295.320,163.957 294.330,163.334 294.000 C 162.710 293.670,162.140 293.265,162.067 293.100 C 161.993 292.935,161.678 292.800,161.367 292.800 C 161.055 292.800,160.800 292.620,160.800 292.400 C 160.800 292.180,160.350 292.000,159.800 292.000 C 159.250 292.000,158.800 291.820,158.800 291.600 C 158.800 291.359,157.133 291.200,154.600 291.200 L 150.400 291.200 150.400 287.246 C 150.400 284.574,150.212 282.929,149.820 282.174 C 149.502 281.560,149.332 280.909,149.444 280.729 C 149.556 280.548,149.457 280.400,149.224 280.400 C 148.991 280.400,148.800 280.220,148.800 280.000 C 148.800 279.780,148.485 279.261,148.100 278.847 C 147.715 278.434,147.130 277.759,146.800 277.347 C 146.036 276.395,143.793 275.141,143.456 275.477 C 143.315 275.618,143.200 275.523,143.200 275.267 C 143.200 275.010,142.840 274.800,142.400 274.800 C 141.960 274.800,141.600 274.620,141.600 274.400 C 141.600 273.756,135.072 273.906,133.774 274.580 C 133.160 274.898,132.509 275.068,132.329 274.956 C 132.148 274.844,132.000 274.943,132.000 275.176 C 132.000 275.409,131.640 275.600,131.200 275.600 C 130.760 275.600,130.399 275.735,130.397 275.900 C 130.396 276.065,129.758 276.634,128.979 277.164 C 128.180 277.709,127.651 278.357,127.765 278.653 C 127.876 278.942,127.731 279.319,127.442 279.489 C 126.795 279.872,125.853 281.598,126.286 281.606 C 126.459 281.609,126.347 281.773,126.037 281.969 C 125.693 282.186,125.468 283.030,125.457 284.137 C 125.448 285.134,125.297 285.860,125.120 285.751 C 124.944 285.642,124.800 288.448,124.800 291.987 L 124.800 298.421 123.011 300.211 C 120.813 302.408,120.787 302.408,118.619 300.240 L 116.859 298.480 116.658 291.940 C 116.429 284.503,116.148 282.221,115.383 281.586 C 115.089 281.342,114.946 280.885,115.067 280.571 C 115.187 280.257,115.130 280.000,114.940 280.000 C 114.751 280.000,114.352 279.450,114.054 278.777 C 113.756 278.104,113.416 277.651,113.297 277.770 C 113.178 277.888,112.748 277.601,112.341 277.132 C 111.933 276.662,111.595 276.440,111.588 276.639 C 111.581 276.837,111.392 276.685,111.168 276.300 C 110.944 275.915,110.499 275.600,110.180 275.600 C 109.861 275.600,109.600 275.420,109.600 275.200 C 109.600 274.980,109.161 274.800,108.624 274.800 C 108.087 274.800,107.536 274.620,107.400 274.400 C 107.264 274.180,105.543 274.000,103.576 274.000 C 101.459 274.000,100.000 274.163,100.000 274.400 " stroke="none" fill="#7ce4fc" fill-rule="evenodd"></path><path id="path2" d="M194.369 6.900 C 194.027 8.020,194.118 8.400,194.628 7.977 C 194.938 7.720,195.093 7.350,194.972 7.155 C 194.765 6.820,194.436 6.681,194.369 6.900 M227.600 10.556 C 227.600 10.642,228.230 10.786,229.000 10.876 C 229.770 10.966,230.400 10.896,230.400 10.720 C 230.400 10.544,229.770 10.400,229.000 10.400 C 228.230 10.400,227.600 10.470,227.600 10.556 M193.200 13.024 C 193.200 13.416,193.015 13.536,192.700 13.347 C 192.360 13.143,192.376 13.263,192.749 13.723 C 193.440 14.575,193.410 14.588,193.508 13.400 C 193.554 12.850,193.503 12.400,193.396 12.400 C 193.288 12.400,193.200 12.681,193.200 13.024 M149.400 31.600 C 149.002 32.040,148.794 32.400,148.938 32.400 C 149.082 32.400,149.560 32.040,150.000 31.600 C 150.440 31.160,150.648 30.800,150.462 30.800 C 150.276 30.800,149.798 31.160,149.400 31.600 M193.200 47.824 C 193.200 48.167,193.020 48.336,192.800 48.200 C 192.580 48.064,192.400 48.143,192.400 48.376 C 192.400 48.609,192.670 48.800,193.000 48.800 C 193.333 48.800,193.600 48.444,193.600 48.000 C 193.600 47.560,193.510 47.200,193.400 47.200 C 193.290 47.200,193.200 47.481,193.200 47.824 M69.876 50.174 C 69.447 50.499,69.317 50.825,69.556 50.973 C 69.778 51.110,70.155 50.857,70.394 50.411 C 70.901 49.463,70.847 49.438,69.876 50.174 M66.000 55.000 C 66.000 55.330,66.180 55.600,66.400 55.600 C 66.620 55.600,66.800 55.330,66.800 55.000 C 66.800 54.670,66.620 54.400,66.400 54.400 C 66.180 54.400,66.000 54.670,66.000 55.000 M168.000 74.200 C 167.592 74.691,167.620 74.800,168.151 74.800 C 168.508 74.800,168.800 74.530,168.800 74.200 C 168.800 73.870,168.732 73.600,168.649 73.600 C 168.566 73.600,168.274 73.870,168.000 74.200 M181.275 77.000 C 180.797 77.550,180.539 77.994,180.703 77.987 C 181.180 77.967,182.591 76.803,182.176 76.772 C 181.969 76.756,182.160 76.589,182.600 76.400 C 183.180 76.151,183.227 76.048,182.772 76.028 C 182.427 76.013,181.753 76.450,181.275 77.000 M214.088 102.067 C 214.040 105.294,213.896 108.264,213.770 108.667 C 213.559 109.338,213.577 109.342,213.981 108.716 C 214.266 108.273,214.379 105.951,214.299 102.116 L 214.177 96.200 214.088 102.067 M173.324 106.200 C 173.326 107.520,173.401 108.012,173.490 107.293 C 173.579 106.574,173.577 105.494,173.486 104.893 C 173.395 104.292,173.322 104.880,173.324 106.200 M239.320 106.400 C 239.320 107.610,239.395 108.105,239.487 107.500 C 239.578 106.895,239.578 105.905,239.487 105.300 C 239.395 104.695,239.320 105.190,239.320 106.400 M171.200 208.800 C 171.200 209.020,171.459 209.200,171.776 209.200 C 172.093 209.200,172.464 209.020,172.600 208.800 C 172.736 208.580,172.477 208.400,172.024 208.400 C 171.571 208.400,171.200 208.580,171.200 208.800 M161.600 213.400 C 161.600 213.730,161.780 214.000,162.000 214.000 C 162.220 214.000,162.400 213.730,162.400 213.400 C 162.400 213.070,162.220 212.800,162.000 212.800 C 161.780 212.800,161.600 213.070,161.600 213.400 M158.893 221.200 C 158.893 221.970,158.975 222.285,159.076 221.900 C 159.176 221.515,159.176 220.885,159.076 220.500 C 158.975 220.115,158.893 220.430,158.893 221.200 M161.638 229.000 C 161.606 229.495,161.997 230.041,162.869 230.723 C 163.453 231.180,163.510 231.142,163.322 230.423 C 163.204 229.970,162.873 229.600,162.587 229.600 C 162.301 229.600,161.976 229.375,161.865 229.100 C 161.754 228.825,161.652 228.780,161.638 229.000 M355.102 337.066 C 355.379 337.177,355.486 337.461,355.341 337.696 C 355.192 337.937,355.263 338.008,355.504 337.859 C 355.739 337.714,356.012 337.821,356.111 338.098 C 356.210 338.374,356.437 338.463,356.616 338.296 C 356.963 337.972,355.672 336.813,355.000 336.844 C 354.780 336.855,354.826 336.954,355.102 337.066 M273.599 341.700 C 273.600 341.865,277.605 341.964,282.500 341.920 C 291.456 341.838,290.418 341.695,279.499 341.503 C 276.254 341.446,273.599 341.535,273.599 341.700 M343.862 341.700 C 343.964 341.865,347.997 342.000,352.824 342.000 C 357.651 342.000,361.600 341.865,361.600 341.700 C 361.600 341.535,357.567 341.400,352.638 341.400 C 347.709 341.400,343.760 341.535,343.862 341.700 M186.900 375.487 C 187.505 375.578,188.495 375.578,189.100 375.487 C 189.705 375.395,189.210 375.320,188.000 375.320 C 186.790 375.320,186.295 375.395,186.900 375.487 M194.803 377.224 C 194.804 377.541,195.389 378.128,196.103 378.529 C 197.358 379.234,197.374 379.234,196.600 378.529 C 196.160 378.128,195.575 377.541,195.300 377.224 C 194.865 376.722,194.800 376.722,194.803 377.224 M328.287 380.568 C 329.069 381.614,329.352 381.663,328.978 380.688 C 328.846 380.344,328.476 379.961,328.156 379.839 C 327.718 379.670,327.750 379.851,328.287 380.568 " stroke="none" fill="#c0ecfc" fill-rule="evenodd"></path><path id="path3" d="M350.528 369.200 C 350.528 370.630,350.601 371.215,350.689 370.500 C 350.778 369.785,350.778 368.615,350.689 367.900 C 350.601 367.185,350.528 367.770,350.528 369.200 " stroke="none" fill="#90ecfc" fill-rule="evenodd"></path><path id="path4" d="M25.356 145.371 C 25.235 145.685,25.204 146.360,25.286 146.871 C 25.395 147.554,25.488 147.404,25.637 146.300 C 25.847 144.747,25.736 144.381,25.356 145.371 M368.803 152.780 C 368.034 153.417,367.506 154.040,367.630 154.163 C 367.754 154.287,368.463 153.761,369.206 152.994 C 370.844 151.303,370.685 151.219,368.803 152.780 M231.054 154.655 C 230.423 155.197,229.999 155.733,230.111 155.845 C 230.223 155.957,230.795 155.568,231.382 154.982 C 232.762 153.602,232.537 153.378,231.054 154.655 M243.600 197.600 C 243.600 197.820,244.005 197.997,244.500 197.994 C 245.228 197.989,245.285 197.914,244.800 197.600 C 244.024 197.099,243.600 197.099,243.600 197.600 M376.006 211.100 C 376.024 211.977,376.788 212.559,376.794 211.700 C 376.797 211.205,376.620 210.800,376.400 210.800 C 376.180 210.800,376.003 210.935,376.006 211.100 M9.170 223.747 C 10.252 224.923,10.466 225.038,10.180 224.291 C 10.072 224.012,9.583 223.538,9.092 223.239 C 8.241 222.720,8.245 222.744,9.170 223.747 M26.931 229.400 C 26.933 230.940,27.005 231.521,27.092 230.691 C 27.179 229.861,27.177 228.601,27.089 227.891 C 27.000 227.181,26.929 227.860,26.931 229.400 M209.702 269.700 C 209.484 269.975,209.079 270.650,208.801 271.200 L 208.296 272.200 209.097 271.400 C 209.537 270.960,209.832 270.527,209.752 270.437 C 209.672 270.347,209.807 270.032,210.052 269.737 C 210.297 269.442,210.408 269.200,210.298 269.200 C 210.188 269.200,209.920 269.425,209.702 269.700 M125.044 356.600 C 125.373 358.071,125.602 358.390,125.594 357.367 C 125.591 356.945,125.405 356.330,125.182 356.000 C 124.885 355.562,124.848 355.724,125.044 356.600 M350.734 369.401 C 350.660 370.831,350.735 372.001,350.900 372.001 C 351.065 372.000,351.200 370.830,351.200 369.400 C 351.200 366.043,350.907 366.043,350.734 369.401 " stroke="none" fill="#7cf0fc" fill-rule="evenodd"></path></g></svg>