<svg id="svg" version="1.1" xmlns="http://www.w3.org/2000/svg" xmlns:xlink="http://www.w3.org/1999/xlink" width="400" height="400" viewBox="0, 0, 400,400"><g id="svgg"><path id="path0" d="M195.000 8.496 C 193.240 10.261,191.843 11.855,191.895 12.038 C 191.948 12.221,191.749 12.279,191.454 12.166 C 191.160 12.052,190.612 12.428,190.237 13.000 C 189.862 13.572,188.485 15.127,187.178 16.455 C 185.870 17.783,184.800 19.052,184.800 19.274 C 184.800 19.497,184.260 20.183,183.600 20.800 C 182.940 21.417,182.400 22.120,182.400 22.364 C 182.400 22.608,181.860 23.372,181.200 24.063 C 180.073 25.242,179.825 25.737,179.963 26.530 C 179.994 26.711,179.835 26.745,179.610 26.606 C 179.384 26.467,179.200 26.633,179.200 26.976 C 179.200 27.319,179.020 27.600,178.800 27.600 C 178.580 27.600,178.400 27.845,178.400 28.144 C 178.400 28.443,177.858 29.703,177.196 30.944 C 176.534 32.185,176.081 33.200,176.189 33.200 C 176.298 33.200,176.029 33.835,175.593 34.612 C 175.157 35.389,174.800 36.469,174.800 37.012 C 174.800 37.555,174.620 38.000,174.400 38.000 C 174.180 38.000,174.000 38.720,174.000 39.600 C 174.000 40.480,173.820 41.200,173.600 41.200 C 173.380 41.200,173.200 42.190,173.200 43.400 C 173.200 44.610,173.020 45.600,172.800 45.600 C 171.974 45.600,172.306 54.591,173.160 55.364 C 173.658 55.814,174.012 55.905,174.184 55.626 C 174.329 55.392,175.517 55.200,176.824 55.200 C 178.131 55.200,179.200 55.034,179.200 54.832 C 179.200 54.404,182.702 54.093,192.200 53.679 C 195.940 53.515,199.297 53.239,199.660 53.064 C 200.042 52.879,200.430 52.925,200.583 53.173 C 200.754 53.448,203.242 53.600,207.600 53.600 C 211.670 53.600,214.451 53.759,214.600 54.000 C 214.736 54.220,216.187 54.400,217.824 54.400 C 219.461 54.400,220.800 54.549,220.800 54.732 C 220.800 54.914,221.745 55.102,222.900 55.150 C 224.055 55.198,225.360 55.296,225.800 55.367 C 227.363 55.621,227.600 54.932,227.600 50.127 C 227.600 47.180,227.458 45.641,227.200 45.800 C 226.950 45.955,226.800 45.130,226.800 43.600 C 226.800 42.070,226.650 41.245,226.400 41.400 C 226.155 41.551,226.000 40.930,226.000 39.800 C 226.000 38.670,225.845 38.049,225.600 38.200 C 225.380 38.336,225.200 38.113,225.200 37.704 C 225.200 37.295,224.975 36.718,224.700 36.421 C 224.300 35.990,224.300 35.939,224.700 36.165 C 225.358 36.536,225.331 36.218,224.557 34.460 C 223.263 31.524,222.637 30.453,222.327 30.645 C 222.152 30.753,222.115 30.567,222.243 30.231 C 222.372 29.895,222.189 29.331,221.835 28.978 C 221.482 28.625,221.283 28.189,221.394 28.010 C 221.505 27.830,221.325 27.580,220.994 27.453 C 220.663 27.326,220.434 27.082,220.485 26.911 C 220.604 26.511,219.232 24.393,218.310 23.553 C 217.920 23.197,217.600 22.684,217.600 22.414 C 217.600 22.143,217.060 21.417,216.400 20.800 C 215.740 20.183,215.200 19.478,215.200 19.232 C 215.200 18.986,214.075 17.631,212.700 16.219 C 211.325 14.808,209.557 12.966,208.771 12.127 C 201.142 3.979,199.846 3.637,195.000 8.496 M62.077 61.831 C 60.820 62.712,61.149 88.041,62.435 89.380 C 62.636 89.589,62.800 90.433,62.800 91.256 C 62.800 92.079,62.980 92.864,63.200 93.000 C 63.420 93.136,63.600 93.777,63.600 94.424 C 63.600 95.071,63.780 95.600,64.000 95.600 C 64.220 95.600,64.400 96.140,64.400 96.800 C 64.400 97.460,64.580 98.000,64.800 98.000 C 65.020 98.000,65.200 98.540,65.200 99.200 C 65.200 99.860,65.380 100.400,65.600 100.400 C 65.820 100.400,66.000 100.760,66.000 101.200 C 66.000 101.640,66.180 102.000,66.400 102.000 C 66.620 102.000,66.800 102.360,66.800 102.800 C 66.800 103.240,66.980 103.600,67.200 103.600 C 67.420 103.600,67.600 103.960,67.600 104.400 C 67.600 104.840,67.736 105.200,67.902 105.200 C 68.069 105.200,68.444 105.741,68.737 106.402 C 69.030 107.064,69.434 107.503,69.635 107.379 C 69.836 107.254,70.000 107.484,70.000 107.888 C 70.000 108.293,70.360 108.883,70.800 109.200 C 71.240 109.517,71.600 109.978,71.600 110.225 C 71.600 110.986,75.078 114.400,75.860 114.406 C 76.389 114.411,76.455 114.504,76.092 114.734 C 75.724 114.969,75.860 115.204,76.592 115.596 C 77.147 115.893,77.600 116.285,77.600 116.468 C 77.600 117.772,80.097 115.974,81.168 113.900 C 81.480 113.295,81.885 112.800,82.068 112.800 C 82.250 112.800,82.400 112.519,82.400 112.176 C 82.400 111.833,82.580 111.664,82.800 111.800 C 83.020 111.936,83.200 111.752,83.200 111.392 C 83.200 111.032,83.927 110.039,84.816 109.185 C 85.704 108.331,86.427 107.538,86.422 107.423 C 86.417 107.307,87.085 106.466,87.907 105.553 C 88.728 104.641,89.805 103.442,90.300 102.889 C 90.795 102.336,91.200 101.735,91.200 101.553 C 91.200 101.020,100.465 91.901,102.225 90.702 C 103.112 90.098,104.684 88.781,105.718 87.775 C 106.753 86.770,107.600 86.063,107.600 86.206 C 107.600 86.349,108.306 85.731,109.169 84.833 C 110.031 83.935,110.933 83.200,111.172 83.200 C 111.412 83.200,112.172 82.660,112.863 82.000 C 113.554 81.340,114.280 80.800,114.478 80.800 C 115.032 80.800,116.800 78.902,116.800 78.307 C 116.800 77.621,111.787 72.346,111.453 72.680 C 111.314 72.819,111.200 72.633,111.200 72.267 C 111.200 71.900,110.928 71.600,110.596 71.600 C 110.264 71.600,109.434 71.066,108.751 70.414 C 108.068 69.761,106.990 68.997,106.355 68.716 C 105.720 68.435,105.200 68.069,105.200 67.902 C 105.200 67.736,104.840 67.600,104.400 67.600 C 103.960 67.600,103.600 67.420,103.600 67.200 C 103.600 66.980,103.240 66.800,102.800 66.800 C 102.360 66.800,102.000 66.620,102.000 66.400 C 102.000 66.180,101.651 66.000,101.224 66.000 C 100.797 66.000,100.336 65.820,100.200 65.600 C 100.064 65.380,99.513 65.200,98.976 65.200 C 98.439 65.200,98.000 65.059,98.000 64.887 C 98.000 64.715,97.515 64.534,96.922 64.485 C 96.330 64.436,95.745 64.242,95.622 64.053 C 95.417 63.737,94.599 63.525,91.400 62.958 C 90.740 62.841,89.840 62.586,89.400 62.392 C 86.937 61.304,63.516 60.823,62.077 61.831 M315.600 61.594 C 315.270 61.811,314.066 61.991,312.924 61.994 C 311.782 61.997,310.736 62.180,310.600 62.400 C 310.464 62.620,309.744 62.800,309.000 62.800 C 308.256 62.800,307.536 62.980,307.400 63.200 C 307.264 63.420,306.533 63.600,305.776 63.600 C 305.019 63.600,304.400 63.780,304.400 64.000 C 304.400 64.220,303.860 64.400,303.200 64.400 C 302.540 64.400,302.000 64.580,302.000 64.800 C 302.000 65.020,301.449 65.200,300.776 65.200 C 300.063 65.200,299.656 65.367,299.800 65.600 C 299.940 65.827,299.604 66.000,299.024 66.000 C 298.461 66.000,298.000 66.180,298.000 66.400 C 298.000 66.620,297.640 66.800,297.200 66.800 C 296.760 66.800,296.400 66.980,296.400 67.200 C 296.400 67.420,296.040 67.600,295.600 67.600 C 295.160 67.600,294.800 67.780,294.800 68.000 C 294.800 68.220,294.530 68.400,294.200 68.400 C 293.870 68.400,293.600 68.550,293.600 68.732 C 293.600 68.915,293.105 69.320,292.500 69.632 C 291.895 69.945,290.983 70.608,290.474 71.108 C 289.965 71.607,289.352 71.894,289.112 71.746 C 288.851 71.585,288.791 71.662,288.962 71.938 C 289.119 72.192,289.075 72.400,288.864 72.400 C 288.542 72.400,285.953 74.861,283.780 77.234 C 282.853 78.246,284.101 80.800,285.522 80.800 C 285.720 80.800,286.416 81.295,287.068 81.900 C 287.721 82.505,288.489 83.052,288.774 83.115 C 289.059 83.179,289.977 83.944,290.815 84.815 C 291.652 85.687,292.486 86.404,292.669 86.408 C 292.851 86.412,293.808 87.230,294.796 88.225 C 295.784 89.219,296.998 90.135,297.493 90.259 C 297.989 90.384,298.295 90.646,298.174 90.843 C 298.052 91.039,298.138 91.200,298.365 91.200 C 298.975 91.200,308.026 100.318,309.485 102.402 C 310.176 103.391,311.487 105.010,312.396 106.000 C 313.306 106.990,314.669 108.478,315.425 109.307 C 316.181 110.135,316.800 111.041,316.800 111.318 C 316.800 111.596,317.160 112.083,317.600 112.400 C 318.040 112.717,318.400 113.172,318.400 113.410 C 318.400 115.036,322.068 117.441,322.567 116.143 C 322.705 115.781,322.912 115.579,323.026 115.692 C 323.311 115.977,327.600 111.744,327.600 111.178 C 327.600 110.927,328.140 110.217,328.800 109.600 C 329.460 108.983,330.000 108.364,330.000 108.223 C 330.000 108.082,330.360 107.580,330.800 107.108 C 331.240 106.636,331.600 105.923,331.600 105.525 C 331.600 105.126,331.746 104.800,331.925 104.800 C 332.104 104.800,332.498 104.170,332.800 103.400 C 333.102 102.630,333.496 102.000,333.675 102.000 C 333.854 102.000,334.000 101.640,334.000 101.200 C 334.000 100.760,334.180 100.400,334.400 100.400 C 334.620 100.400,334.800 99.860,334.800 99.200 C 334.800 98.540,334.980 98.000,335.200 98.000 C 335.420 98.000,335.600 97.460,335.600 96.800 C 335.600 96.140,335.780 95.600,336.000 95.600 C 336.220 95.600,336.379 95.465,336.353 95.300 C 336.172 94.158,336.465 92.393,336.800 92.600 C 337.041 92.749,337.200 92.212,337.200 91.247 C 337.200 90.367,337.380 89.536,337.600 89.400 C 337.820 89.264,338.000 87.983,338.000 86.553 C 338.000 84.921,338.149 84.045,338.400 84.200 C 339.348 84.786,338.895 62.512,337.945 61.846 C 336.922 61.130,316.656 60.901,315.600 61.594 M198.143 97.755 C 195.350 99.307,194.135 102.021,195.300 104.105 C 196.952 107.061,198.125 107.513,204.800 107.769 C 211.801 108.038,215.307 108.378,215.780 108.834 C 215.989 109.035,216.923 109.200,217.856 109.200 C 218.789 109.200,219.664 109.380,219.800 109.600 C 219.936 109.820,220.568 110.000,221.205 110.000 C 221.841 110.000,222.776 110.161,223.281 110.358 C 223.787 110.555,225.010 110.933,226.000 111.197 C 226.990 111.462,228.113 111.840,228.495 112.039 C 228.877 112.238,229.464 112.400,229.799 112.400 C 230.134 112.400,231.172 112.740,232.104 113.156 C 233.037 113.571,234.520 114.183,235.400 114.514 C 241.143 116.679,253.849 124.014,256.000 126.407 C 256.330 126.774,256.813 127.148,257.073 127.237 C 258.810 127.835,270.405 139.338,272.329 142.374 C 272.687 142.938,273.268 143.670,273.621 144.000 C 274.503 144.825,278.997 151.573,280.650 154.555 C 288.018 167.848,291.773 181.008,292.247 195.200 C 292.469 201.868,292.918 203.036,295.895 204.700 C 297.858 205.798,301.021 204.504,302.147 202.143 C 303.820 198.634,301.597 181.095,297.998 169.400 C 297.524 167.860,297.034 166.240,296.910 165.800 C 296.786 165.360,296.557 164.820,296.400 164.600 C 296.244 164.380,295.871 163.345,295.571 162.300 C 295.271 161.255,294.885 160.400,294.713 160.400 C 294.541 160.400,294.400 160.147,294.400 159.838 C 294.400 159.186,293.263 156.783,290.313 151.200 C 280.702 133.014,264.414 117.321,245.600 108.121 C 238.161 104.484,235.938 103.603,228.800 101.468 C 218.783 98.470,200.779 96.290,198.143 97.755 M46.000 172.800 C 46.423 173.073,45.870 173.190,44.124 173.194 C 42.762 173.197,41.536 173.380,41.400 173.600 C 41.264 173.820,40.544 174.000,39.800 174.000 C 39.056 174.000,38.336 174.180,38.200 174.400 C 38.064 174.620,37.423 174.800,36.776 174.800 C 36.129 174.800,35.600 174.980,35.600 175.200 C 35.600 175.420,35.240 175.600,34.800 175.600 C 34.360 175.600,34.000 175.763,34.000 175.963 C 34.000 176.162,33.642 176.232,33.205 176.117 C 32.701 175.985,32.319 176.145,32.162 176.555 C 32.026 176.910,31.587 177.200,31.186 177.200 C 30.785 177.200,30.187 177.470,29.857 177.800 C 29.527 178.130,28.884 178.400,28.429 178.400 C 27.973 178.400,27.600 178.580,27.600 178.800 C 27.600 179.020,27.340 179.200,27.023 179.200 C 26.705 179.200,26.202 179.548,25.904 179.973 C 25.606 180.398,25.101 180.803,24.781 180.873 C 24.462 180.943,23.909 181.315,23.553 181.700 C 23.197 182.085,22.684 182.400,22.414 182.400 C 22.143 182.400,21.417 182.940,20.800 183.600 C 20.183 184.260,19.486 184.800,19.251 184.800 C 19.015 184.800,15.757 187.850,12.011 191.577 L 5.200 198.355 5.200 200.201 C 5.200 201.330,5.355 201.951,5.600 201.800 C 5.820 201.664,6.000 201.732,6.000 201.951 C 6.000 202.508,10.823 207.422,11.250 207.300 C 11.443 207.245,11.555 207.364,11.500 207.565 C 11.382 207.998,18.735 215.200,19.295 215.200 C 19.506 215.200,20.183 215.740,20.800 216.400 C 21.417 217.060,22.169 217.600,22.472 217.600 C 22.775 217.600,23.283 217.960,23.600 218.400 C 23.917 218.840,24.457 219.200,24.800 219.200 C 25.143 219.200,25.683 219.560,26.000 220.000 C 26.317 220.440,26.807 220.800,27.088 220.800 C 27.370 220.800,27.600 220.980,27.600 221.200 C 27.600 221.420,27.945 221.600,28.367 221.600 C 28.788 221.600,29.193 221.735,29.267 221.900 C 29.519 222.467,33.145 224.081,33.572 223.817 C 33.807 223.672,34.000 223.715,34.000 223.912 C 34.000 224.454,35.879 225.200,37.242 225.200 C 37.944 225.200,38.344 225.367,38.200 225.600 C 38.051 225.842,38.596 226.000,39.576 226.000 C 40.469 226.000,41.200 226.180,41.200 226.400 C 41.200 226.623,42.275 226.800,43.624 226.800 C 45.137 226.800,45.954 226.950,45.800 227.200 C 45.221 228.137,54.439 227.678,55.262 226.729 C 55.690 226.235,55.850 225.755,55.633 225.620 C 55.421 225.489,55.204 224.432,55.151 223.270 C 55.098 222.108,54.908 221.067,54.728 220.955 C 54.547 220.844,54.400 219.323,54.400 217.576 C 54.400 215.725,54.233 214.400,54.000 214.400 C 53.741 214.400,53.600 209.267,53.600 199.800 C 53.600 190.333,53.741 185.200,54.000 185.200 C 54.231 185.200,54.400 183.933,54.400 182.200 C 54.400 180.383,54.565 179.200,54.818 179.200 C 55.047 179.200,55.206 178.975,55.170 178.700 C 54.957 177.062,55.251 173.985,55.600 174.200 C 56.214 174.579,56.078 174.212,55.253 173.261 C 54.569 172.473,54.120 172.401,49.953 172.406 C 46.866 172.410,45.593 172.537,46.000 172.800 M345.308 172.931 C 344.363 173.410,343.759 174.400,344.413 174.400 C 344.626 174.400,344.800 175.379,344.800 176.576 C 344.800 177.773,344.980 178.864,345.200 179.000 C 345.420 179.136,345.600 180.662,345.600 182.390 C 345.600 184.199,345.776 185.592,346.014 185.671 C 346.288 185.763,346.427 190.582,346.427 200.000 C 346.427 209.418,346.288 214.237,346.014 214.329 C 345.776 214.408,345.600 215.801,345.600 217.610 C 345.600 219.338,345.420 220.864,345.200 221.000 C 344.980 221.136,344.800 222.212,344.800 223.390 C 344.800 224.569,344.608 225.597,344.374 225.675 C 344.126 225.758,344.271 226.190,344.721 226.709 C 345.562 227.679,354.400 228.128,354.400 227.200 C 354.400 226.980,355.390 226.800,356.600 226.800 C 357.810 226.800,358.800 226.620,358.800 226.400 C 358.800 226.180,359.520 226.000,360.400 226.000 C 361.280 226.000,362.000 225.820,362.000 225.600 C 362.000 225.380,362.510 225.200,363.133 225.200 C 363.757 225.200,364.402 225.065,364.567 224.900 C 364.732 224.735,364.987 224.585,365.133 224.566 C 366.053 224.451,370.486 222.341,371.132 221.711 C 371.425 221.426,371.830 221.295,372.032 221.420 C 372.235 221.545,372.400 221.457,372.400 221.224 C 372.400 220.991,372.670 220.800,373.000 220.800 C 373.330 220.800,373.600 220.632,373.600 220.427 C 373.600 220.222,373.966 219.938,374.413 219.796 C 374.860 219.654,375.662 219.102,376.195 218.569 C 376.728 218.036,377.452 217.600,377.805 217.600 C 378.158 217.600,378.336 217.420,378.200 217.200 C 378.064 216.980,378.194 216.800,378.488 216.800 C 378.783 216.800,379.283 216.440,379.600 216.000 C 379.917 215.560,380.417 215.200,380.710 215.200 C 381.004 215.200,382.304 214.120,383.600 212.800 C 384.896 211.480,386.134 210.400,386.351 210.400 C 386.568 210.400,386.848 210.079,386.973 209.687 C 387.097 209.294,387.739 208.654,388.399 208.264 C 389.060 207.874,389.600 207.413,389.600 207.240 C 389.600 207.066,390.590 205.902,391.800 204.653 C 393.010 203.404,394.000 202.195,394.000 201.967 C 394.000 201.739,394.180 201.664,394.400 201.800 C 394.644 201.951,394.800 201.339,394.800 200.230 C 394.800 198.489,394.658 198.266,391.435 194.978 C 389.585 193.090,387.742 191.107,387.340 190.572 C 386.939 190.038,386.463 189.600,386.283 189.600 C 386.103 189.600,384.896 188.520,383.600 187.200 C 382.304 185.880,381.037 184.800,380.783 184.800 C 380.529 184.800,379.817 184.260,379.200 183.600 C 378.583 182.940,377.831 182.400,377.528 182.400 C 377.225 182.400,376.724 182.050,376.415 181.621 C 376.107 181.193,375.726 180.922,375.569 181.019 C 375.412 181.116,375.181 180.926,375.054 180.598 C 374.928 180.269,374.549 180.000,374.213 180.000 C 373.876 180.000,373.600 179.820,373.600 179.600 C 373.600 179.380,373.330 179.200,373.000 179.200 C 372.670 179.200,372.400 179.020,372.400 178.800 C 372.400 178.580,372.040 178.400,371.600 178.400 C 371.160 178.400,370.799 178.265,370.799 178.100 C 370.797 177.863,367.677 176.361,366.800 176.175 C 366.690 176.152,366.060 175.892,365.400 175.596 C 364.740 175.301,363.768 175.010,363.239 174.949 C 362.711 174.888,362.090 174.650,361.859 174.419 C 361.629 174.189,360.846 174.000,360.120 174.000 C 359.394 174.000,358.800 173.820,358.800 173.600 C 358.800 173.380,357.821 173.200,356.624 173.200 C 355.427 173.200,354.350 173.042,354.231 172.849 C 353.912 172.334,346.350 172.403,345.308 172.931 M77.187 283.786 C 76.864 284.108,75.655 285.296,74.500 286.426 C 73.345 287.556,72.400 288.653,72.400 288.864 C 72.400 289.075,72.192 289.119,71.938 288.962 C 71.670 288.796,71.584 288.851,71.734 289.093 C 71.875 289.322,71.363 290.195,70.596 291.033 C 69.828 291.871,69.200 292.791,69.200 293.078 C 69.200 293.365,69.020 293.600,68.800 293.600 C 68.580 293.600,68.400 293.870,68.400 294.200 C 68.400 294.530,68.220 294.800,68.000 294.800 C 67.780 294.800,67.600 294.991,67.600 295.224 C 67.600 295.457,67.825 295.533,68.100 295.393 C 68.375 295.253,68.195 295.497,67.700 295.934 C 67.205 296.371,66.800 297.014,66.800 297.364 C 66.800 297.714,66.620 298.000,66.400 298.000 C 66.180 298.000,66.000 298.360,66.000 298.800 C 66.000 299.240,65.820 299.600,65.600 299.600 C 65.380 299.600,65.200 300.140,65.200 300.800 C 65.200 301.460,65.020 302.000,64.800 302.000 C 64.580 302.000,64.400 302.540,64.400 303.200 C 64.400 303.860,64.220 304.400,64.000 304.400 C 63.780 304.400,63.600 305.019,63.600 305.776 C 63.600 306.533,63.420 307.264,63.200 307.400 C 62.980 307.536,62.800 308.231,62.800 308.944 C 62.800 309.657,62.636 310.411,62.435 310.620 C 61.293 311.810,60.783 336.703,61.874 337.978 C 62.661 338.898,84.061 339.272,84.615 338.376 C 84.743 338.169,85.701 338.000,86.744 338.000 C 87.787 338.000,88.811 337.838,89.020 337.641 C 89.229 337.444,90.120 337.180,91.000 337.056 C 94.478 336.566,95.600 336.298,95.600 335.956 C 95.600 335.760,96.039 335.600,96.576 335.600 C 97.113 335.600,97.664 335.420,97.800 335.200 C 97.936 334.980,98.577 334.800,99.224 334.800 C 99.871 334.800,100.400 334.620,100.400 334.400 C 100.400 334.180,100.760 334.000,101.200 334.000 C 101.640 334.000,102.000 333.820,102.000 333.600 C 102.000 333.380,102.360 333.200,102.800 333.200 C 103.240 333.200,103.600 333.062,103.600 332.894 C 103.600 332.726,104.275 332.294,105.100 331.934 C 105.925 331.575,106.990 330.947,107.466 330.540 C 109.255 329.012,109.840 328.585,110.892 328.040 C 111.486 327.732,111.878 327.327,111.763 327.140 C 111.647 326.953,111.748 326.800,111.987 326.800 C 112.482 326.800,116.186 323.206,115.711 323.188 C 115.540 323.181,115.715 322.992,116.100 322.768 C 117.328 322.053,116.101 319.487,114.349 319.109 C 114.072 319.049,113.243 318.415,112.509 317.700 C 111.774 316.985,111.005 316.400,110.800 316.400 C 110.595 316.400,109.788 315.761,109.007 314.980 C 108.226 314.199,107.410 313.670,107.194 313.804 C 106.977 313.938,106.796 313.812,106.791 313.524 C 106.787 313.236,106.132 312.460,105.336 311.800 C 104.540 311.140,103.554 310.285,103.144 309.900 C 102.735 309.515,102.232 309.200,102.026 309.200 C 101.506 309.200,91.811 299.542,91.218 298.433 C 90.601 297.281,89.347 295.782,87.700 294.231 C 86.985 293.557,86.400 292.855,86.400 292.671 C 86.400 292.488,85.680 291.646,84.800 290.800 C 83.920 289.954,83.200 289.018,83.200 288.720 C 83.200 288.421,82.840 287.917,82.400 287.600 C 81.960 287.283,81.600 286.828,81.600 286.590 C 81.600 284.896,78.225 282.751,77.187 283.786 M320.407 284.186 C 320.117 284.729,319.740 285.086,319.569 284.981 C 319.398 284.875,319.141 285.157,318.998 285.607 C 318.855 286.057,318.325 286.839,317.820 287.343 C 317.315 287.848,316.688 288.661,316.427 289.150 C 315.896 290.143,314.869 291.352,311.506 294.947 C 310.244 296.296,309.209 297.620,309.206 297.889 C 309.198 298.538,298.521 309.200,297.879 309.200 C 297.281 309.200,293.200 313.080,293.200 313.649 C 293.200 313.868,293.040 313.948,292.844 313.827 C 292.649 313.706,291.749 314.326,290.844 315.204 C 289.939 316.082,288.969 316.800,288.688 316.800 C 288.407 316.800,287.917 317.160,287.600 317.600 C 287.283 318.040,286.828 318.400,286.590 318.400 C 285.882 318.400,283.200 321.054,283.200 321.754 C 283.200 322.109,283.380 322.400,283.600 322.400 C 283.820 322.400,284.000 322.584,284.000 322.809 C 284.000 323.365,288.270 327.600,288.831 327.600 C 289.077 327.600,289.783 328.140,290.400 328.800 C 291.017 329.460,291.685 330.000,291.885 330.000 C 292.085 330.000,292.598 330.325,293.025 330.722 C 293.451 331.120,294.385 331.703,295.100 332.020 C 295.815 332.336,296.400 332.731,296.400 332.898 C 296.400 333.064,296.760 333.200,297.200 333.200 C 297.640 333.200,298.000 333.380,298.000 333.600 C 298.000 333.820,298.450 334.000,299.000 334.000 C 299.550 334.000,300.000 334.180,300.000 334.400 C 300.000 334.620,300.439 334.800,300.976 334.800 C 301.513 334.800,302.064 334.980,302.200 335.200 C 302.336 335.420,302.887 335.600,303.424 335.600 C 303.961 335.600,304.400 335.780,304.400 336.000 C 304.400 336.220,305.019 336.400,305.776 336.400 C 306.533 336.400,307.264 336.580,307.400 336.800 C 307.536 337.020,308.357 337.200,309.224 337.200 C 310.091 337.200,310.800 337.380,310.800 337.600 C 310.800 337.822,311.867 338.000,313.200 338.000 C 314.520 338.000,315.600 338.162,315.600 338.359 C 315.600 339.130,337.063 338.909,337.975 338.128 C 338.901 337.336,339.300 315.956,338.400 315.400 C 338.180 315.264,338.000 314.209,338.000 313.056 C 338.000 311.903,337.829 310.789,337.619 310.579 C 337.410 310.370,337.192 309.511,337.136 308.671 C 337.079 307.831,336.890 307.056,336.716 306.948 C 336.542 306.841,336.400 306.223,336.400 305.576 C 336.400 304.929,336.220 304.400,336.000 304.400 C 335.780 304.400,335.600 303.860,335.600 303.200 C 335.600 302.540,335.420 302.000,335.200 302.000 C 334.980 302.000,334.797 301.415,334.794 300.700 C 334.789 299.714,334.694 299.545,334.400 300.000 C 334.106 300.455,334.011 300.286,334.006 299.300 C 334.003 298.585,333.820 298.000,333.600 298.000 C 333.380 298.000,333.200 297.640,333.200 297.200 C 333.200 296.760,333.020 296.400,332.800 296.400 C 332.580 296.400,332.400 296.040,332.400 295.600 C 332.400 295.160,332.220 294.800,332.000 294.800 C 331.780 294.800,331.600 294.549,331.600 294.243 C 331.600 293.936,331.319 293.578,330.975 293.446 C 330.631 293.314,330.447 293.047,330.567 292.854 C 330.686 292.660,330.248 291.941,329.592 291.255 C 328.936 290.569,328.400 289.736,328.400 289.404 C 328.400 289.072,328.100 288.800,327.733 288.800 C 327.367 288.800,327.175 288.692,327.307 288.560 C 327.553 288.314,324.144 284.800,323.660 284.800 C 323.513 284.800,323.168 284.440,322.893 284.000 C 322.210 282.907,321.045 282.995,320.407 284.186 M173.200 344.600 C 173.200 344.930,173.020 345.200,172.800 345.200 C 172.557 345.200,172.400 347.000,172.400 349.800 C 172.400 352.600,172.557 354.400,172.800 354.400 C 173.020 354.400,173.200 355.390,173.200 356.600 C 173.200 357.810,173.380 358.800,173.600 358.800 C 173.820 358.800,174.000 359.419,174.000 360.176 C 174.000 360.933,174.180 361.664,174.400 361.800 C 174.620 361.936,174.800 362.577,174.800 363.224 C 174.800 363.871,174.964 364.400,175.165 364.400 C 175.366 364.400,175.651 365.120,175.800 366.000 C 175.949 366.880,176.369 367.774,176.735 367.988 C 177.101 368.201,177.247 368.381,177.060 368.388 C 176.874 368.395,177.099 369.040,177.560 369.823 C 178.022 370.605,178.400 371.505,178.400 371.823 C 178.400 372.140,178.580 372.400,178.800 372.400 C 179.020 372.400,179.200 372.630,179.200 372.912 C 179.200 373.193,179.560 373.683,180.000 374.000 C 180.440 374.317,180.800 374.857,180.800 375.200 C 180.800 375.543,181.160 376.083,181.600 376.400 C 182.040 376.717,182.400 377.225,182.400 377.528 C 182.400 377.831,182.940 378.583,183.600 379.200 C 184.260 379.817,184.800 380.511,184.800 380.743 C 184.800 380.975,187.837 384.233,191.548 387.982 L 198.296 394.800 200.172 394.800 C 201.320 394.800,201.951 394.645,201.800 394.400 C 201.664 394.180,201.751 394.000,201.994 394.000 C 202.236 394.000,203.433 393.010,204.652 391.800 C 205.872 390.590,206.958 389.600,207.066 389.600 C 207.361 389.600,210.400 386.472,210.400 386.169 C 210.400 386.025,211.480 384.840,212.800 383.536 C 214.120 382.233,215.200 380.976,215.200 380.743 C 215.200 380.511,215.695 379.842,216.300 379.257 C 216.905 378.671,217.456 377.935,217.525 377.622 C 217.594 377.308,217.999 376.748,218.425 376.378 C 218.851 376.009,219.200 375.402,219.200 375.029 C 219.200 374.657,219.380 374.464,219.600 374.600 C 219.820 374.736,220.000 374.567,220.000 374.224 C 220.000 373.881,220.180 373.600,220.400 373.600 C 220.620 373.600,220.800 373.330,220.800 373.000 C 220.800 372.670,220.991 372.400,221.224 372.400 C 221.457 372.400,221.557 372.254,221.446 372.075 C 221.336 371.896,221.601 371.221,222.035 370.575 C 222.470 369.929,223.105 368.770,223.446 368.000 C 223.788 367.230,224.238 366.278,224.447 365.884 C 224.656 365.490,224.720 364.995,224.590 364.784 C 224.460 364.573,224.543 364.400,224.776 364.400 C 225.009 364.400,225.200 363.860,225.200 363.200 C 225.200 362.540,225.380 362.000,225.600 362.000 C 225.820 362.000,226.000 361.280,226.000 360.400 C 226.000 359.520,226.180 358.800,226.400 358.800 C 226.620 358.800,226.800 357.810,226.800 356.600 C 226.800 355.390,226.980 354.400,227.200 354.400 C 227.833 354.400,227.690 345.553,227.043 344.700 C 226.465 343.938,225.600 343.759,225.600 344.400 C 225.600 344.622,224.544 344.800,223.233 344.800 C 221.932 344.800,220.807 344.970,220.733 345.178 C 220.660 345.386,219.250 345.592,217.600 345.636 C 215.950 345.680,214.496 345.875,214.370 346.069 C 214.034 346.583,185.842 346.526,185.670 346.011 C 185.592 345.776,184.185 345.600,182.390 345.600 C 180.662 345.600,179.154 345.449,179.040 345.264 C 178.925 345.079,177.887 344.895,176.733 344.854 C 175.579 344.813,174.537 344.649,174.417 344.490 C 174.000 343.933,173.200 344.005,173.200 344.600 " stroke="none" fill="#fcab34" fill-rule="evenodd"></path><path id="path1" d="M187.600 77.321 C 187.600 77.500,187.420 77.536,187.200 77.400 C 186.980 77.264,186.800 77.343,186.800 77.576 C 186.800 77.837,185.645 78.000,183.800 78.000 C 182.067 78.000,180.800 78.169,180.800 78.400 C 180.800 78.620,180.068 78.800,179.174 78.800 C 178.279 78.800,177.244 78.957,176.874 79.149 C 176.503 79.342,175.071 79.605,173.690 79.735 C 172.310 79.865,170.600 80.219,169.890 80.520 C 167.578 81.502,165.890 81.979,165.524 81.753 C 165.326 81.631,164.948 81.706,164.682 81.919 C 164.417 82.133,163.570 82.453,162.800 82.631 C 160.960 83.056,160.852 83.083,160.500 83.197 C 160.335 83.251,160.036 83.264,159.837 83.226 C 159.637 83.189,159.359 83.343,159.219 83.569 C 159.080 83.795,158.594 84.036,158.141 84.106 C 157.688 84.175,156.847 84.539,156.273 84.916 C 155.698 85.292,154.962 85.600,154.638 85.600 C 154.313 85.600,153.945 85.766,153.819 85.969 C 153.694 86.172,153.051 86.457,152.392 86.602 C 151.720 86.749,151.304 87.045,151.447 87.275 C 151.605 87.532,151.395 87.589,150.884 87.427 C 150.435 87.284,149.952 87.355,149.810 87.584 C 149.669 87.813,149.113 88.000,148.576 88.000 C 148.039 88.000,147.600 88.180,147.600 88.400 C 147.600 88.620,147.339 88.800,147.020 88.800 C 146.701 88.800,146.273 89.098,146.069 89.462 C 145.847 89.860,145.440 90.024,145.050 89.874 C 144.692 89.737,144.400 89.766,144.400 89.938 C 144.400 90.110,143.752 90.505,142.959 90.816 C 142.167 91.127,141.278 91.724,140.985 92.143 C 140.662 92.605,140.198 92.808,139.810 92.659 C 139.427 92.512,139.075 92.661,138.933 93.030 C 138.803 93.369,138.441 93.548,138.128 93.428 C 137.815 93.307,137.656 93.366,137.774 93.558 C 137.893 93.750,137.497 94.113,136.895 94.365 C 136.293 94.617,135.191 95.358,134.446 96.011 C 133.076 97.214,132.568 97.500,132.977 96.837 C 133.100 96.638,132.752 96.683,132.204 96.937 C 131.655 97.192,131.205 97.636,131.203 97.924 C 131.201 98.212,131.053 98.356,130.873 98.245 C 130.693 98.134,130.063 98.490,129.473 99.038 C 128.883 99.585,128.400 99.908,128.400 99.755 C 128.400 99.602,128.085 99.821,127.700 100.242 C 127.315 100.662,126.505 101.260,125.900 101.570 C 125.295 101.881,124.800 102.385,124.800 102.691 C 124.800 102.997,124.639 103.148,124.442 103.026 C 124.245 102.904,123.390 103.429,122.542 104.191 C 119.616 106.822,118.598 107.599,118.076 107.600 C 117.788 107.600,117.664 107.780,117.800 108.000 C 117.936 108.220,117.786 108.400,117.466 108.400 C 116.898 108.400,116.201 109.476,116.346 110.130 C 116.387 110.311,116.235 110.345,116.010 110.206 C 115.784 110.067,115.600 110.143,115.600 110.376 C 115.600 110.609,115.375 110.802,115.100 110.805 C 114.825 110.808,114.193 111.438,113.696 112.205 C 113.199 112.972,112.524 113.600,112.196 113.600 C 111.650 113.600,111.417 114.090,111.563 114.930 C 111.594 115.111,111.435 115.145,111.210 115.006 C 110.984 114.867,110.800 114.943,110.800 115.176 C 110.800 115.409,110.575 115.555,110.300 115.500 C 110.025 115.445,109.850 115.641,109.911 115.934 C 109.973 116.228,109.658 116.564,109.211 116.681 C 108.765 116.798,108.400 117.167,108.400 117.503 C 108.400 117.838,108.085 118.342,107.700 118.624 C 107.315 118.905,106.992 119.375,106.982 119.668 C 106.972 119.960,106.747 120.155,106.482 120.100 C 106.217 120.045,106.000 120.146,106.000 120.325 C 106.000 120.503,105.676 120.998,105.280 121.425 C 104.884 121.851,104.215 122.785,103.794 123.500 C 103.372 124.215,102.873 124.800,102.685 124.800 C 102.160 124.800,101.375 125.700,100.608 127.184 C 100.226 127.924,99.490 128.985,98.972 129.543 C 98.455 130.101,97.823 131.062,97.567 131.679 C 97.312 132.295,96.945 132.800,96.751 132.800 C 96.558 132.800,96.400 133.035,96.400 133.322 C 96.400 133.610,95.956 134.446,95.413 135.182 C 94.871 135.918,94.521 136.673,94.637 136.860 C 94.753 137.047,94.477 137.200,94.024 137.200 C 93.571 137.200,93.200 137.391,93.200 137.624 C 93.200 137.857,93.363 137.946,93.563 137.823 C 93.762 137.700,93.831 137.959,93.716 138.399 C 93.601 138.840,93.258 139.200,92.953 139.200 C 92.649 139.200,92.399 139.515,92.399 139.900 C 92.398 140.285,92.007 141.230,91.530 142.000 C 90.000 144.472,86.852 151.119,87.097 151.364 C 87.227 151.494,87.123 151.600,86.867 151.600 C 86.610 151.600,86.400 151.960,86.400 152.400 C 86.400 152.840,86.259 153.200,86.087 153.200 C 85.915 153.200,85.734 153.685,85.685 154.278 C 85.636 154.870,85.462 155.455,85.298 155.578 C 84.650 156.061,84.000 157.648,84.000 158.746 C 84.000 159.382,83.736 160.121,83.413 160.389 C 83.090 160.657,82.841 160.994,82.860 161.138 C 82.879 161.282,82.859 161.490,82.814 161.600 C 82.770 161.710,82.647 162.337,82.541 162.993 C 82.435 163.648,82.207 164.278,82.035 164.393 C 81.862 164.507,81.759 165.050,81.806 165.600 C 81.853 166.150,81.645 166.955,81.345 167.389 C 81.045 167.823,80.800 168.588,80.800 169.089 C 80.800 169.590,80.659 170.000,80.486 170.000 C 80.314 170.000,80.182 170.585,80.194 171.300 C 80.206 172.015,80.088 172.784,79.933 173.010 C 79.778 173.235,79.590 173.865,79.516 174.410 C 79.441 174.954,79.220 175.656,79.024 175.968 C 78.829 176.280,78.690 177.680,78.715 179.079 C 78.743 180.610,78.608 181.529,78.378 181.386 C 78.150 181.245,77.991 182.170,77.986 183.675 C 77.981 185.064,77.972 186.530,77.966 186.934 C 77.960 187.349,77.741 187.586,77.462 187.479 C 76.914 187.269,76.768 207.301,77.313 207.847 C 77.471 208.004,77.597 208.328,77.594 208.567 C 77.591 208.805,77.413 208.730,77.200 208.400 C 76.911 207.952,76.811 208.172,76.806 209.267 C 76.803 210.088,77.020 210.807,77.300 210.902 C 77.694 211.034,77.689 211.205,77.273 211.708 C 76.833 212.241,76.855 212.512,77.406 213.352 C 77.768 213.906,78.024 214.863,77.975 215.479 C 77.926 216.096,78.017 216.906,78.178 217.281 C 78.339 217.655,78.337 218.178,78.174 218.443 C 77.988 218.744,78.045 218.819,78.328 218.644 C 78.647 218.448,78.760 219.056,78.714 220.706 C 78.668 222.318,78.853 223.340,79.305 223.986 C 79.773 224.654,79.852 225.129,79.580 225.638 C 79.333 226.099,79.339 226.439,79.599 226.599 C 79.820 226.736,80.000 227.276,80.000 227.800 C 80.000 228.324,80.169 228.857,80.375 228.985 C 80.582 229.112,80.683 229.569,80.600 230.000 C 80.517 230.431,80.610 230.883,80.807 231.004 C 81.004 231.126,81.064 231.488,80.941 231.809 C 80.818 232.131,80.967 232.489,81.273 232.606 C 81.613 232.737,81.810 233.358,81.782 234.210 C 81.757 234.974,81.862 235.600,82.017 235.600 C 82.171 235.600,82.414 236.328,82.557 237.219 C 82.699 238.109,82.957 238.750,83.129 238.644 C 83.301 238.537,83.407 238.967,83.363 239.598 C 83.315 240.294,83.513 240.835,83.867 240.970 C 84.188 241.094,84.328 241.393,84.178 241.635 C 84.028 241.878,84.091 242.464,84.317 242.938 C 84.543 243.412,85.117 244.700,85.593 245.800 C 86.068 246.900,86.624 248.113,86.829 248.495 C 87.033 248.877,87.200 249.462,87.200 249.795 C 87.200 250.128,87.380 250.400,87.600 250.400 C 87.820 250.400,88.000 250.670,88.000 251.000 C 88.000 251.330,88.150 251.600,88.333 251.600 C 88.517 251.600,88.667 251.861,88.667 252.179 C 88.667 252.867,90.469 256.542,90.900 256.733 C 91.065 256.807,91.200 257.184,91.200 257.571 C 91.200 257.959,91.561 258.603,92.003 259.002 C 92.444 259.402,92.759 259.930,92.703 260.175 C 92.647 260.420,92.838 260.886,93.129 261.210 C 93.419 261.535,94.373 263.110,95.248 264.711 C 96.169 266.395,97.018 267.512,97.263 267.361 C 97.541 267.189,97.588 267.408,97.400 268.000 C 97.205 268.613,97.255 268.813,97.557 268.626 C 97.801 268.476,98.000 268.530,98.000 268.746 C 98.000 268.962,98.466 269.692,99.036 270.369 C 99.605 271.046,99.966 271.600,99.838 271.600 C 99.710 271.600,99.950 272.005,100.372 272.500 C 102.771 275.319,104.400 277.425,104.400 277.711 C 104.400 278.180,106.288 280.000,106.774 280.000 C 106.999 280.000,107.537 280.692,107.968 281.538 C 108.400 282.384,109.380 283.627,110.147 284.300 C 110.914 284.974,111.420 285.660,111.271 285.826 C 111.122 285.992,111.226 285.998,111.503 285.839 C 111.795 285.671,112.104 285.805,112.240 286.159 C 112.369 286.495,112.808 286.876,113.217 287.005 C 113.659 287.146,113.869 287.475,113.737 287.820 C 113.614 288.139,113.715 288.400,113.960 288.400 C 114.205 288.400,114.791 288.844,115.263 289.386 C 115.735 289.929,116.273 290.278,116.460 290.163 C 116.647 290.047,116.800 290.206,116.800 290.517 C 116.800 290.827,117.366 291.512,118.059 292.040 C 118.751 292.568,120.125 293.761,121.112 294.690 C 122.100 295.620,123.049 296.294,123.222 296.187 C 123.394 296.080,123.927 296.489,124.404 297.096 C 124.882 297.703,125.332 298.110,125.404 298.000 C 125.477 297.890,126.000 298.204,126.568 298.697 C 127.136 299.191,127.605 299.461,127.612 299.297 C 127.619 299.134,127.810 299.319,128.037 299.708 C 128.264 300.098,128.646 300.295,128.886 300.147 C 129.139 299.991,129.210 300.060,129.055 300.311 C 128.905 300.554,129.320 301.062,129.993 301.459 C 130.657 301.852,131.200 302.299,131.200 302.454 C 131.200 302.610,131.742 302.855,132.403 303.001 C 133.065 303.146,133.505 303.430,133.380 303.633 C 133.177 303.961,134.054 304.190,134.930 304.037 C 135.111 304.006,135.185 304.120,135.093 304.290 C 134.831 304.779,136.196 305.877,136.933 305.769 C 137.300 305.715,137.600 305.835,137.600 306.035 C 137.600 306.236,137.870 306.400,138.200 306.400 C 138.530 306.400,138.800 306.580,138.800 306.800 C 138.800 307.020,139.145 307.200,139.567 307.200 C 139.988 307.200,140.393 307.367,140.467 307.570 C 140.540 307.774,140.863 307.999,141.184 308.070 C 141.506 308.142,142.125 308.515,142.560 308.900 C 142.995 309.285,143.587 309.600,143.875 309.600 C 144.164 309.600,144.400 309.742,144.400 309.915 C 144.400 310.088,144.789 310.259,145.264 310.295 C 145.739 310.331,146.234 310.530,146.364 310.739 C 146.494 310.947,147.050 311.181,147.600 311.259 C 148.150 311.336,148.879 311.701,149.220 312.069 C 149.561 312.437,150.951 313.112,152.308 313.569 C 153.666 314.027,155.418 314.761,156.201 315.200 C 156.984 315.640,157.943 316.000,158.332 316.000 C 158.721 316.000,159.222 316.182,159.444 316.404 C 159.666 316.626,160.467 316.861,161.224 316.927 C 161.981 316.993,162.981 317.255,163.447 317.510 C 163.913 317.764,164.408 317.858,164.547 317.719 C 164.686 317.580,164.800 317.685,164.800 317.951 C 164.800 318.217,165.025 318.399,165.300 318.354 C 165.575 318.310,166.070 318.383,166.400 318.516 C 168.111 319.206,171.292 319.936,171.997 319.801 C 172.439 319.716,172.800 319.804,172.800 319.998 C 172.800 320.192,173.115 320.354,173.500 320.358 C 174.226 320.366,175.210 320.525,177.600 321.020 C 178.370 321.180,179.315 321.324,179.700 321.341 C 180.085 321.358,180.400 321.468,180.400 321.586 C 180.400 321.811,181.995 321.977,185.500 322.117 C 186.655 322.162,187.600 322.290,187.600 322.400 C 187.600 322.663,188.299 322.686,198.200 322.761 C 211.095 322.859,210.887 322.866,210.547 322.300 C 210.317 321.918,210.382 321.906,210.823 322.249 C 211.140 322.495,211.760 322.614,212.200 322.511 C 212.640 322.409,214.035 322.297,215.300 322.263 C 216.565 322.228,217.600 322.104,217.600 321.986 C 217.600 321.868,217.915 321.745,218.300 321.714 C 220.098 321.565,222.011 321.240,222.360 321.025 C 222.572 320.894,222.859 320.971,222.998 321.197 C 223.158 321.456,223.474 321.383,223.858 320.999 C 224.191 320.666,224.630 320.495,224.832 320.620 C 225.035 320.745,225.425 320.706,225.700 320.534 C 225.975 320.362,226.380 320.205,226.600 320.185 C 228.607 320.006,231.149 319.442,231.004 319.207 C 230.905 319.047,231.269 319.001,231.812 319.104 C 232.498 319.236,232.800 319.115,232.800 318.708 C 232.800 318.319,233.167 318.149,233.900 318.199 C 234.505 318.241,235.180 318.148,235.400 317.993 C 235.739 317.753,236.909 317.383,238.600 316.980 C 238.820 316.927,239.270 316.820,239.600 316.742 C 239.930 316.664,240.293 316.477,240.407 316.326 C 240.522 316.175,241.087 315.989,241.663 315.912 C 242.240 315.835,242.956 315.574,243.256 315.332 C 243.555 315.090,244.427 314.758,245.194 314.594 C 245.961 314.429,246.996 314.028,247.494 313.702 C 247.992 313.375,248.400 313.213,248.400 313.340 C 248.400 313.468,249.373 313.039,250.562 312.386 C 251.751 311.734,253.011 311.200,253.362 311.200 C 253.713 311.200,254.000 311.054,254.000 310.875 C 254.000 310.696,254.630 310.302,255.400 310.000 C 256.170 309.698,256.800 309.304,256.800 309.125 C 256.800 308.946,257.188 308.800,257.662 308.800 C 258.136 308.800,259.122 308.344,259.852 307.787 C 260.583 307.230,261.256 306.825,261.348 306.887 C 261.440 306.949,261.895 306.657,262.358 306.238 C 262.821 305.819,263.200 305.618,263.200 305.793 C 263.200 305.967,263.672 305.637,264.248 305.061 C 264.825 304.484,265.436 304.099,265.606 304.204 C 265.777 304.309,266.024 304.115,266.155 303.772 C 266.287 303.430,266.576 303.261,266.797 303.398 C 267.019 303.535,267.200 303.460,267.200 303.231 C 267.200 303.002,267.652 302.702,268.205 302.563 C 268.758 302.424,269.343 302.105,269.505 301.854 C 269.667 301.603,270.610 300.864,271.600 300.213 C 272.590 299.561,274.238 298.301,275.262 297.414 C 277.923 295.107,278.326 294.800,278.695 294.800 C 278.876 294.800,279.276 294.450,279.585 294.021 C 279.893 293.593,280.248 293.295,280.373 293.358 C 280.498 293.421,280.915 293.142,281.300 292.737 C 281.685 292.331,281.897 292.000,281.771 292.000 C 281.479 292.000,282.866 290.604,283.171 290.590 C 283.733 290.564,284.732 289.710,285.383 288.700 C 285.773 288.095,286.329 287.600,286.619 287.600 C 286.909 287.600,287.247 287.285,287.371 286.900 C 287.494 286.515,288.136 285.840,288.797 285.400 C 289.457 284.960,289.998 284.420,289.999 284.200 C 290.000 283.980,290.451 283.277,291.000 282.638 C 291.550 281.999,292.000 281.628,292.000 281.814 C 292.000 282.001,292.254 281.805,292.565 281.381 C 292.875 280.956,293.061 280.499,292.978 280.365 C 292.895 280.230,293.251 279.894,293.770 279.616 C 294.288 279.339,294.942 278.682,295.224 278.156 C 295.505 277.630,295.885 277.200,296.068 277.200 C 296.250 277.200,296.400 277.012,296.400 276.782 C 296.400 276.552,296.869 275.895,297.442 275.322 C 298.015 274.749,298.662 273.767,298.881 273.140 C 299.099 272.513,299.441 272.000,299.639 272.000 C 299.838 272.000,300.000 271.764,300.000 271.475 C 300.000 271.187,300.545 270.548,301.211 270.055 C 301.877 269.563,302.317 268.989,302.188 268.780 C 302.058 268.571,302.122 268.400,302.328 268.400 C 302.534 268.400,302.927 267.860,303.200 267.200 C 303.473 266.540,303.847 266.000,304.030 266.000 C 304.213 266.000,304.675 265.325,305.058 264.500 C 305.440 263.675,306.159 262.345,306.654 261.544 C 307.149 260.743,307.445 259.978,307.311 259.844 C 307.176 259.710,307.367 259.600,307.733 259.600 C 308.100 259.600,308.361 259.465,308.313 259.300 C 308.123 258.644,309.201 256.374,309.815 256.139 C 310.337 255.939,310.361 255.821,309.934 255.550 C 309.534 255.297,309.526 255.211,309.900 255.206 C 310.175 255.203,310.400 254.975,310.400 254.700 C 310.401 253.776,313.066 248.800,313.398 249.101 C 313.579 249.266,313.623 249.106,313.494 248.747 C 313.366 248.388,313.655 247.308,314.137 246.347 C 314.619 245.386,315.007 244.330,315.000 244.000 C 314.993 243.670,315.397 242.621,315.898 241.670 C 316.400 240.718,316.714 239.784,316.596 239.594 C 316.479 239.404,316.680 239.083,317.043 238.880 C 317.453 238.650,317.544 238.413,317.284 238.252 C 317.005 238.079,317.072 237.578,317.485 236.749 C 317.827 236.065,318.147 235.021,318.197 234.430 C 318.248 233.839,318.524 232.915,318.812 232.377 C 319.100 231.840,319.305 231.355,319.268 231.300 C 319.060 230.993,319.246 230.381,319.500 230.538 C 319.665 230.639,319.795 229.975,319.789 229.061 C 319.782 228.148,319.938 227.176,320.135 226.903 C 320.332 226.630,320.540 225.910,320.599 225.303 C 320.698 224.272,321.057 223.082,321.523 222.238 C 321.634 222.039,321.516 222.004,321.263 222.161 C 320.920 222.373,320.911 222.160,321.229 221.323 C 321.464 220.705,321.644 220.155,321.628 220.100 C 321.613 220.045,321.614 219.955,321.631 219.900 C 321.804 219.333,322.012 217.830,322.153 216.123 C 322.247 214.980,322.442 213.855,322.586 213.623 C 322.730 213.390,322.635 213.200,322.375 213.200 C 322.023 213.200,322.029 213.047,322.401 212.599 C 322.722 212.212,322.834 211.216,322.717 209.799 C 322.616 208.590,322.639 207.600,322.767 207.600 C 323.453 207.600,322.653 186.052,321.809 181.800 C 321.678 181.140,321.493 179.744,321.398 178.698 C 321.304 177.653,321.074 176.483,320.887 176.098 C 320.700 175.714,320.559 174.832,320.574 174.138 C 320.588 173.444,320.465 172.960,320.300 173.062 C 320.135 173.164,319.986 172.832,319.969 172.324 C 319.953 171.816,319.866 171.130,319.777 170.800 C 319.688 170.470,319.446 169.480,319.239 168.600 C 319.032 167.720,318.576 166.224,318.225 165.277 C 317.875 164.329,317.535 163.208,317.471 162.787 C 317.407 162.365,317.229 161.896,317.077 161.744 C 316.925 161.591,316.800 161.137,316.800 160.733 C 316.800 160.330,316.620 160.000,316.400 160.000 C 316.180 160.000,316.034 159.865,316.076 159.700 C 316.245 159.034,315.512 156.825,314.974 156.379 C 314.658 156.117,314.394 155.339,314.387 154.651 C 314.380 153.963,314.116 153.058,313.800 152.641 C 313.484 152.224,313.320 151.729,313.436 151.541 C 313.552 151.353,313.457 151.200,313.224 151.200 C 312.991 151.200,312.800 150.840,312.800 150.400 C 312.800 149.960,312.656 149.600,312.480 149.600 C 312.305 149.600,311.917 148.925,311.620 148.100 C 311.323 147.275,310.667 145.945,310.162 145.144 C 309.658 144.343,309.355 143.578,309.489 143.444 C 309.624 143.310,309.544 143.200,309.313 143.200 C 308.919 143.200,308.262 141.758,308.357 141.100 C 308.381 140.935,308.233 140.800,308.029 140.800 C 307.496 140.800,306.365 138.381,306.668 137.890 C 306.809 137.662,306.747 137.586,306.530 137.719 C 306.314 137.853,305.823 137.251,305.440 136.381 C 305.056 135.512,304.565 134.800,304.347 134.800 C 304.130 134.800,304.064 134.620,304.200 134.400 C 304.336 134.180,304.251 134.000,304.011 134.000 C 303.771 134.000,303.464 133.685,303.328 133.300 C 303.193 132.915,302.690 132.060,302.211 131.400 C 301.733 130.740,301.221 129.874,301.073 129.475 C 300.918 129.055,300.610 128.870,300.341 129.036 C 300.072 129.203,299.984 129.150,300.132 128.910 C 300.273 128.683,299.904 128.013,299.313 127.423 C 298.723 126.832,298.197 126.061,298.146 125.709 C 298.094 125.358,297.590 124.642,297.026 124.119 C 296.462 123.596,296.000 122.995,296.000 122.784 C 296.000 122.573,295.730 122.400,295.400 122.400 C 295.070 122.400,294.793 122.175,294.784 121.900 C 294.775 121.625,294.235 120.777,293.584 120.015 C 292.933 119.253,292.400 118.368,292.400 118.048 C 292.400 117.728,292.296 117.570,292.170 117.697 C 292.043 117.824,291.201 117.143,290.299 116.184 C 289.396 115.225,288.545 114.510,288.407 114.596 C 288.269 114.681,287.845 114.175,287.466 113.471 C 287.087 112.767,286.243 111.833,285.590 111.395 C 284.937 110.958,284.402 110.364,284.401 110.076 C 284.401 109.788,284.220 109.664,284.000 109.800 C 283.780 109.936,283.600 109.857,283.600 109.624 C 283.600 109.391,283.319 109.200,282.976 109.200 C 282.633 109.200,282.464 109.020,282.600 108.800 C 282.736 108.580,282.537 108.400,282.157 108.400 C 281.777 108.400,281.578 108.289,281.714 108.152 C 282.045 107.821,280.996 106.800,280.325 106.800 C 280.032 106.800,279.568 106.440,279.293 106.000 C 279.018 105.560,278.525 105.200,278.197 105.200 C 277.868 105.200,277.600 104.970,277.600 104.689 C 277.600 104.068,276.161 102.773,275.834 103.100 C 275.705 103.228,275.600 103.138,275.600 102.899 C 275.600 102.661,274.953 102.065,274.162 101.577 C 273.371 101.088,272.331 100.295,271.851 99.814 C 271.370 99.334,270.774 99.009,270.526 99.091 C 270.278 99.174,269.784 98.827,269.430 98.321 C 269.075 97.814,268.653 97.400,268.492 97.399 C 268.332 97.399,267.582 96.959,266.828 96.421 C 266.073 95.883,265.591 95.703,265.757 96.021 C 266.000 96.486,265.955 96.482,265.530 96.000 C 265.238 95.670,264.505 95.145,263.900 94.832 C 263.295 94.520,262.800 94.042,262.800 93.770 C 262.800 93.472,262.482 93.358,262.000 93.484 C 261.553 93.601,261.200 93.496,261.200 93.247 C 261.200 93.001,260.954 92.800,260.654 92.800 C 260.354 92.800,259.650 92.440,259.091 92.000 C 258.531 91.560,257.777 91.200,257.413 91.200 C 257.050 91.200,256.864 91.020,257.000 90.800 C 257.136 90.580,256.907 90.400,256.490 90.400 C 256.074 90.400,255.598 90.265,255.433 90.100 C 255.268 89.935,255.013 89.794,254.867 89.786 C 254.720 89.778,254.219 89.559,253.753 89.300 C 253.287 89.040,252.792 88.942,252.653 89.081 C 252.514 89.220,252.400 89.141,252.400 88.907 C 252.400 88.672,251.509 88.160,250.421 87.769 C 249.332 87.377,248.550 86.881,248.683 86.665 C 248.826 86.434,248.573 86.366,248.063 86.500 C 247.495 86.648,247.200 86.541,247.200 86.187 C 247.200 85.892,246.885 85.669,246.500 85.692 C 246.115 85.715,244.900 85.361,243.800 84.905 C 241.048 83.765,240.322 83.503,239.431 83.332 C 239.009 83.251,238.424 82.986,238.131 82.743 C 237.839 82.501,237.600 82.406,237.600 82.533 C 237.600 82.660,236.880 82.510,236.000 82.200 C 235.120 81.890,234.400 81.745,234.400 81.880 C 234.400 82.014,234.085 81.850,233.700 81.515 C 233.315 81.180,232.730 80.894,232.400 80.878 C 231.245 80.825,229.763 80.548,229.383 80.315 C 229.172 80.186,227.920 79.948,226.600 79.786 C 225.280 79.624,224.110 79.357,224.000 79.193 C 223.767 78.846,220.668 78.412,216.402 78.129 C 214.753 78.019,213.277 77.725,213.123 77.475 C 212.791 76.938,187.600 76.786,187.600 77.321 M212.200 97.049 C 220.679 98.185,223.124 98.675,229.200 100.455 C 229.970 100.681,231.097 100.962,231.705 101.079 C 232.313 101.196,232.908 101.451,233.029 101.646 C 233.149 101.841,233.599 102.000,234.029 102.000 C 234.459 102.000,235.168 102.180,235.605 102.400 C 236.042 102.620,236.758 102.980,237.195 103.200 C 237.632 103.420,238.262 103.600,238.595 103.600 C 238.928 103.600,239.200 103.780,239.200 104.000 C 239.200 104.220,239.472 104.400,239.805 104.400 C 240.138 104.400,240.723 104.564,241.105 104.764 C 241.487 104.965,243.510 105.961,245.600 106.977 C 247.690 107.994,250.300 109.368,251.400 110.030 C 252.500 110.693,253.715 111.338,254.100 111.464 C 254.485 111.590,254.800 111.852,254.800 112.047 C 254.800 112.241,254.986 112.400,255.213 112.400 C 255.698 112.400,261.977 116.691,263.572 118.112 C 264.176 118.650,264.860 119.160,265.093 119.245 C 266.588 119.792,277.049 130.400,281.600 135.985 C 284.593 139.657,289.917 148.105,292.345 153.033 C 293.744 155.875,295.049 158.513,295.245 158.895 C 295.440 159.277,295.600 159.862,295.600 160.195 C 295.600 160.528,295.780 160.800,296.000 160.800 C 296.220 160.800,296.400 161.072,296.400 161.405 C 296.400 161.738,296.580 162.368,296.800 162.805 C 297.020 163.242,297.380 163.958,297.600 164.395 C 297.820 164.832,298.000 165.642,298.000 166.195 C 298.000 166.748,298.180 167.200,298.400 167.200 C 298.620 167.200,298.800 167.639,298.800 168.176 C 298.800 168.713,298.960 169.252,299.156 169.373 C 299.351 169.494,299.609 170.179,299.727 170.896 C 300.087 173.069,300.442 174.558,300.803 175.400 C 300.991 175.840,301.256 176.830,301.391 177.600 C 301.526 178.370,301.815 179.990,302.034 181.200 C 303.017 186.634,303.258 189.024,303.456 195.318 L 303.668 202.035 302.613 203.418 C 300.028 206.808,292.800 206.668,292.800 203.229 C 292.800 202.993,292.641 202.800,292.447 202.800 C 292.042 202.800,291.674 199.438,291.349 192.800 C 291.226 190.270,290.962 188.029,290.762 187.820 C 290.563 187.611,290.400 186.497,290.400 185.344 C 290.400 184.191,290.220 183.136,290.000 183.000 C 289.780 182.864,289.600 181.953,289.600 180.976 C 289.600 179.999,289.420 179.200,289.200 179.200 C 288.980 179.200,288.800 178.480,288.800 177.600 C 288.800 176.720,288.620 176.000,288.400 176.000 C 288.180 176.000,288.000 175.471,288.000 174.824 C 288.000 174.177,287.820 173.536,287.600 173.400 C 287.380 173.264,287.200 172.724,287.200 172.200 C 287.200 171.676,287.020 171.136,286.800 171.000 C 286.580 170.864,286.400 170.401,286.400 169.971 C 286.400 169.541,286.241 168.877,286.047 168.495 C 285.684 167.781,284.930 166.015,284.385 164.600 C 283.190 161.502,278.732 152.952,277.156 150.738 C 276.740 150.154,276.400 149.479,276.400 149.238 C 276.400 148.997,276.259 148.800,276.086 148.800 C 275.914 148.800,275.457 148.267,275.072 147.615 C 274.687 146.963,274.147 146.198,273.873 145.915 C 273.598 145.632,272.939 144.783,272.409 144.029 C 269.655 140.114,259.836 130.299,255.971 127.597 C 255.217 127.070,254.510 126.528,254.400 126.393 C 252.889 124.537,238.897 116.813,233.400 114.800 C 232.960 114.639,232.105 114.303,231.500 114.054 C 228.186 112.687,225.968 112.000,224.872 112.000 C 224.392 112.000,224.000 111.820,224.000 111.600 C 224.000 111.380,223.381 111.200,222.624 111.200 C 221.867 111.200,221.136 111.020,221.000 110.800 C 220.864 110.580,219.964 110.400,219.000 110.400 C 218.036 110.400,217.136 110.220,217.000 110.000 C 216.864 109.780,215.784 109.600,214.600 109.600 C 213.416 109.600,212.352 109.447,212.237 109.259 C 212.121 109.072,209.455 108.807,206.313 108.670 C 195.484 108.199,193.953 107.243,194.382 101.225 C 194.716 96.532,199.669 95.371,212.200 97.049 " stroke="none" fill="#fcdc44" fill-rule="evenodd"></path><path id="path2" d="M197.864 97.100 C 197.764 97.265,200.678 97.409,204.341 97.420 C 208.346 97.432,210.362 97.321,209.400 97.143 C 207.285 96.751,198.098 96.717,197.864 97.100 M195.629 99.091 C 192.129 103.337,195.534 108.059,202.000 107.928 L 205.400 107.860 201.800 107.630 C 195.006 107.196,192.518 102.893,196.520 98.500 C 196.971 98.005,197.231 97.600,197.099 97.600 C 196.967 97.600,196.305 98.271,195.629 99.091 M212.033 97.744 C 212.125 97.824,213.280 97.989,214.600 98.112 C 216.091 98.251,216.621 98.211,216.000 98.007 C 215.012 97.684,211.711 97.465,212.033 97.744 M218.800 98.800 C 219.350 98.976,220.160 99.126,220.600 99.132 L 221.400 99.144 220.600 98.800 C 220.160 98.611,219.350 98.462,218.800 98.468 L 217.800 98.480 218.800 98.800 M222.600 99.600 C 223.040 99.789,223.760 99.944,224.200 99.944 L 225.000 99.944 224.200 99.600 C 223.760 99.411,223.040 99.256,222.600 99.256 L 221.800 99.256 222.600 99.600 M226.000 100.400 C 226.330 100.613,226.960 100.778,227.400 100.766 L 228.200 100.744 227.400 100.400 C 226.204 99.886,225.205 99.886,226.000 100.400 M228.800 101.200 C 229.130 101.413,229.670 101.588,230.000 101.588 C 230.533 101.588,230.533 101.545,230.000 101.200 C 229.670 100.987,229.130 100.812,228.800 100.812 C 228.267 100.812,228.267 100.855,228.800 101.200 M235.000 103.171 C 235.880 103.594,236.870 103.947,237.200 103.955 C 237.886 103.971,235.839 103.027,234.374 102.651 C 233.838 102.514,234.120 102.748,235.000 103.171 M240.000 104.965 C 240.000 105.209,242.431 106.400,242.928 106.400 C 243.151 106.400,243.249 106.316,243.146 106.213 C 242.833 105.900,240.000 104.777,240.000 104.965 M206.905 108.287 C 207.514 108.379,208.414 108.377,208.905 108.282 C 209.397 108.187,208.900 108.111,207.800 108.114 C 206.700 108.117,206.297 108.195,206.905 108.287 M212.000 108.823 C 213.210 108.998,215.269 109.330,216.575 109.562 C 217.882 109.793,219.025 109.908,219.116 109.817 C 219.207 109.726,218.588 109.541,217.741 109.405 C 216.893 109.269,215.445 108.987,214.523 108.779 C 213.600 108.571,212.160 108.424,211.323 108.452 C 210.002 108.498,210.092 108.547,212.000 108.823 M249.200 109.574 C 249.750 110.019,250.339 110.386,250.508 110.391 C 250.677 110.396,251.532 110.852,252.408 111.405 C 253.284 111.958,253.999 112.273,253.997 112.105 C 253.996 111.937,252.691 111.117,251.097 110.283 C 249.504 109.449,248.650 109.130,249.200 109.574 M219.633 110.147 C 219.725 110.228,220.520 110.404,221.400 110.538 C 222.515 110.707,222.758 110.671,222.200 110.419 C 221.432 110.071,219.290 109.844,219.633 110.147 M223.233 110.944 C 223.325 111.023,223.940 111.208,224.600 111.356 C 225.476 111.552,225.638 111.515,225.200 111.218 C 224.660 110.853,222.832 110.598,223.233 110.944 M226.033 111.744 C 226.125 111.823,226.740 112.008,227.400 112.156 C 228.276 112.352,228.438 112.315,228.000 112.018 C 227.460 111.653,225.632 111.398,226.033 111.744 M254.433 112.556 C 255.164 113.238,261.237 117.183,261.022 116.835 C 260.705 116.322,254.983 112.400,254.551 112.400 C 254.395 112.400,254.342 112.470,254.433 112.556 M238.833 116.552 C 239.241 116.924,243.200 118.793,243.200 118.613 C 243.200 118.388,239.380 116.400,238.947 116.400 C 238.793 116.400,238.742 116.468,238.833 116.552 M261.600 117.306 C 261.600 117.418,262.905 118.552,264.500 119.826 C 270.589 124.689,279.943 134.549,283.347 139.693 C 284.036 140.734,284.741 141.589,284.913 141.593 C 285.791 141.613,277.994 132.100,273.047 127.115 C 269.272 123.312,261.600 116.737,261.600 117.306 M245.757 120.096 C 246.174 120.373,248.154 121.661,250.157 122.957 C 253.881 125.366,255.653 126.698,259.700 130.129 C 260.965 131.202,261.994 131.926,261.986 131.740 C 261.950 130.840,250.012 122.015,246.600 120.365 C 245.720 119.939,245.341 119.818,245.757 120.096 M262.400 132.173 C 262.400 132.576,267.586 137.747,267.788 137.546 C 267.875 137.459,266.698 136.147,265.173 134.630 C 263.648 133.113,262.400 132.008,262.400 132.173 M269.773 140.100 C 270.831 141.365,271.778 142.400,271.876 142.400 C 272.224 142.400,270.453 140.182,269.161 139.000 C 268.257 138.173,268.447 138.515,269.773 140.100 M286.031 143.500 C 287.048 145.200,287.600 145.894,287.600 145.471 C 287.600 145.106,285.555 142.000,285.314 142.000 C 285.216 142.000,285.538 142.675,286.031 143.500 M273.284 144.500 C 275.438 147.154,278.509 151.867,280.581 155.700 C 281.621 157.625,282.563 159.200,282.673 159.200 C 283.099 159.200,278.960 152.003,276.347 148.200 C 272.999 143.327,272.595 142.800,272.208 142.800 C 272.040 142.800,272.525 143.565,273.284 144.500 M288.760 147.800 C 289.434 149.105,289.988 149.828,289.985 149.400 C 289.983 149.180,289.614 148.550,289.164 148.000 C 288.621 147.336,288.485 147.269,288.760 147.800 M291.610 153.100 C 293.198 156.198,293.913 157.292,293.310 155.700 C 292.837 154.452,290.758 150.611,290.333 150.200 C 290.105 149.980,290.680 151.285,291.610 153.100 M293.600 156.884 C 293.600 157.316,294.815 160.000,295.011 160.000 C 295.121 160.000,294.933 159.334,294.593 158.521 C 293.993 157.086,293.600 156.438,293.600 156.884 M284.430 163.500 C 284.490 164.111,285.942 166.984,285.970 166.549 C 286.007 165.990,284.861 163.200,284.595 163.200 C 284.488 163.200,284.413 163.335,284.430 163.500 M298.434 169.800 C 298.422 170.240,298.587 170.870,298.800 171.200 C 299.314 171.995,299.314 170.996,298.800 169.800 L 298.456 169.000 298.434 169.800 M287.844 172.600 C 288.173 174.071,288.402 174.390,288.394 173.367 C 288.391 172.945,288.205 172.330,287.982 172.000 C 287.685 171.562,287.648 171.724,287.844 172.600 M299.256 172.400 C 299.256 172.730,299.411 173.360,299.600 173.800 C 299.817 174.304,299.944 174.378,299.944 174.000 C 299.944 173.670,299.789 173.040,299.600 172.600 C 299.383 172.096,299.256 172.022,299.256 172.400 M288.644 175.400 C 288.973 176.871,289.202 177.190,289.194 176.167 C 289.191 175.745,289.005 175.130,288.782 174.800 C 288.485 174.362,288.448 174.524,288.644 175.400 M300.034 175.800 C 300.022 176.240,300.187 176.870,300.400 177.200 C 300.914 177.995,300.914 176.996,300.400 175.800 L 300.056 175.000 300.034 175.800 M289.438 178.700 C 289.589 179.525,289.867 180.617,290.056 181.126 C 290.245 181.635,290.421 182.625,290.446 183.326 C 290.476 184.139,290.564 184.321,290.689 183.829 C 290.798 183.405,290.576 181.740,290.196 180.129 C 289.476 177.070,288.964 176.105,289.438 178.700 M300.868 179.200 C 300.862 179.750,301.011 180.560,301.200 181.000 L 301.544 181.800 301.532 181.000 C 301.526 180.560,301.376 179.750,301.200 179.200 L 300.880 178.200 300.868 179.200 M301.869 185.000 C 301.996 186.320,302.168 187.475,302.250 187.567 C 302.541 187.890,302.316 184.586,301.979 183.600 C 301.758 182.952,301.720 183.445,301.869 185.000 M291.082 187.200 C 291.208 188.630,291.377 189.875,291.456 189.967 C 291.761 190.320,291.526 186.158,291.198 185.400 C 290.984 184.905,290.940 185.590,291.082 187.200 M302.695 193.200 C 302.813 195.730,302.976 197.875,303.055 197.967 C 303.346 198.301,303.144 191.754,302.816 190.200 C 302.599 189.170,302.556 190.238,302.695 193.200 M291.709 192.000 C 291.709 192.990,291.787 193.395,291.882 192.900 C 291.978 192.405,291.978 191.595,291.882 191.100 C 291.787 190.605,291.709 191.010,291.709 192.000 M292.074 197.600 C 291.993 201.916,292.568 203.383,294.896 204.802 C 296.226 205.613,299.366 205.901,299.769 205.250 C 299.888 205.057,299.209 204.987,298.259 205.095 C 294.327 205.538,292.695 203.522,292.372 197.821 L 292.145 193.800 292.074 197.600 M301.170 203.853 C 300.245 204.856,300.241 204.880,301.092 204.361 C 301.583 204.062,302.072 203.588,302.180 203.309 C 302.466 202.562,302.252 202.677,301.170 203.853 " stroke="none" fill="#fcc03a" fill-rule="evenodd"></path><path id="path3" d="M195.300 77.076 C 195.685 77.176,196.315 77.176,196.700 77.076 C 197.085 76.975,196.770 76.893,196.000 76.893 C 195.230 76.893,194.915 76.975,195.300 77.076 M203.300 77.076 C 203.685 77.176,204.315 77.176,204.700 77.076 C 205.085 76.975,204.770 76.893,204.000 76.893 C 203.230 76.893,202.915 76.975,203.300 77.076 M213.206 77.300 C 213.201 77.900,213.556 77.989,215.700 77.926 L 218.200 77.852 216.009 77.702 C 214.804 77.619,213.681 77.338,213.515 77.076 C 213.312 76.756,213.210 76.830,213.206 77.300 M183.800 77.628 L 181.800 77.874 184.300 77.937 C 185.675 77.972,186.800 77.929,186.800 77.843 C 186.800 77.478,185.673 77.398,183.800 77.628 M180.180 77.966 C 179.971 78.168,179.350 78.413,178.800 78.512 C 178.071 78.642,178.207 78.706,179.300 78.746 C 180.391 78.785,180.800 78.636,180.800 78.200 C 180.800 77.503,180.700 77.465,180.180 77.966 M176.251 78.883 C 176.359 79.057,175.717 79.223,174.824 79.250 C 172.723 79.315,172.519 79.347,172.197 79.670 C 172.048 79.818,172.258 79.877,172.663 79.801 C 173.069 79.724,174.041 79.647,174.824 79.631 C 175.606 79.614,176.596 79.340,177.024 79.023 C 177.781 78.461,177.779 78.448,176.928 78.506 C 176.448 78.539,176.144 78.709,176.251 78.883 M221.705 78.687 C 222.314 78.779,223.214 78.777,223.705 78.682 C 224.197 78.587,223.700 78.511,222.600 78.514 C 221.500 78.517,221.097 78.595,221.705 78.687 M224.033 79.345 C 224.125 79.425,225.001 79.592,225.979 79.718 C 227.130 79.865,227.554 79.816,227.179 79.579 C 226.645 79.240,223.658 79.019,224.033 79.345 M168.800 80.487 C 168.800 80.659,168.159 80.800,167.376 80.800 C 166.529 80.800,166.053 80.962,166.200 81.200 C 166.336 81.420,166.227 81.600,165.957 81.600 C 165.687 81.600,165.554 81.687,165.660 81.793 C 165.867 82.000,167.851 81.401,169.800 80.543 L 171.000 80.014 169.900 80.094 C 169.295 80.138,168.800 80.315,168.800 80.487 M162.929 82.130 C 161.029 82.832,160.895 83.206,162.739 82.661 C 163.623 82.400,164.479 82.054,164.640 81.893 C 165.044 81.489,164.436 81.574,162.929 82.130 M234.833 81.741 C 234.925 81.818,235.630 82.085,236.400 82.335 C 237.672 82.748,237.729 82.735,237.024 82.195 C 236.390 81.709,234.277 81.272,234.833 81.741 M155.700 84.544 C 155.205 84.789,154.800 85.127,154.800 85.295 C 154.800 85.796,155.340 85.629,156.400 84.800 C 157.482 83.954,157.143 83.829,155.700 84.544 M243.200 84.600 C 243.750 84.914,244.470 85.177,244.800 85.183 C 245.130 85.190,244.884 84.926,244.254 84.598 C 242.794 83.836,241.867 83.838,243.200 84.600 M152.200 86.000 C 152.064 86.220,151.609 86.400,151.189 86.400 C 150.674 86.400,150.500 86.596,150.655 87.000 C 150.782 87.330,151.057 87.600,151.266 87.600 C 151.476 87.600,151.545 87.435,151.420 87.233 C 151.295 87.030,151.733 86.747,152.392 86.602 C 153.807 86.291,154.397 85.600,153.247 85.600 C 152.807 85.600,152.336 85.780,152.200 86.000 M145.376 89.387 C 144.717 89.886,144.699 89.976,145.257 89.987 C 145.619 89.994,146.018 89.730,146.145 89.400 C 146.431 88.655,146.347 88.653,145.376 89.387 M140.500 91.744 C 139.518 92.230,139.304 92.800,140.104 92.800 C 140.381 92.800,140.832 92.440,141.107 92.000 C 141.382 91.560,141.560 91.222,141.503 91.249 C 141.447 91.276,140.995 91.499,140.500 91.744 M258.622 91.635 C 258.948 92.163,260.401 92.882,260.397 92.514 C 260.395 92.341,259.945 91.992,259.396 91.737 C 258.848 91.483,258.499 91.437,258.622 91.635 M137.200 93.595 C 137.200 93.739,136.300 94.264,135.200 94.761 C 134.100 95.258,133.200 95.904,133.200 96.195 C 133.200 96.528,132.903 96.647,132.400 96.516 C 131.947 96.397,131.600 96.504,131.600 96.761 C 131.600 97.462,133.453 96.970,134.485 95.994 C 134.988 95.519,136.075 94.782,136.900 94.357 C 138.546 93.508,138.700 93.333,137.800 93.333 C 137.470 93.333,137.200 93.451,137.200 93.595 M262.800 93.883 C 262.800 94.093,263.295 94.520,263.900 94.832 C 264.505 95.144,265.121 95.566,265.268 95.771 C 265.620 96.261,266.872 96.440,266.574 95.958 C 266.448 95.754,266.177 95.691,265.972 95.817 C 265.768 95.944,265.600 95.767,265.600 95.424 C 265.600 95.081,265.330 94.800,265.000 94.800 C 264.670 94.800,264.400 94.590,264.400 94.333 C 264.400 94.077,264.282 93.985,264.137 94.130 C 263.992 94.275,263.632 94.193,263.337 93.948 C 263.041 93.702,262.800 93.673,262.800 93.883 M196.983 97.145 C 195.923 97.792,194.400 99.578,194.400 100.175 C 194.400 100.287,195.205 99.574,196.189 98.589 L 197.979 96.800 202.489 96.797 C 206.700 96.795,209.187 97.022,216.200 98.051 C 221.700 98.857,228.034 100.459,234.300 102.628 C 236.995 103.561,239.200 104.161,239.200 103.962 C 239.200 103.763,238.928 103.600,238.595 103.600 C 238.262 103.600,237.632 103.420,237.195 103.200 C 236.758 102.980,236.042 102.620,235.605 102.400 C 235.168 102.180,234.459 102.000,234.029 102.000 C 233.599 102.000,233.149 101.841,233.029 101.646 C 232.908 101.451,232.313 101.196,231.705 101.079 C 231.097 100.962,229.970 100.681,229.200 100.455 C 225.284 99.308,221.760 98.465,219.000 98.017 C 207.912 96.216,199.080 95.866,196.983 97.145 M129.032 98.822 C 127.911 99.952,128.421 100.067,129.592 98.948 C 130.137 98.427,130.407 98.011,130.192 98.024 C 129.976 98.037,129.454 98.396,129.032 98.822 M269.705 98.676 C 270.077 99.048,270.493 99.240,270.631 99.103 C 271.024 98.709,270.420 98.000,269.691 98.000 C 269.080 98.000,269.081 98.053,269.705 98.676 M126.200 100.883 C 125.126 101.953,125.104 102.022,125.985 101.540 C 127.105 100.926,128.000 100.166,128.000 99.829 C 128.000 99.352,127.359 99.728,126.200 100.883 M194.401 104.460 C 194.401 104.823,195.048 105.768,195.840 106.560 C 196.632 107.352,197.577 107.999,197.940 107.999 C 198.339 107.998,198.084 107.682,197.296 107.202 C 196.579 106.765,195.635 105.821,195.198 105.104 C 194.718 104.316,194.402 104.061,194.401 104.460 M246.000 107.608 C 250.727 110.053,251.236 110.276,250.576 109.616 C 250.020 109.060,242.351 105.197,241.836 105.214 C 241.596 105.222,243.470 106.299,246.000 107.608 M279.334 106.067 C 279.832 106.863,280.400 107.041,280.400 106.400 C 280.400 106.180,280.209 106.000,279.976 106.000 C 279.743 106.000,279.645 105.850,279.759 105.667 C 279.872 105.483,279.720 105.333,279.421 105.333 C 278.993 105.333,278.975 105.490,279.334 106.067 M201.600 108.417 C 202.810 108.584,205.240 108.712,207.000 108.702 L 210.200 108.682 207.800 108.385 C 206.480 108.221,204.050 108.093,202.400 108.100 L 199.400 108.113 201.600 108.417 M282.612 108.781 C 282.469 109.011,282.618 109.200,282.943 109.200 C 283.268 109.200,283.624 109.425,283.735 109.700 C 283.862 110.014,283.949 110.032,283.968 109.749 C 284.017 109.055,282.924 108.275,282.612 108.781 M212.200 109.200 C 212.336 109.420,213.112 109.582,213.924 109.560 C 215.250 109.524,215.298 109.488,214.400 109.200 C 212.955 108.737,211.914 108.737,212.200 109.200 M217.000 110.000 C 217.136 110.220,217.822 110.382,218.524 110.360 C 219.743 110.322,219.755 110.306,218.800 110.000 C 217.364 109.540,216.716 109.540,217.000 110.000 M251.200 110.190 C 251.200 110.294,251.785 110.665,252.500 111.014 L 253.800 111.648 252.800 110.833 C 251.837 110.048,251.200 109.792,251.200 110.190 M220.990 110.784 C 221.132 111.013,221.717 111.200,222.290 111.200 C 223.544 111.200,223.399 111.008,221.866 110.640 C 221.123 110.462,220.821 110.511,220.990 110.784 M113.284 111.815 C 113.001 112.137,112.900 112.400,113.061 112.400 C 113.221 112.400,113.004 112.664,112.576 112.987 C 112.149 113.310,112.013 113.580,112.273 113.587 C 112.533 113.594,113.130 113.060,113.600 112.400 C 114.467 111.183,114.230 110.743,113.284 111.815 M224.000 111.600 C 224.000 111.820,224.495 111.987,225.100 111.972 C 226.075 111.947,226.109 111.905,225.400 111.600 C 224.307 111.131,224.000 111.131,224.000 111.600 M226.800 112.400 C 227.130 112.613,227.760 112.778,228.200 112.766 L 229.000 112.744 228.200 112.400 C 227.004 111.886,226.005 111.886,226.800 112.400 M255.200 112.567 C 255.200 112.659,255.860 113.143,256.667 113.641 C 263.566 117.905,273.016 126.412,279.498 134.193 C 282.850 138.217,287.600 144.880,287.600 145.557 C 287.600 145.801,287.759 146.000,287.953 146.000 C 288.148 146.000,288.413 146.315,288.542 146.700 C 288.672 147.085,289.153 148.030,289.610 148.800 C 290.068 149.570,290.628 150.530,290.854 150.934 C 291.080 151.338,291.345 151.588,291.444 151.490 C 291.890 151.043,284.993 140.187,281.600 135.996 C 277.172 130.527,266.597 119.796,265.093 119.245 C 264.860 119.160,264.176 118.650,263.572 118.112 C 261.344 116.126,255.200 112.058,255.200 112.567 M229.400 113.200 C 229.536 113.420,229.909 113.600,230.229 113.600 C 230.549 113.600,231.123 113.759,231.505 113.953 C 232.266 114.340,234.142 115.136,235.400 115.606 C 239.579 117.165,253.169 124.881,254.400 126.393 C 254.510 126.528,255.217 127.070,255.971 127.597 C 259.836 130.299,269.655 140.114,272.409 144.029 C 272.939 144.783,273.598 145.632,273.873 145.915 C 274.147 146.198,274.687 146.963,275.072 147.615 C 275.457 148.267,275.926 148.800,276.113 148.800 C 277.018 148.800,269.724 139.796,264.964 135.036 C 255.991 126.063,245.356 119.055,233.692 114.429 C 229.236 112.662,229.031 112.603,229.400 113.200 M293.037 119.400 C 293.397 119.950,293.757 120.400,293.837 120.400 C 293.917 120.400,293.778 119.950,293.527 119.400 C 293.277 118.850,292.916 118.400,292.727 118.400 C 292.537 118.400,292.676 118.850,293.037 119.400 M106.060 119.580 C 106.148 119.844,106.351 120.046,106.510 120.030 C 106.988 119.981,106.896 119.432,106.380 119.260 C 106.116 119.172,105.972 119.316,106.060 119.580 M102.941 123.416 C 102.132 124.292,102.105 124.800,102.867 124.800 C 103.050 124.800,103.200 124.530,103.200 124.200 C 103.200 123.870,103.361 123.600,103.557 123.600 C 103.754 123.600,104.018 123.330,104.145 123.000 C 104.472 122.146,103.943 122.329,102.941 123.416 M296.006 122.671 C 296.018 123.284,296.755 124.178,297.026 123.907 C 297.174 123.759,297.004 123.347,296.648 122.990 C 296.291 122.634,296.003 122.491,296.006 122.671 M298.150 125.741 C 298.277 126.602,299.104 127.429,299.471 127.062 C 299.628 126.906,299.372 126.395,298.904 125.926 C 298.208 125.231,298.070 125.197,298.150 125.741 M100.389 126.706 C 100.065 127.094,99.545 127.904,99.232 128.506 C 98.920 129.108,98.515 129.600,98.332 129.600 C 98.150 129.600,98.000 129.823,98.000 130.096 C 98.000 130.768,99.757 128.830,100.567 127.265 C 101.304 125.838,101.251 125.672,100.389 126.706 M299.867 127.492 C 299.713 127.741,299.773 128.060,300.000 128.200 C 300.227 128.340,300.328 128.593,300.224 128.761 C 300.120 128.929,300.294 129.067,300.611 129.067 C 300.967 129.067,301.058 128.901,300.847 128.633 C 300.660 128.395,300.426 127.939,300.327 127.620 C 300.202 127.219,300.060 127.179,299.867 127.492 M301.200 129.951 C 301.200 130.144,301.453 130.512,301.763 130.769 C 302.073 131.026,302.621 131.859,302.982 132.618 C 303.343 133.378,303.820 134.000,304.042 134.000 C 304.265 134.000,304.319 134.208,304.162 134.462 C 303.989 134.741,304.052 134.815,304.321 134.649 C 304.811 134.346,304.524 133.200,303.957 133.200 C 303.761 133.200,303.600 132.883,303.600 132.496 C 303.600 132.109,303.240 131.568,302.800 131.293 C 302.360 131.018,302.000 130.525,302.000 130.197 C 302.000 129.868,301.820 129.600,301.600 129.600 C 301.380 129.600,301.200 129.758,301.200 129.951 M97.200 131.424 C 97.200 131.767,97.020 131.936,96.800 131.800 C 96.580 131.664,96.400 131.833,96.400 132.176 C 96.400 133.127,97.017 132.921,97.527 131.800 C 97.804 131.192,97.830 130.800,97.591 130.800 C 97.376 130.800,97.200 131.081,97.200 131.424 M94.714 135.200 C 93.918 136.745,93.816 137.200,94.265 137.200 C 94.585 137.200,94.753 137.047,94.637 136.860 C 94.521 136.673,94.871 135.918,95.413 135.182 C 96.437 133.795,96.634 133.200,96.072 133.200 C 95.892 133.200,95.280 134.100,94.714 135.200 M306.232 137.954 C 307.015 139.519,307.823 140.800,308.028 140.800 C 308.621 140.800,308.470 140.399,307.397 139.124 C 306.846 138.468,306.496 137.768,306.621 137.566 C 306.745 137.365,306.657 137.200,306.424 137.200 C 306.191 137.200,306.000 136.952,306.000 136.649 C 306.000 136.346,305.732 135.875,305.404 135.603 C 305.076 135.331,305.449 136.389,306.232 137.954 M91.685 140.813 C 91.418 141.240,91.207 141.817,91.216 142.095 C 91.225 142.373,91.509 142.089,91.847 141.465 C 92.550 140.168,92.418 139.638,91.685 140.813 M276.413 149.338 C 276.406 149.524,276.740 150.154,277.156 150.738 C 278.364 152.436,280.271 155.906,282.245 160.000 C 284.015 163.672,284.461 164.665,285.300 166.800 C 285.516 167.350,285.852 168.113,286.047 168.495 C 286.241 168.877,286.400 169.541,286.400 169.971 C 286.400 170.401,286.580 170.864,286.800 171.000 C 287.020 171.136,287.200 171.676,287.200 172.200 C 287.200 172.724,287.380 173.264,287.600 173.400 C 289.330 174.469,283.733 161.058,279.169 153.200 C 277.490 150.308,276.432 148.826,276.413 149.338 M314.400 155.153 C 314.400 155.593,314.593 156.072,314.828 156.217 C 315.063 156.363,315.412 156.868,315.603 157.341 C 315.865 157.990,315.955 158.035,315.975 157.524 C 315.989 157.152,315.820 156.736,315.600 156.600 C 315.380 156.464,315.200 156.014,315.200 155.600 C 315.200 155.186,315.020 154.736,314.800 154.600 C 314.580 154.464,314.400 154.713,314.400 155.153 M293.217 155.500 C 293.226 155.665,293.578 156.430,294.000 157.200 C 294.921 158.882,295.065 158.255,294.171 156.461 C 293.567 155.252,293.181 154.863,293.217 155.500 M296.735 163.803 C 297.321 165.454,297.863 166.511,297.939 166.150 C 298.066 165.557,297.777 164.717,296.753 162.705 C 296.559 162.323,296.400 161.738,296.400 161.405 C 296.400 161.072,296.236 160.800,296.035 160.800 C 295.835 160.800,296.150 162.151,296.735 163.803 M82.135 162.900 C 81.691 163.610,81.614 164.400,81.989 164.400 C 82.164 164.400,82.393 163.950,82.498 163.400 C 82.710 162.292,82.605 162.148,82.135 162.900 M317.902 164.600 C 318.007 165.150,318.162 165.600,318.247 165.600 C 318.331 165.600,318.400 165.150,318.400 164.600 C 318.400 164.050,318.245 163.600,318.055 163.600 C 317.866 163.600,317.797 164.050,317.902 164.600 M80.800 167.076 C 80.800 168.109,80.824 168.121,81.387 167.376 C 82.143 166.377,82.147 166.000,81.400 166.000 C 81.015 166.000,80.800 166.386,80.800 167.076 M298.000 167.350 C 298.000 167.432,298.249 168.205,298.553 169.068 C 302.046 178.967,304.457 199.344,302.533 202.698 C 300.645 205.988,296.607 206.528,293.700 203.880 C 292.772 203.035,292.409 203.275,293.300 204.145 C 296.153 206.928,300.176 206.614,302.613 203.418 L 303.668 202.035 303.456 195.318 C 303.258 189.024,303.017 186.634,302.034 181.200 C 301.815 179.990,301.526 178.370,301.391 177.600 C 301.256 176.830,300.991 175.840,300.803 175.400 C 300.442 174.558,300.087 173.069,299.727 170.896 C 299.609 170.179,299.351 169.494,299.156 169.373 C 298.960 169.252,298.800 168.713,298.800 168.176 C 298.800 167.639,298.620 167.200,298.400 167.200 C 298.180 167.200,298.000 167.267,298.000 167.350 M319.408 169.243 C 319.638 170.438,320.000 170.711,320.000 169.690 C 320.000 169.227,319.829 168.742,319.621 168.613 C 319.411 168.483,319.316 168.764,319.408 169.243 M79.563 172.076 C 79.543 172.144,79.467 172.830,79.393 173.600 C 79.320 174.370,79.355 174.640,79.473 174.200 C 79.590 173.760,79.855 173.191,80.062 172.936 C 80.301 172.641,80.285 172.376,80.019 172.212 C 79.789 172.069,79.584 172.008,79.563 172.076 M320.028 172.700 C 320.129 173.776,320.743 174.522,320.687 173.500 C 320.653 172.895,320.485 172.400,320.313 172.400 C 320.141 172.400,320.013 172.535,320.028 172.700 M288.028 174.900 C 288.013 175.505,288.180 176.000,288.400 176.000 C 288.869 176.000,288.869 175.693,288.400 174.600 C 288.095 173.891,288.053 173.925,288.028 174.900 M288.800 177.933 C 288.800 178.630,288.983 179.200,289.208 179.200 C 289.450 179.200,289.508 178.753,289.351 178.100 C 288.975 176.530,288.800 176.477,288.800 177.933 M78.080 180.080 C 77.416 180.744,77.479 181.467,78.200 181.467 C 78.562 181.467,78.800 181.096,78.800 180.533 C 78.800 179.462,78.737 179.423,78.080 180.080 M289.628 181.476 C 289.613 182.178,289.780 182.864,290.000 183.000 C 290.480 183.296,290.480 182.116,290.000 181.000 C 289.710 180.326,289.652 180.400,289.628 181.476 M77.553 184.330 C 77.454 185.281,77.494 186.134,77.641 186.225 C 78.047 186.476,78.277 184.732,77.988 183.600 C 77.775 182.767,77.703 182.888,77.553 184.330 M290.447 185.876 C 290.421 186.798,290.580 187.664,290.800 187.800 C 291.252 188.079,291.252 187.175,290.800 185.400 C 290.512 184.267,290.492 184.293,290.447 185.876 M322.710 189.700 C 322.613 189.975,322.666 190.650,322.827 191.200 C 323.082 192.070,323.125 192.005,323.160 190.700 C 323.201 189.177,323.028 188.794,322.710 189.700 M291.304 193.000 C 291.299 194.760,291.432 196.740,291.600 197.400 C 292.023 199.061,292.035 195.027,291.617 192.000 C 291.319 189.842,291.312 189.862,291.304 193.000 M322.963 200.000 C 322.963 203.630,323.023 205.115,323.098 203.300 C 323.172 201.485,323.172 198.515,323.098 196.700 C 323.023 194.885,322.963 196.370,322.963 200.000 M76.901 196.600 C 76.905 197.480,76.987 197.793,77.083 197.295 C 77.179 196.798,77.175 196.078,77.075 195.695 C 76.975 195.313,76.896 195.720,76.901 196.600 M76.901 203.400 C 76.905 204.280,76.987 204.593,77.083 204.095 C 77.179 203.598,77.175 202.878,77.075 202.495 C 76.975 202.113,76.896 202.520,76.901 203.400 M322.682 209.100 C 323.002 211.177,323.200 211.241,323.200 209.267 C 323.200 208.350,323.031 207.600,322.825 207.600 C 322.618 207.600,322.554 208.269,322.682 209.100 M322.200 212.800 C 322.064 213.020,322.154 213.200,322.400 213.200 C 322.646 213.200,322.719 213.408,322.562 213.662 C 322.385 213.948,322.452 214.015,322.738 213.838 C 323.292 213.496,323.357 212.400,322.824 212.400 C 322.617 212.400,322.336 212.580,322.200 212.800 M77.040 213.665 C 77.198 213.921,77.461 214.686,77.623 215.365 C 77.908 216.558,77.920 216.564,77.959 215.533 C 78.009 214.228,77.645 213.200,77.134 213.200 C 76.924 213.200,76.882 213.409,77.040 213.665 M77.739 217.248 C 77.785 217.551,77.954 218.010,78.114 218.266 C 78.274 218.522,78.180 218.807,77.906 218.898 C 77.554 219.015,77.632 219.289,78.172 219.829 C 78.924 220.581,78.932 220.569,78.683 219.031 C 78.543 218.172,78.255 217.295,78.042 217.082 C 77.793 216.833,77.685 216.892,77.739 217.248 M322.064 217.700 C 321.968 219.345,321.966 219.354,321.488 220.000 C 321.158 220.445,321.226 220.434,321.751 219.956 C 322.245 219.507,322.409 218.902,322.294 217.956 C 322.153 216.801,322.119 216.763,322.064 217.700 M320.138 226.603 C 319.762 227.412,319.781 227.600,320.238 227.600 C 320.571 227.600,320.800 227.192,320.800 226.600 C 320.800 225.355,320.716 225.355,320.138 226.603 M318.503 232.933 C 318.186 233.628,318.200 233.867,318.557 233.867 C 318.821 233.867,319.071 233.447,319.114 232.933 C 319.156 232.420,319.132 232.000,319.060 232.000 C 318.988 232.000,318.737 232.420,318.503 232.933 M80.912 233.223 C 80.980 234.132,81.420 234.245,81.732 233.433 C 81.852 233.121,81.703 232.772,81.401 232.656 C 81.044 232.519,80.873 232.716,80.912 233.223 M315.281 242.818 C 314.972 243.313,314.946 243.600,315.209 243.600 C 315.438 243.600,315.732 243.322,315.862 242.983 C 316.222 242.045,315.833 241.934,315.281 242.818 M85.628 246.676 C 85.613 247.158,85.780 247.664,86.000 247.800 C 86.473 248.092,86.473 247.701,86.000 246.600 C 85.669 245.829,85.655 245.831,85.628 246.676 M313.785 247.000 C 313.615 247.440,313.389 247.980,313.282 248.200 C 313.175 248.420,313.404 248.303,313.790 247.939 C 314.177 247.576,314.403 247.036,314.293 246.739 C 314.152 246.359,314.002 246.436,313.785 247.000 M312.252 250.316 C 311.630 251.322,311.248 252.800,311.610 252.800 C 311.824 252.800,312.000 252.476,312.000 252.080 C 312.000 251.684,312.213 251.147,312.473 250.887 C 312.734 250.626,312.842 250.308,312.713 250.180 C 312.585 250.052,312.377 250.113,312.252 250.316 M91.715 259.348 C 91.982 259.923,92.335 260.395,92.500 260.397 C 93.046 260.403,92.812 259.735,92.015 259.013 C 91.247 258.318,91.240 258.326,91.715 259.348 M307.330 259.863 C 307.475 260.008,307.373 260.413,307.103 260.763 C 306.803 261.153,306.960 261.105,307.507 260.638 C 308.576 259.726,308.604 259.600,307.733 259.600 C 307.367 259.600,307.185 259.718,307.330 259.863 M92.800 261.429 C 92.800 261.554,93.070 261.927,93.400 262.257 C 93.730 262.587,94.000 263.185,94.000 263.586 C 94.000 263.987,94.264 264.416,94.586 264.539 C 95.030 264.710,94.962 264.331,94.306 262.982 C 93.564 261.454,92.800 260.666,92.800 261.429 M306.069 262.439 C 305.328 263.624,305.657 263.713,306.519 262.561 C 306.914 262.032,307.092 261.600,306.915 261.600 C 306.738 261.600,306.357 261.978,306.069 262.439 M303.401 266.798 C 303.262 267.236,302.848 267.895,302.481 268.262 C 301.956 268.786,301.941 268.888,302.407 268.738 C 302.733 268.634,303.178 268.155,303.395 267.674 C 303.612 267.193,303.927 266.800,304.095 266.800 C 304.263 266.800,304.400 266.620,304.400 266.400 C 304.400 265.684,303.661 265.978,303.401 266.798 M97.612 268.501 C 97.586 269.160,99.074 271.408,99.619 271.533 C 100.010 271.622,99.923 271.360,99.355 270.733 C 98.890 270.220,98.310 269.440,98.067 269.000 C 97.823 268.560,97.619 268.336,97.612 268.501 M300.900 270.293 C 300.405 270.625,300.000 271.146,300.000 271.449 C 300.000 271.752,299.838 272.000,299.639 272.000 C 299.222 272.000,298.296 274.430,298.598 274.732 C 298.709 274.843,298.800 274.757,298.800 274.542 C 298.800 274.327,299.167 273.757,299.616 273.275 C 300.064 272.794,300.300 272.400,300.141 272.400 C 299.981 272.400,300.366 271.862,300.996 271.204 C 302.293 269.850,302.245 269.388,300.900 270.293 M100.856 273.745 C 101.139 274.375,101.442 274.673,101.531 274.406 C 101.620 274.140,101.389 273.624,101.018 273.261 C 100.386 272.642,100.376 272.673,100.856 273.745 M102.800 276.104 C 102.800 276.381,103.169 276.838,103.619 277.119 C 104.419 277.619,104.423 277.607,103.773 276.615 C 103.031 275.482,102.800 275.361,102.800 276.104 M105.681 279.982 C 105.950 280.412,106.243 280.690,106.332 280.601 C 106.572 280.361,107.600 281.472,107.600 281.971 C 107.600 282.207,107.785 282.400,108.010 282.400 C 108.244 282.400,108.153 281.883,107.800 281.200 C 107.459 280.540,106.914 280.000,106.590 280.000 C 106.265 280.000,106.000 279.820,106.000 279.600 C 106.000 279.380,105.818 279.200,105.597 279.200 C 105.354 279.200,105.388 279.512,105.681 279.982 M290.906 282.734 C 290.333 283.427,290.188 283.856,290.492 283.960 C 290.750 284.048,291.030 283.910,291.116 283.653 C 291.201 283.396,291.527 282.930,291.839 282.618 C 292.151 282.306,292.267 281.965,292.097 281.860 C 291.927 281.755,291.391 282.148,290.906 282.734 M110.143 285.000 C 110.473 285.330,110.936 285.600,111.171 285.600 C 111.407 285.600,111.600 285.752,111.600 285.939 C 111.600 286.793,113.222 288.138,113.689 287.671 C 113.958 287.402,113.988 287.200,113.758 287.200 C 113.537 287.200,112.669 286.570,111.828 285.800 C 110.359 284.455,108.909 283.767,110.143 285.000 M288.270 285.840 C 287.653 286.413,287.241 286.974,287.355 287.088 C 287.563 287.296,288.132 286.792,289.149 285.498 C 289.939 284.493,289.566 284.638,288.270 285.840 M285.556 288.500 L 285.084 289.400 286.042 288.604 C 286.569 288.167,287.075 287.762,287.167 287.704 C 287.258 287.647,287.040 287.600,286.681 287.600 C 286.322 287.600,285.816 288.005,285.556 288.500 M282.248 291.253 C 281.888 291.673,281.792 292.071,282.016 292.210 C 282.227 292.340,282.400 292.269,282.400 292.051 C 282.400 291.832,282.760 291.540,283.200 291.400 C 284.120 291.108,284.274 290.533,283.432 290.533 C 283.119 290.533,282.586 290.857,282.248 291.253 M279.660 293.868 C 278.934 294.653,279.225 294.864,280.125 294.206 C 280.522 293.915,280.702 293.588,280.524 293.480 C 280.346 293.372,279.957 293.547,279.660 293.868 M276.344 296.387 C 275.825 296.819,275.597 297.179,275.838 297.187 C 276.079 297.194,276.602 296.840,277.000 296.400 C 277.926 295.376,277.566 295.369,276.344 296.387 M123.200 296.155 C 123.200 296.308,123.560 296.820,124.000 297.292 C 124.440 297.764,124.800 297.965,124.800 297.737 C 124.800 297.510,124.440 296.998,124.000 296.600 C 123.560 296.202,123.200 296.001,123.200 296.155 M125.269 298.007 C 125.479 298.638,127.205 299.845,127.187 299.349 C 127.181 299.157,126.707 298.659,126.135 298.241 C 125.486 297.769,125.160 297.681,125.269 298.007 M273.097 299.166 C 271.637 300.102,271.266 300.496,272.000 300.333 C 272.330 300.260,272.690 300.100,272.800 299.977 C 272.910 299.854,273.445 299.449,273.989 299.077 C 275.299 298.180,274.512 298.259,273.097 299.166 M128.000 300.238 C 128.000 300.560,129.329 301.598,129.729 301.588 C 129.988 301.581,129.881 301.390,129.492 301.163 C 129.102 300.936,128.869 300.612,128.974 300.442 C 129.079 300.272,128.903 300.133,128.582 300.133 C 128.262 300.133,128.000 300.180,128.000 300.238 M270.012 301.184 C 269.688 301.389,269.563 301.696,269.733 301.867 C 269.904 302.037,270.169 301.984,270.322 301.748 C 270.475 301.513,270.870 301.217,271.200 301.092 C 271.733 300.889,271.733 300.860,271.200 300.838 C 270.870 300.824,270.335 300.980,270.012 301.184 M267.612 302.784 C 267.288 302.989,267.144 303.278,267.293 303.426 C 267.441 303.574,267.853 303.404,268.210 303.048 C 268.913 302.344,268.557 302.187,267.612 302.784 M133.700 304.274 C 134.085 304.376,134.400 304.625,134.400 304.829 C 134.400 305.033,134.655 305.200,134.967 305.200 C 135.278 305.200,135.624 305.425,135.735 305.700 C 135.893 306.092,135.944 306.089,135.968 305.687 C 135.986 305.406,135.731 305.072,135.402 304.946 C 135.074 304.819,134.881 304.593,134.973 304.443 C 135.066 304.293,134.660 304.152,134.071 304.129 C 133.482 304.107,133.315 304.172,133.700 304.274 M137.232 306.100 C 137.214 306.485,137.275 306.800,137.367 306.800 C 137.459 306.800,137.819 306.909,138.167 307.043 C 138.515 307.176,138.800 307.086,138.800 306.843 C 138.800 306.599,138.545 306.400,138.233 306.400 C 137.922 306.400,137.576 306.175,137.465 305.900 C 137.344 305.601,137.250 305.682,137.232 306.100 M260.278 307.413 C 259.660 307.956,259.314 308.400,259.508 308.400 C 259.702 308.400,260.283 307.950,260.800 307.400 C 261.995 306.128,261.731 306.134,260.278 307.413 M139.600 307.800 C 139.874 308.130,140.250 308.400,140.436 308.400 C 140.623 308.400,140.671 308.130,140.545 307.800 C 140.418 307.470,140.042 307.200,139.708 307.200 C 139.215 307.200,139.195 307.312,139.600 307.800 M147.200 311.625 C 147.200 311.831,147.560 312.000,148.000 312.000 C 148.440 312.000,148.800 311.858,148.800 311.685 C 148.800 311.512,148.440 311.343,148.000 311.310 C 147.560 311.277,147.200 311.419,147.200 311.625 M152.190 313.984 C 152.332 314.213,152.872 314.400,153.390 314.400 C 153.909 314.400,154.402 314.607,154.487 314.860 C 154.571 315.113,154.901 315.233,155.219 315.127 C 155.666 314.978,155.617 314.841,154.999 314.522 C 153.706 313.856,151.897 313.509,152.190 313.984 M161.600 317.235 C 161.600 317.436,161.949 317.600,162.376 317.600 C 162.803 317.600,163.264 317.780,163.400 318.000 C 163.742 318.554,164.800 318.503,164.800 317.933 C 164.800 317.677,164.686 317.580,164.547 317.719 C 164.408 317.858,163.913 317.762,163.447 317.505 C 162.332 316.891,161.600 316.784,161.600 317.235 M237.377 317.367 C 236.764 317.815,236.834 317.856,237.938 317.694 C 239.343 317.488,239.459 317.385,238.639 317.070 C 238.330 316.952,237.762 317.085,237.377 317.367 M232.800 318.667 C 232.800 318.960,233.040 319.200,233.333 319.200 C 233.627 319.200,233.867 318.960,233.867 318.667 C 233.867 318.373,233.627 318.133,233.333 318.133 C 233.040 318.133,232.800 318.373,232.800 318.667 M230.962 319.138 C 231.153 319.448,230.812 319.620,229.924 319.660 C 228.644 319.718,228.638 319.726,229.749 319.891 C 231.031 320.082,231.976 319.480,231.173 318.983 C 230.853 318.785,230.778 318.841,230.962 319.138 M176.400 321.113 C 176.400 321.291,177.068 321.481,177.885 321.536 C 179.640 321.655,179.521 321.338,177.688 321.015 C 176.980 320.891,176.400 320.934,176.400 321.113 M219.500 321.476 C 219.115 321.576,218.800 321.825,218.800 322.029 C 218.800 322.520,218.911 322.503,220.254 321.802 C 221.347 321.232,221.002 321.083,219.500 321.476 M181.600 322.000 C 181.600 322.220,182.095 322.387,182.700 322.372 C 183.675 322.347,183.709 322.305,183.000 322.000 C 181.907 321.531,181.600 321.531,181.600 322.000 M210.529 322.271 C 210.705 322.565,210.471 322.807,209.906 322.913 C 209.408 323.006,209.675 323.080,210.500 323.076 C 211.325 323.073,212.000 322.890,212.000 322.669 C 212.000 322.448,211.882 322.385,211.737 322.530 C 211.592 322.675,211.197 322.570,210.860 322.297 C 210.433 321.951,210.332 321.943,210.529 322.271 M212.857 322.356 C 212.528 322.565,212.471 322.796,212.712 322.946 C 212.931 323.081,213.332 322.923,213.604 322.596 C 214.143 321.945,213.720 321.809,212.857 322.356 M188.000 322.800 C 188.000 323.020,188.675 323.187,189.500 323.172 C 190.703 323.149,190.842 323.076,190.200 322.800 C 189.088 322.322,188.000 322.322,188.000 322.800 M196.700 323.098 C 198.515 323.172,201.485 323.172,203.300 323.098 C 205.115 323.023,203.630 322.963,200.000 322.963 C 196.370 322.963,194.885 323.023,196.700 323.098 " stroke="none" fill="#fcd43c" fill-rule="evenodd"></path><path id="path4" d="M197.800 97.578 C 197.360 97.758,196.641 98.332,196.203 98.853 L 195.406 99.800 196.429 98.900 C 196.991 98.405,197.654 98.000,197.902 98.000 C 198.150 98.000,198.464 97.820,198.600 97.600 C 198.884 97.140,198.871 97.140,197.800 97.578 M205.700 97.476 C 206.085 97.576,206.715 97.576,207.100 97.476 C 207.485 97.375,207.170 97.293,206.400 97.293 C 205.630 97.293,205.315 97.375,205.700 97.476 M208.900 97.887 C 209.505 97.978,210.495 97.978,211.100 97.887 C 211.705 97.795,211.210 97.720,210.000 97.720 C 208.790 97.720,208.295 97.795,208.900 97.887 M216.100 98.676 C 216.485 98.776,217.115 98.776,217.500 98.676 C 217.885 98.575,217.570 98.493,216.800 98.493 C 216.030 98.493,215.715 98.575,216.100 98.676 M229.633 101.744 C 229.725 101.823,230.340 102.008,231.000 102.156 C 231.876 102.352,232.038 102.315,231.600 102.018 C 231.060 101.653,229.232 101.398,229.633 101.744 M205.233 107.747 C 205.325 107.828,206.660 107.986,208.200 108.099 C 209.802 108.216,210.658 108.165,210.200 107.980 C 209.422 107.665,204.900 107.453,205.233 107.747 M213.633 108.544 C 214.105 108.950,216.043 109.193,215.810 108.816 C 215.668 108.587,215.083 108.400,214.510 108.400 C 213.936 108.400,213.542 108.465,213.633 108.544 M218.600 109.600 C 219.701 110.073,220.092 110.073,219.800 109.600 C 219.664 109.380,219.158 109.213,218.676 109.228 C 217.831 109.255,217.829 109.269,218.600 109.600 M260.000 116.525 C 260.000 116.624,260.661 117.209,261.468 117.825 C 262.276 118.441,262.811 118.741,262.656 118.491 C 262.340 117.979,260.000 116.247,260.000 116.525 M266.171 121.497 C 266.815 122.209,267.430 122.704,267.538 122.596 C 267.645 122.488,267.658 122.355,267.567 122.300 C 267.475 122.245,266.860 121.751,266.200 121.201 L 265.000 120.203 266.171 121.497 M268.000 122.925 C 268.000 122.994,268.585 123.579,269.300 124.225 L 270.600 125.400 269.425 124.100 C 268.330 122.888,268.000 122.616,268.000 122.925 M277.200 132.525 C 277.200 132.594,277.785 133.179,278.500 133.825 L 279.800 135.000 278.625 133.700 C 277.530 132.488,277.200 132.216,277.200 132.525 M265.200 134.600 C 265.946 135.370,266.647 136.000,266.757 136.000 C 266.867 136.000,266.346 135.370,265.600 134.600 C 264.854 133.830,264.153 133.200,264.043 133.200 C 263.933 133.200,264.454 133.830,265.200 134.600 M282.175 138.532 C 282.791 139.339,283.376 140.000,283.475 140.000 C 283.753 140.000,282.021 137.660,281.509 137.344 C 281.259 137.189,281.559 137.724,282.175 138.532 M268.000 137.725 C 268.000 137.794,268.585 138.379,269.300 139.025 L 270.600 140.200 269.425 138.900 C 268.330 137.688,268.000 137.416,268.000 137.725 M284.800 141.889 C 284.800 142.121,285.171 142.736,285.624 143.256 L 286.447 144.200 285.745 143.000 C 284.820 141.421,284.800 141.397,284.800 141.889 M299.256 173.600 C 299.256 173.930,299.411 174.560,299.600 175.000 C 299.817 175.504,299.944 175.578,299.944 175.200 C 299.944 174.870,299.789 174.240,299.600 173.800 C 299.383 173.296,299.256 173.222,299.256 173.600 M300.258 178.000 C 300.575 179.725,300.802 180.051,300.794 178.767 C 300.791 178.235,300.611 177.530,300.394 177.200 C 300.118 176.778,300.077 177.015,300.258 178.000 M301.073 182.000 C 301.204 182.990,301.376 183.875,301.456 183.967 C 301.757 184.314,301.528 181.764,301.190 181.000 C 300.953 180.466,300.914 180.798,301.073 182.000 M290.834 184.000 C 290.846 184.330,291.011 184.960,291.200 185.400 L 291.544 186.200 291.566 185.400 C 291.578 184.960,291.413 184.330,291.200 184.000 C 290.855 183.467,290.815 183.467,290.834 184.000 M302.120 189.600 C 302.120 190.810,302.195 191.305,302.287 190.700 C 302.378 190.095,302.378 189.105,302.287 188.500 C 302.195 187.895,302.120 188.390,302.120 189.600 M291.875 191.408 C 292.004 192.723,292.176 193.875,292.255 193.967 C 292.589 194.351,292.356 190.149,292.013 189.608 C 291.770 189.223,291.721 189.854,291.875 191.408 M302.501 193.400 C 302.505 194.280,302.587 194.593,302.683 194.095 C 302.779 193.598,302.775 192.878,302.675 192.495 C 302.575 192.113,302.496 192.520,302.501 193.400 M302.893 199.200 C 302.893 199.970,302.975 200.285,303.076 199.900 C 303.176 199.515,303.176 198.885,303.076 198.500 C 302.975 198.115,302.893 198.430,302.893 199.200 " stroke="none" fill="#fcb434" fill-rule="evenodd"></path></g></svg>