<svg id="svg" version="1.1" xmlns="http://www.w3.org/2000/svg" xmlns:xlink="http://www.w3.org/1999/xlink" width="400" height="400" viewBox="0, 0, 400,400"><g id="svgg"><path id="path0" d="M111.200 0.276 C 110.305 0.648,109.216 2.013,108.889 3.174 C 108.508 4.526,108.514 29.094,108.896 30.453 C 109.268 31.779,111.313 34.000,112.160 34.000 C 112.512 34.000,112.800 34.180,112.800 34.400 C 112.800 34.622,113.867 34.800,115.200 34.800 C 116.533 34.800,117.600 34.622,117.600 34.400 C 117.600 34.180,117.876 34.000,118.213 34.000 C 118.551 34.000,119.451 33.376,120.213 32.613 L 121.600 31.227 121.600 17.208 C 121.600 -0.318,121.799 0.253,115.629 0.114 C 113.523 0.066,111.530 0.139,111.200 0.276 M33.078 32.954 C 32.096 33.854,31.600 34.659,31.600 35.354 C 31.600 35.929,31.420 36.400,31.200 36.400 C 30.980 36.400,30.800 37.109,30.800 37.976 C 30.800 38.843,30.980 39.664,31.200 39.800 C 31.420 39.936,31.600 40.308,31.600 40.627 C 31.600 40.946,33.985 43.625,36.900 46.581 C 39.815 49.536,43.669 53.450,45.465 55.277 C 49.581 59.465,49.753 59.600,50.983 59.600 C 51.542 59.600,52.000 59.780,52.000 60.000 C 52.000 60.220,52.619 60.400,53.376 60.400 C 54.133 60.400,54.864 60.220,55.000 60.000 C 55.136 59.780,55.687 59.600,56.224 59.600 C 56.761 59.600,57.200 59.420,57.200 59.200 C 57.200 58.980,57.467 58.800,57.792 58.800 C 58.118 58.800,58.498 58.350,58.636 57.800 C 58.774 57.250,59.047 56.800,59.243 56.800 C 59.440 56.800,59.600 55.360,59.600 53.600 C 59.600 51.733,59.433 50.400,59.200 50.400 C 58.980 50.400,58.800 50.100,58.800 49.732 C 58.800 49.061,42.862 33.036,41.265 32.100 C 39.346 30.976,34.709 31.460,33.078 32.954 M189.600 32.000 C 189.600 32.220,189.329 32.400,188.997 32.400 C 188.201 32.400,171.600 48.988,171.600 49.784 C 171.600 50.123,171.420 50.400,171.200 50.400 C 170.967 50.400,170.800 51.717,170.800 53.550 C 170.800 57.181,172.291 59.600,174.528 59.600 C 175.118 59.600,175.600 59.780,175.600 60.000 C 175.600 60.220,176.230 60.400,177.000 60.400 C 177.770 60.400,178.400 60.220,178.400 60.000 C 178.400 59.780,178.858 59.600,179.417 59.600 C 180.673 59.600,180.589 59.670,186.527 53.701 C 196.603 43.571,198.800 41.195,198.800 40.428 C 198.800 39.999,198.980 39.536,199.200 39.400 C 199.420 39.264,199.600 38.533,199.600 37.776 C 199.600 37.019,199.420 36.400,199.200 36.400 C 198.980 36.400,198.800 35.942,198.800 35.382 C 198.800 34.338,197.594 32.853,196.096 32.051 C 195.048 31.490,189.600 31.447,189.600 32.000 M109.380 44.369 C 109.171 44.572,107.740 44.826,106.200 44.934 C 104.660 45.042,102.410 45.334,101.200 45.582 C 99.990 45.830,98.413 46.136,97.696 46.261 C 96.979 46.386,96.294 46.649,96.173 46.844 C 96.052 47.040,95.434 47.200,94.800 47.200 C 94.166 47.200,93.536 47.380,93.400 47.600 C 93.264 47.820,92.713 48.000,92.176 48.000 C 91.639 48.000,91.200 48.180,91.200 48.400 C 91.200 48.620,90.761 48.800,90.224 48.800 C 89.687 48.800,89.136 48.980,89.000 49.200 C 88.864 49.420,88.403 49.600,87.976 49.600 C 87.549 49.600,87.200 49.780,87.200 50.000 C 87.200 50.220,86.840 50.400,86.400 50.400 C 85.960 50.400,85.600 50.580,85.600 50.800 C 85.600 51.020,85.240 51.200,84.800 51.200 C 84.360 51.200,84.000 51.380,84.000 51.600 C 84.000 51.820,83.640 52.000,83.200 52.000 C 82.760 52.000,82.400 52.180,82.400 52.400 C 82.400 52.620,82.040 52.800,81.600 52.800 C 81.160 52.800,80.800 52.980,80.800 53.200 C 80.800 53.420,80.440 53.600,80.000 53.600 C 79.560 53.600,79.200 53.780,79.200 54.000 C 79.200 54.220,78.930 54.400,78.600 54.400 C 78.270 54.400,78.000 54.580,78.000 54.800 C 78.000 55.020,77.730 55.200,77.400 55.200 C 77.070 55.200,76.800 55.380,76.800 55.600 C 76.800 55.820,76.570 56.000,76.288 56.000 C 76.007 56.000,75.517 56.360,75.200 56.800 C 74.883 57.240,74.380 57.600,74.083 57.600 C 73.786 57.600,73.292 57.825,72.985 58.100 C 72.124 58.872,71.517 59.340,70.000 60.399 C 68.447 61.484,60.000 69.917,60.000 70.383 C 60.000 70.642,59.536 71.270,58.007 73.083 C 57.783 73.349,57.600 73.804,57.600 74.095 C 57.600 74.386,57.240 74.883,56.800 75.200 C 56.360 75.517,56.000 75.924,56.000 76.105 C 56.000 76.286,55.640 76.820,55.200 77.292 C 54.760 77.764,54.400 78.387,54.400 78.675 C 54.400 78.964,54.220 79.200,54.000 79.200 C 53.767 79.200,53.600 80.533,53.600 82.400 C 53.600 84.267,53.767 85.600,54.000 85.600 C 54.220 85.600,54.400 85.842,54.400 86.138 C 54.400 87.263,55.788 87.844,58.695 87.935 C 62.543 88.056,63.504 87.502,66.061 83.694 C 87.265 52.103,130.422 47.479,156.816 73.968 C 160.779 77.945,165.017 83.272,164.729 83.913 C 164.658 84.071,163.328 85.910,161.773 88.000 C 159.275 91.359,157.427 94.189,155.114 98.200 C 149.872 107.291,145.661 119.964,144.194 131.066 C 143.239 138.287,143.336 137.957,142.094 138.218 C 125.537 141.698,107.728 154.386,99.391 168.642 C 97.691 171.549,97.862 171.487,94.652 170.348 C 69.922 161.567,54.085 135.243,57.210 108.111 C 57.809 102.911,57.223 100.764,54.872 99.553 C 54.283 99.249,53.562 98.775,53.271 98.500 C 52.645 97.907,48.800 97.821,48.800 98.400 C 48.800 98.620,48.506 98.800,48.147 98.800 C 47.247 98.800,45.601 100.804,45.600 101.900 C 45.600 102.395,45.420 102.800,45.200 102.800 C 44.969 102.800,44.800 104.059,44.800 105.776 C 44.800 107.413,44.620 108.864,44.400 109.000 C 43.865 109.331,43.865 121.469,44.400 121.800 C 44.620 121.936,44.800 123.286,44.800 124.800 C 44.800 126.314,44.980 127.664,45.200 127.800 C 45.420 127.936,45.600 128.847,45.600 129.824 C 45.600 130.801,45.780 131.600,46.000 131.600 C 46.220 131.600,46.400 132.320,46.400 133.200 C 46.400 134.080,46.580 134.800,46.800 134.800 C 47.020 134.800,47.200 135.329,47.200 135.976 C 47.200 136.623,47.380 137.264,47.600 137.400 C 47.820 137.536,48.000 138.076,48.000 138.600 C 48.000 139.124,48.180 139.664,48.400 139.800 C 48.620 139.936,48.800 140.397,48.800 140.824 C 48.800 141.251,48.980 141.600,49.200 141.600 C 49.420 141.600,49.600 142.140,49.600 142.800 C 49.600 143.460,49.780 144.000,50.000 144.000 C 50.220 144.000,50.400 144.360,50.400 144.800 C 50.400 145.240,50.580 145.600,50.800 145.600 C 51.020 145.600,51.200 145.960,51.200 146.400 C 51.200 146.840,51.380 147.200,51.600 147.200 C 51.820 147.200,52.000 147.560,52.000 148.000 C 52.000 148.440,52.180 148.800,52.400 148.800 C 52.620 148.800,52.800 149.160,52.800 149.600 C 52.800 150.040,52.980 150.400,53.200 150.400 C 53.420 150.400,53.600 150.636,53.600 150.925 C 53.600 151.213,53.960 151.836,54.400 152.308 C 54.840 152.780,55.200 153.378,55.200 153.636 C 55.200 153.895,55.516 154.397,55.903 154.753 C 56.289 155.109,56.860 155.895,57.170 156.500 C 57.481 157.105,57.885 157.600,58.068 157.600 C 58.250 157.600,58.400 157.788,58.400 158.017 C 58.400 158.486,58.828 159.043,60.700 161.008 C 61.415 161.759,62.000 162.535,62.000 162.733 C 62.000 163.251,65.950 167.254,67.600 168.408 C 68.370 168.946,69.591 169.975,70.313 170.693 C 71.036 171.412,71.792 172.000,71.995 172.000 C 72.198 172.000,72.787 172.405,73.305 172.900 C 74.368 173.916,75.221 174.485,77.100 175.435 C 77.815 175.796,78.400 176.251,78.400 176.446 C 78.400 176.641,78.760 176.800,79.200 176.800 C 79.640 176.800,80.000 176.980,80.000 177.200 C 80.000 177.420,80.360 177.600,80.800 177.600 C 81.240 177.600,81.601 177.735,81.603 177.900 C 81.607 178.259,83.544 179.200,84.280 179.200 C 84.566 179.200,84.800 179.380,84.800 179.600 C 84.800 179.820,85.160 180.000,85.600 180.000 C 86.040 180.000,86.400 180.180,86.400 180.400 C 86.400 180.620,86.760 180.800,87.200 180.800 C 87.640 180.800,88.000 180.980,88.000 181.200 C 88.000 181.420,88.540 181.600,89.200 181.600 C 89.860 181.600,90.400 181.780,90.400 182.000 C 90.400 182.220,90.796 182.400,91.280 182.400 C 91.964 182.400,92.053 182.507,91.680 182.880 C 91.416 183.144,91.200 183.864,91.200 184.480 C 91.200 185.096,91.020 185.600,90.800 185.600 C 90.580 185.600,90.400 186.320,90.400 187.200 C 90.400 188.080,90.220 188.800,90.000 188.800 C 89.780 188.800,89.600 189.700,89.600 190.800 C 89.600 191.900,89.420 192.800,89.200 192.800 C 88.965 192.800,88.800 194.200,88.800 196.200 C 88.800 198.200,88.635 199.600,88.400 199.600 C 88.155 199.600,88.000 201.533,88.000 204.600 C 88.000 207.667,88.155 209.600,88.400 209.600 C 88.635 209.600,88.800 211.000,88.800 213.000 C 88.800 215.000,88.965 216.400,89.200 216.400 C 89.420 216.400,89.600 217.300,89.600 218.400 C 89.600 219.500,89.780 220.400,90.000 220.400 C 90.220 220.400,90.400 221.120,90.400 222.000 C 90.400 222.880,90.560 223.600,90.756 223.600 C 90.952 223.600,91.208 224.185,91.325 224.900 C 91.721 227.315,92.533 230.000,92.867 230.000 C 93.050 230.000,93.200 230.439,93.200 230.976 C 93.200 231.513,93.380 232.064,93.600 232.200 C 93.820 232.336,94.000 232.797,94.000 233.224 C 94.000 233.651,94.180 234.000,94.400 234.000 C 94.620 234.000,94.800 234.360,94.800 234.800 C 94.800 235.240,94.980 235.600,95.200 235.600 C 95.420 235.600,95.600 235.960,95.600 236.400 C 95.600 236.840,95.736 237.200,95.902 237.200 C 96.069 237.200,96.464 237.785,96.780 238.500 C 97.097 239.215,97.680 240.149,98.078 240.575 C 98.475 241.002,98.800 241.547,98.800 241.787 C 98.800 242.027,99.160 242.483,99.600 242.800 C 100.040 243.117,100.400 243.657,100.400 244.000 C 100.400 244.343,100.760 244.883,101.200 245.200 C 101.640 245.517,102.000 245.981,102.000 246.231 C 102.000 247.098,113.393 258.795,114.241 258.798 C 114.483 258.799,115.246 259.340,115.937 260.000 C 116.628 260.660,117.425 261.200,117.708 261.200 C 117.991 261.200,118.483 261.560,118.800 262.000 C 119.117 262.440,119.614 262.800,119.905 262.800 C 120.196 262.800,120.820 263.160,121.292 263.600 C 121.764 264.040,122.387 264.400,122.675 264.400 C 122.964 264.400,123.200 264.580,123.200 264.800 C 123.200 265.020,123.545 265.200,123.967 265.200 C 124.388 265.200,124.793 265.335,124.867 265.500 C 125.087 265.995,130.054 268.400,130.856 268.400 C 131.265 268.400,131.600 268.580,131.600 268.800 C 131.600 269.020,131.949 269.200,132.376 269.200 C 132.803 269.200,133.264 269.380,133.400 269.600 C 133.536 269.820,134.076 270.000,134.600 270.000 C 135.124 270.000,135.664 270.180,135.800 270.400 C 135.936 270.620,136.667 270.800,137.424 270.800 C 138.181 270.800,138.800 270.980,138.800 271.200 C 138.800 271.420,139.520 271.600,140.400 271.600 C 141.280 271.600,142.000 271.763,142.000 271.961 C 142.000 272.160,142.945 272.437,144.100 272.577 C 151.396 273.459,157.585 273.681,179.300 273.840 C 194.738 273.953,203.600 274.161,203.600 274.409 C 203.600 274.624,203.420 274.800,203.200 274.800 C 202.980 274.800,202.800 275.072,202.800 275.405 C 202.800 275.738,202.620 276.368,202.400 276.805 C 202.180 277.242,201.820 277.958,201.600 278.395 C 201.380 278.832,201.200 279.552,201.200 279.995 C 201.200 280.438,201.020 280.800,200.800 280.800 C 200.580 280.800,200.400 281.149,200.400 281.576 C 200.400 282.003,200.220 282.464,200.000 282.600 C 199.780 282.736,199.600 283.287,199.600 283.824 C 199.600 284.361,199.420 284.800,199.200 284.800 C 198.980 284.800,198.800 285.340,198.800 286.000 C 198.800 286.660,198.620 287.200,198.400 287.200 C 198.180 287.200,198.000 287.560,198.000 288.000 C 198.000 288.440,197.820 288.800,197.600 288.800 C 197.380 288.800,197.200 289.340,197.200 290.000 C 197.200 290.660,197.020 291.200,196.800 291.200 C 196.580 291.200,196.400 291.472,196.400 291.805 C 196.400 292.138,196.220 292.768,196.000 293.205 C 195.780 293.642,195.420 294.358,195.200 294.795 C 194.980 295.232,194.800 295.952,194.800 296.395 C 194.800 296.838,194.620 297.200,194.400 297.200 C 194.180 297.200,194.000 297.562,194.000 298.005 C 194.000 298.448,193.820 299.168,193.600 299.605 C 193.380 300.042,193.020 300.758,192.800 301.195 C 192.580 301.632,192.399 302.307,192.398 302.695 C 192.396 303.083,192.126 303.916,191.798 304.546 C 191.469 305.176,191.200 306.121,191.200 306.646 C 191.200 307.171,191.020 307.600,190.800 307.600 C 190.580 307.600,190.400 307.949,190.400 308.376 C 190.400 308.803,190.220 309.264,190.000 309.400 C 189.780 309.536,189.600 309.997,189.600 310.424 C 189.600 310.851,189.420 311.200,189.200 311.200 C 188.980 311.200,188.800 311.740,188.800 312.400 C 188.800 313.060,188.620 313.600,188.400 313.600 C 188.178 313.600,188.000 314.667,188.000 316.000 C 188.000 317.333,188.178 318.400,188.400 318.400 C 188.620 318.400,188.800 318.676,188.800 319.013 C 188.800 320.007,191.459 322.400,192.563 322.400 C 193.107 322.400,193.664 322.580,193.800 322.800 C 193.957 323.053,198.804 323.200,207.024 323.200 C 219.733 323.200,220.000 323.216,220.000 324.000 C 220.000 324.440,219.820 324.800,219.600 324.800 C 219.380 324.800,219.200 325.160,219.200 325.600 C 219.200 326.040,219.020 326.400,218.800 326.400 C 218.580 326.400,218.400 326.839,218.400 327.376 C 218.400 327.913,218.220 328.464,218.000 328.600 C 217.780 328.736,217.600 329.287,217.600 329.824 C 217.600 330.361,217.420 330.800,217.200 330.800 C 216.980 330.800,216.800 331.340,216.800 332.000 C 216.800 332.660,216.620 333.200,216.400 333.200 C 216.180 333.200,216.000 333.549,216.000 333.976 C 216.000 334.403,215.820 334.864,215.600 335.000 C 215.380 335.136,215.200 335.687,215.200 336.224 C 215.200 336.761,215.020 337.200,214.800 337.200 C 214.580 337.200,214.400 337.740,214.400 338.400 C 214.400 339.060,214.220 339.600,214.000 339.600 C 213.780 339.600,213.600 340.140,213.600 340.800 C 213.600 341.460,213.420 342.000,213.200 342.000 C 212.980 342.000,212.800 342.272,212.800 342.605 C 212.800 342.938,212.620 343.568,212.400 344.005 C 212.180 344.442,211.820 345.158,211.600 345.595 C 211.380 346.032,211.200 346.741,211.200 347.171 C 211.200 347.601,211.020 348.064,210.800 348.200 C 210.580 348.336,210.400 348.887,210.400 349.424 C 210.400 349.961,210.260 350.400,210.089 350.400 C 209.712 350.400,208.400 354.687,208.400 355.920 C 208.400 356.404,208.220 356.800,208.000 356.800 C 207.780 356.800,207.600 357.239,207.600 357.776 C 207.600 358.313,207.420 358.864,207.200 359.000 C 206.980 359.136,206.800 359.597,206.800 360.024 C 206.800 360.451,206.620 360.800,206.400 360.800 C 206.180 360.800,206.000 361.250,206.000 361.800 C 206.000 362.350,205.820 362.800,205.600 362.800 C 205.380 362.800,205.200 363.340,205.200 364.000 C 205.200 364.660,205.020 365.200,204.800 365.200 C 204.580 365.200,204.400 365.740,204.400 366.400 C 204.400 367.060,204.220 367.600,204.000 367.600 C 203.780 367.600,203.600 367.949,203.600 368.376 C 203.600 368.803,203.420 369.264,203.200 369.400 C 202.980 369.536,202.800 370.087,202.800 370.624 C 202.800 371.161,202.620 371.600,202.400 371.600 C 202.180 371.600,202.000 372.140,202.000 372.800 C 202.000 373.460,201.820 374.000,201.600 374.000 C 201.380 374.000,201.200 374.450,201.200 375.000 C 201.200 375.550,201.020 376.000,200.800 376.000 C 200.580 376.000,200.400 376.450,200.400 377.000 C 200.400 377.550,200.220 378.000,200.000 378.000 C 199.780 378.000,199.600 378.450,199.600 379.000 C 199.600 379.550,199.420 380.000,199.200 380.000 C 198.980 380.000,198.800 380.540,198.800 381.200 C 198.800 381.860,198.620 382.400,198.400 382.400 C 198.180 382.400,198.000 382.940,198.000 383.600 C 198.000 384.260,197.820 384.800,197.600 384.800 C 197.365 384.800,197.200 386.200,197.200 388.200 C 197.200 390.200,197.365 391.600,197.600 391.600 C 197.820 391.600,198.000 392.140,198.000 392.800 C 198.000 393.460,198.180 394.000,198.400 394.000 C 198.620 394.000,198.800 394.275,198.800 394.611 C 198.800 395.386,202.187 398.800,202.956 398.800 C 203.274 398.800,203.608 399.025,203.700 399.300 C 203.823 399.670,205.409 399.800,209.800 399.800 C 214.191 399.800,215.777 399.670,215.900 399.300 C 215.992 399.025,216.286 398.800,216.555 398.800 C 217.255 398.800,220.000 396.198,220.000 395.534 C 220.000 395.228,220.360 394.717,220.800 394.400 C 221.240 394.083,221.600 393.543,221.600 393.200 C 221.600 392.857,221.960 392.317,222.400 392.000 C 222.840 391.683,223.200 391.221,223.200 390.974 C 223.200 390.726,223.544 390.213,223.964 389.833 C 224.384 389.452,224.838 388.704,224.972 388.171 C 225.106 387.637,225.392 387.200,225.608 387.200 C 225.823 387.200,226.000 386.930,226.000 386.600 C 226.000 386.270,226.180 386.000,226.400 386.000 C 226.620 386.000,226.800 385.730,226.800 385.400 C 226.800 385.070,226.950 384.800,227.132 384.800 C 227.315 384.800,227.719 384.305,228.030 383.700 C 228.340 383.095,228.911 382.309,229.297 381.953 C 229.684 381.597,230.000 381.052,230.000 380.741 C 230.000 380.431,230.360 379.917,230.800 379.600 C 231.240 379.283,231.600 378.743,231.600 378.400 C 231.600 378.057,231.960 377.517,232.400 377.200 C 232.840 376.883,233.200 376.346,233.200 376.008 C 233.200 375.669,233.560 375.168,234.000 374.893 C 234.440 374.618,234.800 374.125,234.800 373.797 C 234.800 373.468,234.950 373.200,235.132 373.200 C 235.315 373.200,235.719 372.705,236.030 372.100 C 236.340 371.495,236.911 370.709,237.297 370.353 C 237.684 369.997,238.000 369.452,238.000 369.141 C 238.000 368.831,238.360 368.317,238.800 368.000 C 239.240 367.683,239.600 367.255,239.600 367.049 C 239.600 366.844,240.050 366.086,240.600 365.364 C 241.150 364.643,241.600 363.811,241.600 363.515 C 241.600 363.219,241.960 362.717,242.400 362.400 C 242.840 362.083,243.200 361.543,243.200 361.200 C 243.200 360.857,243.560 360.317,244.000 360.000 C 244.440 359.683,244.800 359.193,244.800 358.912 C 244.800 358.630,244.980 358.400,245.200 358.400 C 245.420 358.400,245.600 358.130,245.600 357.800 C 245.600 357.470,245.780 357.200,246.000 357.200 C 246.220 357.200,246.400 356.970,246.400 356.688 C 246.400 356.407,246.760 355.917,247.200 355.600 C 247.640 355.283,248.000 354.743,248.000 354.400 C 248.000 354.057,248.360 353.517,248.800 353.200 C 249.270 352.861,249.600 352.165,249.600 351.512 C 249.600 350.900,249.780 350.400,250.000 350.400 C 250.220 350.400,250.400 349.680,250.400 348.800 C 250.400 347.920,250.220 347.200,250.000 347.200 C 249.780 347.200,249.600 346.737,249.600 346.171 C 249.600 344.838,248.643 343.908,247.062 343.705 C 240.318 342.840,240.848 342.442,232.710 354.463 C 229.085 359.818,224.818 366.090,223.229 368.400 C 221.640 370.710,218.371 375.525,215.964 379.100 C 211.014 386.454,209.772 387.540,211.562 382.953 C 211.981 381.879,212.701 379.965,213.162 378.700 C 215.312 372.799,215.699 371.747,215.999 371.000 C 216.175 370.560,216.536 369.570,216.800 368.800 C 217.064 368.030,217.434 367.040,217.620 366.600 C 217.807 366.160,218.229 364.990,218.559 364.000 C 218.888 363.010,220.352 358.960,221.812 355.000 C 223.272 351.040,224.615 347.350,224.798 346.800 C 224.980 346.250,225.701 344.270,226.400 342.400 C 227.099 340.530,227.819 338.550,228.000 338.000 C 228.181 337.450,228.901 335.470,229.600 333.600 C 230.299 331.730,231.019 329.750,231.200 329.200 C 231.381 328.650,232.099 326.670,232.796 324.800 C 236.337 315.299,236.321 313.951,232.638 311.451 L 231.088 310.400 217.368 310.400 C 203.227 310.400,202.894 310.360,203.583 308.730 C 203.800 308.218,205.160 304.650,206.607 300.800 C 208.053 296.950,209.967 291.910,210.858 289.600 C 211.750 287.290,213.019 283.960,213.678 282.200 C 214.337 280.440,215.039 278.595,215.238 278.100 C 215.437 277.605,215.763 276.795,215.962 276.300 C 216.344 275.349,217.329 272.753,221.010 263.000 C 222.256 259.700,224.173 254.660,225.271 251.800 C 226.368 248.940,227.809 245.160,228.471 243.400 C 229.134 241.640,229.825 239.840,230.007 239.400 C 230.189 238.960,230.756 237.475,231.267 236.100 L 232.196 233.600 249.498 233.600 C 260.040 233.600,266.800 233.747,266.800 233.976 C 266.800 234.183,266.059 235.938,265.154 237.876 C 264.249 239.814,262.922 242.660,262.205 244.200 C 258.558 252.033,256.166 257.123,252.903 264.000 C 251.912 266.090,250.426 269.240,249.603 271.000 C 248.779 272.760,246.798 276.990,245.200 280.400 C 241.147 289.052,240.982 290.397,243.638 293.114 C 245.239 294.752,245.698 294.800,259.817 294.800 C 274.168 294.800,273.518 294.587,270.809 298.395 C 265.676 305.611,251.506 326.950,251.128 328.033 C 250.585 329.593,251.170 331.722,252.592 333.362 C 253.146 334.001,253.600 334.766,253.600 335.062 C 253.600 335.358,253.949 335.600,254.376 335.600 C 254.803 335.600,255.264 335.780,255.400 336.000 C 255.536 336.220,256.177 336.400,256.824 336.400 C 257.471 336.400,258.000 336.220,258.000 336.000 C 258.000 335.780,258.456 335.600,259.013 335.600 C 260.090 335.600,262.800 333.239,262.800 332.302 C 262.800 332.013,263.160 331.517,263.600 331.200 C 264.040 330.883,264.400 330.385,264.400 330.094 C 264.400 329.802,264.850 329.114,265.400 328.564 C 265.950 328.014,266.400 327.405,266.400 327.210 C 266.400 327.016,266.634 326.619,266.919 326.329 C 267.204 326.038,268.052 324.900,268.802 323.800 C 269.553 322.700,270.489 321.451,270.883 321.025 C 271.278 320.598,271.600 320.013,271.600 319.725 C 271.600 319.436,271.758 319.200,271.951 319.200 C 272.145 319.200,272.527 318.660,272.800 318.000 C 273.073 317.340,273.428 316.800,273.588 316.800 C 273.748 316.800,274.203 316.080,274.600 315.200 C 274.997 314.320,275.474 313.600,275.661 313.600 C 275.847 313.600,276.000 313.280,276.000 312.888 C 276.000 312.497,276.360 311.917,276.800 311.600 C 277.240 311.283,277.600 310.743,277.600 310.400 C 277.600 310.057,277.960 309.517,278.400 309.200 C 278.840 308.883,279.200 308.433,279.200 308.200 C 279.200 307.967,279.560 307.517,280.000 307.200 C 280.440 306.883,280.800 306.393,280.800 306.112 C 280.800 305.830,280.980 305.600,281.200 305.600 C 281.420 305.600,281.600 305.330,281.600 305.000 C 281.600 304.670,281.750 304.400,281.932 304.400 C 282.115 304.400,282.520 303.905,282.832 303.300 C 283.145 302.695,283.715 301.851,284.100 301.425 C 284.485 300.998,284.800 300.453,284.800 300.213 C 284.800 299.973,285.160 299.517,285.600 299.200 C 286.040 298.883,286.400 298.343,286.400 298.000 C 286.400 297.657,286.760 297.117,287.200 296.800 C 287.640 296.483,288.000 295.943,288.000 295.600 C 288.000 295.257,288.360 294.717,288.800 294.400 C 289.240 294.083,289.600 293.518,289.600 293.145 C 289.600 292.772,289.810 292.397,290.066 292.311 C 292.262 291.579,289.455 283.200,287.013 283.200 C 286.676 283.200,286.400 283.020,286.400 282.800 C 286.400 282.541,281.464 282.400,272.392 282.400 L 258.385 282.400 258.654 281.300 C 258.802 280.695,259.076 280.140,259.262 280.067 C 259.448 279.993,259.600 279.588,259.600 279.167 C 259.600 278.745,259.780 278.400,260.000 278.400 C 260.220 278.400,260.400 278.051,260.400 277.624 C 260.400 277.197,260.580 276.736,260.800 276.600 C 261.020 276.464,261.200 276.081,261.200 275.748 C 261.200 274.001,260.813 274.026,290.864 273.827 C 320.832 273.628,329.200 273.399,329.200 272.776 C 329.200 272.569,330.280 272.400,331.600 272.400 C 332.933 272.400,334.000 272.222,334.000 272.000 C 334.000 271.780,334.799 271.600,335.776 271.600 C 336.753 271.600,337.664 271.420,337.800 271.200 C 337.936 270.980,338.566 270.800,339.200 270.800 C 339.834 270.800,340.464 270.620,340.600 270.400 C 340.736 270.180,341.377 270.000,342.024 270.000 C 342.671 270.000,343.200 269.820,343.200 269.600 C 343.200 269.380,343.740 269.200,344.400 269.200 C 345.060 269.200,345.600 269.020,345.600 268.800 C 345.600 268.580,345.949 268.400,346.376 268.400 C 346.803 268.400,347.264 268.220,347.400 268.000 C 347.536 267.780,348.087 267.600,348.624 267.600 C 349.161 267.600,349.600 267.420,349.600 267.200 C 349.600 266.980,349.960 266.800,350.400 266.800 C 350.840 266.800,351.200 266.620,351.200 266.400 C 351.200 266.180,351.650 266.000,352.200 266.000 C 352.750 266.000,353.200 265.820,353.200 265.600 C 353.200 265.380,353.560 265.200,354.000 265.200 C 354.440 265.200,354.800 265.020,354.800 264.800 C 354.800 264.580,355.160 264.400,355.600 264.400 C 356.040 264.400,356.400 264.220,356.400 264.000 C 356.400 263.780,356.670 263.600,357.000 263.600 C 357.330 263.600,357.600 263.420,357.600 263.200 C 357.600 262.980,357.870 262.800,358.200 262.800 C 358.530 262.800,358.800 262.620,358.800 262.400 C 358.800 262.180,359.160 262.000,359.600 262.000 C 360.040 262.000,360.400 261.820,360.400 261.600 C 360.400 261.380,360.636 261.200,360.925 261.200 C 361.213 261.200,361.836 260.840,362.308 260.400 C 362.780 259.960,363.367 259.600,363.612 259.600 C 363.857 259.600,364.308 259.375,364.615 259.100 C 365.909 257.939,366.386 257.600,366.724 257.600 C 366.920 257.600,367.646 257.060,368.337 256.400 C 369.028 255.740,369.739 255.200,369.917 255.200 C 370.509 255.200,382.400 242.987,382.400 242.379 C 382.400 242.142,382.940 241.494,383.600 240.939 C 384.260 240.383,384.800 239.741,384.800 239.511 C 384.800 239.282,385.116 238.803,385.503 238.447 C 385.889 238.091,386.460 237.305,386.770 236.700 C 387.081 236.095,387.485 235.600,387.668 235.600 C 387.850 235.600,388.000 235.322,388.000 234.983 C 388.000 234.644,388.360 233.980,388.800 233.508 C 389.240 233.036,389.600 232.413,389.600 232.125 C 389.600 231.836,389.780 231.600,390.000 231.600 C 390.220 231.600,390.400 231.240,390.400 230.800 C 390.400 230.360,390.580 230.000,390.800 230.000 C 391.020 230.000,391.200 229.713,391.200 229.362 C 391.200 229.011,391.457 228.246,391.772 227.662 C 392.086 227.078,392.580 226.015,392.869 225.300 C 393.159 224.585,393.531 224.000,393.698 224.000 C 393.864 224.000,394.000 223.640,394.000 223.200 C 394.000 222.760,394.180 222.400,394.400 222.400 C 394.620 222.400,394.800 221.860,394.800 221.200 C 394.800 220.540,394.980 220.000,395.200 220.000 C 395.420 220.000,395.600 219.651,395.600 219.224 C 395.600 218.797,395.780 218.336,396.000 218.200 C 396.220 218.064,396.400 217.513,396.400 216.976 C 396.400 216.439,396.580 216.000,396.800 216.000 C 397.020 216.000,397.200 215.280,397.200 214.400 C 397.200 213.520,397.380 212.800,397.600 212.800 C 397.820 212.800,398.000 212.181,398.000 211.424 C 398.000 210.667,398.180 209.936,398.400 209.800 C 398.620 209.664,398.800 208.858,398.800 208.010 C 398.800 207.131,399.015 206.395,399.300 206.300 C 399.689 206.170,399.800 202.608,399.800 190.287 C 399.800 178.143,399.683 174.323,399.300 173.940 C 399.025 173.665,398.800 172.666,398.800 171.720 C 398.800 170.774,398.620 170.000,398.400 170.000 C 398.180 170.000,398.000 169.280,398.000 168.400 C 398.000 167.520,397.820 166.800,397.600 166.800 C 397.380 166.800,397.200 166.260,397.200 165.600 C 397.200 164.940,397.020 164.400,396.800 164.400 C 396.580 164.400,396.400 163.860,396.400 163.200 C 396.400 162.540,396.220 162.000,396.000 162.000 C 395.780 162.000,395.600 161.676,395.600 161.280 C 395.600 160.386,394.706 158.407,394.300 158.403 C 394.135 158.401,394.000 157.860,394.000 157.200 C 394.000 156.540,393.820 156.000,393.600 156.000 C 393.380 156.000,393.200 155.736,393.200 155.413 C 393.200 154.560,390.727 152.000,389.903 152.000 C 389.516 152.000,389.200 151.820,389.200 151.600 C 389.200 150.705,384.873 151.141,384.579 152.066 C 384.428 152.542,383.863 153.373,383.325 153.911 C 381.135 156.102,381.029 158.220,382.893 162.600 C 383.641 164.360,384.650 167.150,385.135 168.800 C 385.620 170.450,386.176 172.340,386.371 173.000 C 386.722 174.192,387.226 176.993,387.997 182.033 C 392.176 209.350,376.273 239.035,349.800 253.334 C 343.198 256.900,335.060 259.392,326.000 260.623 C 321.032 261.298,267.822 261.482,267.416 260.826 C 267.289 260.620,268.448 257.813,269.992 254.588 C 271.537 251.363,272.800 248.658,272.800 248.577 C 272.800 248.496,273.860 246.219,275.155 243.515 C 282.798 227.561,282.855 227.382,281.100 224.789 C 279.156 221.918,280.649 222.062,252.519 222.029 C 233.525 222.007,226.959 222.121,226.119 222.485 C 224.893 223.017,222.799 225.092,222.802 225.772 C 222.804 226.126,221.427 229.873,220.000 233.400 C 219.822 233.840,219.134 235.640,218.471 237.400 C 217.808 239.160,216.546 242.490,215.668 244.800 C 214.789 247.110,213.237 251.250,212.217 254.000 C 211.198 256.750,210.114 259.450,209.808 260.000 L 209.250 261.000 181.925 261.127 C 153.388 261.260,149.641 261.105,143.600 259.539 C 101.419 248.606,86.322 197.356,116.000 165.849 C 124.381 156.952,134.451 151.505,147.400 148.865 C 148.500 148.641,149.866 148.358,150.435 148.237 C 153.512 147.583,154.347 145.866,154.825 139.197 C 155.365 131.677,157.038 122.873,158.815 118.200 C 158.982 117.760,159.336 116.770,159.600 116.000 C 167.876 91.898,190.790 70.385,215.000 63.986 C 215.660 63.812,217.190 63.410,218.400 63.092 C 219.610 62.775,221.950 62.298,223.600 62.033 C 225.250 61.769,227.575 61.383,228.767 61.176 C 231.559 60.691,245.212 60.688,248.033 61.171 C 249.225 61.375,251.460 61.743,253.000 61.989 C 264.079 63.756,280.268 70.698,287.837 76.928 C 288.257 77.273,289.590 78.289,290.800 79.184 C 300.612 86.445,311.643 101.358,316.407 113.800 C 317.986 117.924,319.380 118.925,324.200 119.392 C 341.027 121.024,354.930 127.618,367.804 140.073 C 371.905 144.040,373.200 144.551,376.373 143.455 C 377.348 143.119,378.295 142.935,378.476 143.047 C 378.932 143.329,380.000 142.195,380.000 141.429 C 380.000 141.083,380.180 140.800,380.400 140.800 C 380.620 140.800,380.800 139.821,380.800 138.624 C 380.800 137.427,380.620 136.336,380.400 136.200 C 380.180 136.064,380.000 135.603,380.000 135.176 C 380.000 134.749,379.820 134.400,379.600 134.400 C 379.380 134.400,379.200 134.212,379.200 133.983 C 379.200 133.518,373.685 127.994,371.562 126.334 C 370.813 125.748,369.660 124.803,369.000 124.234 C 368.340 123.666,367.615 123.201,367.388 123.200 C 367.162 123.200,366.717 122.840,366.400 122.400 C 366.083 121.960,365.543 121.600,365.200 121.600 C 364.857 121.600,364.317 121.240,364.000 120.800 C 363.683 120.360,363.143 120.000,362.800 120.000 C 362.457 120.000,361.917 119.640,361.600 119.200 C 361.283 118.760,360.703 118.400,360.312 118.400 C 359.920 118.400,359.600 118.220,359.600 118.000 C 359.600 117.780,359.330 117.600,359.000 117.600 C 358.670 117.600,358.400 117.420,358.400 117.200 C 358.400 116.980,358.040 116.800,357.600 116.800 C 357.160 116.800,356.800 116.620,356.800 116.400 C 356.800 116.180,356.530 116.000,356.200 116.000 C 355.870 116.000,355.600 115.820,355.600 115.600 C 355.600 115.380,355.251 115.200,354.824 115.200 C 354.397 115.200,353.936 115.020,353.800 114.800 C 353.664 114.580,353.203 114.400,352.776 114.400 C 352.349 114.400,352.000 114.220,352.000 114.000 C 352.000 113.780,351.640 113.600,351.200 113.600 C 350.760 113.600,350.400 113.420,350.400 113.200 C 350.400 112.980,350.051 112.800,349.624 112.800 C 349.197 112.800,348.736 112.620,348.600 112.400 C 348.464 112.180,347.913 112.000,347.376 112.000 C 346.839 112.000,346.400 111.820,346.400 111.600 C 346.400 111.380,345.860 111.200,345.200 111.200 C 344.540 111.200,344.000 111.020,344.000 110.800 C 344.000 110.580,343.460 110.400,342.800 110.400 C 342.140 110.400,341.600 110.220,341.600 110.000 C 341.600 109.780,341.138 109.600,340.574 109.600 C 340.009 109.600,339.223 109.426,338.826 109.214 C 338.429 109.001,336.640 108.705,334.852 108.556 C 333.063 108.407,331.600 108.131,331.600 107.942 C 331.600 107.754,330.520 107.600,329.200 107.600 C 327.067 107.600,326.800 107.511,326.800 106.800 C 326.800 106.360,326.620 106.000,326.400 106.000 C 326.180 106.000,326.000 105.460,326.000 104.800 C 326.000 104.140,325.820 103.600,325.600 103.600 C 325.380 103.600,325.200 103.311,325.200 102.958 C 325.200 102.229,322.382 96.670,321.909 96.467 C 321.739 96.393,321.600 96.156,321.600 95.939 C 321.600 95.722,321.060 94.759,320.400 93.800 C 319.740 92.841,319.200 91.903,319.200 91.716 C 319.200 91.529,318.840 91.117,318.400 90.800 C 317.960 90.483,317.600 89.975,317.600 89.672 C 317.600 89.369,317.060 88.617,316.400 88.000 C 315.740 87.383,315.200 86.663,315.200 86.400 C 315.200 86.137,314.660 85.417,314.000 84.800 C 313.340 84.183,312.800 83.481,312.800 83.240 C 312.800 82.998,312.620 82.800,312.400 82.800 C 312.180 82.800,312.000 82.596,312.000 82.346 C 312.000 81.769,300.952 70.800,300.371 70.800 C 300.132 70.800,299.246 70.080,298.400 69.200 C 297.554 68.320,296.660 67.600,296.413 67.600 C 296.166 67.600,295.514 67.150,294.964 66.600 C 294.414 66.050,293.820 65.600,293.644 65.600 C 293.468 65.600,292.819 65.166,292.202 64.635 C 291.584 64.104,290.611 63.429,290.039 63.135 C 289.468 62.841,288.751 62.364,288.447 62.076 C 288.144 61.788,287.199 61.250,286.347 60.882 C 285.496 60.513,284.800 60.074,284.800 59.906 C 284.800 59.738,284.558 59.600,284.261 59.600 C 283.760 59.600,281.917 58.843,280.305 57.974 C 279.923 57.768,279.338 57.600,279.005 57.600 C 278.672 57.600,278.400 57.420,278.400 57.200 C 278.400 56.980,278.040 56.800,277.600 56.800 C 277.160 56.800,276.800 56.620,276.800 56.400 C 276.800 56.180,276.440 56.000,276.000 56.000 C 275.560 56.000,275.200 55.820,275.200 55.600 C 275.200 55.380,274.750 55.200,274.200 55.200 C 273.650 55.200,273.200 55.020,273.200 54.800 C 273.200 54.580,272.750 54.400,272.200 54.400 C 271.650 54.400,271.200 54.220,271.200 54.000 C 271.200 53.780,270.761 53.600,270.224 53.600 C 269.687 53.600,269.136 53.420,269.000 53.200 C 268.864 52.980,268.234 52.800,267.600 52.800 C 266.966 52.800,266.336 52.620,266.200 52.400 C 266.064 52.180,265.423 52.000,264.776 52.000 C 264.129 52.000,263.600 51.820,263.600 51.600 C 263.600 51.380,262.880 51.200,262.000 51.200 C 261.120 51.200,260.400 51.020,260.400 50.800 C 260.400 50.580,259.601 50.400,258.624 50.400 C 257.647 50.400,256.736 50.220,256.600 50.000 C 256.464 49.780,255.373 49.600,254.176 49.600 C 252.979 49.600,252.000 49.420,252.000 49.200 C 252.000 48.958,250.267 48.800,247.600 48.800 C 244.933 48.800,243.200 48.642,243.200 48.400 C 243.200 48.155,241.275 48.000,238.224 48.000 C 235.337 48.000,233.143 48.168,233.000 48.400 C 232.862 48.623,230.996 48.800,228.776 48.800 C 226.392 48.800,224.800 48.960,224.800 49.200 C 224.800 49.422,223.733 49.600,222.400 49.600 C 221.067 49.600,220.000 49.778,220.000 50.000 C 220.000 50.220,219.100 50.400,218.000 50.400 C 216.900 50.400,216.000 50.580,216.000 50.800 C 216.000 51.020,215.280 51.200,214.400 51.200 C 213.520 51.200,212.800 51.380,212.800 51.600 C 212.800 51.820,212.260 52.000,211.600 52.000 C 210.940 52.000,210.400 52.180,210.400 52.400 C 210.400 52.620,209.770 52.800,209.000 52.800 C 208.230 52.800,207.600 52.980,207.600 53.200 C 207.600 53.420,207.161 53.600,206.624 53.600 C 206.087 53.600,205.536 53.780,205.400 54.000 C 205.264 54.220,204.803 54.400,204.376 54.400 C 203.949 54.400,203.600 54.580,203.600 54.800 C 203.600 55.020,203.060 55.200,202.400 55.200 C 201.740 55.200,201.200 55.380,201.200 55.600 C 201.200 55.820,200.840 56.000,200.400 56.000 C 199.960 56.000,199.600 56.180,199.600 56.400 C 199.600 56.620,199.240 56.800,198.800 56.800 C 198.360 56.800,198.000 56.980,198.000 57.200 C 198.000 57.420,197.640 57.600,197.200 57.600 C 196.760 57.600,196.400 57.780,196.400 58.000 C 196.400 58.220,196.023 58.400,195.562 58.400 C 194.700 58.400,192.304 59.565,192.067 60.100 C 191.993 60.265,191.588 60.400,191.167 60.400 C 190.745 60.400,190.400 60.580,190.400 60.800 C 190.400 61.020,190.164 61.200,189.875 61.200 C 189.587 61.200,188.964 61.560,188.492 62.000 C 188.020 62.440,187.356 62.800,187.017 62.800 C 186.678 62.800,186.400 62.950,186.400 63.132 C 186.400 63.315,185.905 63.720,185.300 64.032 C 184.695 64.345,183.851 64.915,183.425 65.300 C 182.998 65.685,182.501 66.000,182.321 66.000 C 182.140 66.000,181.428 66.540,180.737 67.200 C 180.046 67.860,179.314 68.400,179.109 68.400 C 178.905 68.400,178.046 69.120,177.200 70.000 C 176.354 70.880,175.508 71.600,175.320 71.600 C 175.131 71.600,174.717 71.960,174.400 72.400 C 173.749 73.303,172.400 73.481,172.400 72.664 C 172.400 72.369,171.590 71.270,170.600 70.222 C 169.610 69.174,168.800 68.193,168.800 68.043 C 168.800 67.588,165.119 63.872,163.200 62.392 C 162.210 61.627,161.004 60.642,160.519 60.201 C 158.921 58.747,158.438 58.400,158.017 58.400 C 157.788 58.400,157.600 58.250,157.600 58.068 C 157.600 57.885,157.105 57.481,156.500 57.170 C 155.895 56.860,155.109 56.289,154.753 55.903 C 154.397 55.516,153.895 55.200,153.636 55.200 C 153.378 55.200,152.780 54.840,152.308 54.400 C 151.836 53.960,151.213 53.600,150.925 53.600 C 150.636 53.600,150.400 53.420,150.400 53.200 C 150.400 52.980,150.040 52.800,149.600 52.800 C 149.160 52.800,148.800 52.620,148.800 52.400 C 148.800 52.180,148.440 52.000,148.000 52.000 C 147.560 52.000,147.200 51.820,147.200 51.600 C 147.200 51.380,146.840 51.200,146.400 51.200 C 145.960 51.200,145.600 51.020,145.600 50.800 C 145.600 50.580,145.240 50.400,144.800 50.400 C 144.360 50.400,144.000 50.220,144.000 50.000 C 144.000 49.780,143.460 49.600,142.800 49.600 C 142.140 49.600,141.600 49.420,141.600 49.200 C 141.600 48.980,141.251 48.800,140.824 48.800 C 140.397 48.800,139.936 48.620,139.800 48.400 C 139.664 48.180,139.113 48.000,138.576 48.000 C 138.039 48.000,137.600 47.820,137.600 47.600 C 137.600 47.380,136.970 47.200,136.200 47.200 C 135.430 47.200,134.800 47.020,134.800 46.800 C 134.800 46.580,134.080 46.400,133.200 46.400 C 132.320 46.400,131.600 46.220,131.600 46.000 C 131.600 45.780,130.700 45.600,129.600 45.600 C 128.500 45.600,127.600 45.420,127.600 45.200 C 127.600 44.969,126.341 44.800,124.624 44.800 C 122.987 44.800,121.536 44.620,121.400 44.400 C 121.086 43.891,109.902 43.862,109.380 44.369 M4.600 108.647 C 4.160 108.748,3.428 108.909,2.974 109.005 C 0.678 109.487,0.200 110.549,0.200 115.162 C 0.200 121.869,-0.512 121.600,17.208 121.600 L 31.227 121.600 32.613 120.213 C 33.376 119.451,34.000 118.551,34.000 118.213 C 34.000 117.876,34.180 117.600,34.400 117.600 C 34.622 117.600,34.800 116.533,34.800 115.200 C 34.800 113.867,34.622 112.800,34.400 112.800 C 34.180 112.800,34.000 112.522,34.000 112.182 C 34.000 111.471,32.585 109.956,31.169 109.151 C 30.220 108.611,6.695 108.165,4.600 108.647 M50.400 171.200 C 50.400 171.420,50.119 171.600,49.775 171.600 C 48.672 171.600,31.600 189.086,31.600 190.216 C 31.600 190.757,31.420 191.200,31.200 191.200 C 30.980 191.200,30.800 192.010,30.800 193.000 C 30.800 193.990,30.980 194.800,31.200 194.800 C 31.420 194.800,31.600 195.160,31.600 195.600 C 31.600 196.040,31.759 196.400,31.953 196.400 C 32.148 196.400,32.401 196.760,32.516 197.200 C 32.631 197.640,33.012 198.000,33.363 198.000 C 33.713 198.000,34.000 198.180,34.000 198.400 C 34.000 198.620,34.360 198.800,34.800 198.800 C 35.240 198.800,35.600 198.980,35.600 199.200 C 35.600 199.420,36.590 199.600,37.800 199.600 C 39.010 199.600,40.000 199.420,40.000 199.200 C 40.000 198.980,40.272 198.800,40.605 198.800 C 41.200 198.800,44.011 196.166,53.701 186.527 C 60.069 180.192,59.600 180.919,59.600 177.388 C 59.600 175.497,59.410 174.145,59.100 173.820 C 58.825 173.533,58.335 172.916,58.012 172.449 C 57.688 171.982,57.193 171.600,56.912 171.600 C 56.630 171.600,56.400 171.420,56.400 171.200 C 56.400 170.969,55.133 170.800,53.400 170.800 C 51.667 170.800,50.400 170.969,50.400 171.200 " stroke="none" fill="#050505" fill-rule="evenodd"></path><path id="path1" d="M108.800 57.587 C 108.250 57.770,107.093 57.938,106.228 57.960 C 105.364 57.982,104.104 58.168,103.428 58.373 C 102.753 58.578,101.390 58.956,100.400 59.212 C 99.410 59.468,98.287 59.840,97.905 60.039 C 97.523 60.238,96.936 60.400,96.600 60.400 C 96.264 60.400,95.677 60.559,95.295 60.753 C 94.913 60.948,94.150 61.282,93.600 61.497 C 82.891 65.674,73.362 73.626,66.255 84.318 C 63.827 87.969,62.632 88.603,58.778 88.279 C 56.053 88.051,56.000 88.065,56.000 89.000 C 56.000 89.524,55.820 90.064,55.600 90.200 C 55.380 90.336,55.200 90.797,55.200 91.224 C 55.200 91.651,55.020 92.000,54.800 92.000 C 54.580 92.000,54.400 92.450,54.400 93.000 C 54.400 93.550,54.220 94.000,54.000 94.000 C 53.780 94.000,53.600 94.540,53.600 95.200 C 53.600 95.860,53.420 96.400,53.200 96.400 C 52.129 96.400,52.979 97.914,54.600 98.893 C 57.512 100.652,58.090 101.943,57.780 106.000 C 57.345 111.686,57.434 121.634,57.947 124.600 C 58.213 126.140,58.532 128.076,58.657 128.903 C 58.782 129.729,59.045 130.505,59.242 130.626 C 59.439 130.748,59.600 131.366,59.600 132.000 C 59.600 132.634,59.780 133.264,60.000 133.400 C 60.220 133.536,60.400 133.999,60.400 134.429 C 60.400 134.859,60.565 135.523,60.766 135.905 C 60.968 136.287,61.399 137.230,61.724 138.000 C 66.188 148.567,73.729 157.704,83.061 163.852 C 87.045 166.476,87.162 166.477,88.375 163.884 C 95.606 148.422,115.030 133.268,130.423 131.078 C 134.382 130.514,136.000 128.774,136.000 125.078 C 136.000 111.181,144.344 89.667,154.846 76.486 L 156.530 74.372 155.165 72.934 C 153.852 71.550,147.644 66.811,145.593 65.627 C 142.972 64.113,138.631 62.000,138.145 62.000 C 137.845 62.000,137.600 61.820,137.600 61.600 C 137.600 61.380,137.238 61.200,136.795 61.200 C 136.352 61.200,135.632 61.020,135.195 60.800 C 134.758 60.580,134.042 60.220,133.605 60.000 C 133.168 59.780,132.369 59.600,131.829 59.600 C 131.289 59.600,130.748 59.439,130.626 59.242 C 130.505 59.045,129.729 58.781,128.903 58.654 C 128.076 58.527,126.230 58.223,124.800 57.979 C 121.532 57.420,110.137 57.140,108.800 57.587 M231.667 236.500 C 231.156 237.875,230.572 239.405,230.369 239.900 C 230.166 240.395,229.844 241.205,229.654 241.700 C 229.463 242.195,229.121 243.050,228.894 243.600 C 228.667 244.150,228.264 245.230,228.000 246.000 C 227.736 246.770,227.357 247.805,227.160 248.300 C 226.962 248.795,226.644 249.605,226.454 250.100 C 226.263 250.595,225.921 251.450,225.694 252.000 C 225.467 252.550,225.064 253.630,224.800 254.400 C 224.248 256.007,223.879 256.986,223.292 258.400 C 222.846 259.472,221.578 262.825,218.602 270.800 C 217.576 273.550,216.589 276.160,216.407 276.600 C 216.226 277.040,215.683 278.480,215.200 279.800 C 213.953 283.208,213.387 284.664,212.400 287.000 C 211.744 288.553,211.390 289.481,210.800 291.200 C 210.536 291.970,210.133 293.050,209.906 293.600 C 209.346 294.955,209.028 295.789,208.000 298.600 C 207.177 300.849,206.963 301.406,206.037 303.700 C 205.837 304.195,205.226 305.770,204.678 307.200 L 203.684 309.800 217.742 310.000 C 233.647 310.226,233.665 310.230,235.208 313.418 C 236.501 316.088,236.427 316.525,233.209 325.200 C 232.515 327.070,231.680 329.410,231.353 330.400 C 230.742 332.255,230.169 333.684,229.553 334.895 C 229.359 335.277,229.200 335.864,229.200 336.200 C 229.200 336.536,229.041 337.123,228.847 337.505 C 228.371 338.440,227.782 339.907,227.200 341.600 C 226.618 343.293,226.029 344.760,225.553 345.695 C 225.359 346.077,225.200 346.716,225.200 347.115 C 225.200 347.514,225.057 348.011,224.882 348.220 C 224.707 348.429,224.335 349.320,224.055 350.200 C 223.776 351.080,223.396 352.160,223.211 352.600 C 221.934 355.637,219.918 361.651,220.111 361.845 C 220.176 361.910,221.753 359.714,223.615 356.965 C 225.477 354.216,228.170 350.272,229.600 348.201 C 231.030 346.131,236.058 338.713,240.773 331.718 C 245.489 324.723,249.449 318.910,249.573 318.800 C 249.698 318.690,249.980 318.305,250.200 317.943 C 250.420 317.582,252.421 314.612,254.648 311.343 C 256.874 308.075,260.166 303.240,261.964 300.600 L 265.233 295.800 255.916 295.580 C 250.792 295.458,246.150 295.203,245.600 295.011 C 244.535 294.641,242.000 292.323,242.000 291.720 C 242.000 290.437,240.913 289.256,239.528 289.035 C 234.901 288.295,234.723 285.730,238.726 277.462 C 240.306 274.196,241.600 271.471,241.600 271.407 C 241.600 271.292,244.169 265.773,247.236 259.300 C 248.096 257.485,249.520 254.470,250.400 252.600 C 251.280 250.730,252.743 247.625,253.652 245.700 C 254.560 243.775,255.930 240.850,256.695 239.200 C 257.461 237.550,258.342 235.705,258.654 235.100 L 259.221 234.000 245.908 234.000 L 232.596 234.000 231.667 236.500 M252.500 336.198 C 251.931 336.845,251.861 337.200,252.304 337.200 C 252.471 337.200,252.832 336.840,253.107 336.400 C 253.678 335.487,253.251 335.345,252.500 336.198 " stroke="none" fill="#faea63" fill-rule="evenodd"></path><path id="path2" d="M232.314 61.419 C 232.165 61.568,230.369 61.846,228.322 62.037 C 221.202 62.702,214.801 64.284,207.638 67.150 C 202.652 69.145,195.065 73.034,193.687 74.300 C 193.388 74.575,192.989 74.800,192.800 74.800 C 192.611 74.800,192.219 75.031,191.929 75.313 C 191.638 75.595,190.770 76.261,190.000 76.791 C 178.460 84.747,167.356 98.533,161.803 111.800 C 161.434 112.680,160.968 113.713,160.766 114.095 C 160.565 114.477,160.400 115.064,160.400 115.400 C 160.400 115.993,160.234 116.416,159.262 118.295 C 159.008 118.787,158.800 119.631,158.800 120.171 C 158.800 120.711,158.640 121.252,158.444 121.373 C 158.249 121.494,157.988 122.179,157.866 122.896 C 157.744 123.613,157.445 125.100,157.201 126.200 C 156.404 129.794,156.018 132.523,155.617 137.388 C 154.789 147.439,154.252 148.258,147.745 149.405 C 139.094 150.929,128.047 155.630,124.085 159.473 C 123.802 159.747,123.050 160.280,122.413 160.656 C 119.354 162.463,110.761 172.339,108.720 176.393 C 108.220 177.387,107.709 178.290,107.585 178.400 C 107.373 178.587,107.032 179.298,105.471 182.800 C 100.309 194.386,99.811 213.065,104.378 223.800 C 104.565 224.240,105.022 225.320,105.394 226.200 C 111.121 239.769,121.778 250.424,135.400 256.203 C 140.249 258.260,142.918 259.020,149.000 260.077 C 150.449 260.329,162.813 260.560,180.200 260.661 L 209.000 260.827 209.449 259.713 C 209.696 259.101,210.120 257.970,210.390 257.200 C 211.014 255.420,211.385 254.453,211.922 253.200 C 212.335 252.236,215.349 244.221,219.066 234.200 C 221.045 228.866,221.102 228.724,222.525 225.559 C 224.429 221.328,222.380 221.600,252.323 221.601 C 281.301 221.603,279.744 221.449,281.602 224.496 C 283.340 227.346,283.004 228.510,276.612 241.800 C 275.660 243.780,274.339 246.570,273.678 248.000 C 273.017 249.430,271.469 252.737,270.238 255.350 C 269.007 257.962,268.000 260.264,268.000 260.465 C 268.000 260.964,322.535 260.592,326.400 260.068 C 329.313 259.672,331.063 259.324,334.800 258.397 C 335.790 258.152,337.097 257.851,337.705 257.729 C 338.313 257.607,338.908 257.349,339.029 257.154 C 339.149 256.959,339.676 256.800,340.200 256.800 C 340.724 256.800,341.264 256.620,341.400 256.400 C 341.536 256.180,341.968 256.000,342.361 256.000 C 343.179 256.000,353.894 250.637,356.002 249.174 C 357.742 247.964,360.207 246.111,361.794 244.818 C 364.164 242.887,371.432 235.356,373.200 233.000 C 374.190 231.680,375.135 230.540,375.300 230.467 C 375.465 230.393,375.600 230.112,375.600 229.842 C 375.600 229.572,375.915 228.994,376.300 228.558 C 377.327 227.396,378.165 225.907,380.555 221.000 C 387.181 207.398,389.403 191.990,386.757 178.000 C 386.351 175.858,386.193 175.168,385.150 171.000 C 384.875 169.900,383.935 167.200,383.062 165.000 C 381.884 162.034,381.430 160.259,381.306 158.133 L 381.139 155.266 383.002 153.377 C 384.027 152.338,384.715 151.378,384.532 151.244 C 384.349 151.110,383.944 150.505,383.632 149.900 C 383.320 149.295,382.915 148.800,382.732 148.800 C 382.550 148.800,382.400 148.480,382.400 148.088 C 382.400 147.697,382.040 147.117,381.600 146.800 C 381.160 146.483,380.800 145.893,380.800 145.488 C 380.800 145.084,380.620 144.864,380.400 145.000 C 380.180 145.136,380.000 145.044,380.000 144.795 C 380.000 144.138,378.959 143.200,378.229 143.200 C 377.883 143.200,377.600 143.380,377.600 143.600 C 377.600 143.820,377.251 144.000,376.824 144.000 C 376.397 144.000,375.936 144.180,375.800 144.400 C 374.854 145.931,371.179 144.282,367.568 140.708 C 364.671 137.839,360.229 134.003,358.413 132.800 C 357.915 132.470,357.095 131.885,356.591 131.500 C 356.086 131.115,355.555 130.800,355.409 130.800 C 355.263 130.800,354.392 130.289,353.472 129.665 C 352.552 129.041,351.215 128.277,350.500 127.968 C 349.785 127.658,349.200 127.269,349.200 127.102 C 349.200 126.936,348.840 126.800,348.400 126.800 C 347.960 126.800,347.600 126.620,347.600 126.400 C 347.600 126.180,347.240 126.000,346.800 126.000 C 346.360 126.000,346.000 125.853,346.000 125.672 C 346.000 125.492,345.100 125.100,344.000 124.800 C 342.900 124.500,342.000 124.108,342.000 123.928 C 342.000 123.747,341.638 123.600,341.195 123.600 C 340.752 123.600,340.077 123.429,339.695 123.220 C 338.046 122.318,326.988 120.061,324.000 120.017 C 319.698 119.952,317.511 118.168,315.400 113.000 C 313.849 109.203,312.350 105.935,312.005 105.600 C 311.891 105.490,311.535 104.860,311.212 104.200 C 310.889 103.540,310.124 102.248,309.512 101.328 C 308.901 100.408,308.400 99.478,308.400 99.261 C 308.400 99.044,308.262 98.807,308.093 98.733 C 307.923 98.660,306.954 97.427,305.939 95.994 C 302.432 91.042,297.678 85.827,293.175 81.992 C 291.759 80.787,290.510 79.710,290.400 79.600 C 287.118 76.318,274.176 68.942,268.000 66.835 C 266.570 66.347,265.040 65.794,264.600 65.607 C 264.160 65.420,263.350 65.150,262.800 65.006 C 262.250 64.863,261.170 64.566,260.400 64.346 C 253.621 62.411,248.000 61.624,238.992 61.346 C 235.468 61.237,232.463 61.270,232.314 61.419 " stroke="none" fill="#faf3f3" fill-rule="evenodd"></path><path id="path3" d="M155.563 73.270 L 156.527 74.376 154.844 76.488 C 147.770 85.366,142.329 96.138,139.028 107.800 C 137.479 113.271,136.000 121.712,136.000 125.078 C 136.000 128.774,134.382 130.514,130.423 131.078 C 115.030 133.268,95.606 148.422,88.375 163.884 C 87.839 165.030,87.135 165.975,86.811 165.984 C 86.051 166.005,91.436 168.610,94.775 169.837 C 96.191 170.357,97.384 170.742,97.426 170.692 C 97.467 170.641,98.656 168.890,100.067 166.800 C 105.520 158.725,111.045 153.132,118.682 147.954 C 120.267 146.879,121.752 146.000,121.982 146.000 C 122.212 146.000,122.401 145.865,122.403 145.700 C 122.405 145.535,122.810 145.197,123.303 144.949 C 127.628 142.772,130.193 141.580,132.200 140.813 C 132.640 140.645,133.450 140.324,134.000 140.101 C 135.239 139.598,140.232 138.111,141.647 137.824 C 142.802 137.589,142.954 137.111,143.625 131.600 C 144.027 128.294,144.526 125.495,145.175 122.900 C 145.409 121.965,145.791 120.435,146.025 119.500 C 146.258 118.565,146.549 117.303,146.671 116.695 C 146.793 116.087,147.051 115.492,147.246 115.371 C 147.441 115.251,147.600 114.836,147.600 114.449 C 147.600 110.509,158.572 90.176,163.500 84.984 C 164.804 83.610,163.048 80.954,155.963 73.581 C 155.213 72.801,155.034 72.661,155.563 73.270 M246.034 233.965 L 259.067 234.200 257.557 237.400 C 253.249 246.530,252.319 248.505,250.679 252.000 C 249.699 254.090,248.171 257.330,247.285 259.200 C 244.221 265.663,241.600 271.291,241.600 271.407 C 241.600 271.471,240.306 274.196,238.726 277.462 C 234.705 285.768,234.896 288.294,239.601 289.046 C 240.458 289.184,241.231 289.499,241.318 289.748 C 241.405 289.997,241.402 289.718,241.312 289.128 C 241.157 288.112,241.552 287.106,244.816 280.200 C 248.361 272.699,250.400 268.321,250.400 268.207 C 250.400 268.136,251.585 265.586,253.033 262.539 C 254.481 259.493,256.301 255.650,257.078 254.000 C 257.855 252.350,259.191 249.560,260.048 247.800 C 260.905 246.040,261.605 244.375,261.603 244.100 C 261.601 243.825,261.780 243.600,262.000 243.600 C 262.220 243.600,262.400 243.347,262.400 243.038 C 262.400 242.729,262.754 241.784,263.187 240.938 C 265.014 237.368,266.384 234.251,266.205 234.072 C 266.099 233.966,258.585 233.845,249.506 233.804 L 233.000 233.729 246.034 233.965 M251.100 295.499 C 253.575 295.569,257.625 295.569,260.100 295.499 C 262.575 295.428,260.550 295.371,255.600 295.371 C 250.650 295.371,248.625 295.428,251.100 295.499 M262.025 300.500 C 260.196 303.195,256.877 308.075,254.650 311.343 C 252.422 314.612,250.420 317.582,250.200 317.943 C 249.980 318.305,249.699 318.690,249.576 318.800 C 249.452 318.910,246.136 323.770,242.207 329.600 C 238.277 335.430,233.573 342.376,231.754 345.035 C 229.934 347.695,226.746 352.375,224.669 355.435 C 222.591 358.496,220.683 361.000,220.427 361.000 C 220.041 361.000,218.871 364.021,216.013 372.400 C 215.825 372.950,215.103 374.930,214.409 376.800 C 212.526 381.873,211.928 383.662,212.071 383.797 C 212.142 383.864,215.350 379.233,219.200 373.505 C 223.050 367.777,226.425 362.858,226.700 362.574 C 226.975 362.290,227.200 361.909,227.200 361.729 C 227.201 361.548,227.651 360.877,228.200 360.238 C 228.750 359.599,229.200 358.936,229.200 358.766 C 229.200 358.596,229.443 358.214,229.741 357.916 C 230.038 357.619,231.653 355.311,233.328 352.788 C 238.680 344.729,239.063 344.237,240.710 343.300 C 241.757 342.704,245.848 342.630,246.200 343.200 C 246.586 343.824,248.000 343.669,248.000 343.003 C 248.000 342.675,248.360 342.182,248.800 341.907 C 249.240 341.632,249.600 341.103,249.600 340.731 C 249.600 340.358,249.963 339.939,250.406 339.798 C 250.849 339.657,251.117 339.390,251.002 339.203 C 250.887 339.017,251.064 338.593,251.396 338.261 C 251.728 337.929,252.000 337.440,252.000 337.175 C 252.000 336.911,252.384 336.361,252.853 335.954 L 253.706 335.214 252.276 333.631 C 250.669 331.853,250.094 329.759,250.684 327.836 C 251.023 326.733,257.272 316.951,257.989 316.400 C 258.204 316.235,270.738 297.732,271.740 296.100 C 271.976 295.715,271.275 295.600,268.699 295.600 L 265.351 295.600 262.025 300.500 " stroke="none" fill="#f3cc83" fill-rule="evenodd"></path><path id="path4" d="M112.518 57.098 C 114.233 57.173,116.933 57.172,118.518 57.097 C 120.103 57.021,118.700 56.959,115.400 56.960 C 112.100 56.961,110.803 57.022,112.518 57.098 M105.600 57.600 L 104.200 57.895 105.600 57.907 C 106.370 57.915,107.450 57.776,108.000 57.600 L 109.000 57.280 108.000 57.293 C 107.450 57.300,106.370 57.438,105.600 57.600 M123.200 57.600 C 123.750 57.776,124.830 57.917,125.600 57.914 L 127.000 57.908 125.400 57.577 C 123.263 57.135,121.796 57.150,123.200 57.600 M101.400 58.409 C 100.740 58.589,99.660 58.930,99.000 59.166 L 97.800 59.597 99.000 59.380 C 101.517 58.927,103.241 58.492,103.483 58.251 C 103.806 57.927,102.920 57.995,101.400 58.409 M127.800 58.381 C 128.568 58.729,130.710 58.956,130.367 58.653 C 130.275 58.572,129.480 58.396,128.600 58.262 C 127.485 58.093,127.242 58.129,127.800 58.381 M131.000 59.200 C 131.136 59.420,131.552 59.600,131.925 59.600 C 134.039 59.600,142.596 63.489,147.382 66.625 C 147.942 66.992,148.400 67.207,148.400 67.103 C 148.400 66.222,139.146 61.456,134.292 59.837 C 130.792 58.670,130.656 58.643,131.000 59.200 M95.200 60.368 C 91.793 61.690,90.992 62.047,88.200 63.480 C 84.578 65.340,80.272 68.257,78.000 70.390 L 76.200 72.079 78.200 70.495 C 83.308 66.447,90.810 62.177,95.200 60.818 C 96.190 60.512,97.171 60.112,97.380 59.930 C 97.952 59.433,97.241 59.576,95.200 60.368 M228.200 61.255 C 227.100 61.454,224.940 61.819,223.400 62.066 C 221.860 62.313,219.610 62.775,218.400 63.092 C 217.190 63.410,215.660 63.812,215.000 63.986 C 190.790 70.385,167.876 91.898,159.600 116.000 C 159.336 116.770,158.982 117.760,158.815 118.200 C 157.038 122.873,155.365 131.677,154.825 139.197 C 154.347 145.866,153.512 147.583,150.435 148.237 C 149.866 148.358,148.500 148.641,147.400 148.865 C 92.898 159.978,83.232 231.722,133.000 255.744 C 143.704 260.911,147.144 261.289,181.925 261.127 L 209.250 261.000 209.808 260.000 C 210.114 259.450,211.198 256.750,212.217 254.000 C 213.237 251.250,214.789 247.110,215.668 244.800 C 216.546 242.490,217.808 239.160,218.471 237.400 C 219.134 235.640,219.822 233.840,220.000 233.400 C 221.427 229.873,222.804 226.126,222.802 225.772 C 222.799 225.092,224.893 223.017,226.119 222.485 C 226.959 222.121,233.525 222.007,252.519 222.029 C 280.649 222.062,279.156 221.918,281.100 224.789 C 282.855 227.382,282.798 227.561,275.155 243.515 C 273.860 246.219,272.800 248.496,272.800 248.577 C 272.800 248.658,271.537 251.363,269.992 254.588 C 268.448 257.813,267.289 260.620,267.416 260.826 C 267.556 261.052,278.349 261.199,294.724 261.197 C 327.330 261.193,329.814 260.974,341.000 257.115 C 364.314 249.074,382.275 228.171,387.155 203.400 C 388.456 196.795,388.825 187.442,387.997 182.033 C 387.226 176.990,386.722 174.192,386.370 173.000 C 384.641 167.137,383.949 165.046,382.995 162.800 C 382.388 161.370,381.738 159.750,381.552 159.200 C 381.264 158.351,381.235 158.411,381.364 159.600 C 381.447 160.370,382.220 162.800,383.082 165.000 C 383.944 167.200,384.875 169.900,385.150 171.000 C 386.193 175.168,386.351 175.858,386.757 178.000 C 389.403 191.990,387.181 207.398,380.555 221.000 C 378.165 225.907,377.327 227.396,376.300 228.558 C 375.915 228.994,375.600 229.572,375.600 229.842 C 375.600 230.112,375.465 230.393,375.300 230.467 C 375.135 230.540,374.190 231.680,373.200 233.000 C 371.432 235.356,364.164 242.887,361.794 244.818 C 360.207 246.111,357.742 247.964,356.002 249.174 C 353.894 250.637,343.179 256.000,342.361 256.000 C 341.968 256.000,341.536 256.180,341.400 256.400 C 341.264 256.620,340.724 256.800,340.200 256.800 C 339.676 256.800,339.149 256.959,339.029 257.154 C 338.908 257.349,338.313 257.607,337.705 257.729 C 337.097 257.851,335.790 258.152,334.800 258.397 C 331.264 259.274,329.360 259.662,326.600 260.068 C 322.993 260.599,268.000 260.970,268.000 260.464 C 268.000 260.068,269.834 256.087,276.321 242.400 C 282.390 229.598,282.400 229.573,282.399 227.677 C 282.397 225.430,281.352 223.525,279.504 222.398 C 278.238 221.626,277.439 221.603,252.291 221.601 L 226.383 221.600 224.859 222.609 C 223.862 223.268,223.052 224.271,222.517 225.509 C 221.354 228.199,216.779 240.145,213.750 248.400 C 212.983 250.490,212.162 252.650,211.924 253.200 C 211.390 254.440,211.021 255.401,210.390 257.200 C 210.120 257.970,209.696 259.101,209.449 259.713 L 209.000 260.827 180.200 260.661 C 162.492 260.559,150.476 260.331,149.000 260.071 C 145.904 259.525,143.402 258.975,141.400 258.402 C 140.520 258.150,139.392 257.845,138.894 257.724 C 138.396 257.603,137.890 257.346,137.770 257.152 C 137.651 256.959,137.284 256.800,136.955 256.800 C 134.631 256.800,123.291 249.782,119.070 245.732 C 112.133 239.076,108.362 233.442,104.389 223.800 C 100.196 213.625,100.201 195.942,104.400 185.400 C 105.545 182.526,107.312 178.641,107.585 178.400 C 107.709 178.290,108.220 177.387,108.720 176.393 C 115.069 163.781,131.195 152.512,147.146 149.539 C 154.398 148.187,154.759 147.662,155.614 137.200 C 155.992 132.585,156.376 129.922,157.201 126.200 C 157.445 125.100,157.744 123.613,157.866 122.896 C 157.988 122.179,158.249 121.494,158.444 121.373 C 158.640 121.252,158.800 120.711,158.800 120.171 C 158.800 119.631,158.980 118.832,159.200 118.395 C 159.420 117.958,159.780 117.242,160.000 116.805 C 160.220 116.368,160.400 115.736,160.400 115.400 C 160.400 115.064,160.565 114.477,160.766 114.095 C 160.968 113.713,161.437 112.680,161.809 111.800 C 167.579 98.156,178.273 84.876,190.000 76.791 C 190.770 76.261,191.638 75.595,191.929 75.313 C 192.219 75.031,192.611 74.800,192.800 74.800 C 192.989 74.800,193.388 74.575,193.687 74.300 C 194.213 73.817,194.669 73.534,197.367 72.018 C 203.163 68.763,210.948 65.512,215.700 64.363 C 216.525 64.163,217.965 63.809,218.900 63.575 C 231.455 60.436,247.761 60.739,260.400 64.346 C 261.170 64.566,262.250 64.863,262.800 65.006 C 263.350 65.150,264.160 65.420,264.600 65.607 C 265.040 65.794,266.570 66.347,268.000 66.835 C 274.176 68.942,287.118 76.318,290.400 79.600 C 290.510 79.710,291.759 80.787,293.175 81.992 C 297.678 85.827,302.432 91.042,305.939 95.994 C 306.954 97.427,307.923 98.660,308.093 98.733 C 308.262 98.807,308.400 99.044,308.400 99.261 C 308.400 99.478,308.901 100.408,309.512 101.328 C 310.124 102.248,310.889 103.540,311.212 104.200 C 311.535 104.860,311.891 105.490,312.005 105.600 C 312.350 105.935,313.849 109.203,315.400 113.000 C 317.511 118.168,319.698 119.952,324.000 120.017 C 326.988 120.061,338.046 122.318,339.695 123.220 C 340.077 123.429,340.752 123.600,341.195 123.600 C 341.638 123.600,342.000 123.747,342.000 123.928 C 342.000 124.108,342.900 124.500,344.000 124.800 C 345.100 125.100,346.000 125.492,346.000 125.672 C 346.000 125.853,346.360 126.000,346.800 126.000 C 347.240 126.000,347.600 126.180,347.600 126.400 C 347.600 126.620,347.960 126.800,348.400 126.800 C 348.840 126.800,349.200 126.936,349.200 127.102 C 349.200 127.269,349.785 127.658,350.500 127.968 C 351.215 128.277,352.552 129.041,353.472 129.665 C 354.392 130.289,355.263 130.800,355.409 130.800 C 355.555 130.800,356.086 131.115,356.591 131.500 C 357.095 131.885,357.915 132.470,358.413 132.800 C 360.229 134.003,364.671 137.839,367.568 140.708 C 371.179 144.282,374.854 145.931,375.800 144.400 C 375.936 144.180,376.319 144.000,376.652 144.000 C 376.985 144.000,377.559 143.695,377.929 143.322 C 378.558 142.687,378.550 142.665,377.800 142.966 C 373.470 144.703,372.240 144.346,367.800 140.060 C 354.887 127.598,341.018 121.023,324.200 119.392 C 319.380 118.925,317.986 117.924,316.407 113.800 C 311.643 101.358,300.612 86.445,290.800 79.184 C 289.590 78.289,288.257 77.273,287.837 76.928 C 280.268 70.698,264.079 63.756,253.000 61.989 C 251.460 61.743,249.225 61.375,248.033 61.171 C 245.327 60.708,230.895 60.769,228.200 61.255 M148.800 67.368 C 148.800 67.482,149.745 68.275,150.900 69.131 C 155.715 72.698,163.994 81.904,163.998 83.695 C 164.000 84.318,163.442 85.189,162.174 86.545 C 158.200 90.794,147.493 111.275,147.627 114.373 C 147.659 115.109,147.740 114.931,149.740 109.764 C 151.104 106.239,153.700 100.651,155.114 98.200 C 157.427 94.189,159.275 91.359,161.773 88.000 C 163.328 85.910,164.658 84.071,164.729 83.913 C 165.018 83.270,160.775 77.942,156.816 73.975 C 153.176 70.328,148.800 66.721,148.800 67.368 M73.547 74.310 C 70.686 77.279,68.618 79.870,66.056 83.694 C 63.506 87.501,62.376 88.176,59.025 87.892 C 57.580 87.770,56.923 87.820,57.400 88.015 C 60.548 89.308,63.549 88.024,66.029 84.325 C 68.397 80.792,71.825 76.545,74.135 74.280 C 75.212 73.224,76.017 72.284,75.924 72.191 C 75.831 72.097,74.761 73.051,73.547 74.310 M56.012 100.077 C 56.006 100.230,56.385 101.006,56.855 101.803 C 57.588 103.046,57.678 103.662,57.489 106.126 C 57.357 107.841,57.399 108.597,57.594 108.000 C 58.286 105.878,58.038 103.068,57.010 101.400 C 56.468 100.520,56.019 99.925,56.012 100.077 M56.960 115.400 C 56.961 118.700,57.022 119.997,57.098 118.282 C 57.173 116.567,57.172 113.867,57.097 112.282 C 57.021 110.697,56.959 112.100,56.960 115.400 M147.103 115.600 C 146.999 115.930,146.708 116.843,146.456 117.628 C 146.205 118.414,146.016 119.404,146.036 119.828 C 146.057 120.253,146.414 119.520,146.831 118.200 C 147.248 116.880,147.522 115.620,147.441 115.400 C 147.360 115.180,147.208 115.270,147.103 115.600 M145.400 121.853 C 145.268 122.484,144.997 123.630,144.797 124.400 C 144.279 126.392,143.998 128.245,143.795 131.000 C 143.665 132.769,143.817 132.296,144.370 129.200 C 144.783 126.890,145.325 124.121,145.574 123.047 C 145.823 121.973,145.940 121.006,145.833 120.900 C 145.726 120.793,145.531 121.222,145.400 121.853 M57.270 122.800 C 57.257 123.350,57.395 124.520,57.577 125.400 L 57.908 127.000 57.907 125.600 C 57.905 123.835,57.309 121.212,57.270 122.800 M58.262 128.600 C 58.396 129.480,58.572 130.275,58.653 130.367 C 58.956 130.710,58.729 128.568,58.381 127.800 C 58.129 127.242,58.093 127.485,58.262 128.600 M59.044 131.800 C 59.373 133.271,59.602 133.590,59.594 132.567 C 59.591 132.145,59.405 131.530,59.182 131.200 C 58.885 130.762,58.848 130.924,59.044 131.800 M59.600 133.772 C 59.600 134.240,61.739 139.422,62.088 139.800 C 62.291 140.020,62.060 139.210,61.573 138.000 C 61.087 136.790,60.603 135.392,60.497 134.894 C 60.328 134.099,59.600 133.189,59.600 133.772 M143.034 135.704 C 142.756 137.325,142.552 137.640,141.654 137.822 C 140.232 138.111,135.241 139.598,134.000 140.101 C 133.450 140.324,132.640 140.645,132.200 140.813 C 130.193 141.580,127.628 142.772,123.303 144.949 C 122.810 145.197,122.405 145.523,122.403 145.674 C 122.401 145.825,124.335 144.981,126.700 143.799 C 130.429 141.935,138.734 138.924,142.094 138.218 C 143.293 137.966,143.765 136.877,143.511 134.948 C 143.385 133.987,143.307 134.111,143.034 135.704 M62.400 140.553 C 62.400 140.982,63.590 143.200,63.821 143.200 C 63.931 143.200,63.723 142.615,63.359 141.900 C 62.617 140.440,62.400 140.136,62.400 140.553 M64.000 143.762 C 64.000 147.292,84.489 168.045,86.243 166.291 C 86.339 166.194,85.019 165.201,83.309 164.083 C 76.136 159.393,70.748 153.932,66.030 146.568 C 64.913 144.826,64.000 143.563,64.000 143.762 M118.200 148.264 C 110.653 153.531,105.404 158.897,100.067 166.800 C 98.656 168.890,97.467 170.641,97.426 170.692 C 97.261 170.892,92.051 168.839,89.660 167.631 C 88.262 166.925,87.026 166.441,86.911 166.555 C 86.485 166.981,96.079 171.200,97.474 171.200 C 97.705 171.200,98.568 170.049,99.391 168.642 C 103.600 161.444,112.396 152.444,119.900 147.656 C 121.055 146.920,122.000 146.245,122.000 146.158 C 122.000 145.736,121.142 146.211,118.200 148.264 M382.700 153.647 C 381.510 154.950,381.209 155.590,381.241 156.745 L 381.283 158.200 381.675 156.724 C 381.892 155.912,382.604 154.686,383.260 154.000 C 383.915 153.315,384.395 152.585,384.326 152.379 C 384.257 152.173,383.525 152.744,382.700 153.647 M231.256 236.025 C 229.993 239.281,230.324 239.396,231.656 236.163 C 232.237 234.754,232.596 233.600,232.454 233.600 C 232.312 233.600,231.773 234.691,231.256 236.025 M262.700 233.898 C 264.735 233.971,266.400 234.080,266.400 234.140 C 266.400 234.249,265.293 236.606,263.312 240.713 C 262.752 241.876,262.378 242.911,262.482 243.015 C 262.686 243.219,266.800 234.617,266.800 233.985 C 266.800 233.759,265.191 233.634,262.900 233.683 L 259.000 233.766 262.700 233.898 M229.749 239.900 C 229.625 240.285,228.999 241.950,228.359 243.600 C 227.719 245.250,227.204 246.780,227.215 247.000 C 227.238 247.457,229.734 241.465,230.090 240.100 C 230.366 239.044,230.079 238.876,229.749 239.900 M261.603 244.100 C 261.605 244.375,260.905 246.040,260.048 247.800 C 259.191 249.560,257.855 252.350,257.078 254.000 C 256.301 255.650,254.481 259.493,253.033 262.539 C 251.585 265.586,250.400 268.136,250.400 268.207 C 250.400 268.373,246.322 277.048,244.713 280.305 C 244.033 281.682,243.566 282.899,243.675 283.009 C 243.785 283.119,244.701 281.452,245.710 279.304 C 246.719 277.157,248.345 273.690,249.324 271.600 C 250.303 269.510,252.041 265.820,253.187 263.400 C 254.333 260.980,255.776 257.920,256.395 256.600 C 257.013 255.280,258.617 251.881,259.960 249.047 C 262.648 243.371,262.562 243.600,262.000 243.600 C 261.780 243.600,261.601 243.825,261.603 244.100 M224.277 254.277 C 223.900 255.293,223.679 256.213,223.787 256.320 C 223.894 256.427,224.092 256.174,224.228 255.757 C 224.364 255.341,224.662 254.499,224.891 253.887 C 225.120 253.275,225.230 252.697,225.135 252.601 C 225.040 252.506,224.654 253.260,224.277 254.277 M221.877 260.677 C 221.500 261.693,221.258 262.591,221.338 262.672 C 221.419 262.752,221.800 261.993,222.185 260.985 C 222.570 259.976,222.812 259.079,222.723 258.990 C 222.635 258.901,222.254 259.660,221.877 260.677 M219.000 268.000 C 218.850 268.473,218.817 268.950,218.927 269.060 C 219.037 269.170,219.250 268.873,219.400 268.400 C 219.550 267.927,219.583 267.450,219.473 267.340 C 219.363 267.230,219.150 267.527,219.000 268.000 M213.464 282.707 C 212.879 284.199,212.409 285.595,212.421 285.810 C 212.432 286.024,212.979 284.872,213.636 283.249 C 214.294 281.626,214.763 280.230,214.680 280.147 C 214.597 280.063,214.049 281.216,213.464 282.707 M242.209 285.817 C 241.445 287.487,241.232 288.448,241.422 289.355 C 241.793 291.115,242.815 293.200,243.308 293.200 C 243.537 293.200,243.444 292.885,243.102 292.500 C 241.549 290.753,241.504 288.092,242.980 285.239 C 243.353 284.517,243.569 283.835,243.458 283.725 C 243.348 283.615,242.786 284.556,242.209 285.817 M210.453 290.653 C 209.529 292.993,208.865 294.999,208.977 295.111 C 209.089 295.223,209.292 294.974,209.427 294.557 C 209.562 294.141,209.820 293.440,210.000 293.000 C 211.289 289.844,212.411 286.678,212.284 286.551 C 212.201 286.468,211.377 288.314,210.453 290.653 M244.411 294.297 C 245.280 294.908,247.002 295.029,258.560 295.290 C 265.798 295.453,271.773 295.640,271.838 295.705 C 271.963 295.830,259.212 314.889,258.185 316.112 C 256.084 318.615,250.739 327.266,250.541 328.483 C 250.234 330.378,250.946 332.407,252.409 333.809 C 253.863 335.201,253.967 334.947,252.592 333.362 C 251.170 331.722,250.585 329.593,251.128 328.033 C 251.507 326.946,265.683 305.600,270.837 298.357 C 273.464 294.663,274.115 294.858,258.708 294.720 C 248.600 294.630,245.114 294.475,244.739 294.100 C 244.465 293.825,244.056 293.600,243.831 293.600 C 243.606 293.600,243.867 293.913,244.411 294.297 M207.480 298.480 C 206.876 300.039,206.471 301.404,206.581 301.514 C 206.691 301.624,206.892 301.374,207.029 300.957 C 207.165 300.541,207.642 299.249,208.090 298.086 C 208.538 296.923,208.831 295.898,208.742 295.808 C 208.652 295.719,208.084 296.921,207.480 298.480 M205.040 304.840 C 203.656 308.573,203.938 308.855,205.380 305.180 C 205.990 303.626,206.402 302.268,206.296 302.163 C 206.190 302.057,205.625 303.262,205.040 304.840 M203.441 309.036 C 202.949 310.318,203.782 310.400,217.368 310.400 L 231.088 310.400 232.638 311.451 C 233.490 312.030,234.425 312.795,234.716 313.151 C 235.180 313.721,235.196 313.702,234.852 313.000 C 233.474 310.186,232.379 310.000,217.219 310.000 C 203.872 310.000,203.678 309.988,203.884 309.200 C 204.133 308.250,203.792 308.124,203.441 309.036 M235.419 315.257 C 235.532 316.078,235.341 317.534,234.981 318.595 C 234.630 319.629,234.431 320.565,234.540 320.673 C 235.119 321.252,236.112 316.397,235.674 315.125 L 235.218 313.800 235.419 315.257 M233.000 324.000 C 232.850 324.473,232.817 324.950,232.927 325.060 C 233.037 325.170,233.250 324.873,233.400 324.400 C 233.550 323.927,233.583 323.450,233.473 323.340 C 233.363 323.230,233.150 323.527,233.000 324.000 M231.815 327.415 C 231.430 328.424,231.204 329.337,231.313 329.446 C 231.421 329.555,231.800 328.793,232.154 327.754 C 232.990 325.299,232.725 325.034,231.815 327.415 M230.800 330.072 C 230.800 330.258,229.762 333.170,227.546 339.200 C 226.328 342.514,226.017 343.637,226.378 343.414 C 226.558 343.303,226.797 342.804,226.911 342.306 C 227.025 341.808,227.486 340.410,227.936 339.200 C 230.413 332.542,231.182 330.249,231.001 330.068 C 230.891 329.957,230.800 329.959,230.800 330.072 M240.617 343.324 C 239.036 344.285,238.589 344.867,233.328 352.788 C 231.653 355.311,230.038 357.619,229.741 357.916 C 229.443 358.214,229.200 358.596,229.200 358.766 C 229.200 358.936,228.750 359.599,228.200 360.238 C 227.651 360.877,227.201 361.610,227.200 361.867 C 227.200 362.123,227.056 362.393,226.880 362.467 C 226.416 362.660,212.304 383.637,212.504 383.837 C 212.596 383.929,214.396 381.439,216.503 378.302 C 218.611 375.166,221.637 370.710,223.227 368.400 C 224.817 366.090,229.085 359.818,232.710 354.463 C 240.561 342.866,241.882 341.850,246.600 343.780 L 247.400 344.108 246.600 343.467 C 245.644 342.700,241.793 342.608,240.617 343.324 M225.483 344.684 C 225.363 345.078,225.073 346.018,224.839 346.773 C 224.605 347.528,224.554 347.978,224.725 347.773 C 225.187 347.219,226.103 344.369,225.888 344.154 C 225.785 344.052,225.603 344.290,225.483 344.684 M223.477 350.277 C 223.100 351.293,222.879 352.213,222.987 352.320 C 223.094 352.427,223.292 352.174,223.428 351.757 C 223.564 351.341,223.862 350.499,224.091 349.887 C 224.320 349.275,224.430 348.697,224.335 348.601 C 224.240 348.506,223.854 349.260,223.477 350.277 M219.000 362.400 C 218.850 362.873,218.817 363.350,218.927 363.460 C 219.037 363.570,219.250 363.273,219.400 362.800 C 219.550 362.327,219.583 361.850,219.473 361.740 C 219.363 361.630,219.150 361.927,219.000 362.400 M218.194 365.000 C 218.027 365.660,217.772 366.380,217.628 366.600 C 217.484 366.820,217.137 367.720,216.857 368.600 C 216.577 369.480,216.197 370.560,216.013 371.000 C 215.701 371.746,215.229 373.020,213.200 378.600 C 212.760 379.810,212.016 381.796,211.548 383.014 C 211.079 384.232,210.805 385.338,210.938 385.471 C 211.352 385.885,212.449 384.705,212.216 384.097 C 211.987 383.502,212.268 382.568,214.409 376.800 C 215.103 374.930,215.816 372.950,215.994 372.400 C 216.171 371.850,216.881 369.887,217.571 368.038 C 218.261 366.189,218.752 364.479,218.662 364.238 C 218.572 363.997,218.362 364.340,218.194 365.000 " stroke="none" fill="#989b9c" fill-rule="evenodd"></path></g></svg>